<svg width="122" height="90" viewBox="0 0 122 90" fill="none" xmlns="http://www.w3.org/2000/svg">
<g clip-path="url(#clip0_1948_37853)">
<path opacity="0.5" d="M47.3731 58.8484L32.7164 59.9991L30.526 37.7095L31.691 37.6167C32.3328 37.566 32.8027 36.969 32.7361 36.2896L32.6227 35.1414C32.6065 34.9802 32.6224 34.8174 32.6696 34.6625C32.7168 34.5077 32.7943 34.3639 32.8976 34.2397C33.0008 34.1155 33.1277 34.0134 33.2708 33.9394C33.4138 33.8654 33.5701 33.821 33.7305 33.8089L41.8156 33.1766C42.1433 33.1529 42.4674 33.2583 42.7194 33.4707C42.9714 33.6831 43.1317 33.9858 43.1664 34.3149L43.2783 35.4622L43.4001 36.6989L47.5437 36.3731L62.8675 36.61L64.3978 55.2611L61.6089 57.7324L47.3727 58.8484H47.3731Z" fill="#333333"/>
<path d="M53.0296 30L34.7542 39.5778L32.7921 60L50.9925 58.5597L61.2271 57.7502L67.7692 57.2337L69.7293 36.8125L53.0296 30Z" fill="#333333"/>
<path d="M44.4869 51.7059L42.4025 48.285H40.7066V51.7059H38.6725V42.0788H43.143C45.1347 42.0788 46.3524 43.3925 46.3524 45.1819C46.3524 46.8854 45.498 47.7943 44.4667 48.0401L46.8212 51.7054H44.4869V51.7059ZM44.2749 45.1814C44.2749 44.3734 43.6586 43.8827 42.8427 43.8827H40.7081V46.4801H42.8427C43.6586 46.4801 44.2754 45.9904 44.2754 45.1814H44.2749ZM48.0927 51.7059V42.0788H54.8566V43.8832H50.1268V45.9179H54.3443V47.7223H50.1268V49.9025H54.8561V51.7064H48.0922L48.0927 51.7059ZM55.9885 46.8993C55.9885 43.8539 58.2809 41.9199 61.0752 41.9199C63.0669 41.9199 64.3142 42.9296 65.03 44.0704L63.339 44.9942C62.9101 44.3158 62.0932 43.7377 61.0752 43.7377C59.3408 43.7377 58.0803 45.0806 58.0803 46.8993C58.0803 48.718 59.3413 50.0605 61.0752 50.0605C61.9207 50.0605 62.7238 49.685 63.1098 49.3244V48.2964H60.5881V46.4821H65.1434V50.0759C64.1697 51.1735 62.8091 51.8951 61.0752 51.8951C58.2814 51.8951 55.9885 49.9318 55.9885 46.9003V46.8993Z" fill="white"/>
<path d="M70.1022 50.695C70.1022 50.0602 70.6326 49.5254 71.2627 49.5254C71.8937 49.5254 72.4232 50.0593 72.4232 50.6945C72.4232 51.3292 71.8942 51.8631 71.2627 51.8631C70.6326 51.8631 70.1022 51.3297 70.1022 50.694V50.695ZM79.8571 51.7051L77.5686 48.2842H76.0783V51.7051H74.0437V42.0781H78.5142C80.5059 42.0781 81.7245 43.3918 81.7245 45.1812C81.7245 46.8847 80.6646 47.7935 79.6328 48.0394L82.1924 51.7046H79.8571V51.7051ZM79.6471 45.1807C79.6471 44.3726 79.0293 43.8819 78.2124 43.8819H76.0783V46.4794H78.2129C79.0298 46.4794 79.6476 45.9897 79.6476 45.1807H79.6471ZM83.2583 47.8656V42.0781H85.3219V47.793C85.3219 49.1365 85.8899 50.0597 87.3659 50.0597C88.8409 50.0597 89.3946 49.137 89.3946 47.7935V42.0781H91.474V47.8512C91.474 50.2475 90.2736 51.879 87.3664 51.879C84.4567 51.878 83.2588 50.2331 83.2588 47.8661L83.2583 47.8656Z" fill="#333333"/>
</g>
<defs>
<clipPath id="clip0_1948_37853">
<rect width="60.948" height="30" fill="white" transform="translate(30.526 30)"/>
</clipPath>
</defs>
</svg>
