<svg width="120" height="90" viewBox="0 0 120 90" fill="none" xmlns="http://www.w3.org/2000/svg">
<g clip-path="url(#clip0_2107_40074)">
<path fill-rule="evenodd" clip-rule="evenodd" d="M55.961 30.2398C57.3187 30.6892 57.8973 31.3055 59.2625 33.7562L60.0587 35.1858L54.4199 36.3791C51.3185 37.0353 48.7524 37.6007 48.7175 37.6358C48.6178 37.7355 47.493 41.6322 47.548 41.6872C47.5751 41.7142 48.9365 41.5236 50.5735 41.2637C52.2104 41.0036 53.5552 40.8006 53.5619 40.8125C53.5686 40.8244 52.5347 45.1465 51.2643 50.4171L48.9548 60L44.8461 59.9995C40.1922 59.9989 39.9627 59.9641 38.9946 59.1119C38.3375 58.5335 37.9256 57.9144 36.3998 55.2114C35.7327 54.0295 34.3305 51.6605 33.2837 49.9467C30.657 45.6461 30.5259 45.1482 31.5031 43.1858C31.7607 42.6684 32.4681 41.4509 33.0752 40.4802C34.176 38.7199 34.5086 38.1499 36.7904 34.113C38.5355 31.0258 39.1952 30.3849 40.9352 30.086C41.2791 30.0268 44.6558 29.9893 48.439 30.0027C54.7234 30.0248 55.3732 30.0453 55.961 30.2398ZM40.5963 30.6471C39.1706 31.1397 38.7978 31.5865 36.413 35.6605C35.5423 37.1479 34.318 39.1586 33.6923 40.1286C32.0906 42.6117 31.4711 43.8869 31.4114 44.8239C31.3496 45.7949 31.474 46.0627 33.3239 48.9405C34.1455 50.2187 35.2684 52.013 35.8192 52.9279C36.8761 54.6836 36.9188 54.6792 36.2215 52.8863C35.9228 52.1187 35.3051 51.0121 34.247 49.3492C31.9617 45.7578 31.8415 45.4636 32.1593 44.2408C32.3867 43.3663 32.766 42.6725 34.7931 39.4232C35.6806 38.0004 36.905 35.9725 37.5139 34.9167C38.8655 32.5731 39.4836 31.7769 40.2634 31.3756L40.8478 31.0748L45.731 31.002C49.5005 30.9458 50.8691 30.8846 51.7313 30.7334C52.3457 30.6257 52.9013 30.517 52.9659 30.4921C53.0306 30.4672 50.4115 30.4442 47.1456 30.4413C41.7282 30.4362 41.1541 30.4544 40.5963 30.6471ZM64.2428 39.3644L64.1647 39.9523H64.72H65.2754L65.1921 40.5696C65.1463 40.909 65.0852 41.2266 65.0565 41.2751C65.0277 41.3235 64.7519 41.3633 64.4436 41.3633H63.883L63.7442 42.2745C63.5061 43.8394 63.6058 44.1641 64.2791 44.0163C64.5881 43.9483 64.6209 43.9804 64.8217 44.5458C64.9393 44.8768 65.014 45.1693 64.9876 45.1956C64.8537 45.3294 63.5693 45.4977 63.2042 45.4292C62.0682 45.2161 61.8325 44.3311 62.2565 41.8714C62.341 41.3809 62.3405 41.3802 61.9485 41.3423L61.556 41.3045L61.5927 40.7175C61.6383 39.9895 61.6617 39.9523 62.0729 39.9523C62.4104 39.9523 62.5489 39.7798 62.5489 39.3593C62.5489 39.1977 62.6835 39.1037 63.0486 39.0099C63.3234 38.9392 63.6012 38.8619 63.6659 38.8382C63.7306 38.8144 63.9044 38.7908 64.052 38.7857C64.3072 38.7769 64.3168 38.806 64.2428 39.3644ZM60.5794 39.9585C60.822 40.0258 61.0203 40.119 61.0203 40.1657C61.0203 40.2314 60.5445 41.001 60.3634 41.228C60.3453 41.2506 60.1427 41.2071 59.913 41.1313C59.6833 41.0555 59.3857 41.0283 59.2515 41.0709C58.8172 41.2088 59.0293 41.6067 59.8445 42.1832C60.7642 42.8335 61.0799 43.367 60.9611 44.0702C60.8211 44.8985 59.9382 45.4786 58.8177 45.4786C58.4101 45.4786 57.1198 45.1521 56.9814 45.0139C56.8175 44.8504 57.4936 43.8028 57.7153 43.8768C58.6242 44.1797 58.9252 44.2291 59.1147 44.1064C59.4244 43.9056 59.3201 43.5731 58.8258 43.1858C58.5781 42.9918 58.1769 42.6408 57.9343 42.406C57.5505 42.0345 57.4929 41.9085 57.4929 41.4399C57.4929 41.005 57.5632 40.8211 57.8576 40.4857C58.0581 40.2573 58.3888 40.0221 58.5925 39.9631C59.1057 39.8145 60.0529 39.8122 60.5794 39.9585ZM88.0074 47.0529C89.1597 47.409 89.1596 47.4083 88.2942 48.7152C87.8766 49.3459 87.5057 49.907 87.4698 49.9623C87.4339 50.0175 87.09 49.9511 86.7055 49.8146C86.2732 49.6613 85.6852 49.5606 85.1645 49.5508C84.4234 49.5371 84.2858 49.5694 84.0181 49.8202C83.3589 50.4375 83.7354 51.0026 85.309 51.7581C88.3053 53.1966 89.351 54.5464 88.9884 56.5081C88.7588 57.7494 88.017 58.7226 86.849 59.3145C85.1039 60.1987 81.7185 60.1322 79.8325 59.1765L79.2452 58.8789L80.2082 57.6555L81.1712 56.4322L81.7076 56.7009C83.3094 57.5031 85.3401 57.3342 85.4542 56.3892C85.5142 55.8919 84.9718 55.4123 83.4746 54.6384C82.7053 54.2407 81.8618 53.7323 81.6005 53.5085C79.9599 52.1043 79.9735 49.6063 81.6296 48.1174C82.84 47.0291 83.7514 46.7517 85.8889 46.8211C86.7978 46.8506 87.6566 46.9445 88.0074 47.0529ZM59.9621 47.2459C59.9621 47.687 60.5589 55.4037 60.596 55.4406C60.6161 55.4607 61.3373 53.5714 62.1986 51.2423L63.7648 47.0072H65.5084C66.4675 47.0072 67.2522 47.0394 67.2522 47.0788C67.2522 47.1361 62.3985 58.1642 61.8357 59.3858L61.6854 59.712L59.9758 59.6797L58.2664 59.6473L57.4162 53.7094C56.9485 50.4435 56.5339 47.5995 56.4949 47.3893L56.4239 47.0072H58.1931C59.8924 47.0072 59.9621 47.0166 59.9621 47.2459ZM75.2825 47.4468C77.0238 48.261 78.408 50.4247 78.6154 52.657C78.8421 55.0964 77.2338 57.8779 74.9767 58.9498C73.6987 59.5566 72.6982 59.6971 69.6205 59.7019L66.9915 59.706L67.0529 59.4415C67.0866 59.2959 67.4978 56.4341 67.9667 53.0816L68.8192 46.9863L71.6513 47.0298L74.4835 47.0732L75.2825 47.4468ZM71.6672 49.9761C71.6356 50.1217 71.3965 51.6429 71.1358 53.3566C70.8751 55.0704 70.6324 56.5994 70.5965 56.7544L70.5313 57.0361L71.4578 56.9726C72.8734 56.8756 73.6674 56.5805 74.3842 55.885C74.8457 55.4371 75.0351 55.1443 75.1779 54.658C75.4167 53.8445 75.4176 52.6348 75.1801 51.835C74.8204 50.6238 73.5279 49.7116 72.1716 49.7116C71.8036 49.7116 71.7146 49.7583 71.6672 49.9761Z" fill="#333333"/>
</g>
<defs>
<clipPath id="clip0_2107_40074">
<rect width="58.1139" height="30" fill="white" transform="translate(30.9434 30)"/>
</clipPath>
</defs>
</svg>
