<svg width="30" height="30" viewBox="0 0 30 30" fill="none" xmlns="http://www.w3.org/2000/svg">
<g clip-path="url(#clip0_2006_5021)">
<path d="M15.7175 13.3101V23.7101H13.8103V12.5801L15.7175 13.3101Z" fill="black"/>
<path d="M8.09839 12.3401C8.09839 9.6801 9.5239 8.2301 11.1952 8.2301C12.8665 8.2301 13.1024 8.4701 14.9998 9.4401C16.8972 10.4101 17.379 10.6501 18.3326 10.6501C19.2862 10.6501 19.7581 9.9201 19.7581 8.4701H21.4195C21.6555 11.3701 19.994 12.5801 18.3227 12.5801C16.6515 12.5801 16.1796 12.3401 14.5181 11.3701C12.8566 10.4001 12.3749 10.1601 11.4213 10.1601C10.4677 10.1601 9.99579 10.8901 9.75985 12.5801L8.09839 12.3401Z" fill="black"/>
<path d="M15 30C6.86963 30 0.253296 23.27 0.253296 15C0.253296 6.73 6.86963 0 15 0C23.1303 0 29.7466 6.73 29.7466 15C29.7466 23.27 23.1303 30 15 30ZM15 0.97C7.39068 0.97 1.20691 7.26 1.20691 15C1.20691 22.74 7.39068 29.03 15 29.03C22.6092 29.03 28.793 22.74 28.793 15C28.793 7.26 22.6092 0.97 15 0.97Z" fill="black"/>
</g>
<defs>
<clipPath id="clip0_2006_5021">
<rect width="29.4933" height="30" fill="white" transform="translate(0.253296)"/>
</clipPath>
</defs>
</svg>
