<svg width="133" height="35" viewBox="0 0 133 35" fill="none" xmlns="http://www.w3.org/2000/svg">
<path fill-rule="evenodd" clip-rule="evenodd" d="M12.5 32C6.08093 31.4141 0.485549 19.8727 0 10.1387C4.57225 9.45616 9.09538 6.61768 12.5 3C15.711 6.57081 20.4277 9.45616 25 10.1387C24.5145 19.8727 18.9711 31.4141 12.5 32Z" fill="#0077FF"/>
<path fill-rule="evenodd" clip-rule="evenodd" d="M8.45 19.0143V18.2371L12.335 17.7314V16.68L8.45 17.46V16.6829L12.335 15.4771V14.5429L8.45 15.8629V15.1629L12.335 13.4114V12.2429L8.45 14.3857V13.8029L12.458 11L16.508 13.88V20H17V21H8V20H12.335V18.7829L8.45 19.0143Z" fill="white"/>
<path d="M32 23.7493V13.2507H36.1874C37.7964 13.2507 39.0322 13.7029 39.8949 14.6072C40.7673 15.5116 41.2035 16.8092 41.2035 18.5C41.2035 20.1908 40.7673 21.4884 39.8949 22.3928C39.0322 23.2971 37.7964 23.7493 36.1874 23.7493H32ZM34.2536 21.8324H35.9111C37.9175 21.8324 38.9208 20.7216 38.9208 18.5C38.9208 17.4285 38.6687 16.6077 38.1647 16.0375C37.6704 15.4576 36.9192 15.1676 35.9111 15.1676H34.2536V21.8324Z" fill="#333333"/>
<path d="M42.9222 23.7493V13.2507H47.1095C48.7186 13.2507 49.9544 13.7029 50.8171 14.6072C51.6894 15.5116 52.1256 16.8092 52.1256 18.5C52.1256 20.1908 51.6894 21.4884 50.8171 22.3928C49.9544 23.2971 48.7186 23.7493 47.1095 23.7493H42.9222ZM45.1758 21.8324H46.8333C48.8397 21.8324 49.8429 20.7216 49.8429 18.5C49.8429 17.4285 49.5909 16.6077 49.0869 16.0375C48.5925 15.4576 47.8413 15.1676 46.8333 15.1676H45.1758V21.8324Z" fill="#333333"/>
<path d="M58.5115 13C60.0236 13 61.2449 13.5112 62.1754 14.5335C63.1156 15.546 63.5858 16.8731 63.5858 18.5147C63.5858 20.1564 63.1156 21.4835 62.1754 22.496C61.2449 23.4987 60.0187 24 58.497 24C56.9655 24 55.7296 23.4987 54.7894 22.496C53.8492 21.4835 53.3791 20.1564 53.3791 18.5147C53.3791 16.8534 53.8443 15.5214 54.7749 14.5188C55.7151 13.5063 56.9606 13 58.5115 13ZM58.4824 14.8874C57.6294 14.8874 56.9461 15.2118 56.4324 15.8606C55.9283 16.5094 55.6763 17.3794 55.6763 18.4705C55.6763 19.601 55.9283 20.4857 56.4324 21.1247C56.9364 21.7636 57.6294 22.088 58.5115 22.0979C59.3742 22.0979 60.0527 21.7735 60.547 21.1247C61.0414 20.4759 61.2885 19.5912 61.2885 18.4705C61.2885 17.3695 61.0365 16.4996 60.5325 15.8606C60.0284 15.2118 59.3451 14.8874 58.4824 14.8874Z" fill="#333333"/>
<path d="M72.9538 16.3767H70.802C70.7147 15.3347 70.0604 14.8137 68.8391 14.8137C68.3157 14.8137 67.9038 14.9218 67.6033 15.1381C67.3125 15.3445 67.1671 15.6345 67.1671 16.008C67.1671 16.1358 67.1865 16.2489 67.2253 16.3472C67.264 16.4455 67.3367 16.5389 67.4434 16.6273C67.55 16.706 67.6566 16.7748 67.7632 16.8338C67.8698 16.8829 68.0249 16.9419 68.2285 17.0107C68.4417 17.0697 68.6307 17.1238 68.7955 17.1729C68.97 17.2221 69.2123 17.286 69.5225 17.3646C69.8327 17.4433 70.1041 17.517 70.3367 17.5858C71.3545 17.8807 72.1105 18.2493 72.6048 18.6917C73.1089 19.134 73.3609 19.7681 73.3609 20.5938C73.3609 21.1935 73.2397 21.7194 72.9974 22.1716C72.7551 22.6139 72.4255 22.9678 72.0087 23.2332C71.6016 23.4888 71.1509 23.6756 70.6566 23.7936C70.1719 23.9214 69.6533 23.9853 69.1008 23.9853C67.6954 23.9853 66.5952 23.6609 65.8004 23.0121C65.0153 22.3534 64.6179 21.4294 64.6082 20.2399H66.8618C66.9005 21.5572 67.6808 22.2158 69.2026 22.2158C69.7939 22.2158 70.2592 22.0929 70.5984 21.8472C70.9474 21.5916 71.1218 21.2475 71.1218 20.815C71.1218 20.4513 70.9619 20.1859 70.642 20.0188C70.3319 19.8517 69.6727 19.6206 68.6647 19.3257C68.4999 19.2864 68.3739 19.252 68.2866 19.2225C67.9377 19.1242 67.6954 19.0554 67.5597 19.0161C67.424 18.9669 67.2059 18.8883 66.9054 18.7802C66.6146 18.672 66.4014 18.5737 66.2657 18.4853C66.13 18.3968 65.9603 18.2739 65.7568 18.1166C65.5629 17.9593 65.4224 17.7971 65.3351 17.63C65.2479 17.4531 65.1655 17.2417 65.088 16.996C65.0201 16.7404 64.9862 16.4651 64.9862 16.1702C64.9862 15.2167 65.3497 14.4549 66.0766 13.8847C66.8036 13.3146 67.7681 13.0295 68.97 13.0295C70.1331 13.0295 71.083 13.3097 71.8197 13.87C72.5564 14.4205 72.9344 15.256 72.9538 16.3767Z" fill="#333333"/>
<path d="M79.0227 18.7949V20.6676H74.6464V18.7949H79.0227Z" fill="#333333"/>
<path d="M90.1632 18.0724V23.7493H88.7238L88.5057 22.555C87.7303 23.5183 86.6932 24 85.3943 24C83.9501 24 82.7772 23.4937 81.8758 22.4812C80.9743 21.4687 80.5236 20.1564 80.5236 18.5442C80.5236 16.9223 80.9986 15.6001 81.9485 14.5777C82.8984 13.5456 84.1197 13.0295 85.6124 13.0295C86.7949 13.0295 87.7933 13.3686 88.6075 14.0469C89.4217 14.7154 89.8967 15.6001 90.0324 16.7011H87.8369C87.7303 16.1506 87.4783 15.723 87.0809 15.4182C86.6835 15.1135 86.1843 14.9611 85.5833 14.9611C84.7206 14.9611 84.0421 15.2806 83.5478 15.9196C83.0535 16.5487 82.8063 17.4236 82.8063 18.5442C82.8063 19.6845 83.0535 20.5742 83.5478 21.2131C84.0518 21.8423 84.7546 22.1568 85.656 22.1568C86.3636 22.1568 86.9452 21.9406 87.4007 21.508C87.8563 21.0657 88.0986 20.4906 88.1277 19.7828H85.816V18.0724H90.1632Z" fill="#333333"/>
<path d="M100.934 13.2507V19.5617C100.934 21.0657 100.575 22.1765 99.858 22.8941C99.1504 23.6019 98.0405 23.9558 96.5284 23.9558C94.997 23.9558 93.8677 23.597 93.1407 22.8794C92.4235 22.1519 92.0648 21.0362 92.0648 19.5322V13.2507H94.333V19.5322C94.333 20.3874 94.4929 21.0214 94.8128 21.4343C95.1326 21.8472 95.7142 22.0536 96.5575 22.0536C97.3717 22.0536 97.9242 21.8472 98.215 21.4343C98.5155 21.0214 98.6657 20.3874 98.6657 19.5322V13.2507H100.934Z" fill="#333333"/>
<path d="M108.192 13.2359L112.132 23.7493H109.748L108.934 21.4048H105.081L104.237 23.7493H101.911L105.851 13.2359H108.192ZM108.381 19.7239L107.014 15.8164L105.633 19.7239H108.381Z" fill="#333333"/>
<path d="M113.231 13.2507H118.378C119.405 13.2507 120.244 13.4964 120.893 13.9879C121.543 14.4794 121.867 15.2265 121.867 16.2292C121.867 16.8387 121.722 17.3744 121.431 17.8365C121.14 18.2887 120.738 18.613 120.225 18.8097C121.116 18.9964 121.625 19.8123 121.751 21.2574C121.751 21.3065 121.761 21.4589 121.78 21.7145C121.8 21.9701 121.819 22.1765 121.838 22.3338C121.858 22.4812 121.882 22.6631 121.911 22.8794C121.94 23.0956 121.984 23.2775 122.042 23.4249C122.1 23.5724 122.168 23.6805 122.245 23.7493H119.89C119.813 23.592 119.754 23.3954 119.716 23.1595C119.677 22.9138 119.643 22.6041 119.614 22.2306C119.585 21.8472 119.57 21.6358 119.57 21.5965C119.493 20.8592 119.309 20.3481 119.018 20.063C118.737 19.7779 118.233 19.6354 117.506 19.6354H115.485V23.7493H113.231V13.2507ZM115.485 15.0643V17.9692H117.636C118.267 17.9692 118.756 17.8709 119.105 17.6743C119.464 17.4678 119.643 17.0697 119.643 16.4799C119.643 15.9294 119.468 15.5559 119.12 15.3592C118.78 15.1626 118.32 15.0643 117.738 15.0643H115.485Z" fill="#333333"/>
<path d="M123.797 23.7493V13.2507H127.984C129.593 13.2507 130.829 13.7029 131.691 14.6072C132.564 15.5116 133 16.8092 133 18.5C133 20.1908 132.564 21.4884 131.691 22.3928C130.829 23.2971 129.593 23.7493 127.984 23.7493H123.797ZM126.05 21.8324H127.708C129.714 21.8324 130.717 20.7216 130.717 18.5C130.717 17.4285 130.465 16.6077 129.961 16.0375C129.467 15.4576 128.716 15.1676 127.708 15.1676H126.05V21.8324Z" fill="#333333"/>
</svg>
