<svg width="20" height="21" viewBox="0 0 20 21" fill="none" xmlns="http://www.w3.org/2000/svg">
<path d="M16.0938 5.25C16.8555 5.25 17.5 5.89453 17.5 6.65625V15.0938C17.5 15.8848 16.8555 16.5 16.0938 16.5H3.90625C3.11523 16.5 2.5 15.8848 2.5 15.0938V6.65625C2.5 5.89453 3.11523 5.25 3.90625 5.25H16.0938ZM16.0938 6.65625H3.90625V7.85742C4.55078 8.41406 5.60547 9.23438 7.83203 10.9922C8.33008 11.373 9.29688 12.3105 10 12.2812C10.6738 12.3105 11.6406 11.373 12.1387 10.9922C14.3652 9.23438 15.4199 8.41406 16.0938 7.85742V6.65625ZM3.90625 15.0938H16.0938V9.67383C15.4199 10.2012 14.4531 10.9629 13.0176 12.1055C12.3438 12.6035 11.2305 13.7168 10 13.6875C8.74023 13.7168 7.59766 12.6035 6.95312 12.1055C5.51758 10.9629 4.55078 10.2012 3.90625 9.67383V15.0938Z" fill="white"/>
</svg>
