<svg width="20" height="21" viewBox="0 0 20 21" fill="none" xmlns="http://www.w3.org/2000/svg">
<path d="M16.4453 4.04883C17.0605 4.19531 17.5 4.75195 17.5 5.36719C17.5 12.5742 11.6406 18.375 4.46289 18.375C3.84766 18.375 3.29102 17.9648 3.14453 17.3496L2.5293 14.5957C2.38281 13.9512 2.70508 13.3066 3.29102 13.043L6.2793 11.7832C6.80664 11.5488 7.45117 11.6953 7.83203 12.1641L8.79883 13.3359C10.3223 12.4863 11.6113 11.2266 12.4316 9.70312L11.2598 8.73633C10.791 8.35547 10.6445 7.71094 10.8789 7.18359L12.168 4.19531C12.4023 3.60938 13.0469 3.28711 13.6914 3.43359L16.4453 4.04883ZM4.52148 16.9688C10.8789 16.9395 16.0645 11.7832 16.0938 5.42578L13.4277 4.81055L12.1973 7.68164L14.1895 9.32227C12.8125 12.2227 11.3184 13.7168 8.41797 15.0938L6.77734 13.1016L3.90625 14.332L4.52148 16.9688Z" fill="white"/>
</svg>
