<svg width="20" height="21" viewBox="0 0 20 21" fill="none" xmlns="http://www.w3.org/2000/svg">
<path d="M15.3906 3.58008C16.3867 2.99414 17.6465 3.84375 17.4707 5.01562L15.7422 16.3535C15.6543 16.793 15.4199 17.1445 15.0391 17.3789C14.8047 17.4961 14.5703 17.5547 14.3359 17.5547C14.1602 17.5547 13.9844 17.5254 13.8086 17.4375L10.5273 16.0898L9.23828 17.8184C8.44727 18.9023 6.71875 18.3457 6.71875 16.9688V14.5078L3.34961 13.1309C2.26562 12.6914 2.17773 11.1973 3.20312 10.6113L15.3906 3.58008ZM8.125 16.9688L9.17969 15.5332L8.125 15.0938V16.9688ZM14.3359 16.1484L16.0938 4.78125L3.90625 11.8125L7.04102 13.1309L13.252 7.74023C13.6621 7.35938 14.248 7.88672 13.9551 8.35547L9.82422 14.2734L14.3359 16.1484Z" fill="white"/>
</svg>
