<svg width="50" height="50" viewBox="0 0 50 50" fill="none" xmlns="http://www.w3.org/2000/svg">
<path fill-rule="evenodd" clip-rule="evenodd" d="M34 21C34 28.1797 28.1797 34 21 34C17.7701 34 14.8153 32.8221 12.5418 30.8724L30.8724 12.5418C32.8221 14.8153 34 17.7701 34 21ZM11.1276 29.4582L29.4582 11.1276C27.1847 9.17791 24.2299 8 21 8C13.8203 8 8 13.8203 8 21C8 24.2299 9.17791 27.1847 11.1276 29.4582ZM36 21C36 29.2843 29.2843 36 21 36C12.7157 36 6 29.2843 6 21C6 12.7157 12.7157 6 21 6C29.2843 6 36 12.7157 36 21ZM32.3137 30.8995L30.8995 32.3137L32.6172 34.0314C32.0845 35.1465 32.28 36.5226 33.2036 37.4462L39.5036 43.7461C40.6752 44.9177 42.5747 44.9177 43.7462 43.7461C44.9178 42.5746 44.9178 40.6751 43.7462 39.5035L37.4463 33.2035C36.5226 32.2799 35.1465 32.0844 34.0314 32.6172L32.3137 30.8995ZM40.9178 42.3319L34.6178 36.032C34.2273 35.6414 34.2273 35.0083 34.6178 34.6178C35.0084 34.2272 35.6415 34.2272 36.0321 34.6178L42.332 40.9177C42.7225 41.3082 42.7225 41.9414 42.332 42.3319C41.9415 42.7224 41.3083 42.7224 40.9178 42.3319Z" fill="#333333"/>
<path fill-rule="evenodd" clip-rule="evenodd" d="M21 9C20.4477 9 20 9.44772 20 10V11.7639C19.9599 11.7717 19.92 11.7799 19.8803 11.7887C18.5015 12.0928 17.4579 13.0009 16.9652 14.1996C16.17 16.1346 16.8628 18.4589 19.0607 20.1527L20.4845 18.7289C18.6414 17.4414 18.445 15.8604 18.8151 14.9599C19.0573 14.3706 19.5686 13.9055 20.311 13.7417C21.0603 13.5765 22.1414 13.7028 23.4786 14.52C23.9498 14.808 24.5653 14.6594 24.8533 14.1881C25.1413 13.7169 24.9927 13.1014 24.5215 12.8134C23.6574 12.2854 22.8086 11.9477 22 11.7876V10C22 9.44772 21.5523 9 21 9ZM24.1139 20.7563L22.6894 22.1809C24.6272 23.5389 24.8871 25.3491 24.3594 26.5176C23.729 27.9136 21.5923 29.1989 17.9008 27.5839C17.3948 27.3625 16.8052 27.5932 16.5839 28.0992C16.3625 28.6052 16.5932 29.1948 17.0992 29.4162C18.1157 29.8609 19.0894 30.1328 20 30.2525V32C20 32.5523 20.4477 33 21 33C21.5523 33 22 32.5523 22 32V30.266C23.9701 30.01 25.464 28.9313 26.1822 27.3407C27.1615 25.1721 26.4556 22.566 24.1139 20.7563Z" fill="#0077FF"/>
</svg>
