<svg width="50" height="50" viewBox="0 0 50 50" fill="none" xmlns="http://www.w3.org/2000/svg">
<path d="M33.9665 29.5504V39.7069C33.9665 39.8965 33.8594 40.0697 33.6898 40.1543L24.8231 44.5784C24.4639 44.7576 24.0497 44.4585 24.0949 44.0597C25.4045 32.5005 21.19 27.6373 15.9873 26.0799M20.4821 16.0942H10.7959C10.6101 16.0942 10.4396 16.1973 10.3532 16.3618L5.57654 25.4618C5.36736 25.8603 5.75333 26.3207 6.1881 26.2043C9.10315 25.424 12.7379 25.1072 15.9873 26.0799M15.9873 26.0799C18.3061 17.6446 27.0844 1.80362 43.6994 5.56902C43.8571 5.60475 43.9902 5.71294 44.0478 5.86399C46.4387 12.1332 45.7814 26.162 24.4775 34.0357" stroke="#333333" stroke-width="2" stroke-linecap="round"/>
<path d="M6.00285 43.9344C6.04367 41.2132 6.524 37.9285 7.75856 35.4839C8.45051 34.1138 9.34093 33.0828 10.4483 32.5145C11.5335 31.9575 12.9524 31.7804 14.8507 32.3484C16.2608 32.7703 17.3869 33.8158 17.7522 35.1272C18.2475 36.9048 18.0906 38.8628 16.475 40.4854C14.8928 42.0745 11.7676 43.4965 6.00285 43.9344Z" stroke="#0077FF" stroke-width="2" stroke-linecap="round"/>
<circle cx="34" cy="16" r="4" stroke="#0077FF" stroke-width="2"/>
</svg>
