<svg width="50" height="50" viewBox="0 0 50 50" fill="none" xmlns="http://www.w3.org/2000/svg">
<path d="M20 24.1111L7 12.4444V8H39V12.4444L26 24.1111V35.6667L20 41V24.1111Z" stroke="#333333" stroke-width="2" stroke-linejoin="round"/>
<path fill-rule="evenodd" clip-rule="evenodd" d="M30 26C29.4477 26 29 26.4477 29 27V31V35C29 35.5523 29.4477 36 30 36H35L35 37.1707C34.1476 37.472 33.472 38.1476 33.1707 39H30C29.4477 39 29 39.4477 29 40C29 40.5523 29.4477 41 30 41H33.1707C33.5825 42.1652 34.6938 43 36 43C37.3062 43 38.4175 42.1652 38.8293 41H42C42.5523 41 43 40.5523 43 40C43 39.4477 42.5523 39 42 39H38.8293C38.528 38.1476 37.8524 37.472 37 37.1707L37 36H42C42.5523 36 43 35.5523 43 35V31V27C43 26.4477 42.5523 26 42 26H30ZM41 30V28H31V30L41 30ZM31 32L41 32V34H36H31V32ZM36 39C35.4477 39 35 39.4477 35 40C35 40.5523 35.4477 41 36 41C36.5523 41 37 40.5523 37 40C37 39.4477 36.5523 39 36 39Z" fill="#0077FF"/>
</svg>
