<svg width="50" height="50" viewBox="0 0 50 50" fill="none" xmlns="http://www.w3.org/2000/svg">
<path d="M24.9659 47V39.3588C24.9659 39.0637 24.8477 38.7809 24.638 38.5741L23.5792 37.53M22.6705 36.1966L22.0439 35.2771C21.7561 34.8547 21.2046 34.6773 20.794 34.9806C20.1663 35.4442 19.7154 36.0727 19.4489 36.5154C19.2538 36.8394 18.9362 37.0879 18.5594 37.1046C18.3913 37.1121 18.2001 37.1146 18.0025 37.1055M22.6705 36.1966L23.5792 37.53M22.6705 36.1966C22.6705 36.1966 20.4295 38.6114 19.7433 40.5385C19.3771 41.567 19.1629 43.2735 19.1629 43.2735M23.5792 37.53C23.5792 37.53 22.6002 39.2947 22.3375 40.5385C22.0396 41.9492 22.3375 44.2308 22.3375 44.2308M18.0025 37.1055C17.8136 37.0969 17.6187 37.0778 17.4322 37.0424C17.0519 36.9703 16.8318 36.6053 16.9182 36.2265C17.0713 35.5556 17.4774 34.518 18.3587 33.25M18.0025 37.1055L17.3663 38.6454C17.2301 38.975 16.9431 39.2178 16.5965 39.2967L15.6473 39.5128M15.7497 12.3725C14.1806 13.5554 14.1535 16.1351 14.4184 15.9916C17.8337 14.1414 19.3971 15.3102 19.9594 17.3C20.0095 17.4773 20.0516 17.6612 20.0864 17.85M15.7497 12.3725L15.1323 9.22307C15.034 8.72189 15.2924 8.21875 15.756 8.00833L17.1492 7.37607M15.7497 12.3725C16.4228 11.8649 17.3798 11.6145 18.7193 11.9464M17.1492 7.37607V5.94017M17.1492 7.37607L18.6214 8.0143C19.0964 8.22024 19.3632 8.73174 19.2612 9.24101L18.7193 11.9464M18.7193 11.9464C19.3572 12.1045 20.0819 12.3946 20.9039 12.852M20.9039 12.852C21.6327 13.2575 22.4381 13.7944 23.3274 14.4872M20.9039 12.852L22.4399 10.5214M22.4399 10.5214L21.5154 7.53186C21.3589 7.02549 21.5844 6.47903 22.0518 6.23219L25 4.67521M22.4399 10.5214H27.5601M25 4.67521V3M25 4.67521L27.9482 6.23219C28.4156 6.47903 28.6411 7.02549 28.4846 7.53186L27.5601 10.5214M15.6473 39.5128L15.6227 39.5184M15.6473 39.5128L12.7459 36.5385L15.6227 39.5184M15.6473 39.5128L16.7395 40.6752L15.6227 39.5184M15.6227 39.5184L14.1454 39.8547M25.0341 47V39.3588C25.0341 39.0637 25.1523 38.7809 25.362 38.5741L26.4208 37.53M27.3295 36.1966L27.9561 35.2771C28.2439 34.8547 28.7954 34.6773 29.206 34.9806C29.8337 35.4442 30.2846 36.0727 30.5511 36.5154C30.7462 36.8394 31.0638 37.0879 31.4406 37.1046C31.6087 37.1121 31.7999 37.1146 31.9975 37.1055M27.3295 36.1966L26.4208 37.53M27.3295 36.1966C27.3295 36.1966 29.5705 38.6114 30.2567 40.5385C30.6229 41.567 30.8371 43.2735 30.8371 43.2735M26.4208 37.53C26.4208 37.53 27.3998 39.2947 27.6625 40.5385C27.9604 41.9492 27.6625 44.2308 27.6625 44.2308M31.9975 37.1055C32.1864 37.0969 32.3813 37.0778 32.5678 37.0424C32.9481 36.9703 33.1682 36.6053 33.0818 36.2265C32.9287 35.5556 32.5226 34.518 31.6413 33.25M31.9975 37.1055L32.6337 38.6454C32.7699 38.975 33.0569 39.2178 33.4035 39.2967L34.3527 39.5128M34.2503 12.3725C35.8194 13.5554 35.8465 16.1351 35.5816 15.9916C32.1663 14.1414 30.6029 15.3102 30.0406 17.3M34.2503 12.3725L34.8677 9.22307C34.966 8.72189 34.7076 8.21875 34.244 8.00833L32.8508 7.37607M34.2503 12.3725C33.5772 11.8649 32.6202 11.6145 31.2807 11.9464M32.8508 7.37607V5.94017M32.8508 7.37607L31.3786 8.0143C30.9036 8.22024 30.6368 8.73174 30.7388 9.24101L31.2807 11.9464M31.2807 11.9464C30.6428 12.1045 29.9181 12.3946 29.0961 12.852M29.0961 12.852C28.3673 13.2575 27.5619 13.7944 26.6726 14.4872M29.0961 12.852L27.5601 10.5214M34.3527 39.5128L34.3773 39.5184M34.3527 39.5128L37.2541 36.5385L34.3773 39.5184M34.3527 39.5128L33.2605 40.6752L34.3773 39.5184M34.3773 39.5184L35.8546 39.8547M33.7022 30.7077C34.0021 30.4 34.4962 30.4023 34.7933 30.7128L35.3136 31.2566C35.782 31.746 36.6056 31.4132 36.6056 30.7346C36.6056 30.1617 37.2202 29.7923 37.7351 30.0391C38.3304 30.3244 39.0332 30.6283 39.507 30.7265C39.6297 30.7519 39.7616 30.7753 39.8986 30.7967C40.7821 30.935 41.3301 29.9565 40.722 29.2984C40.5678 29.1316 40.4109 28.9763 40.2579 28.8462C39.5473 28.2417 39.6664 26.8364 40.5531 26.5503C41.0059 26.4043 41.448 26.2445 41.8281 26.0769C42.3781 25.8344 43.0113 25.4815 43.5909 25.133C44.2233 24.7528 43.9896 23.8255 43.2556 23.7575C42.4038 23.6786 42.2194 22.3475 42.9631 21.9232C43.0916 21.8499 43.2146 21.7756 43.33 21.7009C43.7471 21.4307 44.1995 21.0667 44.6268 20.6917C45.2648 20.1316 44.7785 19.1576 43.9387 19.2721C43.0283 19.3962 42.4749 18.159 43.1201 17.5024C43.7239 16.8879 44.3154 16.2153 44.7295 15.5812C45.1809 14.8901 45.5872 13.9914 45.9235 13.1198C46.3014 12.1402 45.1996 11.3888 44.3758 12.0365C39.6612 15.7441 34.4356 19.9538 34.6941 21.2223C35.0775 23.1039 34.5637 23.9282 33.8421 24.1851M16.2978 30.7077C15.9979 30.4 15.5038 30.4023 15.2067 30.7128L14.6864 31.2566C14.218 31.746 13.3944 31.4132 13.3944 30.7346C13.3944 30.1617 12.7798 29.7923 12.2648 30.0391C11.6696 30.3244 10.9668 30.6283 10.493 30.7265C10.3703 30.7519 10.2384 30.7753 10.1014 30.7967C9.21789 30.935 8.66986 29.9565 9.27801 29.2984C9.43217 29.1316 9.58907 28.9763 9.74205 28.8462C10.4527 28.2417 10.3336 26.8364 9.4469 26.5503C8.99411 26.4043 8.55199 26.2445 8.17189 26.0769C7.62191 25.8344 6.98874 25.4815 6.40906 25.133C5.77667 24.7528 6.01042 23.8255 6.74442 23.7575C7.59619 23.6786 7.78058 22.3475 7.0369 21.9232C6.90838 21.8499 6.78538 21.7756 6.66999 21.7009C6.25294 21.4307 5.80045 21.0667 5.3732 20.6917C4.73523 20.1316 5.22149 19.1576 6.06128 19.2721C6.97171 19.3962 7.52512 18.159 6.87987 17.5024C6.27606 16.8879 5.68464 16.2153 5.27049 15.5812C4.81912 14.8901 4.41284 13.9914 4.07654 13.1198C3.69862 12.1402 4.80043 11.3888 5.62418 12.0365C10.3388 15.7441 15.5644 19.9538 15.3059 21.2223C14.9225 23.1039 15.4363 23.9282 16.1579 24.1851" stroke="#333333" stroke-width="1.5" stroke-linecap="round"/>
<path d="M19.8876 20.7644C19.8876 20.7621 19.8876 20.762 19.8883 20.7606L19.8884 20.7604C19.8898 20.7575 19.8945 20.7494 19.906 20.7394C19.9315 20.7172 19.967 20.7053 20.0006 20.708C20.7589 20.7688 21.876 20.7982 22.7624 20.5133C23.5051 20.2746 24.2429 19.7656 24.7247 19.3961C24.7499 19.3767 24.7883 19.3616 24.8357 19.3616C24.8831 19.3616 24.9215 19.3767 24.9467 19.3961C25.4284 19.7656 26.1663 20.2746 26.9089 20.5133C27.7954 20.7982 28.9125 20.7688 29.6708 20.708C29.7043 20.7053 29.7398 20.7172 29.7654 20.7394C29.7769 20.7494 29.7816 20.7575 29.783 20.7604L29.7831 20.7606C29.7837 20.7619 29.7838 20.7621 29.7838 20.7644V29.7808C29.0511 30.0377 27.9251 30.4322 27.4822 30.5858C26.3913 30.9639 25.4906 31.4354 24.9269 31.7638C24.8738 31.7947 24.7975 31.7947 24.7445 31.7638L24.2412 32.6279L24.7445 31.7638C24.1807 31.4354 23.28 30.9639 22.1892 30.5858L21.8616 31.5306L22.1892 30.5858C21.7462 30.4322 20.6202 30.0377 19.8876 29.7808V20.7644Z" stroke="#0077FF" stroke-width="2"/>
</svg>
