<svg width="111" height="30" viewBox="0 0 111 30" fill="none" xmlns="http://www.w3.org/2000/svg">
<g clip-path="url(#clip0_2180_8866)">
<path d="M12.4853 25.6394C19.1047 25.6394 24.4707 20.8759 24.4707 14.9999C24.4707 9.1239 19.1047 4.36047 12.4853 4.36047C5.86602 4.36047 0.5 9.1239 0.5 14.9999C0.5 20.8759 5.86602 25.6394 12.4853 25.6394Z" fill="#333333"/>
<path d="M33.8068 11.3172C33.2018 11.3172 32.0205 11.3428 31.5307 11.3683H31.3867L31.4155 18.683H31.5884C32.3375 18.683 33.2594 18.7086 33.7492 18.7086C36.8895 18.7086 38.4741 16.995 38.4453 14.949C38.4453 12.9796 37.0913 11.2916 33.8068 11.3172ZM33.778 17.4809C33.5763 17.4809 33.2594 17.4809 32.856 17.4553L32.8272 12.5448C33.1441 12.5193 33.4323 12.5193 33.778 12.5193C35.7371 12.5193 36.8895 13.44 36.9184 14.9234C36.9184 16.4579 35.7659 17.4809 33.778 17.4809Z" fill="#333333"/>
<path d="M44.3793 15.9974C44.3793 14.6675 43.2269 13.8235 41.8728 13.8235C40.1154 13.8235 39.0781 14.9233 39.0781 16.3043C39.0781 17.7877 40.2306 18.7596 41.9304 18.7596C42.6794 18.7596 43.4285 18.555 43.9472 18.1714L43.5438 17.3273C43.2269 17.5575 42.7083 17.7622 42.0457 17.7622C41.2102 17.7622 40.5763 17.3785 40.4611 16.6624L44.2929 16.6368C44.3505 16.4578 44.3793 16.2788 44.3793 15.9974ZM40.4034 15.844C40.5475 15.2302 40.9796 14.8209 41.7864 14.8209C42.5642 14.8209 43.0252 15.2558 42.9964 15.844H40.4034Z" fill="#333333"/>
<path d="M62.8459 13.8237C61.0885 13.8237 59.9648 14.8978 59.9648 16.3045C59.9648 17.7112 61.1173 18.7598 62.8747 18.7598C64.6323 18.7598 65.7558 17.6856 65.7558 16.2789C65.727 14.8723 64.6034 13.7981 62.8459 13.8237ZM62.8747 17.6344C62.0392 17.6344 61.4342 17.0718 61.4342 16.2789C61.4342 15.4605 62.068 14.949 62.8747 14.9234C63.7103 14.9234 64.3153 15.4605 64.3441 16.2533C64.3153 17.0973 63.6814 17.6344 62.8747 17.6344Z" fill="#333333"/>
<path d="M47.8943 15.9461C47.7503 16.2529 47.6062 16.6877 47.5198 17.0457C47.4334 16.6877 47.2605 16.2529 47.1164 15.9716L46.1369 13.9511H44.5234L46.9724 18.657H47.9807L50.2568 13.9255H48.8451L47.8943 15.9461Z" fill="#333333"/>
<path d="M51.8707 11.6239C51.4097 11.6239 51.0352 11.9052 51.0352 12.34C51.0352 12.8259 51.4385 13.0817 51.8995 13.0817C52.3028 13.0817 52.6774 12.8004 52.6774 12.3144C52.6486 11.9052 52.2452 11.6239 51.8707 11.6239Z" fill="#333333"/>
<path d="M51.1793 18.6826H52.5334L52.5045 13.9767H51.1504L51.1793 18.6826Z" fill="#333333"/>
<path d="M56.9124 13.8746C56.2785 13.8746 55.7023 14.1303 55.3854 14.4372V13.9769H54.0312L54.0601 18.6827H55.4142V15.4603C55.7311 15.1789 56.1056 14.9999 56.5666 14.9999C57.3157 14.9999 57.7479 15.358 57.7479 16.0997V18.6572H59.102V15.8695C59.102 14.4372 58.2089 13.8746 56.9124 13.8746Z" fill="#333333"/>
<path d="M75.928 11.3428L69.1289 11.3684V12.5704H71.8086L71.8365 18.683H73.2775L73.2483 12.5704L75.928 12.5449V11.3428Z" fill="#333333"/>
<path d="M80.2481 15.9974C80.2481 14.6675 79.0959 13.8235 77.7421 13.8235C75.9844 13.8235 74.9473 14.9233 74.9473 16.3043C74.9473 17.7877 76.0995 18.7596 77.7993 18.7596C78.5491 18.7596 79.2975 18.555 79.8164 18.1714L79.4132 17.3273C79.0959 17.5575 78.577 17.7622 77.9144 17.7622C77.0795 17.7622 76.4455 17.3785 76.3304 16.6624L80.1623 16.6368C80.2195 16.4578 80.2481 16.2788 80.2481 15.9974ZM76.3011 15.844C76.4455 15.2302 76.8779 14.8209 77.6842 14.8209C78.4619 14.8209 78.9229 15.2558 78.8943 15.844H76.3011Z" fill="#333333"/>
<path d="M89.295 15.9974C89.295 14.6675 88.1428 13.8235 86.7883 13.8235C85.0313 13.8235 83.9941 14.9233 83.9941 16.3043C83.9941 17.7877 85.1464 18.7596 86.8462 18.7596C87.5952 18.7596 88.345 18.555 88.8626 18.1714L88.4594 17.3273C88.1428 17.5575 87.6245 17.7622 86.9612 17.7622C86.1257 17.7622 85.4923 17.3785 85.3766 16.6624L89.2092 16.6368C89.2664 16.4578 89.295 16.2788 89.295 15.9974ZM85.348 15.844C85.4923 15.2302 85.9241 14.8209 86.7311 14.8209C87.5088 14.8209 87.9698 15.2558 87.9412 15.844H85.348Z" fill="#333333"/>
<path d="M98.3708 13.8237C96.6139 13.8237 95.4902 14.8978 95.4902 16.3045C95.4902 17.7112 96.6425 18.7598 98.3995 18.7598C100.158 18.7598 101.281 17.6856 101.281 16.2789C101.252 14.8723 100.128 13.7981 98.3708 13.8237ZM98.3708 17.6344C97.5353 17.6344 96.9299 17.0718 96.9299 16.2789C96.9299 15.4605 97.5645 14.949 98.3708 14.9234C99.2064 14.9234 99.8112 15.4605 99.8404 16.2533C99.8112 17.0973 99.2064 17.6344 98.3708 17.6344Z" fill="#333333"/>
<path d="M81.5469 18.6829H82.9007L82.8714 11.266H81.5176L81.5469 18.6829Z" fill="#333333"/>
<path d="M108.772 13.8746C107.936 13.8746 107.36 14.1815 106.985 14.6418C106.784 14.2071 106.266 13.9002 105.429 13.9002C104.767 13.9002 104.133 14.1303 103.758 14.514V14.0025H102.404L102.434 18.7083H103.787V15.537C104.018 15.2301 104.421 15.0254 104.882 15.0254C105.459 15.0254 105.776 15.358 105.776 15.8439V18.7083H107.13V15.9206C107.13 15.8183 107.13 15.6393 107.13 15.5626C107.302 15.2301 107.705 15.0254 108.224 15.0254C108.858 15.0254 109.146 15.3324 109.146 15.9206V18.7083H110.5V15.6137C110.471 14.3094 109.752 13.8746 108.772 13.8746Z" fill="#333333"/>
<path d="M93.012 17.6343C92.205 17.6343 91.4852 17.1228 91.4852 16.2788C91.4852 15.4604 92.205 14.9489 92.9541 14.9233C93.4445 14.9233 93.8762 15.0256 94.28 15.3837L94.9141 14.4374C94.4237 14.0026 93.646 13.798 92.7818 13.798C91.1686 13.798 90.0449 14.8978 90.0449 16.2788C90.0449 17.7622 91.1972 18.7341 92.9255 18.7341C93.7904 18.7341 94.5967 18.4528 95.0285 17.9157L94.3951 17.0461C94.0499 17.3786 93.5882 17.6343 93.012 17.6343Z" fill="#333333"/>
</g>
<defs>
<clipPath id="clip0_2180_8866">
<rect width="110" height="30" fill="white" transform="translate(0.5)"/>
</clipPath>
</defs>
</svg>
