<svg width="65" height="30" viewBox="0 0 65 30" fill="none" xmlns="http://www.w3.org/2000/svg">
<g clip-path="url(#clip0_2180_13078)">
<g clip-path="url(#clip1_2180_13078)">
<path d="M9.32036 5.31459L9.29561 1.2181L7.16929 0V3.23871L4.79342 0.882353L4.1582 3.23461L7.78594 6.83772L9.32036 5.31459Z" fill="#333333"/>
<path d="M9.83594 5.31459L9.86069 1.2181L11.987 0V3.23871L14.3629 0.882353L14.9981 3.23461L11.3704 6.83772L9.83594 5.31459Z" fill="#333333"/>
<path d="M5.85396 9.26782L1.72712 9.29239L0.5 11.4031H3.7627L1.38889 13.7615L3.75857 14.392L7.38837 10.791L5.85396 9.26782Z" fill="#333333"/>
<path d="M5.85396 8.75591L1.72712 8.73135L0.5 6.62066H3.7627L1.38889 4.26226L3.75857 3.63171L7.38837 7.23278L5.85396 8.75591Z" fill="#333333"/>
<path d="M9.83594 12.7112L9.86069 16.8057L11.987 18.0238V14.7851L14.3629 17.1435L14.9981 14.7891L11.3704 11.186L9.83594 12.7112Z" fill="#333333"/>
<path d="M9.32036 12.7112L9.29561 16.8057L7.16929 18.0238V14.7851L4.79342 17.1435L4.1582 14.7891L7.78594 11.186L9.32036 12.7112Z" fill="#333333"/>
<path d="M13.306 8.75591L17.4308 8.73135L18.6579 6.62066H15.3952L17.7711 4.26226L15.3993 3.63171L11.7695 7.23278L13.306 8.75591Z" fill="#333333"/>
<path d="M13.306 9.26782L17.4308 9.29239L18.6579 11.4031H15.3952L17.7711 13.7615L15.3993 14.392L11.7695 10.791L13.306 9.26782Z" fill="#333333"/>
<path d="M52.4322 20.4026V21.7497H50.838V26.2147H49.0272V21.7497H47.5814L47.1133 20.4026H52.4322Z" fill="#333333"/>
<path d="M53.3418 26.2147V20.4026H57.8605V21.7497H55.1526V22.6914H57.2768V23.9422H55.1526V24.8676H57.976V26.2147H53.3418Z" fill="#333333"/>
<path d="M60.6858 24.8676H62.8348L63.3029 26.2147H58.875V20.4026H60.6858V24.8676Z" fill="#333333"/>
<path d="M37.5764 23.9422H39.9007V22.6934H37.5764V21.7497H40.4864V20.4026H35.7656V26.2147H40.6019V24.8676H37.5764V23.9422Z" fill="#333333"/>
<path d="M47.1261 26.2147L45.6515 23.9279C45.8618 23.8522 46.0475 23.7518 46.2021 23.6249C46.5919 23.3076 46.7879 22.8408 46.7879 22.2246C46.7879 21.6719 46.5878 21.2317 46.1898 20.9001C45.7897 20.5684 45.2266 20.4026 44.5007 20.4026H41.502V26.2147H43.2756V24.1981H44.016L45.1483 26.2147H47.1261ZM43.2756 21.7149H44.2078C44.4615 21.7149 44.6533 21.764 44.7791 21.8643C44.907 21.9646 44.9688 22.1263 44.9688 22.3495C44.9688 22.5726 44.9049 22.7323 44.7791 22.8285C44.6512 22.9248 44.4615 22.9739 44.2078 22.9739H43.2756V21.7149Z" fill="#333333"/>
<path d="M13.5111 23.1766L13.2182 24.3251H13.2017L12.9089 23.1766L12.1231 20.4313H9.57812V26.2208H11.1682V23.9034L11.1332 22.0363H11.16L12.4242 26.2208H13.8741L15.1548 22.0363H15.1713L15.1363 23.9034V26.2208H16.7284V20.4313H14.2969L13.5111 23.1766Z" fill="#333333"/>
<path d="M19.2914 20.4313L17.3301 26.2208H19.1326L19.4688 25.0191H21.2466L21.5745 26.2208H23.4306L21.459 20.4313H19.2914ZM19.7884 23.8604L20.1122 22.7016L20.3515 21.764H20.37L20.6175 22.7119L20.931 23.8604H19.7884Z" fill="#333333"/>
<path d="M29.2754 21.7722H31.1501V26.2208H32.9526V21.7722H34.8088V20.4313H29.2754V21.7722Z" fill="#333333"/>
<path d="M28.7229 23.4734C28.56 23.2544 28.3455 23.0824 28.0733 22.9596C27.5226 22.7098 26.9204 22.6075 26.3326 22.4744C26.1264 22.4273 25.9655 22.3741 25.85 22.3168C25.7366 22.2594 25.6644 22.1386 25.6892 22.0117C25.7572 21.6575 26.5327 21.6801 26.8008 21.6903C27.4504 21.719 27.997 21.807 28.4321 21.9114V20.5152C27.9 20.3821 27.1823 20.3412 26.644 20.3412C26.0893 20.3412 25.419 20.4231 25.0251 20.5869C24.6312 20.7506 24.33 20.9779 24.1238 21.2706C23.9176 21.5634 23.8145 21.8991 23.8145 22.2799C23.8145 22.6361 23.8949 22.9248 24.0578 23.1438C24.2207 23.3629 24.4373 23.5349 24.7075 23.6577C25.0849 23.8276 25.4891 23.93 25.8913 24.02C26.2336 24.0958 26.6131 24.1388 26.9287 24.3005C27.0421 24.3578 27.1143 24.4786 27.0895 24.6056C27.0215 24.9597 26.4419 24.9372 26.1759 24.927C25.6129 24.9024 24.8209 24.8103 23.9898 24.5605V25.9485C24.856 26.1512 25.982 26.2761 26.3326 26.2761C26.8874 26.2761 27.3618 26.1942 27.7557 26.0304C28.1496 25.8666 28.4507 25.6394 28.6569 25.3466C28.8632 25.0539 28.9663 24.7181 28.9663 24.3374C28.9663 23.9791 28.8859 23.6925 28.7229 23.4734Z" fill="#333333"/>
<path d="M9.57812 28.5957H9.81942V29.1628H10.4753V28.5957H10.7166V29.9592H10.4753V29.3839H9.81942V29.9592H9.57812V28.5957Z" fill="#333333"/>
<path d="M11.6719 28.5956H11.9132V29.959H11.6719V28.5956Z" fill="#333333"/>
<path d="M12.8086 29.2774C12.8086 28.8966 13.1035 28.5731 13.516 28.5731C13.7552 28.5731 13.9017 28.6386 14.044 28.7574L13.8913 28.9375C13.7862 28.8474 13.681 28.7922 13.5077 28.7922C13.2541 28.7922 13.0623 29.0133 13.0623 29.2774C13.0623 29.5578 13.2479 29.7646 13.5284 29.7646C13.6583 29.7646 13.7759 29.7237 13.8604 29.6622V29.4063H13.5098V29.1975H14.0935V29.7707C13.9573 29.8854 13.7635 29.9837 13.5201 29.9837C13.0911 29.9837 12.8086 29.6786 12.8086 29.2774Z" fill="#333333"/>
<path d="M14.9941 28.5956H15.2354V29.1627H15.8913V28.5956H16.1326V29.959H15.8913V29.3838H15.2354V29.959H14.9941V28.5956Z" fill="#333333"/>
<path d="M17.0078 29.2467H17.5894V29.478H17.0078V29.2467Z" fill="#333333"/>
<path d="M19.5347 29.8547C19.4192 29.9366 19.2769 29.9837 19.116 29.9837C18.6953 29.9837 18.4004 29.6664 18.4004 29.2794C18.4004 28.8966 18.6994 28.5752 19.1202 28.5752C19.5409 28.5752 19.8358 28.8925 19.8358 29.2794C19.8358 29.433 19.7863 29.5783 19.6956 29.6971L19.8523 29.8301L19.6976 30.0021L19.5347 29.8547ZM19.3573 29.6971L19.1222 29.4985L19.2769 29.3224L19.5141 29.5374C19.5615 29.4657 19.5842 29.3777 19.5842 29.2794C19.5842 29.0153 19.3903 28.7942 19.1181 28.7942C18.8459 28.7942 18.6561 29.0113 18.6561 29.2794C18.6561 29.5435 18.85 29.7646 19.1222 29.7646C19.2109 29.7626 19.2913 29.738 19.3573 29.6971Z" fill="#333333"/>
<path d="M20.6992 29.3817V28.5977H20.9405V29.3736C20.9405 29.6274 21.0725 29.7625 21.287 29.7625C21.5015 29.7625 21.6314 29.6336 21.6314 29.3838V28.5997H21.8727V29.3736C21.8727 29.7809 21.6417 29.9857 21.2829 29.9857C20.9261 29.9816 20.6992 29.7769 20.6992 29.3817Z" fill="#333333"/>
<path d="M23.2294 28.5874H23.4521L24.0564 29.959H23.8007L23.6604 29.6294H23.0108L22.8705 29.959H22.623L23.2294 28.5874ZM23.5759 29.4186L23.3387 28.874L23.1036 29.4186H23.5759Z" fill="#333333"/>
<path d="M24.8809 28.5956H25.1222V29.74H25.844V29.957H24.8809V28.5956Z" fill="#333333"/>
<path d="M26.6973 28.5956H26.9386V29.959H26.6973V28.5956Z" fill="#333333"/>
<path d="M28.232 28.8188H27.7969V28.5977H28.9106V28.8188H28.4754V29.9591H28.232V28.8188Z" fill="#333333"/>
<path d="M30.1578 29.4227L29.6133 28.5977H29.8979L30.2815 29.2016L30.6692 28.5977H30.9456L30.4011 29.4165V29.9591H30.1578V29.4227Z" fill="#333333"/>
<path d="M32.9395 28.5956H33.1808V29.959H32.9395V28.5956Z" fill="#333333"/>
<path d="M34.4723 28.8188H34.0371V28.5977H35.1508V28.8188H34.7156V29.9591H34.4723V28.8188Z" fill="#333333"/>
<path d="M37.1855 28.5956H37.4268V29.959H37.1855V28.5956Z" fill="#333333"/>
<path d="M38.3828 28.5956H38.6056L39.3418 29.5373V28.5956H39.579V29.959H39.3769L38.62 28.9887V29.959H38.3828V28.5956Z" fill="#333333"/>
<path d="M40.5195 28.5956H41.5404V28.8126H40.7608V29.1852H41.4538V29.4022H40.7608V29.957H40.5195V28.5956Z" fill="#333333"/>
<path d="M42.3966 28.5956H43.0091C43.3309 28.5956 43.5185 28.7675 43.5185 29.0296C43.5185 29.2527 43.3824 29.3879 43.1906 29.4431L43.5618 29.959H43.2772L42.9349 29.4841H42.6358V29.959H42.3945V28.5956H42.3966ZM42.9906 29.2712C43.1638 29.2712 43.2731 29.1811 43.2731 29.0398C43.2731 28.8945 43.1679 28.8146 42.9885 28.8146H42.6379V29.2732H42.9906V29.2712Z" fill="#333333"/>
<path d="M44.8895 28.5874H45.1123L45.7166 29.959H45.4608L45.3206 29.6294H44.6709L44.5307 29.959H44.2832L44.8895 28.5874ZM45.234 29.4186L44.9968 28.874L44.7617 29.4186H45.234Z" fill="#333333"/>
<path d="M46.4297 29.7605L46.5741 29.5886C46.706 29.7012 46.836 29.7667 47.0072 29.7667C47.1556 29.7667 47.2505 29.6991 47.2505 29.5906C47.2505 29.4923 47.1948 29.4412 46.9412 29.3798C46.6483 29.3122 46.4833 29.2262 46.4833 28.9703C46.4833 28.7369 46.6792 28.5752 46.9515 28.5752C47.1515 28.5752 47.3103 28.6366 47.4506 28.7472L47.3206 28.9273C47.1969 28.8352 47.0732 28.7881 46.9473 28.7881C46.8071 28.7881 46.7246 28.8598 46.7246 28.9539C46.7246 29.0583 46.7865 29.1054 47.0505 29.1689C47.3413 29.2385 47.4918 29.3429 47.4918 29.5722C47.4918 29.8281 47.2897 29.9796 47.001 29.9796C46.7906 29.9796 46.5926 29.9059 46.4297 29.7605Z" fill="#333333"/>
<path d="M48.6734 28.8188H48.2383V28.5977H49.352V28.8188H48.9168V29.9591H48.6734V28.8188Z" fill="#333333"/>
<path d="M50.1954 28.5956H50.8079C51.1297 28.5956 51.3174 28.7675 51.3174 29.0296C51.3174 29.2527 51.1812 29.3879 50.9894 29.4431L51.3607 29.959H51.0761L50.7337 29.4841H50.4347V29.959H50.1934V28.5956H50.1954ZM50.7894 29.2712C50.9626 29.2712 51.0719 29.1811 51.0719 29.0398C51.0719 28.8945 50.9668 28.8146 50.7873 28.8146H50.4367V29.2732H50.7894V29.2712Z" fill="#333333"/>
<path d="M52.1797 29.3817V28.5977H52.421V29.3736C52.421 29.6274 52.553 29.7625 52.7675 29.7625C52.982 29.7625 53.1119 29.6336 53.1119 29.3838V28.5997H53.3532V29.3736C53.3532 29.7809 53.1222 29.9857 52.7633 29.9857C52.4086 29.9816 52.1797 29.7769 52.1797 29.3817Z" fill="#333333"/>
<path d="M54.2148 29.2774C54.2148 28.8904 54.5077 28.5731 54.9222 28.5731C55.1759 28.5731 55.3285 28.6611 55.4605 28.786L55.3058 28.9641C55.1965 28.8638 55.079 28.7942 54.9222 28.7942C54.6603 28.7942 54.4685 29.0092 54.4685 29.2794C54.4685 29.5456 54.6583 29.7646 54.9222 29.7646C55.0914 29.7646 55.1986 29.697 55.3162 29.5865L55.4708 29.7421C55.3285 29.8895 55.1697 29.9837 54.914 29.9837C54.5118 29.9837 54.2148 29.6725 54.2148 29.2774Z" fill="#333333"/>
<path d="M56.6481 28.8188H56.2129V28.5977H57.3266V28.8188H56.8914V29.9591H56.6481V28.8188Z" fill="#333333"/>
<path d="M58.1484 29.3817V28.5977H58.3897V29.3736C58.3897 29.6274 58.5217 29.7625 58.7362 29.7625C58.9507 29.7625 59.0806 29.6336 59.0806 29.3838V28.5997H59.3219V29.3736C59.3219 29.7809 59.0909 29.9857 58.7321 29.9857C58.3753 29.9816 58.1484 29.7769 58.1484 29.3817Z" fill="#333333"/>
<path d="M60.2443 28.5956H60.8568C61.1785 28.5956 61.3662 28.7675 61.3662 29.0296C61.3662 29.2527 61.2301 29.3879 61.0383 29.4431L61.4095 29.959H61.1249L60.7825 29.4841H60.4835V29.959H60.2422V28.5956H60.2443ZM60.8382 29.2712C61.0115 29.2712 61.1208 29.1811 61.1208 29.0398C61.1208 28.8945 61.0156 28.8146 60.8362 28.8146H60.4855V29.2732H60.8382V29.2712Z" fill="#333333"/>
<path d="M62.252 28.5956H63.2708V28.8105H62.4932V29.1647H63.1821V29.3797H62.4932V29.7461H63.279V29.9611H62.252V28.5956Z" fill="#333333"/>
</g>
</g>
<defs>
<clipPath id="clip0_2180_13078">
<rect width="64" height="30" fill="white" transform="translate(0.5)"/>
</clipPath>
<clipPath id="clip1_2180_13078">
<rect width="64" height="30" fill="white" transform="translate(0.5)"/>
</clipPath>
</defs>
</svg>
