<svg width="61" height="30" viewBox="0 0 61 30" fill="none" xmlns="http://www.w3.org/2000/svg">
<g clip-path="url(#clip0_2180_8589)">
<path opacity="0.5" d="M16.8725 28.8484L2.21577 29.9991L0.0253906 7.70953L1.19034 7.61666C1.83222 7.566 2.30205 6.96903 2.23549 6.28962L2.1221 5.14137C2.10585 4.9802 2.1218 4.81739 2.16901 4.66254C2.21622 4.50768 2.29373 4.36391 2.39698 4.23972C2.50023 4.11553 2.62712 4.01342 2.77016 3.93942C2.91321 3.86542 3.06951 3.82103 3.22986 3.80886L11.315 3.17663C11.6427 3.15288 11.9668 3.25833 12.2188 3.47071C12.4708 3.68309 12.6311 3.98579 12.6658 4.31495L12.7777 5.4622L12.8995 6.69886L17.0431 6.37306L32.3669 6.60996L33.8972 25.2611L31.1083 27.7324L16.872 28.8484H16.8725Z" fill="#333333"/>
<path d="M22.5285 0L4.25314 9.57785L2.29102 30L20.4914 28.5597L30.726 27.7502L37.2681 27.2337L39.2282 6.81252L22.5285 0Z" fill="#333333"/>
<path d="M13.9863 21.7059L11.9019 18.285H10.206V21.7059H8.17188V12.0788H12.6424C14.6341 12.0788 15.8518 13.3925 15.8518 15.1819C15.8518 16.8854 14.9974 17.7943 13.9661 18.0401L16.3206 21.7054H13.9863V21.7059ZM13.7743 15.1814C13.7743 14.3734 13.158 13.8827 12.3421 13.8827H10.2075V16.4801H12.3421C13.158 16.4801 13.7748 15.9904 13.7748 15.1814H13.7743ZM17.592 21.7059V12.0788H24.3559V13.8832H19.6261V15.9179H23.8437V17.7223H19.6261V19.9025H24.3555V21.7064H17.5915L17.592 21.7059ZM25.4879 16.8993C25.4879 13.8539 27.7803 11.9199 30.5746 11.9199C32.5663 11.9199 33.8136 12.9296 34.5294 14.0704L32.8384 14.9942C32.4095 14.3158 31.5926 13.7377 30.5746 13.7377C28.8402 13.7377 27.5796 15.0806 27.5796 16.8993C27.5796 18.718 28.8407 20.0605 30.5746 20.0605C31.4201 20.0605 32.2232 19.685 32.6092 19.3244V18.2964H30.0875V16.4821H34.6428V20.0759C33.6691 21.1735 32.3085 21.8951 30.5746 21.8951C27.7808 21.8951 25.4879 19.9318 25.4879 16.9003V16.8993Z" fill="white"/>
<path d="M39.6016 20.695C39.6016 20.0602 40.132 19.5254 40.7621 19.5254C41.3931 19.5254 41.9226 20.0593 41.9226 20.6945C41.9226 21.3292 41.3936 21.8631 40.7621 21.8631C40.132 21.8631 39.6016 21.3297 39.6016 20.694V20.695ZM49.3565 21.7051L47.068 18.2842H45.5777V21.7051H43.5431V12.0781H48.0136C50.0053 12.0781 51.2239 13.3918 51.2239 15.1812C51.2239 16.8847 50.164 17.7935 49.1322 18.0394L51.6918 21.7046H49.3565V21.7051ZM49.1465 15.1807C49.1465 14.3726 48.5287 13.8819 47.7118 13.8819H45.5777V16.4794H47.7123C48.5292 16.4794 49.1469 15.9897 49.1469 15.1807H49.1465ZM52.7576 17.8656V12.0781H54.8213V17.793C54.8213 19.1365 55.3893 20.0597 56.8653 20.0597C58.3403 20.0597 58.894 19.137 58.894 17.7935V12.0781H60.9734V17.8512C60.9734 20.2475 59.773 21.879 56.8658 21.879C53.9561 21.878 52.7581 20.2331 52.7581 17.8661L52.7576 17.8656Z" fill="#333333"/>
</g>
<defs>
<clipPath id="clip0_2180_8589">
<rect width="60.948" height="30" fill="white" transform="translate(0.0253906)"/>
</clipPath>
</defs>
</svg>
