<svg width="81" height="30" viewBox="0 0 81 30" fill="none" xmlns="http://www.w3.org/2000/svg">
<g clip-path="url(#clip0_2180_8571)">
<path fill-rule="evenodd" clip-rule="evenodd" d="M10.5631 6.03773L10.5633 6.03726C10.5951 5.94156 10.6269 5.84571 10.6584 5.74951H5.5476C5.51087 5.88255 5.47448 6.01589 5.43806 6.14929L5.43806 6.14931L5.43805 6.14933L5.43805 6.14934L5.43805 6.14934C5.33585 6.52374 5.23351 6.89863 5.12331 7.26886C4.79943 8.34893 4.47555 9.42793 4.15167 10.5069C3.82946 11.5803 3.50726 12.6537 3.18506 13.7282C2.6788 15.4278 2.16771 17.1317 1.65664 18.8313C1.22493 20.2627 0.789975 21.6912 0.354435 23.1215L0.0703533 24.0546C0.0638612 24.0806 0.0464426 24.1008 0.028396 24.1216L0.0283783 24.1217L0.0283751 24.1217C0.0196226 24.1318 0.0107232 24.1421 0.00285188 24.1533C-0.0159216 24.2703 0.0617984 24.2545 0.124432 24.2418L0.124448 24.2418C0.142237 24.2382 0.158808 24.2348 0.171605 24.2348C1.82057 24.2392 3.46471 24.2392 5.11367 24.2392C5.11548 24.2198 5.11525 24.201 5.11502 24.1827C5.11465 24.1521 5.11429 24.1227 5.12331 24.0932C5.18848 23.8784 5.25605 23.6635 5.32363 23.4487C5.39106 23.2343 5.45848 23.02 5.5235 22.8057C5.72586 22.1232 5.92761 21.4403 6.12941 20.7572L6.1295 20.7569L6.12953 20.7568L6.12957 20.7567C6.49505 19.5195 6.86069 18.2818 7.23032 17.0459C7.73659 15.3568 8.24617 13.6705 8.75633 11.9824L9.07696 10.9213C9.2867 10.2281 9.49523 9.53499 9.70377 8.84185C9.9123 8.1487 10.1208 7.45555 10.3306 6.76241C10.403 6.5197 10.4829 6.27919 10.5631 6.03773ZM16.8733 24.2348H23.4305C23.3072 24.0891 23.1822 23.9433 23.0569 23.7972L23.0568 23.7971L23.0567 23.797L23.0566 23.7968L23.0559 23.796C22.8827 23.5941 22.709 23.3916 22.5385 23.1876C21.9718 22.4987 21.4069 21.808 20.8416 21.1167L20.8411 21.116L20.8405 21.1154L20.84 21.1148L20.8395 21.1141C20.511 20.7124 20.1823 20.3105 19.853 19.9086C19.014 18.8828 18.1703 17.8614 17.3265 16.8399C16.7527 16.1402 16.1789 15.4407 15.6052 14.7454C15.504 14.621 15.4702 14.5394 15.6486 14.4192C16.1118 14.1055 16.5658 13.7813 17.0201 13.4569L17.0201 13.4568L17.0203 13.4567C17.2184 13.3152 17.4166 13.1737 17.6158 13.0329C18.3631 12.5093 19.1056 11.9857 19.8481 11.4621C20.2314 11.1917 20.6159 10.9213 21.0005 10.6509C21.385 10.3805 21.7695 10.1101 22.1528 9.83972C22.7926 9.39045 23.4325 8.93826 24.0696 8.48796L24.0704 8.48739L24.4768 8.2002C25.5809 7.42336 26.685 6.64224 27.7892 5.8611C27.8335 5.82525 27.8845 5.79538 27.9339 5.7665L27.9628 5.74951H21.4537C21.3933 5.7968 21.3333 5.84436 21.2732 5.89192C21.0934 6.03428 20.9136 6.17663 20.7256 6.31175C20.0813 6.76697 19.4369 7.22005 18.7892 7.67553L17.9822 8.24312C17.5784 8.52726 17.1733 8.81031 16.7683 9.09337L16.7677 9.09377C16.3653 9.37497 15.963 9.65617 15.5618 9.93843C15.1391 10.2351 14.7196 10.5344 14.3004 10.8334L14.3004 10.8335L14.3003 10.8335C13.9736 11.0666 13.6471 11.2995 13.3198 11.5307C12.968 11.7795 12.6138 12.0262 12.2596 12.2729L12.2595 12.2729L12.2594 12.2729C11.9049 12.5198 11.5504 12.7667 11.1983 13.0157C10.8562 13.2573 10.5153 13.4998 10.1723 13.7437L10.1722 13.7438C9.79006 14.0156 9.40547 14.2892 9.01418 14.5651C9.18923 14.7776 9.36107 14.9882 9.53172 15.1974L9.53176 15.1974L9.5318 15.1975L9.53184 15.1975L9.53188 15.1976C9.72307 15.4319 9.91278 15.6643 10.1038 15.8956C10.4727 16.3441 10.8403 16.7937 11.208 17.2433C11.5756 17.6929 11.9432 18.1425 12.3121 18.591C12.7025 19.065 13.0917 19.5402 13.4809 20.0154L13.4813 20.0159C13.8706 20.4912 14.26 20.9666 14.6505 21.4408L14.9013 21.7454L14.9014 21.7455C15.5322 22.5118 16.1655 23.281 16.7912 24.0503C16.8197 24.0841 16.8337 24.1253 16.8481 24.1679L16.8481 24.1679C16.8557 24.1902 16.8633 24.2127 16.8733 24.2348ZM52.328 7.13353C52.4666 6.67219 52.6052 6.21085 52.745 5.74951H34.5197C34.4783 5.75932 34.437 5.76983 34.3957 5.78034L34.3956 5.78037C34.2923 5.80664 34.189 5.8329 34.0857 5.84823C32.8273 6.00703 31.7087 6.47056 30.6866 7.12293C29.8476 7.65513 29.1388 8.3075 28.5603 9.06717C27.9865 9.82684 27.6201 10.6681 27.3645 11.5522C27.1256 12.3807 26.8755 13.2062 26.6252 14.0323C26.4411 14.6398 26.257 15.2476 26.0772 15.857C26.0082 16.0886 25.9385 16.32 25.8688 16.5514L25.8687 16.5516L25.8686 16.5518L25.8686 16.552L25.8685 16.5522L25.8685 16.5523L25.8685 16.5523L25.8685 16.5523L25.8685 16.5523C25.5778 17.5171 25.2873 18.4812 25.0502 19.4536C24.7464 20.6897 24.9972 21.8614 25.9133 22.8614C26.5593 23.5653 27.4224 23.9644 28.4205 24.1318C28.5234 24.149 28.6263 24.1738 28.7293 24.1987L28.7293 24.1987C28.7806 24.211 28.832 24.2234 28.8833 24.2348H47.2051C47.6053 22.8786 48.0103 21.5224 48.4249 20.136H48.1405H31.9402C31.8484 20.136 31.7571 20.1365 31.666 20.137C31.4844 20.138 31.3035 20.1389 31.1205 20.136C30.5901 20.1232 30.0935 19.7541 30.1706 19.2691C30.2335 18.8733 30.3508 18.485 30.4679 18.0972L30.4679 18.0972L30.4937 18.0115C31.1783 15.7068 31.8727 13.402 32.567 11.1015C32.7936 10.3548 33.5312 9.84831 34.3943 9.84831H46.3999C48.0151 9.84831 49.6303 9.84831 51.2456 9.85259C51.4384 9.85259 51.5445 9.82256 51.5879 9.62513C51.6462 9.35938 51.7289 9.09797 51.8118 8.83628L51.8118 8.83624L51.8118 8.8362L51.8118 8.83617L51.8118 8.83613C51.8454 8.73017 51.8789 8.62417 51.9109 8.51781C52.0507 8.05638 52.1894 7.59496 52.328 7.13353ZM81 15.2303C80.8586 15.3066 80.7164 15.3815 80.5743 15.4565C80.3484 15.5756 80.1228 15.6945 79.9009 15.8183C79.7138 15.9218 79.5266 16.0256 79.3394 16.1295C78.8511 16.4004 78.3621 16.6717 77.8707 16.9386C77.7743 16.9901 77.6494 17.0115 77.5337 17.0115C69.3437 17.0158 61.1487 17.0158 52.9588 17.0158H52.9533H52.4856C52.5357 16.8429 52.5832 16.6753 52.63 16.5103C52.6959 16.278 52.7603 16.051 52.8279 15.8227C52.9361 15.4568 53.0459 15.0916 53.1556 14.7266L53.1562 14.7246C53.3153 14.1953 53.4743 13.6664 53.6283 13.1359C53.6621 13.0157 53.7247 12.9642 53.8598 12.9728C53.9303 12.9756 53.9987 12.9747 54.0678 12.9738C54.1026 12.9733 54.1376 12.9728 54.1732 12.9728H54.1745C62.3128 12.9728 70.4461 12.9728 78.5844 12.9642C78.8495 12.9642 79.009 13.0458 79.1632 13.2174C79.7128 13.8398 80.2723 14.4621 80.8312 15.0802C80.8586 15.11 80.8958 15.1296 80.9341 15.1497C80.9563 15.1614 80.9788 15.1732 81 15.1874V15.2303ZM72.4672 5.74951C72.5185 5.81385 72.5688 5.87861 72.619 5.94326C72.7295 6.08563 72.8397 6.22749 72.959 6.36326C73.37 6.82529 73.7862 7.28508 74.2018 7.74425C74.3615 7.92062 74.521 8.09689 74.6802 8.27317C74.8815 8.49621 75.085 8.71725 75.2891 8.93902L75.2901 8.94008L75.2954 8.94584C75.3877 9.04613 75.4802 9.14658 75.5727 9.24744C75.6883 9.3719 75.794 9.50924 75.7029 9.67233C75.6159 9.82684 75.4371 9.85259 75.2497 9.85259C68.47 9.84831 61.6864 9.84831 54.9073 9.84831H54.6277C54.6591 9.73822 54.6881 9.6324 54.7164 9.5294L54.7164 9.52927C54.7575 9.37934 54.797 9.23538 54.8398 9.09292C54.9336 8.77916 55.0279 8.46503 55.1221 8.15074L55.1224 8.14987L55.1224 8.14974C55.3479 7.39818 55.5736 6.64574 55.7945 5.89544C55.8048 5.86506 55.7981 5.82823 55.7916 5.79256C55.7889 5.77783 55.7863 5.76331 55.7849 5.74951H72.4672ZM50.4022 23.9112C50.3634 24.0192 50.3247 24.127 50.2874 24.2349C55.1427 24.2349 59.9931 24.2349 64.8435 24.2391C64.8629 24.2233 64.8812 24.2066 64.8993 24.19C64.9353 24.157 64.9706 24.1246 65.0123 24.1018C65.248 23.9709 65.4838 23.8411 65.7196 23.7112C65.9708 23.5728 66.222 23.4344 66.473 23.2949C67.0118 22.9931 67.5499 22.6913 68.0876 22.3897C68.9645 21.8979 69.8403 21.4067 70.7161 20.9172C70.9427 20.7927 71.0105 20.5781 70.8949 20.3635C70.7786 20.1446 70.5573 20.1361 70.3254 20.1361H51.9219C51.8997 20.1361 51.8766 20.1344 51.8534 20.1328C51.801 20.1291 51.7483 20.1254 51.7049 20.1403C51.6326 20.1704 51.5362 20.2219 51.5169 20.2777C51.3617 20.7857 51.2104 21.2961 51.0589 21.807C50.9186 22.2801 50.7782 22.7537 50.6345 23.2262C50.5659 23.4561 50.484 23.684 50.4022 23.9112Z" fill="#333333"/>
</g>
<defs>
<clipPath id="clip0_2180_8571">
<rect width="81" height="30" fill="white"/>
</clipPath>
</defs>
</svg>
