<svg width="31" height="30" viewBox="0 0 31 30" fill="none" xmlns="http://www.w3.org/2000/svg">
<g clip-path="url(#clip0_2180_10219)">
<path d="M16.2178 13.3101V23.7101H14.3105V12.5801L16.2178 13.3101Z" fill="black"/>
<path d="M8.59961 12.3401C8.59961 9.6801 10.0251 8.2301 11.6964 8.2301C13.3677 8.2301 13.6036 8.4701 15.501 9.4401C17.3985 10.4101 17.8802 10.6501 18.8338 10.6501C19.7874 10.6501 20.2593 9.9201 20.2593 8.4701H21.9208C22.1567 11.3701 20.4953 12.5801 18.824 12.5801C17.1527 12.5801 16.6808 12.3401 15.0193 11.3701C13.3579 10.4001 12.8761 10.1601 11.9225 10.1601C10.9689 10.1601 10.497 10.8901 10.2611 12.5801L8.59961 12.3401Z" fill="black"/>
<path d="M15.5006 30C7.37024 30 0.753906 23.27 0.753906 15C0.753906 6.73 7.37024 0 15.5006 0C23.6309 0 30.2472 6.73 30.2472 15C30.2472 23.27 23.6309 30 15.5006 30ZM15.5006 0.97C7.89129 0.97 1.70752 7.26 1.70752 15C1.70752 22.74 7.89129 29.03 15.5006 29.03C23.1099 29.03 29.2936 22.74 29.2936 15C29.2936 7.26 23.1099 0.97 15.5006 0.97Z" fill="black"/>
</g>
<defs>
<clipPath id="clip0_2180_10219">
<rect width="29.4933" height="30" fill="white" transform="translate(0.753906)"/>
</clipPath>
</defs>
</svg>
