<svg width="69" height="26" viewBox="0 0 69 26" fill="none" xmlns="http://www.w3.org/2000/svg">
<path fill-rule="evenodd" clip-rule="evenodd" d="M63.4432 11.2568H68.7287V11.2541V8.45155H63.4443V3.50033H59.5444V8.45155H55.7276V11.2541H59.5444V20.6084C59.5444 24.1791 61.5992 25.9998 65.332 25.9998C66.5467 25.9998 67.7638 25.8172 68.6875 25.5266L68.5603 22.723C67.8899 23.0145 66.9661 23.1606 66.2532 23.1606C64.2821 23.1606 63.4432 22.3229 63.4432 20.2485V11.2568ZM47.4589 25.7048H51.4007V8.45068H47.4589V25.7048ZM46.8294 2.22602C46.8294 3.42731 48.0031 4.41022 49.4293 4.41022C50.8554 4.41022 52.0722 3.46381 52.0722 2.22602C52.0722 0.952681 50.8554 0.00530911 49.4293 0.00530911C48.004 0.00530911 46.8294 0.98832 46.8294 2.22602ZM29.1538 15.8346H29.0286V0H25.0868V25.7039H29.0286V16.8924H29.1538L38.1302 25.7039H43.5179L33.4418 16.2766L42.4942 8.45068H37.4997L29.1538 15.8346ZM14.9953 22.7137C14.9953 23.4361 15.0828 24.6632 15.1712 25.5306L19.0958 25.5296C18.963 24.4103 18.9187 22.7492 18.9187 21.8466V8.41185H14.7751V17.5128C14.7751 20.9077 12.4825 23.1461 9.1754 23.1461C5.34044 23.1461 4.41436 20.6902 4.41436 17.8733V8.41185H0.269531V19.0299C0.269531 22.858 2.69496 26 8.0733 26C11.115 26 13.848 24.5192 14.9067 22.7137H14.9953Z" fill="#333333"/>
</svg>
