<svg width="111" height="20" viewBox="0 0 111 20" fill="none" xmlns="http://www.w3.org/2000/svg">
<path fill-rule="evenodd" clip-rule="evenodd" d="M0.603064 9.90845L2.59987 6.26925C2.87898 5.76054 3.45769 5.43816 4.09166 5.43816H8.31307C8.34973 5.43816 8.38339 5.42015 8.40078 5.39133C10.4415 2.0078 14.6811 0.175984 18.9161 0.847993L20.3171 1.0703C20.5531 1.10775 20.7389 1.27135 20.7842 1.48168L21.0189 2.57303C21.825 6.31821 19.8423 10.1015 16.1069 11.9462C16.0759 11.9615 16.0565 11.9904 16.056 12.022L15.9888 16.0768C15.9796 16.6326 15.6237 17.1372 15.0667 17.3845L10.9865 19.1956C10.3419 19.4817 9.58092 19.0819 9.54713 18.4396L9.3814 15.2795C9.37578 15.1723 9.24858 15.1057 9.1412 15.1537L7.89589 15.7101C7.63582 15.8262 7.32148 15.7779 7.11989 15.5907L4.57119 13.2244C4.38338 13.0501 4.33275 12.7913 4.44324 12.5704L5.02819 11.4004C5.07729 11.3023 4.99688 11.1914 4.87649 11.1914H1.49814C0.760459 11.1914 0.278301 10.5003 0.603064 9.90845ZM16.5968 6.55144C17.675 6.55144 18.549 5.77042 18.549 4.80691C18.549 3.84347 17.675 3.06239 16.5968 3.06239C15.5187 3.06239 14.6446 3.84347 14.6446 4.80691C14.6446 5.77042 15.5187 6.55144 16.5968 6.55144ZM62.6413 14.3624H60.2931L56.6589 7.19992V14.3624H55.0934V5.4716H57.4137L61.0479 12.6478V5.4716H62.6413V14.3624ZM66.9871 8.99762C67.8444 8.99762 68.2726 9.53222 68.2726 10.6015H65.6592C65.7058 9.53222 66.1484 8.99762 66.9871 8.99762ZM68.9297 13.9754C69.396 13.6066 69.671 13.095 69.7547 12.4405H68.2312C68.1288 13.1964 67.7233 13.5744 67.0148 13.5744C66.5117 13.5744 66.1623 13.4038 65.9667 13.0628C65.7709 12.7216 65.6684 12.2239 65.6592 11.5694H69.8243C69.843 11.3481 69.8524 11.1776 69.8524 11.0578C69.8524 10.6798 69.8062 10.325 69.7125 9.99309C69.6289 9.66129 69.4844 9.34321 69.2796 9.03904C69.0836 8.73487 68.7945 8.49521 68.4125 8.32004C68.0304 8.13571 67.5835 8.04351 67.071 8.04351C66.0925 8.04351 65.3563 8.34767 64.8624 8.95607C64.3685 9.56447 64.1216 10.348 64.1216 11.3067C64.1216 12.2285 64.3499 12.9982 64.8066 13.6158C65.2631 14.2242 65.9852 14.5284 66.973 14.5284C67.821 14.5284 68.4734 14.3441 68.9297 13.9754ZM75.025 14.3209C74.6711 14.45 74.2844 14.5146 73.8649 14.5146C73.3155 14.5146 72.8632 14.3717 72.5093 14.0859C72.164 13.8001 71.9921 13.3807 71.9921 12.8277V9.17727H70.7904V8.20937H71.9921V7.15851L73.4875 6.42566V8.20937H74.9414V9.17727H73.4875V12.5096C73.4875 13.1549 73.7859 13.4775 74.382 13.4775C74.6062 13.4775 74.8203 13.4406 75.025 13.3669V14.3209ZM83.7319 14.3624L85.689 8.20931H84.1507L82.8514 12.5233L81.4817 8.20931H79.7067L78.3504 12.5233L77.0644 8.20931H75.4994L77.4699 14.3624H79.1747L80.6012 9.78554L82.027 14.3624H83.7319ZM91.225 11.2929C91.225 10.5831 91.0845 10.0254 90.8054 9.61981C90.5351 9.21421 90.1297 9.01141 89.589 9.01141C89.0585 9.01141 88.6483 9.22344 88.3593 9.64744C88.0702 10.0623 87.9264 10.6107 87.9264 11.2929C87.9264 11.975 88.0702 12.5234 88.3593 12.9383C88.6483 13.3531 89.0585 13.5605 89.589 13.5605C90.1297 13.5605 90.5351 13.3577 90.8054 12.9521C91.0845 12.5465 91.225 11.9935 91.225 11.2929ZM92.7485 11.2929C92.7485 12.2792 92.4501 13.0673 91.8539 13.6573C91.2664 14.238 90.5124 14.5284 89.589 14.5284C88.6577 14.5284 87.8983 14.2334 87.3115 13.6435C86.724 13.0443 86.4303 12.2608 86.4303 11.2929C86.4303 10.3066 86.724 9.51837 87.3115 8.92844C87.9076 8.33844 88.667 8.04351 89.589 8.04351C90.5211 8.04351 91.2812 8.34306 91.868 8.94229C92.4547 9.54139 92.7485 10.325 92.7485 11.2929ZM95.6423 11.1131C95.6423 9.95168 96.3682 9.37098 97.8222 9.37098V8.09884C97.1698 8.09884 96.6948 8.17719 96.3963 8.33396C96.0986 8.48143 95.847 8.74418 95.6423 9.12208V8.20951H94.1469V14.3626H95.6423V11.1131ZM104.476 14.3624H102.603L100.366 11.1269V14.3624H98.8706V5.4716H100.366V10.6982L102.463 8.20937H104.28L101.946 10.8642L104.476 14.3624ZM109.704 14.0306C110.235 13.6896 110.5 13.1733 110.5 12.482C110.5 12.0488 110.374 11.6985 110.123 11.4312C109.88 11.1546 109.578 10.9657 109.214 10.8642C108.86 10.7536 108.506 10.6614 108.152 10.5877C107.798 10.514 107.495 10.4172 107.244 10.2973C107.001 10.1683 106.88 9.99777 106.88 9.78567C106.88 9.56447 106.969 9.38014 107.145 9.23267C107.323 9.07591 107.547 8.99762 107.816 8.99762C108.208 8.99762 108.473 9.08052 108.614 9.24646C108.762 9.40316 108.842 9.64282 108.851 9.96546H110.346C110.346 8.68416 109.526 8.04351 107.887 8.04351C107.113 8.04351 106.508 8.21399 106.069 8.55516C105.631 8.89619 105.413 9.32481 105.413 9.84101C105.413 10.219 105.501 10.537 105.678 10.7951C105.865 11.044 106.088 11.2237 106.349 11.3343C106.619 11.4358 106.913 11.5325 107.23 11.6247C107.547 11.7169 107.836 11.7906 108.097 11.8459C108.366 11.9013 108.59 11.998 108.768 12.1363C108.953 12.2746 109.047 12.4497 109.047 12.6617C109.047 12.929 108.93 13.1503 108.697 13.3254C108.473 13.4914 108.212 13.5744 107.915 13.5744C107.532 13.5744 107.248 13.4914 107.062 13.3254C106.876 13.1595 106.778 12.8829 106.769 12.4958H105.272C105.272 13.1964 105.496 13.7126 105.944 14.0445C106.4 14.3671 107.006 14.5284 107.761 14.5284C108.525 14.5284 109.173 14.3625 109.704 14.0306ZM31.9184 8.07147C31.9184 7.64747 31.7507 7.32484 31.4152 7.10357C31.0797 6.88239 30.6698 6.77175 30.1852 6.77175H28.5638V9.30212H30.1014C30.5766 9.30212 30.996 9.19607 31.3593 8.98411C31.732 8.76284 31.9184 8.45867 31.9184 8.07147ZM33.7915 14.3628H32.1001C32.0255 14.0955 31.9651 13.8466 31.9184 13.6161C31.8812 13.3858 31.8439 13.1368 31.8066 12.8695C31.7787 12.6021 31.7507 12.3902 31.7228 12.2335C31.6109 11.6067 31.4386 11.178 31.2056 10.9475C30.9726 10.7171 30.5813 10.6019 30.0315 10.6019H28.5638V14.3628H26.9284V5.47201H30.1852C31.322 5.47201 32.17 5.66556 32.7292 6.05271C33.2975 6.43992 33.5818 7.04831 33.5818 7.87791C33.5818 8.71681 32.9714 9.39432 31.7507 9.91046C32.4309 10.058 32.8596 10.3529 33.0366 10.7954C33.1392 11.0351 33.2556 11.6112 33.3861 12.5238C33.5165 13.4364 33.6517 14.0494 33.7915 14.3628ZM39.2425 9.62028C39.5221 10.0259 39.6619 10.5836 39.6619 11.2933C39.6619 11.9939 39.5221 12.5471 39.2425 12.9527C38.9723 13.3582 38.5669 13.561 38.0264 13.561C37.4953 13.561 37.0853 13.3536 36.7965 12.9387C36.5076 12.524 36.3631 11.9755 36.3631 11.2933C36.3631 10.6112 36.5076 10.0627 36.7965 9.64791C37.0853 9.22384 37.4953 9.01188 38.0264 9.01188C38.5669 9.01188 38.9723 9.21468 39.2425 9.62028ZM40.2908 13.6578C40.8872 13.0678 41.1854 12.2797 41.1854 11.2933C41.1854 10.3254 40.8919 9.54193 40.3048 8.94276C39.7178 8.34359 38.9584 8.04398 38.0264 8.04398C37.104 8.04398 36.3445 8.33891 35.7481 8.92891C35.161 9.51891 34.8675 10.307 34.8675 11.2933C34.8675 12.2612 35.161 13.0447 35.7481 13.644C36.3352 14.234 37.0946 14.5289 38.0264 14.5289C38.949 14.5289 39.7037 14.2385 40.2908 13.6578ZM47.1397 11.2933C47.1397 10.5836 47 10.0259 46.7205 9.62028C46.4502 9.21468 46.0449 9.01188 45.5044 9.01188C44.9733 9.01188 44.5633 9.22384 44.2744 9.64791C43.9855 10.0627 43.8411 10.6112 43.8411 11.2933C43.8411 11.9755 43.9855 12.524 44.2744 12.9387C44.5633 13.3536 44.9733 13.561 45.5044 13.561C46.0449 13.561 46.4502 13.3582 46.7205 12.9527C47 12.5471 47.1397 11.9939 47.1397 11.2933ZM48.6634 11.2933C48.6634 12.2797 48.3652 13.0678 47.7687 13.6578C47.1817 14.2385 46.427 14.5289 45.5044 14.5289C44.5726 14.5289 43.8132 14.234 43.226 13.644C42.639 13.0447 42.3455 12.2612 42.3455 11.2933C42.3455 10.307 42.639 9.51891 43.226 8.92891C43.8225 8.33891 44.5819 8.04398 45.5044 8.04398C46.4363 8.04398 47.1957 8.34359 47.7827 8.94276C48.3698 9.54193 48.6634 10.3254 48.6634 11.2933ZM52.6754 14.515C53.0947 14.515 53.4815 14.4504 53.8355 14.3213V13.3673C53.6305 13.441 53.4162 13.478 53.1926 13.478C52.5962 13.478 52.298 13.1553 52.298 12.51V9.17767H53.7516V8.20977H52.298V6.42606L50.8024 7.1589V8.20977H49.6003V9.17767H50.8024V12.828C50.8024 13.3811 50.9748 13.8005 51.3195 14.0863C51.6737 14.3721 52.1256 14.515 52.6754 14.515Z" fill="#333333"/>
</svg>
