<svg width="255" height="90" viewBox="0 0 255 90" fill="none" xmlns="http://www.w3.org/2000/svg">
<rect width="255" height="90" rx="10" fill="white"/>
<g clip-path="url(#clip0_2110_40946)">
<path fill-rule="evenodd" clip-rule="evenodd" d="M146.944 47.6942C147.476 47.8909 147.604 47.8252 148.044 47.5959L150.152 48.8575C148.997 49.9553 147.219 50.2175 145.918 49.8571C144.322 49.3983 143.607 48.2349 143.607 46.1539V40.4354H141.883V38.3872H143.607V36.7159L146.138 35.3723V38.3872H148.777V40.4354H146.138V46.0557C146.138 47.0715 146.394 47.4975 146.944 47.6942ZM87.5182 43.1064C90.4152 43.5816 91.8822 44.3681 92.0471 46.1705C92.2672 48.399 90.2869 50.0375 87.3898 50.0375C84.4744 50.0375 83.0258 48.8413 82.4207 47.4977L84.4927 46.3835C84.7861 47.0881 85.5562 47.7599 87.2798 47.7599C88.9667 47.7599 89.6268 47.0225 89.5168 46.3835C89.4435 45.8428 88.6733 45.5151 86.693 45.1545C84.236 44.7122 82.7324 44.024 82.4207 42.2872C82.0723 40.4847 83.4291 38.2071 86.9314 38.2071C90.0684 38.2071 91.1619 39.9285 91.4767 40.4241C91.4912 40.447 91.5041 40.4674 91.5155 40.4847L89.2601 41.6972C88.9667 40.9108 87.9398 40.4192 86.9314 40.4192C85.2445 40.4192 84.9328 41.2057 84.9328 41.6317C84.9328 42.2544 85.4644 42.7787 87.5182 43.1064ZM113.425 43.1064C116.34 43.5816 117.826 44.3681 117.991 46.1705C118.211 48.3989 116.212 50.0375 113.297 50.021C110.363 50.021 108.896 48.8249 108.291 47.4813L110.308 46.3834C110.601 47.0881 111.463 47.7599 113.187 47.7599C114.892 47.7599 115.552 47.0225 115.442 46.3834C115.369 45.8428 114.598 45.5151 112.6 45.1545C110.124 44.7122 108.603 44.024 108.291 42.2872C107.942 40.4847 109.299 38.2071 112.838 38.2071C116.042 38.2071 117.138 39.9059 117.434 40.3649L117.459 40.4028L115.185 41.6972C114.892 40.9108 113.847 40.4192 112.838 40.4192C111.133 40.4192 110.821 41.2057 110.821 41.6317C110.821 42.2544 111.353 42.7787 113.425 43.1064ZM130.314 38.3872H127.6L124.52 46.285L121.403 38.3872H118.689L123.016 49.1361C123.108 49.3491 123.108 49.5785 123.034 49.7915C122.283 51.8725 122.044 52.2985 120.541 52.2985L119.441 54.5106C123.144 55.1987 124.465 52.7737 125.895 49.3819L130.314 38.3872ZM162.129 45.089C162.202 44.7122 162.239 44.3354 162.239 43.942C162.239 40.7141 160.24 38.2071 156.518 38.2071C152.797 38.2071 150.358 40.8616 150.358 44.0895C150.358 47.3174 152.888 49.9719 156.61 49.9719C158.975 49.9719 160.699 49.1035 161.726 47.4813L159.525 46.2852C158.939 47.1372 157.948 47.7107 156.591 47.7107C154.722 47.7107 153.566 46.4818 153.181 45.0563H162.129V45.089ZM156.518 40.4847C158.425 40.4847 159.36 41.6317 159.636 43.1228H153.145C153.474 41.6153 154.593 40.4847 156.518 40.4847ZM173.845 40.091C174.725 38.9113 176.046 38.2231 177.751 38.2231C180.795 38.2231 182.518 40.0747 182.5 43.3682V49.824H179.952V43.5811C179.952 41.3528 178.833 40.4679 177.366 40.4679C175.807 40.4679 174.689 41.3036 174.689 43.4337V49.824H172.158V43.5811C172.158 41.3528 170.966 40.4679 169.481 40.4679C167.923 40.4679 166.878 41.3036 166.878 43.4337V49.824H164.347V39.239L166.878 37.9118V39.2882C167.647 38.6327 168.638 38.2231 169.884 38.2231C171.663 38.2231 173.02 38.8621 173.845 40.091ZM140.783 46.1705C140.618 44.3681 139.133 43.5816 136.217 43.1064C134.145 42.7787 133.613 42.2544 133.613 41.6317C133.613 41.2057 133.925 40.4192 135.631 40.4192C136.639 40.4192 137.684 40.9108 137.978 41.6972L140.251 40.4847C140.241 40.469 140.229 40.451 140.216 40.4307L140.216 40.4302C139.905 39.9428 138.798 38.2071 135.631 38.2071C132.092 38.2071 130.735 40.4847 131.083 42.2872C131.395 44.024 132.917 44.7122 135.392 45.1545C137.391 45.5151 138.161 45.8428 138.234 46.3834C138.344 47.0225 137.684 47.7599 135.979 47.7599C134.255 47.7599 133.393 47.0553 133.1 46.3343L131.083 47.4813C131.688 48.8249 133.155 50.021 136.089 50.021C139.004 50.0375 141.003 48.3989 140.783 46.1705ZM79.7795 49.8077H77.2674V39.2554L79.7795 37.9118V39.0424V49.2505V49.8077ZM100.883 38.3544C99.2514 38.3544 97.9313 38.8624 97.0145 39.7308V38.5183H94.4841V54.2811L97.1245 52.8228L97.0145 48.5789C97.9313 49.4474 99.2514 49.9553 100.883 49.9553C104.569 49.9553 106.788 47.3336 106.788 44.1549C106.806 40.9761 104.587 38.3544 100.883 38.3544ZM100.608 47.7432C98.2797 47.7432 97.1245 46.1047 97.1245 44.1549C97.1245 42.205 98.3163 40.5664 100.608 40.5664C102.882 40.5664 104.056 42.205 104.056 44.1549C104.056 46.1047 102.9 47.7432 100.608 47.7432ZM76.0205 39.1574C76.0205 40.0261 75.2324 40.7303 74.2603 40.7303C73.2881 40.7303 72.5 40.0261 72.5 39.1574C72.5 38.2886 73.2881 37.5843 74.2603 37.5843C75.2324 37.5843 76.0205 38.2886 76.0205 39.1574Z" fill="#333333"/>
</g>
<defs>
<clipPath id="clip0_2110_40946">
<rect width="110" height="30" fill="white" transform="translate(72.5 30)"/>
</clipPath>
</defs>
</svg>
