<svg width="111" height="30" viewBox="0 0 111 30" fill="none" xmlns="http://www.w3.org/2000/svg">
<g clip-path="url(#clip0_2180_8279)">
<path d="M57.1977 17.0278C57.1977 18.6695 56.7612 19.9732 55.8397 20.8906C54.9182 21.8564 53.5601 22.3875 51.7656 22.3875H50.2136V23.4498H47.158V22.3875H45.606C42.0654 22.3875 40.1738 20.3595 40.1738 17.0278C40.1738 13.4064 42.0654 11.3301 45.3149 11.3301H47.158V10.2678H50.2136V11.3301H52.0566C55.3062 11.3301 57.1977 13.4064 57.1977 17.0278ZM47.158 20.1664V13.5512H46.188C44.2964 13.5512 43.2779 14.7584 43.2779 16.7864C43.2779 18.9592 44.3449 20.1664 46.4305 20.1664H47.158ZM54.0937 16.7864C54.0937 14.8067 53.0751 13.5512 51.1836 13.5512H50.2136V20.1664H50.9411C53.0266 20.1664 54.0937 18.9592 54.0937 16.7864Z" fill="#333333"/>
<path d="M69.2265 22.3875H66.171V15.7724L61.5634 22.3875H58.5078V11.3301H61.5634V17.9453L66.171 11.2819H69.2265V22.3875Z" fill="#333333"/>
<path d="M81.8848 22.3877H78.8292V17.9454H74.2216V22.3877H71.166V11.3303H74.2216V15.7726H78.8292V11.3303H81.8848V22.3877Z" fill="#333333"/>
<path d="M94.446 22.3877H87.6073C86.3463 22.3877 85.4247 22.1463 84.7457 21.6634C84.0182 21.1323 83.5332 20.2149 83.5332 19.056C83.5332 18.042 83.8727 17.2694 84.4547 16.69C85.1337 16.014 86.1038 15.7243 87.4618 15.7243H91.6329V15.5312C91.6329 14.1309 91.0024 13.5515 89.3048 13.5515H84.2122V11.3303H90.2264C91.3904 11.3303 92.2634 11.5718 92.8454 11.958C93.9124 12.6823 94.446 14.1309 94.446 16.2555V22.3877ZM91.6329 20.1666V17.9454H87.6073C86.7828 17.9454 86.2493 18.1869 86.2493 19.056C86.2493 19.8769 86.8798 20.1666 87.6073 20.1666H91.6329Z" fill="#333333"/>
<path d="M107.687 11.3303C106.523 11.3303 105.796 11.958 105.408 13.0686L103.371 19.1043L101.382 13.0686C101.043 11.958 100.315 11.3303 99.1025 11.3303H96.3379V22.3877H99.3935V14.6137L101.964 22.436H104.874L107.445 14.6137V22.436H110.5V11.3303H107.687Z" fill="#333333"/>
<path d="M5.39844 23.45L7.09598 24.7537L8.79352 26.0575C8.79352 26.0575 9.08452 25.0435 9.76354 23.7397L6.36846 21.1323C5.68944 22.4843 5.39844 23.45 5.39844 23.45Z" fill="#333333"/>
<path d="M6.61133 20.7942L10.0064 23.4016C10.3944 22.7739 10.8309 22.0979 11.4129 21.4219L8.01786 18.8145C7.43585 19.4422 6.99934 20.1665 6.61133 20.7942Z" fill="#333333"/>
<path d="M8.30859 18.4767L11.7037 21.0841C12.2372 20.5047 12.8677 19.9252 13.5467 19.4424L10.1516 16.835C9.47262 17.3178 8.84211 17.8972 8.30859 18.4767Z" fill="#333333"/>
<path d="M21.5488 10.6059L24.9439 13.2133C25.5259 12.6822 26.0594 12.1028 26.5929 11.4268L23.1979 8.81934C22.6644 9.44705 22.1308 10.0748 21.5488 10.6059Z" fill="#333333"/>
<path d="M13.4492 15.193L16.8443 17.8004C17.6688 17.4624 18.5418 17.1244 19.4634 16.7382L16.0683 14.1307C15.1468 14.5653 14.2737 14.9033 13.4492 15.193Z" fill="#333333"/>
<path d="M10.8301 16.4005C10.7331 16.4488 10.6361 16.497 10.5391 16.5936L13.9341 19.201C14.0311 19.1527 14.1281 19.0562 14.2251 19.0079C14.8557 18.6216 15.5832 18.3319 16.4077 17.9939L13.0126 15.3865C12.1881 15.7245 11.4606 16.0142 10.8301 16.4005Z" fill="#333333"/>
<path d="M26.4004 3.45962L29.7955 6.06704C30.135 5.34276 30.426 4.5219 30.717 3.70105L27.3219 1.09363C27.0309 1.96277 26.7399 2.73534 26.4004 3.45962Z" fill="#333333"/>
<path d="M25.0898 6.06745L28.4849 8.67487C28.8729 7.99887 29.2609 7.27459 29.6005 6.45373L26.2054 3.84631C25.8659 4.66717 25.4779 5.39145 25.0898 6.06745Z" fill="#333333"/>
<path d="M16.5059 13.9377L19.9009 16.5451C20.677 16.2071 21.453 15.7725 22.229 15.2897L18.8339 12.6823C18.0579 13.1651 17.2819 13.5997 16.5059 13.9377Z" fill="#333333"/>
<path d="M19.2207 12.4406L22.6158 15.0481C23.2948 14.6135 23.9253 14.0824 24.6043 13.5029L21.2092 10.8955C20.5787 11.4749 19.8997 11.9578 19.2207 12.4406Z" fill="#333333"/>
<path d="M23.4902 8.48149L26.8853 11.0889C27.3703 10.4612 27.8068 9.83348 28.2433 9.06091L24.8483 6.45349C24.4118 7.17778 23.9752 7.85377 23.4902 8.48149Z" fill="#333333"/>
<path d="M0.5 19.6837L2.19754 20.9874L3.89508 22.2911C3.89508 22.2911 4.18609 21.2771 4.8651 19.9734L1.47002 17.366C0.791007 18.6697 0.5 19.6837 0.5 19.6837Z" fill="#333333"/>
<path d="M1.71289 16.9798L5.10797 19.5873C5.49598 18.9595 5.93249 18.2835 6.5145 17.6075L3.11942 15.0001C2.53741 15.6278 2.0524 16.3521 1.71289 16.9798Z" fill="#333333"/>
<path d="M3.41016 14.6622L6.80524 17.2696C7.33875 16.6902 7.96926 16.1108 8.64828 15.6279L5.2532 13.0205C4.52568 13.5034 3.94367 14.0828 3.41016 14.6622Z" fill="#333333"/>
<path d="M16.6504 6.79157L20.0455 9.39899C20.6275 8.86785 21.161 8.28842 21.6945 7.61243L18.2994 5.005C17.7659 5.681 17.1839 6.26043 16.6504 6.79157Z" fill="#333333"/>
<path d="M8.55078 11.3787L11.9459 13.9861C12.7704 13.6481 13.6434 13.3101 14.5649 12.9238L11.1698 10.3164C10.2483 10.751 9.3753 11.089 8.55078 11.3787Z" fill="#333333"/>
<path d="M5.93163 12.5857C5.83463 12.6339 5.73763 12.6822 5.64062 12.7788L9.03571 15.3862C9.13271 15.3379 9.22971 15.2414 9.32671 15.1931C9.95723 14.8068 10.6847 14.5171 11.5093 14.1791L8.11418 11.5717C7.28966 11.9097 6.56215 12.1994 5.93163 12.5857Z" fill="#333333"/>
<path d="M20.1914 2.3009L23.5865 4.90832C23.9745 4.23232 24.3625 3.50804 24.702 2.73547L21.3069 0.128052C20.9674 0.852335 20.5794 1.57662 20.1914 2.3009Z" fill="#333333"/>
<path d="M11.6074 10.1233L15.0025 12.7308C15.7785 12.3928 16.5545 11.9582 17.3306 11.4753L13.9355 8.86792C13.1595 9.35078 12.3349 9.78534 11.6074 10.1233Z" fill="#333333"/>
<path d="M14.3223 8.62619L17.7173 11.2336C18.3964 10.799 19.0269 10.2679 19.7059 9.68848L16.3108 7.08105C15.6318 7.66048 15.0013 8.19162 14.3223 8.62619Z" fill="#333333"/>
<path d="M18.5898 4.66703L21.9849 7.27445C22.4699 6.64674 22.9064 6.01903 23.343 5.24646L19.9479 2.63904C19.5114 3.36332 19.0264 4.03932 18.5898 4.66703Z" fill="#333333"/>
<path d="M10.3457 27.2644L12.0432 28.5681L13.7408 29.8718C13.7408 29.8718 14.0318 28.8578 14.7108 27.5541L11.3157 24.9467C10.6367 26.2504 10.3457 27.2644 10.3457 27.2644Z" fill="#333333"/>
<path d="M11.5586 24.5605L14.9537 27.1679C15.3417 26.5402 15.7782 25.8642 16.3602 25.1882L12.9651 22.5808C12.3831 23.2568 11.8981 23.9328 11.5586 24.5605Z" fill="#333333"/>
<path d="M13.2559 22.291L16.6509 24.8984C17.1845 24.319 17.815 23.7396 18.494 23.2567L15.0989 20.6493C14.3714 21.1321 13.7894 21.6633 13.2559 22.291Z" fill="#333333"/>
<path d="M26.4492 14.4204L29.8443 17.0278C30.4263 16.4966 30.9598 15.9172 31.4933 15.2412L28.0983 12.6338C27.6132 13.2615 27.0312 13.8892 26.4492 14.4204Z" fill="#333333"/>
<path d="M18.3984 19.0078L21.7935 21.6153C22.618 21.2773 23.4911 20.9393 24.4126 20.553L21.0175 17.9456C20.096 18.3318 19.223 18.6698 18.3984 19.0078Z" fill="#333333"/>
<path d="M15.7773 20.2148C15.6803 20.2631 15.5833 20.3597 15.4863 20.4079L18.8814 23.0154C18.9784 22.9671 19.0754 22.9188 19.1724 22.8222C19.8029 22.4359 20.5304 22.1462 21.355 21.8082L17.9599 19.2008C17.1354 19.5388 16.3593 19.8285 15.7773 20.2148Z" fill="#333333"/>
<path d="M21.4531 17.7521L24.8482 20.3596C25.6242 20.0216 26.4002 19.587 27.1763 19.1041L23.7812 16.4967C23.0052 16.9796 22.1806 17.3658 21.4531 17.7521Z" fill="#333333"/>
<path d="M24.168 16.2074L27.563 18.8148C28.2421 18.3802 28.8726 17.8491 29.5516 17.2697L26.1565 14.6622C25.4775 15.2899 24.7985 15.7728 24.168 16.2074Z" fill="#333333"/>
<path d="M28.3887 12.2958L31.7838 14.9032C32.2688 14.2755 32.7053 13.6478 33.1418 12.8752L29.7467 10.2678C29.3587 10.9921 28.8737 11.6681 28.3887 12.2958Z" fill="#333333"/>
</g>
<defs>
<clipPath id="clip0_2180_8279">
<rect width="110" height="30" fill="white" transform="translate(0.5)"/>
</clipPath>
</defs>
</svg>
