<svg width="93" height="30" viewBox="0 0 93 30" fill="none" xmlns="http://www.w3.org/2000/svg">
<g clip-path="url(#clip0_2180_8898)">
<g clip-path="url(#clip1_2180_8898)">
<path d="M72.9545 21.2285L73.1193 23.8938C72.6777 24.112 71.5492 24.2196 70.9681 24.2196C68.0587 24.2196 65.9965 22.4177 65.9137 19.254H68.9787C69.0262 19.8514 69.306 20.4076 69.7591 20.8061C70.2122 21.2045 70.8041 21.4143 71.4105 21.3914C71.9287 21.3802 72.4454 21.3257 72.9545 21.2285ZM31.2965 24.0306H34.3517V7.17554H31.2965V24.0306ZM58.2591 13.3728C59.7175 13.3728 60.9283 14.0798 61.4794 15.1388L64.0661 13.6986C63.0763 11.7436 60.8756 10.4632 58.2591 10.4632C57.3318 10.4441 56.4101 10.6103 55.5496 10.952C54.689 11.2938 53.9073 11.8038 53.2514 12.4514C52.5956 13.0991 52.0791 13.8711 51.7331 14.721C51.3871 15.5708 51.2187 16.481 51.2381 17.3967C51.2381 21.3393 54.2966 24.301 58.2856 24.301C60.7568 24.301 62.8847 23.1867 64.0561 21.4207L61.4955 19.8698C61.1278 20.3637 60.6426 20.7607 60.0829 21.026C59.5231 21.2913 58.9059 21.4168 58.2856 21.3914C57.7544 21.3976 57.2275 21.2983 56.736 21.0992C56.2446 20.9002 55.7988 20.6056 55.4251 20.2328C55.0513 19.8601 54.7573 19.4169 54.5607 18.9297C54.364 18.4425 54.2685 17.9211 54.2801 17.3967C54.2801 15.116 55.9595 13.3728 58.2723 13.3728H58.2591ZM29.5545 16.8005C29.5616 15.9618 29.3988 15.1303 29.0755 14.3548C28.7522 13.5793 28.275 12.8756 27.6721 12.285C27.0691 11.6944 26.3526 11.229 25.5647 10.9161C24.7768 10.6032 23.9335 10.4492 23.0843 10.4632C22.1717 10.4536 21.2664 10.624 20.4214 10.9644C19.5763 11.3049 18.8087 11.8086 18.1633 12.4459C17.518 13.0831 17.008 13.8412 16.6632 14.6758C16.3185 15.5102 16.1459 16.4043 16.1556 17.3055C16.1389 18.2202 16.3075 19.1289 16.6514 19.9783C16.9954 20.8277 17.5077 21.6007 18.1584 22.2518C18.8092 22.9029 19.5851 23.419 20.4406 23.7698C21.2961 24.1206 22.2141 24.299 23.1404 24.2945C25.9218 24.2945 28.1786 23.2062 29.1684 21.4142L26.7203 19.8632C26.0868 20.8961 24.7109 21.5478 23.1965 21.5478C21.0222 21.5478 19.5342 20.2445 19.2043 18.0973H29.4323C29.5072 17.6668 29.5437 17.2307 29.5412 16.7939L29.5545 16.8005ZM19.3066 15.7937C19.775 14.0537 21.0684 12.9655 22.9128 12.9655C24.7571 12.9655 26.1627 14.1352 26.3276 15.7937H19.3066ZM49.4993 16.8005C49.5065 15.9618 49.3435 15.1303 49.0203 14.3548C48.697 13.5793 48.2198 12.8756 47.6169 12.285C47.014 11.6944 46.2975 11.229 45.5095 10.9161C44.7216 10.6032 43.8782 10.4492 43.0292 10.4632C42.1166 10.4536 41.2113 10.624 40.3662 10.9644C39.5212 11.3049 38.7535 11.8086 38.1082 12.4459C37.4628 13.0831 36.9529 13.8412 36.608 14.6758C36.2633 15.5102 36.0907 16.4043 36.1004 17.3055C36.0833 18.2203 36.2515 19.1292 36.5953 19.9788C36.9391 20.8285 37.4514 21.6016 38.1022 22.2528C38.753 22.904 39.5292 23.4201 40.3849 23.7707C41.2407 24.1214 42.1587 24.2994 43.0852 24.2945C45.8666 24.2945 48.1234 23.2062 49.1133 21.4142L46.6618 19.8632C46.0316 20.8961 44.6525 21.5478 43.1413 21.5478C40.9638 21.5478 39.479 20.2445 39.1491 18.0973H49.3772C49.4531 17.6669 49.4906 17.2308 49.4894 16.7939L49.4993 16.8005ZM39.2612 15.7904C39.7298 14.0505 41.0231 12.9622 42.8675 12.9622C44.7119 12.9622 46.1174 14.132 46.2824 15.7904H39.2612ZM87.7031 16.8005C87.7093 15.9621 87.5467 15.131 87.2232 14.3558C86.8997 13.5808 86.4221 12.8773 85.8195 12.2871C85.2161 11.6969 84.5001 11.2318 83.7128 10.919C82.9247 10.6064 82.0814 10.4525 81.2327 10.4664C80.3204 10.4572 79.415 10.628 78.5701 10.9686C77.7253 11.3093 76.9579 11.8129 76.3131 12.4501C75.6676 13.0873 75.1578 13.8453 74.8128 14.6795C74.4678 15.5138 74.2946 16.4077 74.3038 17.3087C74.2877 18.2231 74.4563 19.1315 74.8006 19.9806C75.1448 20.8296 75.6577 21.6022 76.3078 22.253C76.9587 22.9037 77.7345 23.4196 78.5901 23.7701C79.4449 24.1207 80.3625 24.299 81.2886 24.2945C84.0669 24.2945 86.327 23.2062 87.3167 21.4142L84.8658 19.8632C84.2318 20.8961 82.8564 21.5478 81.3415 21.5478C79.1673 21.5478 77.6824 20.2445 77.3527 18.0973H87.5805C87.6564 17.6669 87.6939 17.2308 87.6932 16.7939L87.7031 16.8005ZM77.4646 15.7904C77.9331 14.0505 79.2271 12.9622 81.0709 12.9622C82.9155 12.9622 84.3176 14.132 84.4863 15.7904H77.4646ZM89.4449 24.0273H92.5V7.17554H89.4449V24.0273ZM10.6489 20.9092C9.85348 21.3816 8.93719 21.6179 8.0094 21.5902C6.98264 21.6133 5.97535 21.3107 5.13565 20.7267C4.32086 20.1382 3.75179 19.2762 3.53544 18.3025L0.5 18.7554C0.659921 19.8248 1.09752 20.8351 1.77025 21.6879C2.4475 22.5328 3.33067 23.1942 4.33719 23.6102C5.44821 24.0751 6.64455 24.3081 7.85102 24.2945C9.03218 24.3066 10.2048 24.0954 11.3055 23.6721C12.3072 23.2954 13.1825 22.6499 13.8328 21.8084C14.3938 21.0673 14.7189 20.1781 14.7666 19.254H11.7344C11.7033 19.5962 11.5882 19.9257 11.399 20.2141C11.2099 20.5026 10.9524 20.7411 10.6489 20.9092Z" fill="#333333"/>
<path d="M68.9602 18.1037H65.9052V13.617V7.17542H68.9602V10.7367H72.9828V13.617H68.9602V18.1037ZM14.0289 16.2562C13.5759 15.653 12.98 15.1685 12.2934 14.8454C11.568 14.5196 10.8164 14.2537 10.0465 14.0504L6.86594 13.1511C6.19475 13.0038 5.55269 12.7484 4.96544 12.3952C4.73483 12.2502 4.54716 12.0475 4.42143 11.8078C4.2957 11.568 4.23636 11.2997 4.24947 11.03C4.24786 10.5845 4.41499 10.1544 4.71797 9.82445C5.05882 9.45787 5.48783 9.18225 5.96514 9.02284C6.49857 8.83187 7.06435 8.74448 7.63136 8.76547C8.5363 8.76631 9.41717 9.05288 10.1455 9.58328C10.8601 10.0978 11.3534 10.8581 11.528 11.7142L14.6591 11.2027C14.4335 10.1877 13.974 9.23769 13.3162 8.42658C12.6779 7.65836 11.8558 7.05928 10.9242 6.68343C9.89441 6.26787 8.79328 6.0521 7.68088 6.04806C6.54656 6.01486 5.41722 6.20999 4.36163 6.62152C3.44059 6.98034 2.64022 7.58778 2.05212 8.37448C1.46748 9.18788 1.16535 10.1664 1.19096 11.1636C1.19096 12.5125 1.56929 13.516 2.32597 14.1742C3.13991 14.8623 4.10266 15.3571 5.14031 15.6209L9.7397 16.9633C10.3051 17.109 10.826 17.3886 11.2574 17.7778C11.3503 17.8776 11.4321 17.9868 11.5015 18.1037H14.7383C14.6752 17.4359 14.43 16.7974 14.0289 16.2562Z" fill="#333333"/>
</g>
</g>
<defs>
<clipPath id="clip0_2180_8898">
<rect width="92" height="30" fill="white" transform="translate(0.5)"/>
</clipPath>
<clipPath id="clip1_2180_8898">
<rect width="92" height="26" fill="white" transform="translate(0.5 2)"/>
</clipPath>
</defs>
</svg>
