<svg width="31" height="30" viewBox="0 0 31 30" fill="none" xmlns="http://www.w3.org/2000/svg">
<g clip-path="url(#clip0_2180_8903)">
<path fill-rule="evenodd" clip-rule="evenodd" d="M15.5 0C7.22 0 0.5 6.72 0.5 15C0.5 23.28 7.22 30 15.5 30C23.78 30 30.5 23.28 30.5 15C30.5 6.705 23.795 0 15.5 0ZM14.915 21.45H12.5V16.53C12.5 15.555 12.455 14.94 12.365 14.67C12.275 14.4 12.11 14.205 11.885 14.04C11.66 13.89 11.36 13.8 11.015 13.8C10.61 13.8 10.25 13.905 9.95 14.1C9.635 14.295 9.39499 14.595 9.25999 15C9.10999 15.405 9.03499 15.99 9.03499 16.77V21.435H6.62001V8.22H9.03499V13.32C9.81499 12.39 10.745 11.925 11.825 11.925C12.38 11.925 12.875 12.03 13.325 12.24C13.775 12.45 14.105 12.72 14.33 13.05C14.555 13.38 14.705 13.74 14.795 14.145C14.885 14.535 14.915 15.15 14.915 15.99V21.45ZM24.425 21.45H22.01V16.53C22.01 15.555 21.965 14.94 21.875 14.67C21.785 14.4 21.62 14.205 21.395 14.04C21.17 13.89 20.87 13.8 20.525 13.8C20.12 13.8 19.76 13.905 19.46 14.1C19.145 14.295 18.92 14.595 18.77 15C18.62 15.405 18.545 15.99 18.545 16.77V21.435H16.13V8.22H18.545V13.32C19.325 12.39 20.255 11.925 21.335 11.925C21.89 11.925 22.385 12.03 22.835 12.24C23.285 12.45 23.615 12.72 23.84 13.05C24.065 13.38 24.215 13.74 24.305 14.145C24.395 14.535 24.425 15.15 24.425 15.99V21.45Z" fill="#333333"/>
</g>
<defs>
<clipPath id="clip0_2180_8903">
<rect width="30" height="30" fill="white" transform="translate(0.5)"/>
</clipPath>
</defs>
</svg>
