<svg width="111" height="30" viewBox="0 0 111 30" fill="none" xmlns="http://www.w3.org/2000/svg">
<path fill-rule="evenodd" clip-rule="evenodd" d="M34.8103 28.7013H31.5654V0.940186H34.8103V28.7013ZM11.9195 26.5043C11.3821 26.5796 10.824 26.6174 10.2556 26.6174C9.19119 26.6174 8.35411 26.2968 7.73405 25.6744C7.12433 25.0426 6.81429 24.1374 6.81429 22.9587V11.4544H13.0355V9.15351H6.81429V4.6178H4.93343L3.5693 8.79518L0.5 10.0305V11.4544H3.5693V23.0812C3.5693 27.07 5.6465 29.0597 9.79054 29.0597C10.3383 29.0597 10.9583 29.0126 11.6404 28.9088C12.3225 28.8051 12.8392 28.6731 13.1906 28.5222V26.2591C12.8806 26.3439 12.4568 26.4288 11.9195 26.5043ZM15.0919 26.4194C16.9315 28.1827 19.4323 29.0597 22.5947 29.0597C24.0415 29.0597 25.2816 28.956 26.2943 28.7579C27.3174 28.5599 28.4026 28.2393 29.5496 27.7867V25.1464C27.2968 26.0233 25.0129 26.4665 22.7083 26.4665C20.5175 26.4665 18.8226 25.8725 17.6135 24.6843C16.4147 23.4961 15.774 21.7516 15.712 19.4602H30.4694V17.5837C30.4694 14.9434 29.6841 12.8217 28.1235 11.2092C26.5528 9.5967 24.4341 8.79517 21.7472 8.79517C18.8847 8.79517 16.6008 9.71929 14.8956 11.5769C13.1904 13.4252 12.343 15.9335 12.343 19.083C12.343 22.2137 13.2627 24.656 15.0919 26.4194ZM17.6032 12.8122C18.6262 11.7844 20.0007 11.2752 21.7163 11.2752C23.4111 11.2752 24.7132 11.7655 25.633 12.7651C26.5424 13.7552 26.9971 15.1886 26.9971 17.0556H15.7947C15.9807 15.2545 16.5801 13.8307 17.6032 12.8122ZM38.9019 26.4194C40.7415 28.1827 43.2424 29.0597 46.4047 29.0597C47.8516 29.0597 49.0916 28.956 50.1044 28.7579C51.1276 28.5599 52.2126 28.2393 53.3598 27.7867V25.1464C51.1069 26.0233 48.823 26.4665 46.5184 26.4665C44.3275 26.4665 42.6327 25.8725 41.4236 24.6843C40.2248 23.4961 39.584 21.7516 39.5221 19.4602H54.2898V17.5837C54.2898 14.9434 53.5044 12.8217 51.944 11.2092C50.3731 9.5967 48.2546 8.79517 45.5677 8.79517C42.705 8.79517 40.4212 9.71929 38.716 11.5769C37.0108 13.4252 36.1634 15.9335 36.1634 19.083C36.1634 22.2137 37.0728 24.656 38.9019 26.4194ZM41.4132 12.8122C42.4363 11.7844 43.8108 11.2752 45.5264 11.2752C47.2211 11.2752 48.5232 11.7655 49.443 12.7651C50.3524 13.7552 50.8072 15.1886 50.8072 17.0556H39.6048C39.7907 15.2545 40.3901 13.8307 41.4132 12.8122ZM69.0689 28.7013L68.4281 25.9195H68.2731C67.2087 27.1454 66.1338 27.9753 65.0797 28.409C64.0153 28.8427 62.6926 29.0596 61.101 29.0596C58.9722 29.0596 57.3083 28.5599 56.1095 27.5603C54.9005 26.5608 54.301 25.1369 54.301 23.2981C54.301 19.347 57.763 17.2819 64.6871 17.0933L68.3247 16.9896V15.7731C68.3247 14.2361 67.963 13.1045 67.2396 12.3785C66.5163 11.643 65.3588 11.2845 63.7673 11.2845C61.9794 11.2845 59.9642 11.7844 57.7114 12.7839L56.7192 10.5207C57.7733 10.0021 58.9308 9.58723 60.1916 9.28548C61.4524 8.98373 62.7132 8.84228 63.974 8.84228C66.5266 8.84228 68.4178 9.36092 69.6579 10.3982C70.8876 11.4355 71.5078 13.0951 71.5078 15.3771V28.7202H69.0689V28.7013ZM61.7314 26.6174C63.7467 26.6174 65.3381 26.1081 66.4955 25.0991C67.653 24.0902 68.2214 22.6757 68.2214 20.8558V19.0924L64.9764 19.215C62.3928 19.2998 60.5326 19.6676 59.3958 20.3088C58.259 20.9595 57.6804 21.9685 57.6804 23.3358C57.6804 24.4108 58.0317 25.2218 58.7448 25.7781C59.4682 26.3344 60.4603 26.6174 61.7314 26.6174ZM85.4083 27.5698C86.8964 26.5891 87.6405 25.184 87.6405 23.3642C87.6405 22.0722 87.1961 20.9973 86.2867 20.1297C85.3876 19.2716 83.6721 18.4229 81.1299 17.5743C79.28 16.9425 78.0295 16.4615 77.3784 16.1315C76.7274 15.7921 76.2521 15.4432 75.9626 15.0754C75.663 14.7076 75.5183 14.2645 75.5183 13.7363C75.5183 12.9631 75.911 12.3596 76.6964 11.9165C77.4818 11.4732 78.6392 11.2563 80.179 11.2563C81.9256 11.2563 83.8787 11.6618 86.0283 12.4728L87.1858 10.0682C84.9742 9.2101 82.7213 8.78576 80.4168 8.78576C77.9365 8.78576 75.9833 9.24782 74.5675 10.1719C73.1517 11.0961 72.4387 12.3502 72.4387 13.9438C72.4387 14.8397 72.6454 15.6035 73.0587 16.2446C73.4721 16.8953 74.1025 17.4611 74.9395 17.9704C75.7767 18.4701 77.1925 19.0642 79.187 19.7431C81.2849 20.4787 82.7007 21.1198 83.424 21.6574C84.1475 22.1949 84.5092 22.8455 84.5092 23.6094C84.5092 24.6183 84.0545 25.3726 83.145 25.863C82.2356 26.3628 80.9335 26.608 79.2386 26.608C78.1432 26.608 77.0064 26.4665 75.8283 26.193C74.6399 25.9196 73.5444 25.5424 72.5109 25.0709V27.815C74.1025 28.6354 76.314 29.0503 79.156 29.0503C81.8326 29.0503 83.9201 28.5599 85.4083 27.5698ZM88.8076 3.85396C88.8076 3.17502 88.9936 2.67524 89.3553 2.36406C89.717 2.05288 90.1718 1.89258 90.7195 1.89258C91.2362 1.89258 91.6909 2.05288 92.0733 2.37349C92.4557 2.6941 92.6417 3.18445 92.6417 3.85396C92.6417 4.52347 92.4557 5.01382 92.0733 5.34386C91.6909 5.6739 91.2465 5.83421 90.7195 5.83421C90.1718 5.83421 89.717 5.6739 89.3553 5.34386C88.9833 5.01382 88.8076 4.51404 88.8076 3.85396ZM92.3213 28.7013H89.0764V9.14405H92.3213V28.7013ZM107.42 25.9195L108.061 28.7013V28.7202H110.5V15.3771C110.5 13.0951 109.88 11.4355 108.65 10.3982C107.41 9.36092 105.518 8.84228 102.966 8.84228C101.705 8.84228 100.444 8.98373 99.1838 9.28548C97.9231 9.58723 96.7655 10.0021 95.711 10.5207L96.7036 12.7839C98.956 11.7844 100.971 11.2845 102.759 11.2845C104.35 11.2845 105.508 11.643 106.231 12.3785C106.955 13.1045 107.317 14.2361 107.317 15.7731V16.9896L103.679 17.0933C96.7552 17.2819 93.2929 19.347 93.2929 23.2981C93.2929 25.1369 93.8926 26.5608 95.1017 27.5603C96.3006 28.5599 97.9643 29.0596 100.093 29.0596C101.685 29.0596 103.007 28.8427 104.072 28.409C105.125 27.9753 106.201 27.1454 107.265 25.9195H107.42ZM105.498 25.0991C104.34 26.1081 102.748 26.6174 100.733 26.6174C99.4518 26.6174 98.4602 26.3344 97.7469 25.7781C97.0336 25.2218 96.6821 24.4108 96.6821 23.3358C96.6821 21.9685 97.2613 20.9595 98.3983 20.3088C99.5353 19.6676 101.395 19.2998 103.978 19.215L107.223 19.0924V20.8558C107.223 22.6757 106.655 24.0902 105.498 25.0991Z" fill="#333333"/>
</svg>
