<svg width="106" height="30" viewBox="0 0 106 30" fill="none" xmlns="http://www.w3.org/2000/svg">
<g clip-path="url(#clip0_2006_902)">
<g clip-path="url(#clip1_2006_902)">
<path d="M13.8499 1.42859C6.65348 1.42859 0.758545 7.36858 0.758545 14.7936C0.758545 22.1404 6.57692 28.1586 13.8499 28.1586C21.0463 28.1586 26.9413 22.2186 26.9413 14.7936C26.9413 7.44674 21.0463 1.42859 13.8499 1.42859ZM13.8499 27.0644C7.18938 27.0644 1.83035 21.5933 1.83035 14.7936C1.83035 7.99385 7.18938 2.5228 13.8499 2.5228C20.5104 2.5228 25.8694 7.99385 25.8694 14.7936C25.946 21.5933 20.5104 27.0644 13.8499 27.0644Z" fill="#333333"/>
<path d="M13.85 24.7979C14.3094 24.7979 14.5391 24.4852 14.6156 24.0944C14.6922 24.2507 14.8453 24.4071 14.9984 24.4852C15.1515 24.4852 15.3812 24.4852 15.5343 24.4071C15.6874 24.3289 15.8405 24.1726 15.9171 24.0163C15.9937 23.86 15.9937 23.6255 15.9171 23.4692C16.1468 23.7818 16.453 23.86 16.8358 23.7036C17.2951 23.4692 17.4482 23.1565 17.2186 22.6876C16.6827 21.3589 16.1468 20.1084 15.6109 18.7797C15.5343 18.6234 15.5343 18.5452 15.4577 18.3889C15.3812 18.3107 15.3812 18.2326 15.3046 18.1544C15.3046 18.0763 15.2281 18.0763 15.1515 17.9981C15.9937 18.0763 16.3764 18.3889 16.6061 18.5452C16.6827 18.6234 16.6827 18.6234 16.9123 18.5452C16.9889 18.5452 17.142 18.5452 17.2186 18.5452C17.2951 18.6234 17.4482 18.7015 17.5248 18.7015C17.831 18.936 18.1373 19.1705 18.4435 19.405C18.5966 19.5613 18.7497 19.7176 18.7497 19.9521C18.7497 20.1084 18.2904 20.4992 18.2138 20.6555C17.9076 20.9681 18.3669 21.4371 18.9794 21.4371C18.8263 21.2807 18.7497 21.1244 18.8263 20.9681C18.9028 20.9681 18.9794 20.9681 19.1325 20.89C19.2856 20.8118 19.2091 20.421 19.2856 20.3429C19.5153 20.1084 20.1278 20.1084 20.5871 20.1084C20.7402 20.1084 20.9699 20.0302 20.8933 19.7957C21.123 19.7957 21.1996 20.0302 21.1996 20.1865C21.4292 20.0302 21.5824 19.4831 20.8168 19.3268C20.9699 19.1705 21.1996 19.1705 21.3527 19.3268C21.5058 19.0923 21.123 18.7015 20.5105 18.936C20.5105 18.936 20.2043 18.5452 19.4387 19.4831C19.3622 19.405 19.2091 19.3268 19.1325 19.2486C18.8263 18.936 18.0607 18.1544 18.0607 18.1544C18.0607 17.6855 17.9841 16.8257 17.4482 16.3568C17.2186 16.1223 16.9889 16.0442 16.453 15.8879C16.453 15.8879 16.6827 15.4971 16.7592 15.3407C17.2186 15.8097 18.1373 15.966 18.1373 15.1844C18.9028 15.966 19.5919 15.4971 19.5919 15.0281C19.5919 15.2626 19.6684 15.4971 19.745 15.7315C19.8215 15.966 20.2043 16.9821 21.0465 16.9821C21.0465 17.2947 21.0465 18.4671 22.1183 18.7015C22.1948 18.7015 22.1948 18.7015 22.2714 18.7797C22.7307 19.3268 24.4915 19.8739 24.6447 19.7176C24.4915 19.6394 24.2619 19.4831 24.2619 18.8579C24.2619 18.4671 24.1853 16.2786 24.1853 13.2305C24.1853 12.1363 24.1088 8.61918 20.6637 8.15023C20.1278 8.07207 19.6684 8.15023 19.2091 8.46286C18.5966 8.93181 18.2904 9.71338 18.6732 10.5731V10.6513C18.8263 10.8858 18.7497 11.0421 18.5966 11.1984C18.2904 11.511 17.9842 11.6673 17.6014 11.7455C17.3717 11.7455 17.142 11.6673 16.9889 11.511C16.6061 11.1202 16.3764 10.6513 16.2233 10.1042C16.0702 9.08812 16.2999 8.54102 16.2999 8.46286C16.6061 7.91576 17.142 7.44681 17.831 7.44681C18.1373 6.82154 19.056 7.05602 19.056 7.05602C19.2856 7.13418 19.3622 7.13418 19.4387 7.29049C19.4387 7.29049 19.8215 6.66523 19.4387 6.43076C19.056 6.19629 18.2138 6.11813 18.2138 6.11813C18.2138 5.72734 17.6014 5.41471 16.3764 5.64918C14.9984 5.88365 14.6922 5.33655 14.6922 5.33655C14.6156 6.03997 15.1515 6.3526 15.3046 6.50892C14.7687 7.13418 14.0032 8.30655 13.85 9.94786C13.6969 8.30655 12.9313 7.13418 12.3954 6.50892C12.5486 6.43076 13.0845 6.03997 13.0079 5.33655C13.0079 5.33655 12.7017 5.88365 11.3236 5.64918C10.1753 5.41471 9.48625 5.72734 9.48625 6.11813C9.48625 6.11813 8.64412 6.19629 8.26133 6.43076C7.87855 6.66523 8.26133 7.29049 8.26133 7.29049C8.33789 7.21234 8.41445 7.13418 8.64412 7.05602C8.64412 7.05602 9.56281 6.82154 9.86904 7.44681C10.5581 7.52497 11.094 7.91576 11.4002 8.46286C11.4002 8.46286 11.7064 9.00997 11.4768 10.1042C11.4002 10.6513 11.094 11.1202 10.7112 11.511C10.5581 11.6673 10.3284 11.8236 10.0987 11.7455C9.71593 11.6673 9.4097 11.511 9.10347 11.1984C8.95035 11.0421 8.87379 10.8858 9.02691 10.6513V10.5731C9.4097 9.71338 9.10347 8.93181 8.49101 8.46286C8.03166 8.15023 7.57232 8.07207 7.03641 8.15023C3.66788 8.61918 3.51476 12.1363 3.51476 13.2305C3.51476 16.2786 3.43821 18.4671 3.43821 18.8579C3.43821 19.4831 3.20854 19.6394 3.05542 19.7176C3.28509 19.8739 5.04592 19.3268 5.4287 18.7797C5.4287 18.7797 5.50526 18.7015 5.58182 18.7015C6.65362 18.4671 6.65362 17.2947 6.65362 16.9821C7.49576 16.9821 7.87854 15.966 7.9551 15.7315C8.03166 15.4971 8.10822 15.2626 8.10822 15.0281C8.10822 15.4971 8.79724 15.8879 9.56282 15.1844C9.56282 15.966 10.4815 15.8097 10.9408 15.3407C11.0174 15.4971 11.2471 15.8879 11.2471 15.8879C10.7112 15.966 10.4815 16.1223 10.2518 16.3568C9.63937 16.9039 9.63937 17.7636 9.63937 18.1544C9.63937 18.1544 8.8738 18.936 8.56756 19.2486C8.49101 19.3268 8.33789 19.405 8.26133 19.4831C7.4192 18.5452 7.18953 18.936 7.18953 18.936C6.57706 18.7015 6.27084 19.0923 6.34739 19.3268C6.50051 19.1705 6.73018 19.2486 6.8833 19.3268C6.04117 19.4831 6.27084 20.1084 6.50051 20.1865C6.50051 20.0302 6.57706 19.7957 6.80674 19.7957C6.80674 20.0302 6.95985 20.1084 7.11297 20.1084C7.49576 20.1084 8.18478 20.1084 8.41445 20.3429C8.56757 20.421 8.49101 20.8118 8.56756 20.89C8.64412 20.9681 8.79724 20.9681 8.8738 20.9681C8.8738 21.1244 8.87379 21.2026 8.72068 21.4371C9.33314 21.5152 9.71593 20.9681 9.48625 20.6555C9.33314 20.4992 8.95035 20.1084 8.95035 19.9521C8.95035 19.7957 9.10347 19.5613 9.25658 19.405C9.56281 19.1705 9.86904 18.936 10.1753 18.7015C10.2518 18.6234 10.3284 18.5452 10.4815 18.5452C10.5581 18.4671 10.7112 18.4671 10.7877 18.5452C11.0174 18.6234 11.0174 18.6234 11.094 18.5452C11.3236 18.3889 11.7064 18.0763 12.5486 17.9981C12.472 17.9981 12.472 18.0763 12.3954 18.1544C12.3189 18.2326 12.3189 18.3107 12.2423 18.3889C12.1658 18.4671 12.1658 18.6234 12.0892 18.7797C11.5533 20.1084 11.0174 21.3589 10.4815 22.6876C10.3284 23.1565 10.4815 23.4692 10.8643 23.7036C11.1705 23.86 11.5533 23.7818 11.783 23.4692C11.7064 23.7036 11.7064 23.86 11.783 24.0163C11.8595 24.1726 12.0127 24.3289 12.1658 24.4071C12.3189 24.4852 12.5486 24.4852 12.7017 24.4852C12.9313 24.4071 13.0079 24.3289 13.0845 24.0944C13.161 24.4852 13.3907 24.7979 13.85 24.7979Z" fill="#333333"/>
<path d="M35.8997 10.1042C36.5887 10.1042 38.1199 10.026 38.962 9.94788C38.962 10.1042 38.962 10.3387 38.962 10.4168C38.962 10.495 38.962 10.7295 38.962 10.8858C38.1964 10.8076 36.9715 10.7295 36.5887 10.7295C36.2825 10.7295 35.2872 10.7295 34.6748 10.8076V14.0902H35.3638C36.7418 14.0902 39.4979 14.3247 39.4979 16.7476C39.4979 18.7016 37.8902 19.5613 35.8231 19.5613C35.5935 19.5613 34.7513 19.5613 34.1389 19.5613C33.9092 19.5613 33.603 19.5613 33.3733 19.5613C33.4498 18.0763 33.4499 16.1223 33.4499 14.481C33.4499 12.996 33.4498 10.7295 33.3733 10.026C34.2154 10.026 35.5935 10.1042 35.8997 10.1042ZM34.6748 18.8579C34.981 18.8579 35.4404 18.8579 35.7466 18.8579C37.2777 18.8579 38.1199 18.1544 38.1199 16.7476C38.1199 15.2626 37.0481 14.7937 34.5982 14.7937V18.8579H34.6748Z" fill="#333333"/>
<path d="M40.9529 13.6995C41.4888 13.0742 42.4075 12.7616 43.1731 12.7616C44.5511 12.7616 45.4698 13.465 45.4698 15.1063V18.389C45.4698 19.0924 45.6229 19.2487 45.8526 19.2487C45.9291 19.2487 46.0823 19.2487 46.1588 19.1705L46.2354 19.4832C45.8526 19.7176 45.4698 19.7176 45.2401 19.7176C44.7808 19.7176 44.5511 19.4832 44.4745 19.1705L44.398 18.8579C43.709 19.405 42.9434 19.7176 42.3309 19.7176C41.1826 19.7176 40.417 19.0924 40.417 17.9982C40.417 16.8258 41.2591 16.2787 42.484 16.0442L43.7855 15.8098C44.2449 15.7316 44.4745 15.5753 44.4745 15.2626C44.4745 13.8558 43.8621 13.465 42.8668 13.465C42.1013 13.465 41.5654 13.6995 41.106 14.5592H40.9529V13.6995ZM44.4745 16.2005L43.6324 16.3569C42.7137 16.5132 41.6419 16.8258 41.6419 17.8419C41.6419 18.6234 42.0247 19.0142 42.8668 19.0142C43.4027 19.0142 43.8621 18.8579 44.398 18.2326V16.2005H44.4745Z" fill="#333333"/>
<path d="M48.0723 12.9959C48.2254 12.9959 48.4551 12.9959 48.6848 12.9959C48.6082 14.012 48.5317 15.6533 48.5317 15.7314C49.0676 15.7314 49.8331 15.8096 50.2925 15.8096C50.7518 15.8096 51.5174 15.8096 51.9002 15.7314C51.9002 15.6533 51.9002 14.012 51.8236 12.9959C52.0533 12.9959 52.3595 12.9959 52.5127 12.9959C52.6658 12.9959 52.8955 12.9959 53.1251 12.9959C53.0486 14.012 52.972 15.6533 52.972 16.3567C52.972 16.9038 52.972 18.7014 53.1251 19.7175C52.8955 19.7175 52.7423 19.7175 52.5127 19.7175C52.283 19.7175 52.0533 19.7175 51.8236 19.7175C51.9002 18.7014 51.9002 16.9038 51.9002 16.513C51.3643 16.4349 50.5222 16.4349 50.2925 16.4349C49.9097 16.4349 49.0676 16.4349 48.5317 16.513C48.5317 16.982 48.5317 18.7014 48.6848 19.7175C48.4551 19.7175 48.302 19.7175 48.0723 19.7175C47.8427 19.7175 47.613 19.7175 47.3833 19.7175C47.4599 18.7014 47.5364 16.9038 47.5364 16.3567C47.5364 15.6533 47.5364 14.012 47.3833 12.9959C47.613 12.9178 47.9192 12.9959 48.0723 12.9959Z" fill="#333333"/>
<path d="M55.4986 12.996C55.6517 12.996 55.8814 12.996 56.1111 12.996C56.0345 14.0121 56.0345 15.6534 56.0345 15.8878H56.2642C56.7235 15.8878 58.8671 13.3868 59.0968 12.996C59.2499 12.996 59.5561 12.996 59.7093 12.996C59.8624 12.996 60.1686 12.996 60.3217 12.996L57.2594 15.8097C57.6422 16.2786 59.7093 18.6234 60.6279 19.6394C60.2452 19.6394 60.0155 19.6394 59.8624 19.6394C59.6327 19.6394 59.2499 19.6394 59.0202 19.6394C58.5609 18.8578 57.1063 17.1384 56.2642 16.2005H56.0345C56.0345 16.6694 56.0345 18.6234 56.1111 19.6394C55.9579 19.6394 55.7283 19.6394 55.4986 19.6394C55.2689 19.6394 55.0392 19.6394 54.8096 19.6394C54.8861 18.6234 54.9627 16.8257 54.9627 16.2786C54.9627 15.5752 54.9627 13.9339 54.8096 12.9178C55.0392 12.9178 55.2689 12.996 55.4986 12.996Z" fill="#333333"/>
<path d="M66.2174 10.026C66.6767 10.026 67.2126 9.94788 67.5954 9.94788C69.9687 9.94788 70.8874 10.6513 70.8874 12.3708C70.8874 14.481 69.1266 15.1844 66.983 15.1844C66.8299 15.1844 66.3705 15.1844 66.1408 15.1063V17.3729C66.1408 17.9981 66.1408 18.8579 66.2174 19.4831C65.9877 19.4831 65.758 19.4831 65.5284 19.4831C65.2987 19.4831 64.9925 19.4831 64.8394 19.4831C64.9159 17.9981 64.9159 16.0442 64.9159 14.4029C64.9159 12.9179 64.9159 10.6513 64.8394 9.94788C65.3753 10.026 65.9112 10.026 66.2174 10.026ZM66.7533 14.5592C68.5907 14.5592 69.5859 13.8558 69.5859 12.4489C69.5859 11.1202 68.5907 10.8076 67.2892 10.8076C67.0595 10.8076 66.2939 10.8076 66.1408 10.8076V14.481C66.3705 14.5592 66.6002 14.5592 66.7533 14.5592Z" fill="#333333"/>
<path d="M77.6238 16.2005C77.6238 18.2326 76.3224 19.7176 74.3319 19.7176C72.3414 19.7176 71.1165 18.2326 71.1165 16.3569C71.1165 14.1684 72.4945 12.7616 74.485 12.7616C76.3989 12.7616 77.6238 14.2466 77.6238 16.2005ZM72.3414 16.3569C72.3414 17.8419 72.9538 19.2487 74.3319 19.2487C75.6334 19.2487 76.3989 17.92 76.3989 16.2005C76.3989 14.7937 75.863 13.3087 74.4084 13.3087C73.0304 13.3087 72.3414 14.7937 72.3414 16.3569Z" fill="#333333"/>
<path d="M83.9026 14.4028H83.7495C83.2901 13.6213 82.6777 13.3868 81.9887 13.3868C80.4575 13.3868 79.7685 14.8718 79.7685 16.3568C79.7685 17.9981 80.6872 19.3268 82.2949 19.3268C82.8308 19.3268 83.2901 19.2486 84.0557 18.3889L84.2088 18.5452L84.0557 19.1705C83.4433 19.5613 82.7542 19.7957 81.9121 19.7957C79.9216 19.7957 78.6201 18.3889 78.6201 16.3568C78.6201 14.2465 80.0747 12.9178 82.1418 12.9178C82.8308 12.9178 83.5198 13.0742 84.3619 13.465L83.9026 14.4028Z" fill="#333333"/>
<path d="M90.4854 14.4029H90.3323C89.8729 13.6213 89.2605 13.3868 88.5715 13.3868C87.0403 13.3868 86.3513 14.8718 86.3513 16.3568C86.3513 17.9981 87.27 19.3268 88.8777 19.3268C89.4136 19.3268 89.8729 19.2487 90.6385 18.3889L90.7151 18.5452L90.4854 19.0924C89.8729 19.4831 89.1839 19.7176 88.3418 19.7176C86.3513 19.7176 85.0498 18.3108 85.0498 16.2787C85.0498 14.1684 86.5044 12.8397 88.5715 12.8397C89.2605 12.8397 89.9495 12.996 90.7916 13.3868L90.4854 14.4029Z" fill="#333333"/>
<path d="M92.4006 19.5613C92.3241 19.5613 92.0944 19.5613 92.0178 19.5613C92.0944 18.5452 92.1709 16.7476 92.1709 16.2005C92.1709 15.4971 92.1709 13.8558 92.0178 12.8397C92.2475 12.8397 92.5537 12.8397 92.7068 12.8397C92.86 12.8397 93.0896 12.8397 93.3193 12.8397C93.2427 13.8558 93.1662 15.4971 93.1662 16.2005C93.1662 16.7476 93.1662 17.5292 93.1662 17.92C93.8552 17.0602 96.3816 13.7776 96.9941 12.9179C97.1472 12.9179 97.2237 12.9179 97.3769 12.9179C97.4534 12.9179 97.7597 12.9179 97.8362 12.9179C97.7597 13.9339 97.6831 15.5752 97.6831 16.2787C97.6831 16.8258 97.6831 18.6234 97.8362 19.6394C97.6065 19.6394 97.4534 19.6394 97.2238 19.6394C96.9941 19.6394 96.7644 19.6394 96.5347 19.6394C96.6113 18.6234 96.6878 16.8258 96.6878 16.2787C96.6878 15.5752 96.6878 14.7155 96.6878 14.481C95.8457 15.4189 93.4724 18.4671 92.7834 19.6394C92.6303 19.5613 92.4772 19.5613 92.4006 19.5613Z" fill="#333333"/>
<path d="M99.6733 19.5613C99.5968 19.5613 99.3671 19.5613 99.2905 19.5613C99.3671 18.5452 99.3671 16.7476 99.3671 16.2005C99.3671 15.4971 99.3671 13.8558 99.2905 12.8397C99.5202 12.8397 99.8264 12.8397 99.9795 12.8397C100.133 12.8397 100.362 12.8397 100.592 12.8397C100.515 13.8558 100.439 15.4971 100.439 16.2005C100.439 16.7476 100.439 17.5292 100.439 17.92C101.128 17.0602 103.654 13.7776 104.267 12.9179C104.42 12.9179 104.496 12.9179 104.65 12.9179C104.726 12.9179 105.032 12.9179 105.109 12.9179C105.032 13.9339 105.032 15.5752 105.032 16.2787C105.032 16.8258 105.032 18.6234 105.109 19.6394C104.879 19.6394 104.726 19.6394 104.496 19.6394C104.267 19.6394 104.037 19.6394 103.807 19.6394C103.884 18.6234 103.884 16.8258 103.884 16.2787C103.884 15.5752 103.884 14.7155 103.884 14.481C103.042 15.4189 100.669 18.4671 99.9795 19.6394C99.903 19.5613 99.8264 19.5613 99.6733 19.5613Z" fill="#333333"/>
</g>
</g>
<defs>
<clipPath id="clip0_2006_902">
<rect width="104.483" height="30" fill="white" transform="translate(0.758545)"/>
</clipPath>
<clipPath id="clip1_2006_902">
<rect width="104.483" height="30" fill="white" transform="translate(0.758545)"/>
</clipPath>
</defs>
</svg>
