<svg width="44" height="30" viewBox="0 0 44 30" fill="none" xmlns="http://www.w3.org/2000/svg">
<g clip-path="url(#clip0_2006_511)">
<path fill-rule="evenodd" clip-rule="evenodd" d="M12.2642 9.06475H0.715942V18.1295H3.70993V21.1511H0.715942V30H21.2462V28.2723C20.1156 27.9359 19.1427 27.2283 18.466 26.2894V27.1942H12.2642V21.1511H9.69791V27.1942H3.70993V23.9568H6.49007V14.8921H3.70993V11.8705H9.69791V18.1295H12.2642V11.8705H18.466V14.8921H15.472V23.9568H17.5172C17.4781 23.6954 17.4579 23.4277 17.4579 23.1553C17.4579 21.9839 17.8319 20.9008 18.466 20.0208V18.1295H20.9671C21.059 18.0964 21.152 18.0658 21.2462 18.0378V6.04317H18.466V9.06475H15.472V3.02158H30.2281V9.06475H27.2341V6.04317H24.454V18.1065C24.4758 18.1141 24.4975 18.1217 24.5191 18.1295H27.448V20.7225C27.819 21.4519 28.0284 22.2789 28.0284 23.1553C28.0284 23.4277 28.0081 23.6954 27.9691 23.9568H30.2281V14.8921H27.2341V11.8705H37.2854C37.2854 11.8705 42.7635 13.813 39.5557 19.4245C42.7635 25.036 37.2854 27.1942 37.2854 27.1942H27.2341V25.9688C26.5961 27.004 25.6163 27.8024 24.454 28.2036V30H37.2854C37.2854 30 45.6301 28.4892 42.6352 19.4245C45.6301 10.3597 37.2854 9.06475 37.2854 9.06475H33.2221V0H12.2642V9.06475ZM33.2221 18.1295V14.8921H36.0023C37.927 14.8921 37.927 18.1295 36.0023 18.1295H33.2221ZM33.2221 24.1727V20.9353H36.0023C37.927 20.9353 37.927 24.1727 36.0023 24.1727H33.2221Z" fill="#333333"/>
<path opacity="0.5" fill-rule="evenodd" clip-rule="evenodd" d="M22.7431 28.4893C25.6623 28.4893 28.0284 26.1009 28.0284 23.1553C28.0284 20.2093 25.6623 17.8209 22.7431 17.8209C19.824 17.8209 17.4579 20.2093 17.4579 23.1553C17.4579 26.1009 19.824 28.4893 22.7431 28.4893ZM20.178 19.6425L20.9906 20.2878C21.1189 19.9425 21.5659 19.4677 21.5659 19.4677L20.8195 19.1223C20.8195 19.1223 20.3918 19.3382 20.178 19.6425ZM20.6049 23.0936C20.1772 21.7986 20.8187 20.5037 20.8187 20.5037L19.9633 19.8562C19.9633 19.8562 19.1079 20.5037 19.1079 22.2303L20.6049 23.0936Z" fill="#333333"/>
</g>
<defs>
<clipPath id="clip0_2006_511">
<rect width="42.5681" height="30" fill="white" transform="translate(0.715942)"/>
</clipPath>
</defs>
</svg>
