<svg width="62" height="30" viewBox="0 0 62 30" fill="none" xmlns="http://www.w3.org/2000/svg">
<g clip-path="url(#clip0_2006_1092)">
<path opacity="0.5" fill-rule="evenodd" clip-rule="evenodd" d="M0.5 30H30.5V0H0.5V30Z" fill="#333333"/>
<path fill-rule="evenodd" clip-rule="evenodd" d="M30.5 30H61.5V0H30.5V30Z" fill="#333333"/>
<path fill-rule="evenodd" clip-rule="evenodd" d="M55.6459 9.62602C55.6489 9.49426 55.6729 8.56787 55.6749 8.44314H55.8981C56.7596 8.44314 56.9042 8.59704 56.9843 9.62653H55.6459V9.62602ZM58.0975 9.11203C57.9624 7.96034 57.4281 7.36085 56.1653 7.36085H54.5592L54.3411 13.8687H55.5113C55.5113 13.8687 55.6194 10.8501 55.6254 10.7073L57.1038 10.7088C57.1174 10.8401 57.339 13.8682 57.339 13.8682H58.5468C58.5468 13.8682 58.1315 9.3977 58.098 9.11203H58.0975ZM41.4479 18.5635C41.4504 18.4317 41.4744 17.5054 41.4764 17.3801L41.6866 17.3671C42.5481 17.3671 42.7057 17.5345 42.7858 18.564H41.4479V18.5635ZM43.8995 18.0495C43.7644 16.8978 43.229 16.2978 41.9667 16.2978H40.3607L40.1426 22.8057H41.3128C41.3128 22.8057 41.4204 19.7871 41.4269 19.6443L42.9053 19.6458C42.9188 19.7776 43.1405 22.8057 43.1405 22.8057H44.3483C44.3483 22.8057 43.933 18.3352 43.899 18.0495H43.8995ZM35.1189 7.36085V13.8667H36.3016V8.44264H37.7671V13.8667H38.9513V7.36085H35.1189ZM47.6298 9.62653H46.9859C46.7198 9.62653 46.5221 9.56618 46.3966 9.44497C46.3075 9.36048 46.264 9.24581 46.264 9.09695V7.36085H45.0782V9.21815C45.0782 9.64664 45.2463 10.0088 45.5765 10.2964C45.9022 10.5811 46.3015 10.7249 46.7643 10.7249H47.6298V13.8667H48.8136V7.36085H47.6298V9.62653ZM50.1239 7.36085V8.44264H51.1065V13.8667H52.3043V8.44264H53.2869V7.36085H50.1239ZM48.3873 16.2978V18.3774H46.7643V16.2978H45.5835V22.8067H46.7643V19.4592H48.3878V22.8067H49.5686V16.2978H48.3873ZM36.7054 21.7993C36.5903 21.7993 36.3016 21.7722 36.3016 21.7722V19.4819C36.3016 19.4819 36.3942 19.4597 36.4963 19.4597C37.0962 19.4597 37.8051 19.4245 37.8051 20.6285C37.8051 21.7319 37.0261 21.7993 36.7054 21.7993ZM36.849 18.4272C36.6449 18.4272 36.4637 18.4322 36.3016 18.4398V17.3801H38.424V16.2983H35.1189V22.8042H36.914C38.7037 22.8042 38.9808 21.1948 38.9808 20.5989C38.9808 19.8937 38.7057 18.4272 36.849 18.4272ZM41.2433 10.6253C41.2533 8.86359 41.6836 8.28422 42.1374 8.27567C42.5906 8.28422 43.0209 8.86409 43.0309 10.6248V10.6253C43.0209 12.3453 42.5906 12.9328 42.1374 12.9418C41.6836 12.9328 41.2533 12.3453 41.2433 10.6253ZM44.2092 10.3839C44.1887 9.45352 44.0306 8.78664 43.7859 8.31289C43.4007 7.50318 42.7858 7.20142 42.1514 7.19337L42.1474 7.19287H42.1228C41.4884 7.20092 40.8741 7.50318 40.4883 8.31289C40.2431 8.78664 40.0855 9.45352 40.065 10.3839L40.0625 10.5952V10.5947C40.0635 11.1745 40.1276 11.7363 40.2517 12.1894C40.5769 13.5222 41.3273 13.9939 42.1103 14.0085L42.1268 14.009H42.1474L42.1639 14.0085C42.9469 13.9939 43.6973 13.5227 44.0225 12.1894C44.1476 11.7368 44.2112 11.1745 44.2117 10.5947L44.2092 10.3839ZM55.4598 22.8047L54.0364 18.991C54.3321 18.7682 54.5617 18.3417 54.6643 17.9167C54.7639 17.5044 54.8944 16.2978 54.8944 16.2978H53.7302C53.7114 16.6166 53.6884 16.9352 53.6612 17.2534C53.6076 17.875 53.426 18.4488 52.7976 18.4488H52.3123C52.3113 18.397 52.3123 16.2978 52.3123 16.2978H51.1286V22.8067H52.3123V19.502C52.3123 19.502 52.9382 19.503 53.0268 19.502L54.1895 22.8047H55.4603H55.4598Z" fill="white"/>
<path fill-rule="evenodd" clip-rule="evenodd" d="M9.45363 9.80198C9.67127 10.2883 10.0275 10.7872 11.0026 11.4606C11.2188 11.6115 11.4594 11.9248 11.2778 12.3659C11.0927 12.8065 10.75 13.4321 10.9541 13.677C11.1607 13.9204 11.8952 14.0477 12.4921 13.8053C12.4921 13.8053 12.6171 14.1865 12.8368 14.4309C12.8368 14.4309 12.7332 14.6411 12.3895 14.535C12.3895 14.535 12.5146 14.8483 12.342 15.1853C12.342 15.1853 11.9417 15.1159 11.7696 14.7437C11.7696 14.7437 11.608 15.0334 11.2873 15.138C11.2873 15.138 11.0236 15.0002 11.0822 14.4641C11.0822 14.4641 10.886 14.9414 10.2912 15.0213C10.2912 15.0213 9.94595 14.5813 10.3932 13.9898C10.3932 13.9898 10.072 14.28 9.48916 14.1407C9.48916 14.1407 9.3961 13.839 9.92293 13.4215C9.92293 13.4215 9.32655 13.3979 9.09791 12.8874C9.09791 12.8874 9.35007 12.5736 9.96846 12.644C9.96846 12.644 9.3961 12.5158 9.26952 11.8197C9.26952 11.8197 9.68228 11.5532 10.3362 11.9822C10.3362 11.9822 10.2201 11.7624 9.94595 11.5421C9.67127 11.3208 9.33806 10.7062 9.45363 9.80198ZM11.8537 16.7997C11.773 16.6933 11.7058 16.5772 11.6535 16.4542C11.7566 17.2981 11.7921 17.8669 12.2429 18.4136C12.2429 18.4136 12.5146 18.0479 12.34 17.1598C12.2537 17.1344 12.1718 17.0957 12.0973 17.0451C12.0973 17.0451 12.1999 17.4057 12.1348 17.7683C12.1348 17.7683 11.9737 17.6496 11.8537 16.7997ZM11.0742 16.7122C10.996 16.6115 10.9251 16.5052 10.862 16.3943C10.825 16.8847 10.6964 18.1737 11.1237 18.578C11.1237 18.578 11.4169 18.3613 11.5189 16.4793C11.4574 16.5849 11.3488 16.6971 11.2953 16.7584C11.2953 16.7584 11.3668 17.3554 11.1552 17.7769C11.1552 17.7769 10.9436 17.6139 11.0742 16.7122ZM10.056 17.6979C10.4137 17.2629 10.5223 15.9598 10.5223 15.9598C10.5723 15.9256 10.6214 15.8894 10.6729 15.8487C10.6909 15.8316 10.7119 15.815 10.7304 15.7964C10.7304 15.8431 10.7324 15.8929 10.7374 15.9422C10.6854 16.7268 10.6244 17.5345 10.3822 17.9368C10.1451 18.3316 9.7083 18.5358 9.7083 18.5358C9.30054 17.8 9.79335 16.8133 10.2086 16.1268C10.2586 16.1077 10.3102 16.083 10.3632 16.0564C10.2181 16.5844 9.94144 17.2136 10.056 17.6979ZM9.04137 15.4358C9.03873 15.5185 9.05374 15.6008 9.0854 15.6772C8.74268 16.0171 8.48902 16.3425 7.9817 17.0552C7.47388 17.7683 6.66937 17.797 6.66937 17.797C6.74742 17.2191 6.90201 16.763 7.33329 16.2706C7.76356 15.7787 8.31391 15.3286 8.71817 15.0314C8.85959 15.0941 9.01666 15.112 9.16845 15.0827C9.12043 15.1454 9.08523 15.217 9.06489 15.2934C8.75769 15.471 7.86913 15.9271 7.5089 16.6629C7.5089 16.6629 8.07126 16.4828 9.04137 15.4358ZM8.40497 14.7171L8.43749 14.6557C8.4505 14.6356 8.4605 14.6175 8.47451 14.6004C8.1433 14.7296 6.96606 15.1793 6.58531 15.3784C6.20407 15.5796 5.65222 16.0322 5.35303 16.9541C5.35303 16.9541 6.14754 17.0255 6.80295 16.4773C7.45937 15.9266 8.22385 15.1612 8.55006 14.9182C8.52196 14.8925 8.49664 14.8638 8.47451 14.8327C8.47451 14.8327 7.58645 15.6274 6.64835 15.9714C6.64835 15.9714 6.84848 15.6022 7.22022 15.3352C7.6715 15.0108 8.00972 14.9016 8.40497 14.7171ZM7.73054 14.1724C7.74355 14.1407 7.75656 14.1105 7.77057 14.0824C7.38132 14.1618 6.4112 14.28 5.97643 14.4138C5.54315 14.5496 4.75865 14.87 4.29286 15.7692C4.29286 15.7692 4.97629 15.9819 6.26561 15.3689C7.55493 14.7543 7.95969 14.6265 8.20534 14.5607C8.06157 14.552 7.92202 14.5085 7.79858 14.4339C7.28426 14.6663 6.59632 14.9399 5.91339 14.9585C5.91339 14.9585 6.2491 14.7181 6.60383 14.5662C6.98707 14.4053 7.40934 14.2569 7.73054 14.1724ZM7.76406 13.5266C7.88964 13.5865 7.9867 13.6162 8.15181 13.6333C8.06175 13.6926 7.9767 13.767 7.90065 13.8676C7.44586 14.0004 6.67037 14.1447 5.39206 14.2383C4.11525 14.3303 3.43281 14.0939 3.43281 14.0939C3.8781 13.8183 4.58855 13.5387 5.06885 13.4452C5.54916 13.3506 6.80996 13.3617 7.36281 13.2852C7.36881 13.2918 7.43585 13.3466 7.54492 13.413C7.07963 13.4552 6.089 13.5015 5.57867 13.765C5.57867 13.765 6.52127 13.8913 7.76406 13.5266ZM7.6675 12.7828C7.73254 12.7446 7.80959 12.7059 7.90515 12.6702C7.25774 12.4725 6.37018 12.1552 5.03233 12.0677C4.05221 12.0023 3.34526 12.0596 2.97852 12.1552C2.97852 12.1552 3.87209 12.7914 4.89174 13.0152C5.91339 13.2405 6.74241 13.0987 7.3483 13.1042C7.38732 13.0438 7.43335 12.9754 7.5044 12.9075C6.79495 12.9121 5.6167 12.7265 5.19493 12.5837C5.19493 12.5837 6.22308 12.3674 7.6675 12.7828ZM7.6645 12.0133C7.6675 12.032 7.74355 12.4006 8.16632 12.6048C7.25774 12.2024 5.4686 11.9711 4.50599 11.5667C3.20617 11.0196 2.96802 10.3371 2.96802 10.3371C4.09373 10.3069 5.00331 10.5845 5.70475 10.8028C6.52578 11.0568 7.77607 11.5295 8.21335 11.7272C8.03711 11.7332 7.86585 11.7874 7.71803 11.8841C7.10765 11.6467 6.82296 11.5461 6.26861 11.3892C5.82983 11.265 5.50663 11.2409 5.23296 11.2142C5.23296 11.2142 5.6182 11.4717 6.2526 11.6769C6.8815 11.8806 7.15417 11.9143 7.6645 12.0133ZM7.59595 11.01C7.63198 11.0749 7.73955 11.2303 7.78207 11.2916C6.34566 11.0482 4.76566 9.94934 4.27735 9.26788C3.78904 8.58591 3.92713 7.5695 3.92713 7.5695C4.40093 7.66505 5.43058 8.56378 5.69725 8.83486C5.96442 9.10392 6.76893 9.89754 7.32678 10.3396L7.50039 10.8511C7.04015 10.4804 6.57447 10.1166 6.10351 9.75974C5.83134 9.55253 5.42458 9.25782 5.01932 9.11851C5.01932 9.11851 5.39256 9.60936 5.69325 9.84976C6.04047 10.1274 6.39369 10.3678 6.68388 10.5287C6.94154 10.6725 7.07412 10.7535 7.59595 11.01Z" fill="white"/>
<path fill-rule="evenodd" clip-rule="evenodd" d="M11.6471 15.0776C11.6866 15.0429 11.7242 15.0059 11.7596 14.967C11.8262 15.051 12.0483 15.3311 12.1584 15.6107C12.2399 15.8491 12.3285 16.174 12.3725 16.3596C12.4165 16.5442 12.5461 16.9314 12.6262 17.0637C12.6262 17.0637 12.276 17.1079 12.0173 16.8017C11.7626 16.5014 11.6771 16.1992 11.6371 15.8894C11.6035 15.6464 11.616 15.309 11.6471 15.0776ZM11.0957 15.1239C11.1607 15.2119 11.2233 15.2476 11.2293 15.2516L11.2773 15.2763L11.3254 15.2592C11.3704 15.2456 11.4094 15.2295 11.4469 15.2104C11.4985 15.3537 11.5195 15.4226 11.5315 15.5438C11.5475 15.7058 11.5785 15.9613 11.5195 16.169C11.4469 16.4225 11.2953 16.5779 11.2128 16.6749C11.2128 16.6749 10.9836 16.4199 10.9186 16.2102C10.8506 15.9899 10.826 15.734 10.9106 15.4714C10.9566 15.3291 11.0297 15.1988 11.0957 15.1239ZM10.3072 15.148C10.5042 15.1241 10.6918 15.0498 10.8521 14.9323C10.8821 15.0158 10.9281 15.1279 10.8946 15.2869C10.8586 15.4463 10.75 15.6218 10.5944 15.7495C10.3567 15.9397 10.042 16.1192 9.69282 16.0649C9.69282 16.0649 9.61277 15.7983 10.3072 15.148ZM10.042 14.7055C10.0716 14.9413 10.1826 15.0897 10.1901 15.1013C10.1091 15.1998 9.8149 15.7103 9.20151 15.6258C9.20151 15.6258 9.0344 15.2773 9.44366 15.0002C9.71983 14.8126 9.85242 14.7739 10.042 14.7055ZM10.0961 14.2679C9.88685 14.3191 9.66832 14.3179 9.45967 14.2644L9.38862 14.2473L9.36661 14.1779C9.05141 14.4379 8.67617 14.4822 8.54759 14.718C8.54759 14.718 8.70519 15.0113 9.11445 14.9635C9.29733 14.9442 9.47445 14.8881 9.63522 14.7984C9.79599 14.7087 9.93708 14.5873 10.05 14.4414C10.0585 14.4002 10.0776 14.3212 10.0961 14.2679ZM9.38862 13.9023C9.44566 13.8148 9.48569 13.6795 9.60876 13.5427C9.33321 13.4915 9.05034 13.4953 8.77624 13.5538C8.399 13.6247 8.01375 13.7147 7.82113 14.2971C7.82113 14.2971 8.06228 14.5053 8.50306 14.4153C8.8773 14.3368 9.20201 14.1749 9.38862 13.9023ZM9.22752 13.2721C9.12283 13.1807 9.03918 13.0674 8.98237 12.9402L8.95185 12.8678C8.62464 12.733 8.28392 12.6641 7.94871 12.7888C7.615 12.9161 7.52744 13.0604 7.44339 13.1871C7.44339 13.1871 7.81362 13.5005 8.23789 13.511C8.66316 13.5256 9.05641 13.3999 9.22752 13.2721ZM9.32658 12.5927C9.38262 12.5711 9.44566 12.5509 9.51671 12.5364C9.3369 12.3719 9.2127 12.1551 9.16148 11.9162C9.00938 11.952 8.65316 11.952 8.49606 11.8921C8.33846 11.8313 8.02976 11.8282 7.78911 11.9887C7.78911 11.9887 7.86916 12.4167 8.41351 12.5625C8.92783 12.6993 9.11695 12.6641 9.32658 12.5927ZM9.13046 11.7593L9.20201 11.7126C9.21201 11.7065 9.33359 11.6306 9.54172 11.614C9.36661 11.4822 8.94734 11.1272 8.65316 10.9567C8.32895 10.7736 7.79261 10.5312 7.51994 10.4945C7.51994 10.4945 7.7761 11.1734 8.07279 11.4485C8.38349 11.7332 8.60012 11.8383 9.13046 11.7593ZM9.68231 11.4465C9.55023 11.275 9.44766 11.0381 9.37211 10.758C9.31057 10.5312 9.16898 9.96641 9.08543 9.82056C9.00188 9.67371 8.70019 9.16273 8.11081 9.0028C8.11081 9.0028 7.95371 9.67069 8.2504 10.1973C8.50556 10.6524 9.0304 11.1317 9.68231 11.4465ZM12.9529 14.5465C13.0254 14.622 13.0815 14.6622 13.2131 14.7291C13.2131 14.7291 13.4012 15.0922 13.173 15.5313C12.9444 15.9698 12.7528 16.4164 12.6612 16.6664C12.6612 16.6664 12.5386 16.6473 12.4025 15.9613C12.311 15.4961 12.1944 15.3794 12.0723 15.22C12.2054 15.2874 12.3125 15.3075 12.3215 15.3095L12.4125 15.3251L12.4536 15.2431C12.542 15.0732 12.5764 14.8801 12.5521 14.6899C12.7643 14.6954 12.8768 14.5873 12.9209 14.5325C12.9239 14.5264 12.9279 14.5234 12.9299 14.5184L12.9529 14.5465Z" fill="white"/>
<path fill-rule="evenodd" clip-rule="evenodd" d="M7.94569 9.28243C7.94297 9.3523 7.9423 9.42224 7.94369 9.49215L7.9557 9.65611C7.60697 9.20649 7.19121 8.66534 6.79396 8.16544C6.52128 7.82345 6.29064 7.61624 6.03548 7.44927C6.24911 8.08296 6.63686 8.5894 6.90953 8.84237C7.1817 9.09384 7.57896 9.51981 7.9642 9.77932L8.00122 9.90807C8.03124 10.0258 8.07727 10.147 8.14181 10.2606C8.23087 10.4211 8.34944 10.579 8.48903 10.7319C8.37696 10.6755 8.24888 10.6147 8.1188 10.5594L7.99972 10.5091C6.93805 9.93976 5.88738 8.7604 5.46061 7.93962C5.03334 7.11935 5.21195 6.16681 5.32402 5.65684C5.80583 6.07025 6.49877 6.88298 6.80096 7.32605C7.1732 7.86821 7.6505 8.63718 7.94419 9.26332L7.94569 9.28243ZM22.8241 12.7828C22.749 12.7381 22.6699 12.7004 22.588 12.6701C23.2339 12.4725 24.123 12.1551 25.4598 12.0676C26.4404 12.0023 27.1489 12.0596 27.5146 12.1551C27.5146 12.1551 26.622 12.7913 25.6004 13.0151C24.5798 13.2405 23.7507 13.0986 23.1448 13.1042C23.1006 13.0326 23.048 12.9666 22.9882 12.9075C23.6977 12.912 24.8774 12.7265 25.2982 12.5836C25.2982 12.5836 24.2696 12.3674 22.8241 12.7828ZM22.8281 12.0133C22.8246 12.0319 22.7486 12.4006 22.3258 12.6048C23.2344 12.2024 25.025 11.9711 25.9861 11.5667C27.287 11.0195 27.5246 10.3371 27.5246 10.3371C26.3989 10.3069 25.4893 10.5845 24.7879 10.8028C23.9674 11.0568 22.7166 11.5295 22.2783 11.7272C22.4434 11.7332 22.622 11.782 22.7746 11.8841C23.3855 11.6467 23.6697 11.5461 24.225 11.3892C24.6623 11.265 24.9855 11.2408 25.2597 11.2142C25.2597 11.2142 24.8749 11.4717 24.24 11.6769C23.6101 11.8805 23.3385 11.9142 22.8281 12.0133ZM22.8967 11.01C22.8617 11.0749 22.7531 11.2303 22.7106 11.2916C24.147 11.0482 25.7275 9.94931 26.2153 9.26785C26.7056 8.58588 26.566 7.56947 26.566 7.56947C26.0912 7.66502 25.0621 8.56375 24.7954 8.83483C24.5287 9.10389 23.7237 9.89751 23.1653 10.3396L22.9917 10.8511C23.469 10.4618 24.0359 10.0288 24.3901 9.75971C24.6613 9.5525 25.0681 9.25779 25.4728 9.11848C25.4728 9.11848 25.1006 9.60933 24.7994 9.84973C24.4881 10.1028 24.1568 10.3298 23.8088 10.5287C23.5516 10.6725 23.4195 10.7535 22.8967 11.01ZM22.548 9.28243C22.55 9.34731 22.5515 9.41722 22.5485 9.49215L22.5365 9.65611C22.8847 9.20649 23.3019 8.66534 23.6992 8.16544C23.9719 7.82345 24.203 7.61624 24.4582 7.44927C24.242 8.08296 23.8568 8.5894 23.5826 8.84237C23.3104 9.09384 22.9157 9.51981 22.5294 9.77932L22.4914 9.90807C22.4614 10.0258 22.4164 10.147 22.3513 10.2606C22.2613 10.4211 22.1447 10.579 22.0036 10.7319C22.1157 10.6755 22.2438 10.6147 22.3738 10.5594L22.4929 10.5091C23.5546 9.93976 24.6068 8.7604 25.032 7.93962C25.4573 7.11935 25.2822 6.16681 25.1686 5.65684C24.6868 6.07025 23.9934 6.88298 23.6907 7.32605C23.3189 7.86821 22.8431 8.63718 22.548 9.26332V9.28243ZM9.30055 15.7636C8.86327 16.2062 7.94169 17.1985 8.02724 18.2752C8.02724 18.2752 8.88478 18.0047 9.23651 17.369C9.59023 16.7348 9.80787 16.3365 9.95546 16.1936C9.8604 16.2057 9.76534 16.2057 9.67278 16.1901L9.59574 16.178C9.3781 16.5789 8.94732 17.2332 8.56008 17.462C8.56008 17.462 8.46052 16.9314 9.60024 15.8552C9.61575 15.8114 9.63926 15.7601 9.67128 15.7048C9.56722 15.7435 9.44814 15.7651 9.31506 15.7631L9.30055 15.7636ZM21.039 9.80195C20.8214 10.2883 20.4636 10.7872 19.492 11.4606C19.2734 11.6115 19.0332 11.9248 19.2163 12.3659C19.399 12.8064 19.7442 13.4321 19.5365 13.677C19.3314 13.9204 18.5975 14.0476 18.0001 13.8052C18.0001 13.8052 17.875 14.1865 17.6574 14.4309C17.6574 14.4309 17.7594 14.6411 18.1046 14.535C18.1046 14.535 17.9786 14.8483 18.1497 15.1853C18.1497 15.1853 18.5514 15.1159 18.722 14.7437C18.722 14.7437 18.8831 15.0334 19.2053 15.138C19.2053 15.138 19.47 15.0002 19.4115 14.4641C19.4115 14.4641 19.6056 14.9413 20.203 15.0213C20.203 15.0213 20.5472 14.5813 20.0984 13.9898C20.0984 13.9898 20.4201 14.28 21.005 14.1407C21.005 14.1407 21.0965 13.8389 20.5677 13.4215C20.5677 13.4215 21.1661 13.3979 21.3957 12.8874C21.3957 12.8874 21.1426 12.5736 20.5242 12.644C20.5242 12.644 21.0965 12.5157 21.2226 11.8197C21.2226 11.8197 20.8099 11.5531 20.1569 11.9821C20.1569 11.9821 20.271 11.7624 20.5457 11.5421C20.8214 11.3208 21.1546 10.7062 21.039 9.80195ZM18.6395 16.7997C18.7188 16.6923 18.7861 16.5764 18.8401 16.4541C18.7375 17.2981 18.7 17.8669 18.2497 18.4135C18.2497 18.4135 17.9786 18.0479 18.1522 17.1597C18.2292 17.1376 18.3133 17.1009 18.3963 17.0451C18.3963 17.0451 18.2928 17.4057 18.3563 17.7683C18.3563 17.7683 18.5214 17.6496 18.6395 16.7997ZM19.419 16.7121C19.473 16.6432 19.5776 16.4979 19.6311 16.3943C19.6681 16.8846 19.7957 18.1736 19.3684 18.578C19.3684 18.578 19.0758 18.3612 18.9722 16.4793C19.0347 16.5849 19.1433 16.6971 19.1953 16.7584C19.1953 16.7584 19.1253 17.3554 19.3369 17.7768C19.3369 17.7768 19.5491 17.6139 19.419 16.7121ZM20.4376 17.6979C20.0774 17.2628 19.9698 15.9598 19.9698 15.9598C19.8967 15.9104 19.8271 15.8557 19.7617 15.7963C19.7617 15.8431 19.7602 15.8929 19.7562 15.9422C19.8062 16.7267 19.8698 17.5344 20.1104 17.9368C20.3476 18.3316 20.7828 18.5358 20.7828 18.5358C21.1926 17.8 20.6978 16.8132 20.2845 16.1267C20.232 16.1063 20.1807 16.0828 20.1309 16.0563C20.275 16.5844 20.5512 17.2136 20.4376 17.6979ZM21.4498 15.4357C21.4538 15.5192 21.4373 15.5891 21.4262 15.6233C21.4209 15.6415 21.4149 15.6594 21.4082 15.6771C21.749 16.0171 22.0036 16.3425 22.5109 17.0551C23.0188 17.7683 23.8228 17.797 23.8228 17.797C23.7462 17.2191 23.5906 16.7629 23.1598 16.2706C22.7296 15.7787 22.1802 15.3286 21.775 15.0314C21.646 15.0884 21.5038 15.1082 21.3642 15.0887C21.3507 15.088 21.3373 15.086 21.3242 15.0827C21.3777 15.1551 21.4102 15.227 21.4282 15.2934C21.7344 15.4709 22.6255 15.9271 22.9842 16.6629C22.9842 16.6629 22.4214 16.4828 21.4498 15.4357ZM22.0887 14.717L22.0546 14.6557C22.0442 14.6365 22.0325 14.618 22.0196 14.6004C22.3498 14.7296 23.5276 15.1792 23.9078 15.3784C24.2886 15.5796 24.8389 16.0322 25.1381 16.9541C25.1381 16.9541 24.3451 17.0255 23.6887 16.4773C23.0333 15.9266 22.2678 15.1611 21.9426 14.9182C21.9756 14.8875 22.0001 14.8579 22.0191 14.8327C22.0191 14.8327 22.9067 15.6273 23.8438 15.9713C23.8438 15.9713 23.6437 15.6022 23.2744 15.3351C22.8211 15.0107 22.4839 14.9016 22.0887 14.717ZM22.7606 14.1724C22.7493 14.1417 22.7365 14.1116 22.7221 14.0823C23.1108 14.1618 24.0824 14.28 24.5167 14.4138C24.949 14.5496 25.7345 14.8699 26.1998 15.7692C26.1998 15.7692 25.5168 15.9819 24.226 15.3688C22.9362 14.7543 22.534 14.6265 22.2878 14.5606C22.4829 14.546 22.622 14.4792 22.6946 14.4339C23.2089 14.6662 23.8973 14.9398 24.5798 14.9584C24.5798 14.9584 24.242 14.718 23.8893 14.5662C23.5219 14.4105 23.1449 14.279 22.7606 14.1724ZM22.7296 13.5266C22.608 13.5865 22.4763 13.6227 22.3413 13.6332C22.4314 13.6926 22.5169 13.767 22.594 13.8676C23.0483 14.0004 23.8213 14.1447 25.1006 14.2383C26.3784 14.3303 27.0593 14.0939 27.0593 14.0939C26.6145 13.8183 25.9056 13.5387 25.4253 13.4451C24.944 13.3506 23.6827 13.3617 23.1293 13.2852C23.072 13.3322 23.0113 13.3749 22.9477 13.413C23.4135 13.4552 24.4036 13.5015 24.915 13.765C24.915 13.765 23.9719 13.8912 22.7296 13.5266Z" fill="white"/>
<path fill-rule="evenodd" clip-rule="evenodd" d="M18.8451 15.0776C18.8059 15.042 18.7679 15.0051 18.731 14.967C18.666 15.051 18.4444 15.3311 18.3358 15.6107C18.2527 15.8491 18.1642 16.174 18.1211 16.3596C18.0761 16.5442 17.945 16.9314 17.866 17.0637C17.866 17.0637 18.2162 17.1079 18.4754 16.8017C18.7305 16.5014 18.8156 16.1992 18.8571 15.8894C18.8848 15.6194 18.8807 15.3466 18.8451 15.0776ZM19.3955 15.1239C19.3309 15.2119 19.2694 15.2476 19.2629 15.2516L19.2163 15.2763L19.1658 15.2592C19.1245 15.2462 19.0844 15.2299 19.0457 15.2104C19.0026 15.3171 18.9743 15.4293 18.9617 15.5438C18.9442 15.7058 18.9137 15.9613 18.9722 16.169C19.0462 16.4225 19.1953 16.5779 19.2794 16.6749C19.2794 16.6749 19.5085 16.4199 19.5746 16.2102C19.6421 15.9899 19.6666 15.734 19.5836 15.4714C19.5429 15.3448 19.4791 15.227 19.3955 15.1239ZM20.186 15.148C19.9889 15.124 19.8011 15.0497 19.6406 14.9323C19.6116 15.0158 19.5646 15.1279 19.5996 15.2869C19.6331 15.4463 19.7422 15.6218 19.9008 15.7495C20.1349 15.9397 20.4511 16.1192 20.8008 16.0649C20.8008 16.0649 20.8809 15.7983 20.186 15.148ZM20.4491 14.7055C20.4216 14.9413 20.31 15.0897 20.301 15.1013C20.3826 15.1998 20.6768 15.7103 21.2937 15.6258C21.2937 15.6258 21.4578 15.2773 21.0505 15.0002C20.7713 14.8126 20.6402 14.7739 20.4491 14.7055ZM20.3956 14.2679C20.6055 14.319 20.8247 14.3178 21.034 14.2644L21.105 14.2473L21.1251 14.1779C21.4413 14.4379 21.816 14.4822 21.9451 14.718C21.9451 14.718 21.7875 15.0113 21.3787 14.9635C21.1957 14.9443 21.0184 14.8882 20.8575 14.7985C20.6965 14.7088 20.5553 14.5873 20.4421 14.4414C20.4313 14.3826 20.4157 14.3242 20.3956 14.2679ZM21.105 13.9023C21.0465 13.8148 21.005 13.6795 20.8839 13.5427C21.1595 13.4916 21.4423 13.4953 21.7164 13.5538C22.0937 13.6247 22.4789 13.7147 22.672 14.2971C22.672 14.2971 22.4284 14.5053 21.9881 14.4153C21.6159 14.3368 21.2907 14.1749 21.105 13.9023ZM21.2646 13.2721C21.3597 13.1887 21.4468 13.081 21.5098 12.9402L21.5408 12.8678C21.869 12.733 22.2102 12.6641 22.5425 12.7888C22.8777 12.9161 22.9647 13.0604 23.0508 13.1871C23.0508 13.1871 22.6805 13.5005 22.2543 13.511C21.829 13.5256 21.4358 13.3999 21.2646 13.2721ZM21.1661 12.5927C21.1038 12.5687 21.0397 12.5499 20.9745 12.5364C21.1201 12.4076 21.2626 12.21 21.3317 11.9162C21.4838 11.952 21.8405 11.952 21.9976 11.8921C22.1547 11.8313 22.4629 11.8282 22.7041 11.9887C22.7041 11.9887 22.6255 12.4167 22.0787 12.5625C21.5633 12.6993 21.3747 12.6641 21.1661 12.5927ZM21.3617 11.7593L21.2907 11.7126C21.2807 11.7065 21.1586 11.6306 20.9489 11.614C21.1261 11.4822 21.5428 11.1272 21.8405 10.9567C22.1637 10.7736 22.6991 10.5312 22.9742 10.4945C22.9742 10.4945 22.7171 11.1734 22.4189 11.4485C22.1097 11.7332 21.893 11.8383 21.3617 11.7593ZM20.8099 11.4465C20.9419 11.275 21.0445 11.0381 21.1201 10.758C21.1831 10.5312 21.3242 9.96641 21.4082 9.82056C21.4928 9.67371 21.7935 9.16273 22.3829 9.0028C22.3829 9.0028 22.54 9.67069 22.2428 10.1973C21.9866 10.6524 21.4633 11.1317 20.8099 11.4465ZM17.5418 14.5465C17.4659 14.6226 17.3771 14.6844 17.2796 14.7291C17.2796 14.7291 17.0905 15.0922 17.3196 15.5313C17.5468 15.9698 17.7389 16.4164 17.832 16.6664C17.832 16.6664 17.954 16.6473 18.0896 15.9613C18.1822 15.4961 18.2988 15.3794 18.4193 15.22C18.2868 15.2874 18.1812 15.3075 18.1717 15.3095L18.0811 15.3251L18.0391 15.2431C17.9687 15.1086 17.9326 14.9586 17.934 14.8066C17.934 14.7653 17.936 14.7261 17.9405 14.6904C17.7284 14.6954 17.6153 14.5873 17.5733 14.5325C17.5683 14.5264 17.5648 14.5234 17.5623 14.5184L17.5418 14.5465Z" fill="white"/>
<path fill-rule="evenodd" clip-rule="evenodd" d="M21.1926 15.7636C21.6294 16.2062 22.5515 17.1985 22.4639 18.2752C22.4639 18.2752 21.6074 18.0047 21.2562 17.369C20.9024 16.7348 20.6858 16.3365 20.5372 16.1936C20.6313 16.2057 20.7263 16.2057 20.8199 16.1901L20.8984 16.178C21.1151 16.5789 21.5458 17.2332 21.9336 17.462C21.9336 17.462 22.0316 16.9314 20.8929 15.8552C20.8732 15.8031 20.8493 15.7528 20.8214 15.7048C20.9249 15.7435 21.0445 15.7651 21.1771 15.7631L21.1926 15.7636ZM14.5774 7.17518C14.5774 7.09571 14.8776 7.03033 15.2463 7.03033C15.6166 7.03033 15.9153 7.09571 15.9153 7.17518C15.9153 7.25413 15.6161 7.31901 15.2463 7.31901C14.8771 7.31901 14.5774 7.25363 14.5774 7.17518ZM15.3769 7.49252C15.3771 7.50987 15.3738 7.52707 15.3673 7.54314C15.3608 7.55921 15.3512 7.57383 15.3391 7.58617C15.3269 7.5985 15.3125 7.60831 15.2966 7.61502C15.2807 7.62174 15.2636 7.62523 15.2463 7.62529C15.2113 7.62516 15.1777 7.61115 15.1529 7.58629C15.1281 7.56143 15.114 7.52774 15.1138 7.49252C15.1138 7.41909 15.1738 7.35975 15.2463 7.35975C15.3194 7.35975 15.3769 7.41909 15.3769 7.49252ZM14.5289 7.03436C14.3077 6.49774 14.1586 6.10093 14.1636 5.96866C14.1677 5.8892 14.2622 5.82935 14.3518 5.80169C14.4393 5.77352 14.5179 5.76799 14.5769 5.81376C14.6935 5.90378 14.8001 6.6285 14.8406 6.92925C14.7285 6.95087 14.66 6.96546 14.5289 7.03436ZM14.9361 6.91818C14.9917 6.91064 15.0502 6.90812 15.1087 6.90561C15.0655 6.5833 15.0016 6.26413 14.9176 5.95005C14.8591 5.76045 14.7855 5.62466 14.6625 5.59046C14.6625 5.59046 14.7575 5.85399 14.8106 6.12607C14.8626 6.39866 14.9026 6.65867 14.9361 6.91818ZM14.2317 7.87877C14.4768 7.82043 14.7285 7.55488 14.7285 7.55488C14.3318 7.61272 14.2317 7.87877 14.2317 7.87877ZM14.5994 7.85513C14.2567 8.0563 13.874 8.02612 13.874 8.02612C13.948 7.88832 14.0176 7.76108 14.2317 7.60669C14.4458 7.45178 14.795 7.41306 14.9321 7.43217C14.9016 7.53527 14.762 7.75857 14.5994 7.85513ZM13.3216 8.42394V8.39628C12.9854 8.43953 12.5891 8.42193 12.5891 8.42193C12.6092 8.54816 12.6612 8.64422 12.7498 8.70306C12.7713 8.42645 13.3216 8.42394 13.3216 8.42394ZM12.2054 8.05932C12.2054 8.05932 12.6307 8.21875 13.0569 8.19863C13.4812 8.1765 14.2657 8.16795 14.5179 8.04272C14.5179 8.04272 14.4773 8.20466 14.2747 8.2977C14.2747 8.2977 14.3813 8.29771 14.4849 8.39024C14.4849 8.39024 14.4243 8.52352 14.2432 8.59443C14.2432 8.59443 14.5674 8.93441 14.9151 8.91027C14.9151 8.91027 14.755 9.11144 14.3998 9.03399C14.0446 8.95654 13.9305 8.75537 13.8705 8.67792C13.8705 8.67792 13.9165 8.87054 13.8945 8.94799C13.8945 8.94799 13.7384 8.93843 13.6168 8.78353C13.6168 8.78353 13.7054 8.93843 13.7239 9.06919C13.7239 9.06919 13.6258 9.08026 13.4502 8.97565C13.4502 8.97565 13.4867 9.07221 13.4937 9.18285C13.4937 9.18285 13.083 9.05008 12.8838 8.86098C12.8838 8.86098 12.8813 8.99174 12.8913 9.06517C12.8913 9.06517 12.2544 8.99979 12.2054 8.05932ZM12.1073 8.1247C12.1229 8.32838 12.1744 8.52905 12.2449 8.67138C12.2449 8.67138 11.9943 8.48127 11.9332 8.31933C11.8707 8.15839 11.8562 8.04725 12.1073 8.1247ZM11.6035 8.8982C11.6314 8.8982 11.6581 8.88707 11.6778 8.86726C11.6975 8.84746 11.7086 8.82059 11.7086 8.79258C11.7086 8.76457 11.6975 8.73771 11.6778 8.7179C11.6581 8.6981 11.6314 8.68697 11.6035 8.68697C11.5899 8.68717 11.5764 8.69007 11.5639 8.69552C11.5514 8.70096 11.54 8.70884 11.5305 8.7187C11.5211 8.72856 11.5136 8.74021 11.5086 8.75298C11.5036 8.76574 11.5012 8.77937 11.5015 8.79309C11.5015 8.85193 11.5475 8.8982 11.6035 8.8982ZM12.2179 8.77448C12.3855 8.85193 12.5351 9.0355 12.5351 9.0355C12.281 9.09434 12.1684 9.16777 12.1684 9.16777C11.6811 8.82075 11.2803 9.16978 11.2803 9.16978C11.0167 9.01991 10.9661 8.65076 11.0977 8.45562C11.2293 8.25948 11.5265 8.29469 11.6671 8.32838C11.7566 8.61404 12.0673 8.70558 12.2179 8.77448ZM12.5907 9.09886C12.5907 9.09886 12.7673 9.33826 12.8973 9.44337C12.8973 9.44337 12.2419 9.43733 12.0768 10.0112C12.0768 10.0112 11.8502 9.65912 12.0158 9.43029C12.1944 9.18386 12.358 9.15368 12.5907 9.09886Z" fill="white"/>
<path fill-rule="evenodd" clip-rule="evenodd" d="M13.3091 9.24173C13.3091 9.24173 13.5207 9.30459 13.5918 9.3232C13.5918 9.3232 13.5938 9.19948 13.5898 9.13963C13.6533 9.15522 13.7324 9.17585 13.8004 9.18289C13.8004 9.18289 14.0111 9.65966 14.1767 9.85178C14.1767 9.85178 14.1862 9.95739 14.0941 10.1183C14.0941 10.1183 13.974 9.83669 13.7594 9.61037C13.6383 9.48363 13.5608 9.41876 13.3091 9.24173ZM12.7528 9.13963C12.8213 9.15824 13.1595 9.26537 13.3216 9.38506C13.5273 9.53292 13.6683 9.70341 13.6458 9.99712C13.6458 9.99712 13.4807 9.76427 13.2981 9.65966C13.1535 9.57567 12.8913 9.34432 12.7528 9.13963ZM12.7578 6.98259C12.8198 6.98259 12.9404 7.01276 12.9404 7.11385C12.9404 7.21695 12.7848 7.46238 12.7423 7.57151H12.7383C12.6967 7.46238 12.5386 7.21695 12.5386 7.11385C12.5386 7.01327 12.6612 6.98309 12.7232 6.98309L12.7578 6.98259ZM12.6202 7.7752C12.5912 7.63237 12.5351 7.26121 12.4486 7.17973C12.366 7.10078 12.2434 7.09323 12.1834 7.09675C12.1661 7.09804 12.1493 7.10326 12.1343 7.11202C12.1193 7.12079 12.1064 7.13287 12.0967 7.14736C12.0871 7.16184 12.0808 7.17835 12.0784 7.19563C12.076 7.21292 12.0775 7.23052 12.0828 7.24713C12.1069 7.33262 12.378 7.74351 12.4135 7.79532C12.4766 7.78425 12.4646 7.78827 12.6202 7.7752ZM12.8608 7.7752C12.8908 7.63237 12.9459 7.26121 13.0329 7.17973C13.115 7.10078 13.2381 7.09323 13.2981 7.09675C13.3155 7.09803 13.3323 7.10322 13.3475 7.11195C13.3626 7.12067 13.3755 7.1327 13.3854 7.14714C13.3952 7.16158 13.4017 7.17807 13.4044 7.19538C13.407 7.21269 13.4057 7.23037 13.4007 7.24713C13.3737 7.33262 13.103 7.74351 13.067 7.79532C13.0049 7.78425 13.0169 7.78827 12.8608 7.7752ZM13.0354 6.48419H12.8238V6.24832H12.6537V6.48469H12.4401V6.63356H12.6532V6.91067H12.8233V6.63406H13.0354V6.48419ZM10.4733 8.01057C10.4733 7.9638 10.4753 7.91853 10.4823 7.87377C10.4983 7.7581 10.4998 7.66003 10.4873 7.57805C10.3347 7.6374 10.2322 7.67461 10.022 8.01711C10.022 8.01711 10.3567 7.80889 10.4733 8.01057ZM10.765 8.55222C10.7695 8.46773 10.825 8.19866 10.8951 8.01107C10.9801 7.77721 10.9301 7.44075 10.827 7.23556C10.728 7.03841 10.6739 6.85334 10.6905 6.64865C10.6905 6.64865 10.4943 6.71554 10.3798 6.78645C10.3617 7.02383 10.4983 7.26121 10.5634 7.39599C10.6404 7.55542 10.6244 7.76313 10.6074 7.89087C10.5774 8.10713 10.6214 8.33646 10.765 8.55222ZM10.787 6.73917C10.778 6.69541 10.7802 6.65006 10.7935 6.60741C10.7935 6.60741 11.1057 6.30062 11.3679 6.24832C11.533 6.21311 11.6341 6.28805 11.6841 6.32879C11.6841 6.32879 11.5925 6.31873 11.4524 6.4344C11.3123 6.54856 11.1382 6.68637 11.0082 6.72107C10.8776 6.75627 10.8506 6.74621 10.787 6.73917ZM11.7101 6.35192C11.8262 6.47061 11.9262 6.59634 11.9232 6.70497C11.9217 6.81763 11.7922 7.10078 11.7251 7.2079C11.6571 7.31552 11.5575 7.45685 11.5685 7.62834C11.575 7.71384 11.6336 7.80135 11.7036 7.87427C11.7036 7.87427 11.3219 7.78274 11.2743 7.54436C11.2343 7.33061 11.3244 7.18225 11.3859 7.06406C11.4424 6.95241 11.618 6.69391 11.6631 6.58628C11.7031 6.48821 11.7251 6.40624 11.7101 6.35192ZM13.939 9.03754C14.0141 9.31163 14.1441 9.56813 14.2722 9.7693C14.3873 9.95387 14.4603 10.2516 14.4498 10.3527C14.4498 10.3527 14.6219 9.96795 14.5349 9.69637C14.4648 9.48514 14.2802 9.16981 13.939 9.03754ZM14.3683 9.12756C14.3683 9.12756 14.6305 9.13259 14.7525 9.21407C14.9096 9.31868 15.0587 9.54851 15.1173 9.82361C15.1173 9.82361 14.8521 9.77684 14.722 9.64558C14.5909 9.51331 14.4298 9.31566 14.3683 9.12756ZM13.0139 9.60585C12.9639 9.60987 12.8293 9.64105 12.7638 9.66117C12.7638 9.66117 12.9864 9.72705 13.098 9.82059C13.1935 9.89955 13.2756 10.0218 13.3131 10.228C13.3677 10.5161 13.5343 10.8264 13.5843 10.9195L13.6048 10.916C13.5748 10.7173 13.6959 10.3059 13.7289 10.2461C13.7289 10.2461 13.5513 10.1344 13.4697 10.0177C13.4097 9.93224 13.3051 9.78891 13.0139 9.60585ZM14.1737 10.2249C14.2382 10.3758 14.4113 10.6444 14.3303 10.924C14.2502 11.2036 14.0686 11.3238 13.9575 11.5617C13.9575 11.5617 13.8705 11.1327 13.8885 10.8023C13.9085 10.4719 14.0276 10.3446 14.1737 10.2249ZM14.676 10.236C14.676 10.236 14.9361 10.7465 14.9832 10.9461C15.0282 11.1443 14.9862 11.2766 14.8971 11.3978C14.8106 11.517 14.66 11.6467 14.5214 11.8987C14.5214 11.8987 14.3608 11.6839 14.3418 11.5718C14.3233 11.4596 14.3533 11.1916 14.3883 11.0799C14.4223 10.9658 14.5594 10.6047 14.676 10.236ZM14.8091 11.865C14.7525 11.9279 14.4488 12.2975 14.4078 12.4051C14.3668 12.5122 14.2962 12.7164 14.3898 12.8588C14.4849 13.0011 14.7025 13.2259 14.8901 13.3215C14.8901 13.3215 14.685 12.9976 14.707 12.7315C14.719 12.561 14.8496 12.4097 14.8746 12.3055C14.8996 12.203 14.8836 12.0274 14.8091 11.865ZM14.2137 11.6613C14.2607 11.7267 14.3418 11.8861 14.3533 12.041C14.3648 12.1934 14.3398 12.3161 14.2572 12.5399C14.1542 12.8226 13.992 13.1369 13.917 13.2792C13.917 13.2792 13.7744 13.072 13.6954 12.8874C13.6954 12.8874 13.9185 12.5776 14.0146 12.3594C14.1241 12.1019 14.1697 11.864 14.2137 11.6613ZM14.1111 11.5421C14.1111 11.5421 14.0141 12.2688 13.5918 12.808C13.3056 13.1731 13.0735 13.3008 12.9189 13.3008C12.6872 13.3008 12.4536 13.1047 12.3765 12.8804C12.2975 12.6576 12.3235 12.3096 12.4736 12.1864C12.4736 12.1864 12.6117 12.6224 12.9094 12.638C13.2461 12.6576 13.6778 12.2764 14.1111 11.5421Z" fill="white"/>
<path fill-rule="evenodd" clip-rule="evenodd" d="M13.7639 11.2383C13.7989 11.3681 13.8104 11.5672 13.7639 11.7553C13.7289 11.8987 13.6433 12.0842 13.4777 12.1894C13.3351 12.2799 12.9964 12.301 12.8693 11.9791C12.8693 11.9791 13.4847 12.0259 13.7639 11.2383ZM14.7705 14.1679C14.8546 14.3866 15.1548 14.6627 15.1538 14.8337C15.1493 15.2849 14.9532 15.5615 14.9071 15.7103C14.9071 15.7103 14.5494 15.4237 14.4859 15.0948C14.4533 14.9258 14.4904 14.4183 14.7705 14.1679ZM14.3703 14.4877C14.4113 14.37 14.5439 14.0502 14.6955 13.9395C14.6955 13.9395 14.8901 13.3602 14.2642 13.0026C14.2642 13.0026 14.0066 13.3481 13.939 13.673C13.8705 13.9999 14.2107 14.1945 14.3703 14.4877ZM13.5873 13.0232C13.4872 13.1474 13.3441 13.3169 13.2341 13.3702C13.2341 13.3702 13.1965 13.6287 13.217 13.8012C13.2506 14.0567 13.4112 14.3172 13.4812 14.5078C13.4812 14.5078 13.7549 14.1462 13.7864 13.934C13.8174 13.7208 13.8134 13.5462 13.8239 13.4437C13.8239 13.4437 13.6713 13.1932 13.5873 13.0232ZM12.8643 14.2664C12.7868 14.1457 12.5376 13.7082 12.5341 13.3888C12.5341 13.3888 12.8423 13.5548 13.101 13.4326C13.101 13.4326 13.134 13.848 13.0855 13.9883C13.0434 14.102 12.9904 14.1699 12.8643 14.2664ZM12.9364 14.3545C12.9864 14.3097 13.1095 14.195 13.1615 14.1352C13.1615 14.1352 13.3656 14.5144 13.4007 14.6255C13.4007 14.6255 13.2981 14.6527 13.185 14.5702C13.0953 14.5065 13.012 14.4345 12.9364 14.3545ZM13.885 14.1317C13.8605 14.2272 13.5292 14.6929 13.4722 14.7503C13.4722 14.7503 13.4967 14.9182 13.6203 15.1611C13.7424 15.4025 13.913 15.573 14.004 15.6585C14.004 15.6585 14.2097 15.2979 14.2702 15.1405C14.3378 14.9585 14.3303 14.7799 14.3017 14.713C14.2317 14.5556 13.9915 14.3283 13.885 14.1317ZM14.3828 15.3492C14.4558 15.4986 14.6765 15.7445 14.711 15.9392C14.7385 16.0911 14.7145 16.2158 14.673 16.3229C14.6314 16.4255 14.4999 16.6312 14.4113 16.7876C14.4113 16.7876 14.1086 16.4984 14.0426 16.2927C13.9939 16.1224 14.0085 15.9401 14.0836 15.7797C14.1556 15.6419 14.3137 15.4921 14.3828 15.3492ZM13.5272 15.3075C13.6048 15.4815 13.7924 15.6535 13.8349 15.8049C13.885 15.9844 13.9015 16.0971 13.8159 16.3063C13.7399 16.4884 13.6478 16.5955 13.6173 16.7071C13.6173 16.7071 13.3721 16.3853 13.3301 16.2515C13.2901 16.1177 13.2766 15.8974 13.3276 15.7586C13.3767 15.6168 13.4657 15.4357 13.5272 15.3075ZM14.7365 16.5326C14.7365 16.5326 14.3132 17.0491 14.3233 17.3232C14.3363 17.6637 14.5599 17.8915 14.5909 18.1007C14.5909 18.1007 14.8121 17.8473 14.8971 17.6768C14.9922 17.4857 15.0637 17.3232 15.0407 17.106C15.0137 16.8887 14.9577 16.7504 14.7365 16.5326ZM13.9575 16.4818C14.0246 16.5809 14.2127 16.9189 14.1596 17.1185C14.1066 17.3207 13.8985 17.6033 13.8279 17.7241C13.8279 17.7241 13.6613 17.377 13.6228 17.2176C13.5858 17.0602 13.6203 16.8002 13.9575 16.4818ZM15.2503 6.61594C15.2794 6.42181 15.5015 6.00438 15.5015 5.82283C15.503 5.78809 15.4975 5.7534 15.4854 5.72085C15.4732 5.6883 15.4546 5.65856 15.4307 5.63344C15.4068 5.60831 15.378 5.58832 15.3462 5.57465C15.3144 5.56099 15.2802 5.55395 15.2456 5.55395C15.211 5.55395 15.1768 5.56099 15.1449 5.57465C15.1131 5.58832 15.0844 5.60831 15.0605 5.63344C15.0366 5.65856 15.018 5.6883 15.0058 5.72085C14.9936 5.7534 14.9881 5.78809 14.9897 5.82283C14.9897 6.00438 15.2143 6.42181 15.2418 6.61594H15.2503ZM15.9633 7.03437C16.1864 6.49775 16.334 6.10094 16.3285 5.96867C16.325 5.88921 16.2305 5.82936 16.1429 5.8017C16.0528 5.77354 15.9733 5.76801 15.9153 5.81377C15.8002 5.9038 15.6911 6.62851 15.6516 6.92926C15.7657 6.95089 15.8332 6.96547 15.9633 7.03437ZM15.5565 6.9182C15.5005 6.91065 15.4425 6.90814 15.3849 6.90562C15.4199 6.61795 15.518 6.13816 15.576 5.95007C15.6331 5.76046 15.7061 5.62467 15.8307 5.59047C15.8307 5.59047 15.7346 5.85401 15.6826 6.12609C15.6331 6.38886 15.591 6.65301 15.5565 6.9182ZM15.7657 7.5549C15.7657 7.5549 16.0153 7.82045 16.262 7.87878C16.262 7.87878 16.1609 7.61223 15.7657 7.5549ZM15.5605 7.43219C15.6986 7.41308 16.0473 7.4518 16.262 7.6067C16.4766 7.7611 16.5457 7.88834 16.6192 8.02614C16.6192 8.02614 16.236 8.05632 15.8937 7.85515C15.7316 7.75808 15.5921 7.53529 15.5605 7.43219ZM17.7424 8.70308C17.832 8.64424 17.8825 8.54818 17.9045 8.42144C17.9045 8.42144 17.5073 8.43955 17.1691 8.39629V8.42396C17.1691 8.42396 17.7214 8.42697 17.7424 8.70308ZM17.6023 9.06519C17.6118 8.99126 17.6083 8.861 17.6083 8.861C17.4087 9.0501 16.9995 9.18287 16.9995 9.18287C17.0055 9.07223 17.0405 8.97566 17.0405 8.97566C16.8669 9.08027 16.7693 9.06921 16.7693 9.06921C16.7873 8.93845 16.8764 8.78355 16.8764 8.78355C16.8088 8.87334 16.7086 8.9325 16.5977 8.948C16.5762 8.87055 16.6227 8.67793 16.6227 8.67793C16.5622 8.75538 16.4491 8.95655 16.0924 9.034C15.7361 9.11196 15.578 8.91028 15.578 8.91028C15.9248 8.93442 16.2485 8.59445 16.2485 8.59445C16.0684 8.52404 16.0078 8.39026 16.0078 8.39026C16.1129 8.29772 16.2185 8.29772 16.2185 8.29772C16.0153 8.20468 15.9733 8.04324 15.9733 8.04324C16.228 8.16797 17.011 8.17702 17.4372 8.19915C17.8625 8.21926 18.2863 8.05933 18.2863 8.05933C18.2382 8.9998 17.6023 9.06519 17.6023 9.06519ZM18.3863 8.12472C18.3735 8.31382 18.3267 8.49902 18.2482 8.67139C18.2482 8.67139 18.4994 8.48129 18.5594 8.31935C18.6205 8.15841 18.637 8.04726 18.3863 8.12472ZM18.9917 8.7931C18.9916 8.76513 18.9805 8.73835 18.9608 8.71857C18.9411 8.69879 18.9145 8.68762 18.8866 8.68749C18.8588 8.68749 18.8321 8.69862 18.8124 8.71842C18.7927 8.73823 18.7816 8.76509 18.7816 8.7931C18.7816 8.82111 18.7927 8.84798 18.8124 8.86778C18.8321 8.88759 18.8588 8.89872 18.8866 8.89872C18.9145 8.89872 18.9412 8.88759 18.9609 8.86778C18.9806 8.84798 18.9917 8.82111 18.9917 8.7931ZM18.8256 8.3284C18.9667 8.2942 19.2634 8.26 19.3945 8.45564C19.5276 8.65077 19.4755 9.01992 19.2119 9.16979C19.2119 9.16979 18.8101 8.82026 18.3243 9.16778C18.3243 9.16778 18.2102 9.09435 17.9566 9.03551C17.9566 9.03551 18.1067 8.85194 18.2753 8.77449C18.4249 8.70559 18.7366 8.61356 18.8256 8.3284ZM17.902 9.09888C17.902 9.09888 17.7259 9.33827 17.5958 9.44339C17.5958 9.44339 18.2507 9.43735 18.4164 10.0112C18.4164 10.0112 18.643 9.65914 18.4764 9.43031C18.2988 9.18388 18.1352 9.1537 17.902 9.09888Z" fill="white"/>
<path fill-rule="evenodd" clip-rule="evenodd" d="M17.183 9.2417C17.183 9.2417 16.9714 9.30457 16.9009 9.32317C16.9009 9.32317 16.8974 9.19946 16.9044 9.13961C16.8403 9.1552 16.7618 9.17582 16.6932 9.18286C16.6932 9.18286 16.4811 9.65963 16.317 9.85175C16.317 9.85175 16.307 9.95736 16.399 10.1183C16.399 10.1183 16.5186 9.83666 16.7323 9.61034C16.8543 9.48361 16.9314 9.41873 17.183 9.2417ZM17.7389 9.13961C17.6729 9.15822 17.3336 9.26534 17.1695 9.38503C16.9654 9.53289 16.8248 9.70339 16.8463 9.9971C16.8463 9.9971 17.0124 9.76424 17.1945 9.65963C17.3401 9.57564 17.6018 9.3443 17.7389 9.13961ZM17.7344 6.98256C17.6729 6.98256 17.5513 7.01274 17.5513 7.11382C17.5513 7.21692 17.7084 7.46235 17.7499 7.57149H17.7539C17.7954 7.46235 17.953 7.21692 17.953 7.11382C17.953 7.01324 17.832 6.98306 17.7689 6.98306L17.7344 6.98256ZM17.873 7.77517C17.902 7.63234 17.9565 7.26118 18.0446 7.17971C18.1271 7.10075 18.2497 7.0932 18.3108 7.09672C18.3281 7.09784 18.345 7.10297 18.36 7.11172C18.375 7.12048 18.3879 7.13261 18.3975 7.14718C18.407 7.16174 18.4132 7.17834 18.4153 7.19568C18.4174 7.21301 18.4156 7.23061 18.4098 7.2471C18.3858 7.3326 18.1141 7.74349 18.0776 7.79529C18.0151 7.78422 18.0276 7.78825 17.873 7.77517ZM17.6318 7.77517C17.6018 7.63234 17.5468 7.26118 17.4592 7.17971C17.3762 7.10075 17.2536 7.0932 17.193 7.09672C17.1758 7.09815 17.1591 7.10348 17.1442 7.1123C17.1294 7.12113 17.1166 7.13323 17.1071 7.1477C17.0975 7.16216 17.0913 7.17862 17.0889 7.19583C17.0866 7.21305 17.0881 7.23057 17.0935 7.2471C17.118 7.3326 17.3887 7.74349 17.4252 7.79529C17.4882 7.78422 17.4752 7.78825 17.6318 7.77517ZM17.4587 6.48416H17.6689V6.24829H17.839V6.48466H18.0516V6.63353H17.839V6.91064H17.6689V6.63403H17.4587V6.48416ZM14.9491 5.08452H15.1593V4.84814H15.3319V5.08452H15.5435V5.23238H15.3319V5.511H15.1593V5.23238H14.9491V5.08452ZM20.0208 8.01054C20.0191 7.96482 20.0156 7.91919 20.0103 7.87374C19.995 7.7759 19.993 7.67642 20.0043 7.57802C20.1574 7.63737 20.26 7.67459 20.4701 8.01708C20.4701 8.01708 20.1359 7.80887 20.0208 8.01054Z" fill="white"/>
<path fill-rule="evenodd" clip-rule="evenodd" d="M19.7272 8.55218C19.7222 8.46769 19.6681 8.19863 19.5996 8.01104C19.5135 7.77718 19.5621 7.44072 19.6646 7.23553C19.7642 7.03838 19.8197 6.8533 19.8012 6.64861C19.8012 6.64861 19.9988 6.7155 20.1124 6.78641C20.1314 7.0238 19.9953 7.26118 19.9303 7.39596C19.8522 7.55539 19.8678 7.76309 19.8853 7.89084C19.9153 8.1071 19.8693 8.33643 19.7272 8.55218ZM19.7067 6.73914C19.7138 6.69514 19.7109 6.65007 19.6981 6.60737C19.6981 6.60737 19.388 6.30059 19.1253 6.24828C19.0698 6.23508 19.012 6.2355 18.9567 6.2495C18.9014 6.26351 18.8502 6.29069 18.8076 6.32875C18.8076 6.32875 18.9006 6.31869 19.0402 6.43437C19.1798 6.54853 19.3529 6.68633 19.4845 6.72103C19.6156 6.75624 19.6446 6.74618 19.7067 6.73914ZM18.7821 6.35189C18.666 6.47058 18.5669 6.59631 18.5694 6.70494C18.5709 6.8176 18.7 7.10074 18.7681 7.20787C18.8361 7.31549 18.9352 7.45681 18.9232 7.62831C18.9172 7.71381 18.8581 7.80132 18.7901 7.87424C18.7901 7.87424 19.1713 7.78271 19.2168 7.54432C19.2589 7.33058 19.1698 7.18222 19.1078 7.06403C19.0507 6.95238 18.8741 6.69388 18.8301 6.58625C18.7901 6.48818 18.7681 6.4062 18.7821 6.35189ZM16.5542 9.03751C16.478 9.2961 16.3656 9.54249 16.2204 9.76926C16.1044 9.95384 16.0313 10.2516 16.0448 10.3527C16.0448 10.3527 15.8712 9.96792 15.9598 9.69634C16.0268 9.48511 16.2114 9.16978 16.5542 9.03751ZM16.1234 9.12753C16.1234 9.12753 15.8632 9.13256 15.7411 9.21403C15.583 9.31864 15.4319 9.54848 15.3749 9.82358C15.3749 9.82358 15.6401 9.77681 15.7712 9.64554C15.9022 9.51327 16.0623 9.31563 16.1234 9.12753ZM17.4787 9.60581C17.5298 9.60984 17.6629 9.64102 17.7289 9.66113C17.7289 9.66113 17.5053 9.72702 17.3952 9.82056C17.3001 9.89952 17.2161 10.0217 17.1791 10.2279C17.126 10.5161 16.9574 10.8264 16.9074 10.9195L16.8889 10.9159C16.9189 10.7173 16.7963 10.3059 16.7653 10.246C16.7653 10.246 16.9424 10.1344 17.0224 10.0177C17.0815 9.93221 17.1876 9.78888 17.4787 9.60581ZM16.319 10.2249C16.2555 10.3758 16.0819 10.6444 16.1614 10.924C16.243 11.2036 16.4246 11.3238 16.5346 11.5617C16.5346 11.5617 16.6232 11.1327 16.6037 10.8023C16.5837 10.4718 16.4666 10.3446 16.319 10.2249ZM15.2493 11.008C15.2618 10.8435 15.6366 10.4492 15.6176 10.236C15.598 10.0212 15.3174 9.87136 15.2478 9.83967H15.2443C15.1758 9.87136 14.8946 10.0212 14.8746 10.236C14.8546 10.4492 15.2308 10.8435 15.2418 11.008H15.2493ZM15.8167 10.236C15.8167 10.236 15.5565 10.7464 15.509 10.9461C15.4635 11.1443 15.506 11.2765 15.595 11.3977C15.6826 11.5169 15.8317 11.6467 15.9718 11.8986C15.9718 11.8986 16.1314 11.6839 16.1519 11.5717C16.1709 11.4596 16.1394 11.1915 16.1044 11.0799C16.0703 10.9657 15.9318 10.6046 15.8167 10.236ZM15.2493 12.21C15.3674 12.1064 15.4735 11.952 15.5075 11.8604C15.54 11.7699 15.5485 11.6366 15.4695 11.5335C15.3749 11.4123 15.2568 11.275 15.2493 11.1639H15.2433C15.2343 11.275 15.1172 11.4123 15.0222 11.534C14.9431 11.6366 14.9516 11.7694 14.9862 11.8609C15.0187 11.952 15.1252 12.1064 15.2443 12.21H15.2493ZM15.6841 11.865C15.7411 11.9278 16.0448 12.2975 16.0859 12.4051C16.1269 12.5122 16.1964 12.7164 16.1024 12.8587C16.0073 13.0011 15.7917 13.2259 15.6015 13.3214C15.6015 13.3214 15.8067 12.9975 15.7862 12.7315C15.7727 12.561 15.6421 12.4096 15.6176 12.3055C15.594 12.2029 15.6106 12.0274 15.6841 11.865ZM16.2785 11.6613C16.2314 11.7266 16.1509 11.8861 16.1384 12.041C16.1284 12.1934 16.1529 12.3161 16.236 12.5399C16.34 12.8225 16.5006 13.1368 16.5747 13.2792C16.5747 13.2792 16.7178 13.072 16.7968 12.8874C16.7968 12.8874 16.5742 12.5776 16.4786 12.3593C16.368 12.1018 16.3235 11.8639 16.2785 11.6613ZM16.3825 11.5421C16.3825 11.5421 16.4786 12.2688 16.9009 12.8079C17.1866 13.1731 17.4197 13.3008 17.5733 13.3008C17.8049 13.3008 18.0386 13.1047 18.1171 12.8804C18.1942 12.6576 18.1702 12.3095 18.0201 12.1863C18.0201 12.1863 17.881 12.6224 17.5833 12.6379C17.2481 12.6576 16.8153 12.2763 16.3825 11.5421Z" fill="white"/>
<path fill-rule="evenodd" clip-rule="evenodd" d="M16.7283 11.2383C16.6933 11.3681 16.6828 11.5673 16.7283 11.7553C16.7638 11.8987 16.8504 12.0843 17.0155 12.1894C17.1586 12.2799 17.4943 12.301 17.6234 11.9791C17.6234 11.9791 17.008 12.0259 16.7283 11.2383ZM15.2463 13.3959C15.3334 13.3531 15.4064 13.322 15.508 13.1676C15.5846 13.0469 15.6591 12.8221 15.6181 12.6621C15.565 12.4645 15.4605 12.3855 15.3964 12.2623C15.3449 12.3116 15.3129 12.3498 15.2493 12.3865H15.2463C15.1818 12.3498 15.1493 12.3111 15.0962 12.2623C15.0312 12.386 14.9281 12.4645 14.8746 12.6621C14.8336 12.8221 14.9071 13.0464 14.9847 13.1676C15.0847 13.322 15.1593 13.3536 15.2463 13.3959ZM15.2463 14.6215C15.2879 14.4284 15.6871 14.0567 15.6496 13.8536C15.5946 13.5508 15.4014 13.6147 15.2493 13.4869H15.2463C15.0922 13.6147 14.8971 13.5508 14.8416 13.8541C14.8066 14.0567 15.2028 14.4284 15.2443 14.6215H15.2463ZM15.7226 14.1679C15.6386 14.3867 15.3369 14.6628 15.3394 14.8338C15.3444 15.2849 15.539 15.5615 15.5861 15.7104C15.5861 15.7104 15.9438 15.4237 16.0063 15.0948C16.0398 14.9258 16.0013 14.4183 15.7226 14.1679ZM16.1214 14.4877C16.0804 14.3701 15.9493 14.0502 15.7962 13.9396C15.7962 13.9396 15.6016 13.3602 16.228 13.0026C16.228 13.0026 16.4851 13.3481 16.5542 13.673C16.6222 13.9999 16.281 14.1945 16.1214 14.4877ZM16.9069 13.0232C17.0065 13.1474 17.1471 13.3169 17.2591 13.3702C17.2591 13.3702 17.2951 13.6287 17.2756 13.8012C17.2421 14.0567 17.0805 14.3172 17.0125 14.5079C17.0125 14.5079 16.7378 14.1463 16.7053 13.934C16.6727 13.7208 16.6803 13.5463 16.6702 13.4437C16.6702 13.4437 16.8208 13.1932 16.9069 13.0232ZM17.6269 14.2665C17.7049 14.1458 17.9566 13.7082 17.9596 13.3888C17.9596 13.3888 17.6504 13.5548 17.3912 13.4326C17.3912 13.4326 17.3582 13.848 17.4087 13.9883C17.4487 14.102 17.5023 14.1699 17.6269 14.2665ZM17.5558 14.3545C17.4774 14.2858 17.4031 14.2126 17.3332 14.1352C17.3332 14.1352 17.127 14.5144 17.093 14.6255C17.093 14.6255 17.1946 14.6527 17.3072 14.5702C17.4197 14.4872 17.4442 14.4651 17.5558 14.3545ZM16.6072 14.1317C16.6322 14.2272 16.9629 14.6929 17.02 14.7503C17.02 14.7503 16.9935 14.9182 16.8709 15.1612C16.7493 15.4026 16.5797 15.5731 16.4876 15.6586C16.4876 15.6586 16.2835 15.298 16.2225 15.1405C16.1529 14.9585 16.1614 14.7799 16.1924 14.7131C16.26 14.5556 16.5006 14.3283 16.6072 14.1317ZM15.2493 16.8857C15.2804 16.7584 15.472 16.6066 15.5505 16.3848C15.5981 16.254 15.5966 16.1016 15.5455 15.997C15.4855 15.8743 15.2704 15.5756 15.2463 15.4896C15.2193 15.5751 15.0077 15.8743 14.9462 15.997C14.8946 16.1016 14.8936 16.2545 14.9401 16.3848C15.0202 16.6066 15.2113 16.7584 15.2433 16.8857H15.2493ZM16.1094 15.3493C16.0373 15.4986 15.8167 15.7446 15.7817 15.9392C15.7542 16.0911 15.7792 16.2158 15.8182 16.3229C15.8597 16.4255 15.9943 16.6312 16.0814 16.7876C16.0814 16.7876 16.3831 16.4984 16.4496 16.2927C16.4987 16.1224 16.4839 15.9399 16.4081 15.7798C16.336 15.642 16.1789 15.4921 16.1094 15.3493ZM16.9669 15.3075C16.8884 15.4815 16.7003 15.6535 16.6577 15.8049C16.6072 15.9844 16.5912 16.0971 16.6763 16.3063C16.7538 16.4884 16.8434 16.5955 16.8759 16.7072C16.8759 16.7072 17.121 16.3853 17.1611 16.2515C17.2041 16.1177 17.2151 15.8974 17.1661 15.7586C17.115 15.6168 17.0265 15.4358 16.9669 15.3075ZM15.2463 19.354C15.2619 19.1971 15.5836 18.7103 15.5981 18.1938C15.6061 17.9348 15.3789 17.5314 15.2493 17.377H15.2418C15.1138 17.5314 14.8861 17.9353 14.8936 18.1938C14.9091 18.7098 15.2298 19.1971 15.2463 19.354ZM15.7572 16.5326C15.7572 16.5326 16.1799 17.0491 16.1704 17.3232C16.1579 17.6637 15.9318 17.8915 15.9023 18.1008C15.9023 18.1008 15.6801 17.8473 15.5961 17.6768C15.501 17.4857 15.4285 17.3232 15.4555 17.106C15.479 16.8887 15.5345 16.7504 15.7572 16.5326ZM16.5352 16.4818C16.4671 16.5809 16.28 16.9189 16.333 17.1185C16.3881 17.3207 16.5952 17.6034 16.6642 17.7241C16.6642 17.7241 16.8308 17.377 16.8694 17.2176C16.9069 17.0602 16.8714 16.8002 16.5352 16.4818Z" fill="white"/>
<path fill-rule="evenodd" clip-rule="evenodd" d="M15.5345 20.1823C15.5605 19.7815 15.7862 19.5406 15.8247 19.3324C15.8697 19.1026 15.8547 18.8828 15.6786 18.6182C15.571 18.9976 15.4295 19.3664 15.2558 19.7202C15.2513 19.7262 15.2493 19.7342 15.2463 19.7413C15.2428 19.7342 15.2413 19.7262 15.2363 19.7202C15.1138 19.4737 14.9577 19.1116 14.8151 18.6177C14.639 18.8828 14.6234 19.1026 14.667 19.3324C14.707 19.5406 14.9321 19.7815 14.9572 20.1823C14.9822 20.5847 14.5354 20.7376 14.5354 20.7376C14.6855 20.7929 14.8576 20.818 15.1308 20.556C15.1808 20.5087 15.2178 20.4564 15.2463 20.4011C15.2754 20.4564 15.3129 20.5087 15.3624 20.556C15.6336 20.8175 15.8072 20.7929 15.9578 20.7376C15.9578 20.7376 15.51 20.5847 15.5345 20.1823ZM14.1286 17.5118C14.1747 17.6627 14.3137 17.9403 14.3318 18.0248C14.3653 18.1842 14.3197 18.3768 14.0331 18.5815C14.0331 18.5815 13.8475 18.4498 13.7734 18.2778C13.7054 18.1153 13.7449 18.0002 13.8159 17.9172C13.888 17.8337 14.0576 17.6385 14.1286 17.5118ZM14.731 18.1068C14.731 18.1872 14.672 18.6419 14.5449 18.8687C14.3653 19.1855 14.1016 19.4199 13.871 19.4199C13.6578 19.4199 13.6118 19.2907 13.5067 19.2389C13.5067 19.2389 13.5603 18.9633 13.8004 18.8918C14.0956 18.8018 14.5479 18.4442 14.731 18.1068Z" fill="white"/>
<path fill-rule="evenodd" clip-rule="evenodd" d="M13.9605 18.6862C13.9115 18.6469 13.868 18.6218 13.8089 18.5519C13.8089 18.5519 13.5818 18.6364 13.3942 18.7641C13.2065 18.8919 13.0224 19.1096 12.9239 19.2228C12.9239 19.2228 13.204 19.2957 13.3826 19.2137C13.3826 19.2137 13.4467 18.9422 13.6473 18.8204C13.6913 18.7948 13.8314 18.7525 13.9605 18.6862ZM13.7284 18.4538C13.6833 18.3854 13.5948 18.2592 13.6138 18.061C13.6138 18.061 13.2185 18.3155 13.1035 18.4096C12.9834 18.5086 12.7362 18.7656 12.6812 18.8506C12.6812 18.8506 12.9804 18.7837 13.21 18.7058C13.4607 18.6218 13.6338 18.5086 13.7284 18.4538ZM13.0594 18.8848C12.8473 18.9628 12.368 19.0397 12.1689 19.1001C11.9688 19.1604 11.8237 19.2645 11.6325 19.4752C11.6325 19.4752 11.9262 19.5587 12.0833 19.608C12.0833 19.608 12.3325 19.437 12.6057 19.3304C12.7843 19.261 12.8708 19.0729 13.0594 18.8848ZM12.6142 20.3131C12.6602 20.2613 12.7182 20.2025 12.6737 20.0828C12.6427 19.9938 12.4691 19.8982 12.366 19.8474C12.1944 19.7644 11.7186 19.6352 11.5625 19.5889C11.5625 19.5889 11.4849 19.6804 11.4449 19.777C11.4269 19.8142 11.4504 19.8529 11.518 19.865C11.6505 19.8882 11.9683 19.8278 12.0473 19.8791C12.1294 19.9344 12.0993 20.0078 12.0993 20.0828C12.0993 20.0828 12.2454 19.9913 12.3365 20.0124C12.4646 20.0395 12.5416 20.1009 12.6142 20.3131ZM12.1909 19.6427C12.2249 19.6548 12.411 19.7116 12.5916 19.8273C12.5916 19.8273 12.6717 19.7961 12.7117 19.7217C12.7497 19.6503 12.9118 19.4069 13.0624 19.3747C13.0624 19.3747 12.9349 19.3621 12.8613 19.3385C12.8613 19.3385 12.7072 19.3787 12.5976 19.424C12.4881 19.4692 12.352 19.5376 12.1909 19.6427ZM13.4182 19.3354C13.3897 19.349 13.3406 19.3732 13.229 19.3782C13.229 19.3782 12.8113 19.6709 12.7623 19.9646C12.7212 20.214 12.8513 20.3342 12.9139 20.3649C12.9764 20.3981 13.2691 20.5193 13.4592 20.1225C13.4592 20.1225 13.135 20.2301 13.0469 20.0732C12.9594 19.9148 13.103 19.686 13.191 19.6201C13.3056 19.5316 13.5137 19.4737 13.6388 19.4954C13.6388 19.4954 13.5382 19.3978 13.4182 19.3354Z" fill="white"/>
<path fill-rule="evenodd" clip-rule="evenodd" d="M10.6789 22.6945C10.7295 22.4782 10.7865 22.2529 10.8836 22.0447C11.0727 21.6393 11.536 20.5621 12.5021 20.3709C12.5931 20.3538 12.3975 20.1255 12.312 20.1381C12.2244 20.1476 12.0523 20.2613 11.9767 20.3131C11.9767 20.3131 11.9767 20.0828 11.9737 20.041C11.9717 19.9978 11.9352 19.9852 11.8977 19.9857C11.8602 19.9867 11.6275 19.9852 11.5525 20.0702C11.3323 20.3287 10.9606 21.0227 10.75 21.5387C10.5388 22.0552 10.3957 22.2147 10.1731 22.1347C9.95096 22.0552 9.81788 21.7972 9.43063 21.8752C9.29605 21.9034 9.14645 21.9944 9.03038 22.1287C9.0624 22.192 9.10393 22.269 9.28554 22.269C9.46616 22.269 9.81137 22.3454 10.0045 22.4822C10.1986 22.619 10.4012 22.6633 10.6789 22.6945ZM14.5369 19.3525C14.5589 19.5195 14.6389 19.6759 14.727 19.8378C14.727 19.8378 14.4318 21.2108 13.3696 21.3175C13.3696 21.3175 13.3901 21.0333 13.7048 20.816C14.02 20.5998 14.4908 20.2623 14.4573 19.7518C14.4573 19.7518 14.3733 19.7694 14.2222 19.9611C14.0711 20.1522 13.7394 20.7049 13.225 20.7089C13.225 20.7089 13.3021 20.4504 13.5292 20.301C13.7569 20.1522 14.0456 19.9611 14.1766 19.7302C14.3077 19.5009 14.4458 19.3953 14.5369 19.3525ZM14.0356 24.3556L14.683 25.273L15.1733 24.3898L15.0002 24.0755C14.8716 24.3068 14.7345 24.5573 14.6564 24.6946C14.5959 24.6106 14.4323 24.3783 14.2182 24.0755L14.0356 24.3556Z" fill="white"/>
<path fill-rule="evenodd" clip-rule="evenodd" d="M13.8705 23.5791C13.2386 22.6854 12.4596 21.579 12.38 21.4668L12.6247 21.2888L11.8537 20.9895L11.8672 21.841L12.1279 21.6504L13.6869 23.8607L13.8705 23.5791ZM8.54659 18.5579C8.73672 18.3477 9.05892 18.5297 9.38463 18.833C9.71233 19.1367 9.91696 19.4476 9.72784 19.6573C9.55023 19.8519 9.21502 19.6854 8.88631 19.3832C8.5596 19.0789 8.35397 18.7681 8.54659 18.5579Z" fill="white"/>
<path fill-rule="evenodd" clip-rule="evenodd" d="M9.0724 22.2916C9.06157 22.2835 9.05121 22.2748 9.04138 22.2655C8.86827 22.1126 8.76971 21.8752 8.76971 21.6167C8.76971 21.1203 9.16796 20.716 9.66027 20.716C10.1506 20.716 10.5483 21.1203 10.5483 21.6167C10.5483 21.6841 10.5358 21.7937 10.5358 21.7937C10.5764 21.7173 10.7224 21.3733 10.752 21.3094C10.6859 21.0689 10.5435 20.8567 10.3463 20.7051C10.1491 20.5536 9.90799 20.471 9.65977 20.47C9.21199 20.47 8.82424 20.7336 8.63963 21.1158C8.70917 20.6606 8.93281 20.2523 9.09091 20.1014C9.28103 19.9208 9.60274 19.8625 9.60274 19.8625C9.3911 19.8977 9.11243 19.7659 8.80123 19.4752C8.50504 19.2016 8.35395 18.9617 8.34444 18.7611C8.36245 19.0442 8.35445 19.2026 8.27439 19.433C8.16733 19.7463 7.87414 20.3252 7.97921 20.979C8.03624 21.3381 8.29341 21.8717 8.72368 22.3082C8.81524 22.4058 8.84876 22.5511 8.86027 22.6256C8.86027 22.6256 9.49367 22.6256 9.64376 22.6406C9.64376 22.6406 9.79486 22.6256 9.79236 22.5315C9.79086 22.436 9.7073 22.4118 9.63126 22.4118C9.55621 22.4118 9.24101 22.4199 9.0724 22.2916ZM12.5791 22.5104C12.1709 22.6582 11.7636 22.7387 11.3784 22.7986C11.136 22.8366 10.8904 22.8501 10.6454 22.8388C10.6521 22.883 10.6455 22.9282 10.6264 22.9686C10.6264 22.9686 10.6744 23.0249 10.6744 23.0867C10.9131 23.0958 11.1617 23.0817 11.4149 23.0415C11.8382 22.9761 12.2804 22.8906 12.7272 22.7196L12.5791 22.5104ZM13.2465 22.4782C13.7884 22.1805 14.3157 21.7183 14.7925 20.9815L14.8776 20.8372C14.747 20.896 14.5809 20.8532 14.5809 20.8532C14.5709 20.8663 14.5509 20.8995 14.5409 20.9191C14.0966 21.582 13.6048 21.9994 13.103 22.273L13.2465 22.4782ZM9.68029 22.7136C9.60574 22.701 9.36809 22.708 9.226 22.7287C9.0694 22.7543 8.89229 22.786 8.87327 22.8735C8.85626 22.9565 8.9123 23.044 8.99135 23.1692C9.03988 23.2467 9.15645 23.2019 9.2205 23.1778C9.28454 23.1541 9.65077 22.9555 9.70831 22.8911C9.76834 22.8252 9.79236 22.7327 9.68029 22.7136ZM10.0525 22.9575C10.0179 22.9363 9.97898 22.9232 9.93866 22.919C9.89833 22.9148 9.85758 22.9197 9.81938 22.9333C9.71931 22.9706 9.35908 23.1853 9.33607 23.2874C9.31105 23.388 9.36108 23.4373 9.41662 23.4604C9.47216 23.483 9.5397 23.5047 9.59023 23.5097C9.63302 23.5109 9.6755 23.5022 9.71444 23.4843C9.75337 23.4664 9.78773 23.4399 9.81487 23.4066C9.8604 23.3488 10.03 23.1431 10.0525 23.0958C10.077 23.0505 10.09 22.9831 10.0525 22.9575ZM10.0971 23.1838C10.0216 23.2702 9.94969 23.3596 9.88141 23.4519C9.8649 23.481 9.89042 23.5273 9.93645 23.5218C9.98098 23.5167 10.2301 23.4916 10.3727 23.3935C10.5148 23.2944 10.6104 23.1038 10.5118 23.0354C10.4138 22.9665 10.2612 22.9987 10.0971 23.1838ZM10.1776 22.6366C10.1296 22.6256 9.94145 22.5783 9.90243 22.6406C9.85039 22.7181 9.88642 22.8016 10.0325 22.8735C10.1776 22.9429 10.4518 22.9997 10.5078 22.9243C10.5598 22.8463 10.4853 22.7181 10.1776 22.6366ZM16.364 17.5118C16.317 17.6627 16.1784 17.9403 16.1594 18.0248C16.1269 18.1842 16.1709 18.3768 16.4586 18.5815C16.4586 18.5815 16.6437 18.4498 16.7178 18.2778C16.7873 18.1153 16.7478 18.0002 16.6757 17.9172C16.6037 17.8337 16.4361 17.6385 16.364 17.5118ZM15.7596 18.1068C15.7596 18.1872 15.8182 18.6419 15.9473 18.8687C16.1269 19.1855 16.39 19.4199 16.6207 19.4199C16.8348 19.4199 16.8809 19.2907 16.9849 19.2389C16.9849 19.2389 16.9314 18.9633 16.6902 18.8918C16.3965 18.8018 15.9438 18.4442 15.7596 18.1068Z" fill="white"/>
<path fill-rule="evenodd" clip-rule="evenodd" d="M16.5317 18.6862C16.5812 18.6469 16.6222 18.6218 16.6817 18.5519C16.6817 18.5519 16.9109 18.6364 17.0985 18.7641C17.2846 18.8919 17.4672 19.1096 17.5688 19.2228C17.5688 19.2228 17.2871 19.2957 17.1085 19.2137C17.1085 19.2137 17.044 18.9422 16.8434 18.8204C16.8008 18.7948 16.6607 18.7525 16.5317 18.6862ZM16.7638 18.4538C16.8078 18.3854 16.8974 18.2592 16.8769 18.061C16.8769 18.061 17.2711 18.3155 17.3897 18.4096C17.5093 18.5086 17.7554 18.7656 17.811 18.8506C17.811 18.8506 17.5113 18.7837 17.2821 18.7058C17.031 18.6218 16.8574 18.5086 16.7638 18.4538ZM17.4327 18.8848C17.6459 18.9628 18.1217 19.0397 18.3233 19.1001C18.5234 19.1604 18.669 19.2645 18.8601 19.4752C18.8601 19.4752 18.5649 19.5587 18.4098 19.608C18.4098 19.608 18.1597 19.437 17.8855 19.3304C17.7084 19.261 17.6203 19.0729 17.4327 18.8848ZM17.8775 20.3131C17.832 20.2613 17.7739 20.2025 17.8175 20.0828C17.849 19.9938 18.0226 19.8982 18.1277 19.8474C18.2993 19.7644 18.7746 19.6352 18.9292 19.5889C18.9292 19.5889 19.0062 19.6804 19.0477 19.777C19.0653 19.8142 19.0402 19.8529 18.9752 19.865C18.8416 19.8882 18.5234 19.8278 18.4449 19.8791C18.3618 19.9344 18.3913 20.0078 18.3913 20.0828C18.3913 20.0828 18.2472 19.9913 18.1532 20.0124C18.0281 20.0395 17.9491 20.1009 17.8775 20.3131ZM18.3013 19.6427C18.2663 19.6548 18.0811 19.7116 17.9 19.8273C17.9 19.8273 17.82 19.7961 17.7799 19.7217C17.7424 19.6503 17.5798 19.4069 17.4297 19.3747C17.4297 19.3747 17.5568 19.3621 17.6293 19.3385C17.6293 19.3385 17.7844 19.3787 17.8955 19.424C18.0051 19.4692 18.1422 19.5376 18.3013 19.6427ZM17.0725 19.3354C17.1015 19.349 17.1505 19.3732 17.2611 19.3782C17.2611 19.3782 17.6804 19.6709 17.7284 19.9646C17.7724 20.214 17.6414 20.3342 17.5778 20.3649C17.5143 20.3981 17.2226 20.5193 17.033 20.1225C17.033 20.1225 17.3562 20.2301 17.4447 20.0732C17.5323 19.9148 17.3897 19.686 17.3021 19.6201C17.1866 19.5316 16.9789 19.4737 16.8519 19.4954C16.8519 19.4954 16.9529 19.3978 17.0725 19.3354Z" fill="white"/>
<path fill-rule="evenodd" clip-rule="evenodd" d="M19.8127 22.6945C19.7617 22.4782 19.7066 22.2529 19.6086 22.0447C19.4205 21.6393 18.9567 20.5621 17.9886 20.3709C17.8985 20.3538 18.0926 20.1255 18.1817 20.1381C18.2677 20.1476 18.4398 20.2613 18.5169 20.3131C18.5169 20.3131 18.5169 20.0828 18.5184 20.041C18.5209 19.9978 18.5564 19.9852 18.5934 19.9857C18.631 19.9867 18.8646 19.9852 18.9377 20.0702C19.1593 20.3287 19.531 21.0227 19.7422 21.5387C19.9533 22.0552 20.0974 22.2147 20.318 22.1347C20.5412 22.0552 20.6758 21.7972 21.0615 21.8752C21.1966 21.9034 21.3447 21.9944 21.4633 22.1287C21.4297 22.192 21.3877 22.269 21.2081 22.269C21.025 22.269 20.6793 22.3454 20.4876 22.4822C20.2935 22.619 20.0914 22.6633 19.8127 22.6945ZM15.9533 19.3525C15.9333 19.5195 15.8527 19.6759 15.7656 19.8378C15.7656 19.8378 16.0593 21.2108 17.124 21.3175C17.124 21.3175 17.1015 21.0333 16.7873 20.816C16.4711 20.5998 16.0003 20.2623 16.0343 19.7518C16.0343 19.7518 16.1184 19.7694 16.269 19.9611C16.4221 20.1522 16.7538 20.7049 17.2661 20.7089C17.2661 20.7089 17.1911 20.4504 16.9629 20.301C16.7358 20.1522 16.4456 19.9611 16.315 19.7302C16.1849 19.5009 16.0473 19.3953 15.9533 19.3525ZM15.2478 20.6843C15.3109 20.8663 15.7121 21.4422 15.8882 21.6056C16.0653 21.7696 16.4941 22.2041 16.7238 22.4214C16.7238 22.4214 16.0703 22.2574 15.7026 21.92C15.7026 21.92 15.4409 22.0733 15.2503 22.0733H15.2413C15.0502 22.0733 14.7885 21.92 14.7885 21.92C14.4213 22.2569 13.7689 22.4214 13.7689 22.4214C13.9975 22.2041 14.4263 21.7696 14.6024 21.6056C14.78 21.4422 15.1828 20.8663 15.2443 20.6843H15.2478Z" fill="white"/>
<path fill-rule="evenodd" clip-rule="evenodd" d="M15.2493 22.2091C15.3939 22.2091 15.5305 22.1508 15.608 22.1171C15.5305 22.2815 15.3854 22.537 15.2463 22.6426H15.2443C15.1047 22.537 14.9596 22.2815 14.8841 22.1171C14.9596 22.1508 15.0962 22.2086 15.2413 22.2086L15.2493 22.2091Z" fill="white"/>
<path fill-rule="evenodd" clip-rule="evenodd" d="M15.8092 25.273L18.3638 21.6509L18.624 21.841L18.6395 20.9896L17.8655 21.2888L18.1111 21.4673L15.8352 24.6946L14.6785 22.5733L14.5354 22.7946L13.5057 24.3687L13.2476 24.1942L13.2445 25.0316L14.026 24.7182L13.7639 24.5422C13.906 24.325 14.4648 23.4725 14.6509 23.1853L15.8092 25.273Z" fill="white"/>
<path fill-rule="evenodd" clip-rule="evenodd" d="M16.275 23.8502C16.1024 23.5871 15.9293 23.3216 15.8407 23.1853C15.7762 23.3075 15.6451 23.5464 15.498 23.8104L15.3154 23.4795L15.8127 22.5732L15.9568 22.7945L16.4681 23.5766L16.275 23.8502ZM16.8028 24.0855L16.9865 24.3687L17.2436 24.1942L17.2486 25.0315L16.4661 24.7182L16.7273 24.5422C16.7003 24.501 16.6607 24.4366 16.6087 24.3586L16.8028 24.0855ZM21.9456 18.5579C21.7555 18.3477 21.4328 18.5297 21.1051 18.833C20.7794 19.1367 20.5742 19.4476 20.7643 19.6573C20.941 19.8519 21.2797 19.6854 21.6059 19.3832C21.9311 19.0789 22.1367 18.7681 21.9456 18.5579Z" fill="white"/>
<path fill-rule="evenodd" clip-rule="evenodd" d="M21.4197 22.2916C21.4312 22.2826 21.4398 22.2745 21.4498 22.2655C21.6229 22.1126 21.7234 21.8752 21.7234 21.6167C21.7234 21.1203 21.3237 20.716 20.8329 20.716C20.3416 20.716 19.9433 21.1203 19.9433 21.6167C19.9433 21.6841 19.9563 21.7937 19.9563 21.7937C19.9163 21.7173 19.7687 21.3733 19.7397 21.3094C19.8053 21.0686 19.9477 20.856 20.1451 20.7044C20.3425 20.5527 20.5839 20.4704 20.8324 20.47C21.2801 20.47 21.6679 20.7336 21.8515 21.1158C21.7815 20.6606 21.5603 20.2523 21.4012 20.1014C21.2116 19.9208 20.8894 19.8625 20.8894 19.8625C21.1 19.8977 21.3787 19.7659 21.6909 19.4753C21.9861 19.2017 22.1397 18.9618 22.1472 18.7611C22.1292 19.0442 22.1372 19.2027 22.2157 19.433C22.3238 19.7463 22.618 20.3252 22.5139 20.979C22.4564 21.3381 22.1987 21.8717 21.77 22.3082C21.6774 22.4058 21.6429 22.5511 21.6329 22.6256C21.6329 22.6256 20.998 22.6256 20.8469 22.6407C20.8469 22.6407 20.6973 22.6256 20.6998 22.5315C20.7028 22.436 20.7848 22.4118 20.8614 22.4118C20.9349 22.4118 21.2516 22.4199 21.4197 22.2916ZM17.2436 22.4772C16.7032 22.178 16.1759 21.7183 15.6991 20.9815L15.6136 20.8367C15.7446 20.8955 15.9112 20.8538 15.9112 20.8538C15.9212 20.8663 15.9408 20.8995 15.9503 20.9192C16.3945 21.581 16.8864 21.9999 17.3882 22.273L17.2436 22.4772ZM17.912 22.5094C18.3208 22.6583 18.7275 22.7387 19.1128 22.7986C19.3654 22.8368 19.6116 22.8509 19.8457 22.8388C19.8394 22.8831 19.8464 22.9283 19.8658 22.9686C19.8658 22.9686 19.8192 23.0249 19.8192 23.0868C19.5786 23.0958 19.3314 23.0817 19.0757 23.0415C18.6565 22.9761 18.2102 22.8906 17.7654 22.7186L17.912 22.5094ZM20.8114 22.7136C20.8869 22.701 21.1251 22.7081 21.2666 22.7287C21.4222 22.7543 21.5999 22.786 21.6189 22.8735C21.6359 22.9565 21.5798 23.044 21.5018 23.1692C21.4513 23.2467 21.3352 23.2019 21.2726 23.1778C21.2076 23.1542 20.8414 22.9555 20.7818 22.8911C20.7248 22.8252 20.6998 22.7327 20.8114 22.7136ZM20.4376 22.9575C20.4727 22.9364 20.5119 22.9233 20.5525 22.9191C20.5932 22.915 20.6342 22.9198 20.6728 22.9334C20.7718 22.9706 21.1316 23.1853 21.1566 23.2874C21.1801 23.388 21.1306 23.4373 21.0745 23.4604C21.0195 23.4831 20.9514 23.5047 20.9014 23.5097C20.8588 23.5108 20.8165 23.502 20.7777 23.4842C20.739 23.4663 20.7048 23.4398 20.6778 23.4066C20.6307 23.3488 20.4641 23.1431 20.4376 23.0958C20.4146 23.0506 20.4026 22.9832 20.4376 22.9575ZM20.3956 23.1838C20.4471 23.2437 20.5937 23.4217 20.6102 23.4519C20.6282 23.4811 20.6012 23.5273 20.5557 23.5218C20.5097 23.5168 20.2625 23.4916 20.1199 23.3935C19.9773 23.2945 19.8828 23.1039 19.9813 23.0355C20.0769 22.9666 20.2305 22.9988 20.3956 23.1838ZM20.315 22.6366C20.3621 22.6256 20.5502 22.5783 20.5902 22.6407C20.6402 22.7181 20.6042 22.8016 20.4586 22.8735C20.315 22.9429 20.0399 22.9998 19.9853 22.9243C19.9318 22.8464 20.0073 22.7181 20.315 22.6366Z" fill="white"/>
</g>
<defs>
<clipPath id="clip0_2006_1092">
<rect width="61" height="30" fill="white" transform="translate(0.5)"/>
</clipPath>
</defs>
</svg>
