<svg width="110" height="14" viewBox="0 0 110 14" fill="none" xmlns="http://www.w3.org/2000/svg">
<path fill-rule="evenodd" clip-rule="evenodd" d="M46.8783 10.7008C48.4056 10.7008 49.5013 9.8507 50.0113 8.64246V8.64158H53.5802C52.9084 11.6534 50.3933 13.9254 46.8783 13.9254C42.749 13.9254 39.9972 10.7901 39.9972 7.00258V6.99733C39.9972 3.20976 42.749 0.0744629 46.8783 0.0744629C50.3985 0.0744629 52.9162 2.35261 53.5828 5.37058H50.0174C49.51 4.15621 48.4109 3.29906 46.8783 3.29906C44.7227 3.29906 43.4243 4.9941 43.4243 6.99733V7.00345C43.4243 9.00581 44.7218 10.7008 46.8783 10.7008ZM8.82357 13.5901H0V0.409765H7.99508C10.7225 0.409765 12.2028 2.11969 12.2028 4.14305C12.2028 5.05098 11.7476 5.97905 11.0506 6.68123C12.0792 7.22756 12.9608 8.45856 12.9608 9.7421C12.9599 12.001 11.2081 13.5901 8.82357 13.5901ZM3.23824 10.939H8.38321C9.16819 10.939 9.68425 10.355 9.68425 9.63791V9.6169C9.68425 8.89983 9.16819 8.31585 8.38321 8.31585H3.23824V10.939ZM3.23824 5.66385H7.57387C8.42151 5.66385 8.92626 5.07987 8.92626 4.36281C8.92626 3.64574 8.45284 3.06176 7.57387 3.06176H3.23824V5.66385ZM85.1636 0.409765V10.1624C85.1636 10.6001 84.9713 10.9363 84.564 10.9363C83.9896 10.9363 83.9644 10.2753 83.9644 9.83841H80.8549C80.8549 11.9528 82.0594 13.9245 84.6588 13.9245C86.9206 13.9245 88.4775 12.0728 88.4775 9.79726V3.37783H92.9594V13.5901H96.2733V0.409765H85.1636ZM20.901 6.85286L25.617 13.5901H21.6773L18.0274 8.18193V13.5901H14.7135V0.410674H18.0274V5.68928L21.6625 0.410674H25.4751L20.901 6.85286ZM55.2145 13.5901H62.0704C64.4541 13.5901 66.2059 12.001 66.2076 9.74301C66.2076 8.45947 65.3261 7.22847 64.2974 6.68214C64.9945 5.97996 65.4496 5.05189 65.4496 4.14396C65.4496 2.12059 63.9693 0.410674 61.2419 0.410674H55.2145V13.5901ZM61.6292 10.939H58.4519V8.31588H61.6292C62.4142 8.31588 62.9302 8.89987 62.9302 9.61693V9.63794C62.9302 10.355 62.4142 10.939 61.6292 10.939ZM60.8199 5.66389H58.4519V3.0618H60.8199C61.6988 3.0618 62.1722 3.64578 62.1722 4.36284C62.1722 5.0799 61.6675 5.66389 60.8199 5.66389ZM35.9278 10.1423L40.515 0.410674H36.8955L34.0333 6.7907L30.5627 0.410674H26.7509L32.2153 10.0643C32.0438 10.3795 31.4233 10.9302 30.5 10.9302C29.4235 10.9302 28.4584 10.3244 28.2208 8.96116H25.0069C25.4307 12.374 27.8144 13.9237 30.3503 13.9237C33.3292 13.9237 35.0784 11.994 35.9278 10.1423ZM76.9553 0.410674L71.4248 8.02783V0.410674H68.1109V13.5901H71.1342L76.6664 5.97908V13.5901H79.9804V0.410674H76.9553ZM100.019 9.32359V0.409765H110V13.5901H106.686V3.37783H103.333V9.44354C103.333 12.1279 101.8 13.5901 99.4934 13.5901H97.7372V10.6369H98.7136C99.5508 10.6369 100.019 10.1483 100.019 9.32359Z" fill="#333333"/>
</svg>
