<svg width="64" height="30" viewBox="0 0 64 30" fill="none" xmlns="http://www.w3.org/2000/svg">
<g clip-path="url(#clip0_2006_505)">
<path d="M23.4682 7.94498H19.4853V14.3326H23.4682C26.0729 14.3326 26.6273 11.2086 25.6567 9.32368C25.2223 8.48025 24.4226 7.94498 23.4682 7.94498Z" fill="#333333"/>
<path fill-rule="evenodd" clip-rule="evenodd" d="M63.4615 0H0.538452V30H63.4615V8.06912H55.4188V24.2512H44.5805V8.06912H35.9948V5.70995H63.4615V0ZM32.5867 5.70995H8.6176L8.65256 24.1771H19.4244V16.5872L22.4435 16.6033L27.9618 24.1771L39.3542 24.1608L33.1851 16.5872C36.0803 15.1238 36.8986 12.8639 36.714 10.6102C36.5061 8.07189 34.7626 5.70995 32.5867 5.70995Z" fill="#333333"/>
<path d="M23.4682 7.94498H19.4853V14.3326H23.4682C26.0729 14.3326 26.6273 11.2086 25.6567 9.32368C25.2223 8.48025 24.4226 7.94498 23.4682 7.94498Z" stroke="#333333"/>
<path fill-rule="evenodd" clip-rule="evenodd" d="M63.4615 0H0.538452V30H63.4615V8.06912H55.4188V24.2512H44.5805V8.06912H35.9948V5.70995H63.4615V0ZM32.5867 5.70995H8.6176L8.65256 24.1771H19.4244V16.5872L22.4435 16.6033L27.9618 24.1771L39.3542 24.1608L33.1851 16.5872C36.0803 15.1238 36.8986 12.8639 36.714 10.6102C36.5061 8.07189 34.7626 5.70995 32.5867 5.70995Z" stroke="#333333"/>
</g>
<defs>
<clipPath id="clip0_2006_505">
<rect width="62.9231" height="30" fill="white" transform="translate(0.538452)"/>
</clipPath>
</defs>
</svg>
