<svg width="74" height="30" viewBox="0 0 74 30" fill="none" xmlns="http://www.w3.org/2000/svg">
<g clip-path="url(#clip0_2006_31680)">
<path d="M68.4949 20.5454C68.1812 20.5706 67.9434 20.8473 67.9408 21.1532C67.882 22.0661 67.936 22.9849 67.9156 23.8952C67.9266 24.334 67.8792 24.7872 67.9822 25.2122C68.094 25.5201 68.4575 25.7012 68.7736 25.6189C70.0909 25.456 71.4027 25.2947 72.7211 25.1371C72.9063 25.1199 73.1052 25.071 73.2406 24.9254C73.4668 24.7266 73.4253 24.3862 73.4481 24.115C73.4513 23.2051 73.442 22.2954 73.4513 21.385C73.4419 21.0579 73.4692 20.7221 73.3739 20.4071C73.2697 20.14 72.9728 19.994 72.6968 20.0186C71.2962 20.1999 69.8955 20.3642 68.4949 20.5454H68.4949ZM20.4154 15.89C20.2392 15.9065 20.0509 15.9587 19.9154 16.0844C19.776 16.2349 19.7051 16.4503 19.7272 16.6571C19.7204 17.748 19.7309 18.8404 19.7227 19.9285C19.3143 20.0017 18.9042 20.0499 18.4908 20.0832C18.4852 19.1832 18.4908 18.2833 18.4908 17.3855C18.4815 17.0798 18.5151 16.7471 18.3469 16.4712C18.1628 16.2296 17.8447 16.1825 17.5593 16.2438C16.2766 16.3979 14.9915 16.5658 13.7058 16.7137C13.4679 16.7442 13.1955 16.7514 13.0218 16.941C12.797 17.1398 12.823 17.4757 12.8111 17.748C12.8174 21.446 12.8174 25.1442 12.8111 28.8429C12.8265 29.1577 12.7896 29.4985 12.9706 29.7792C13.0825 29.8733 13.2086 29.9809 13.3622 29.9981C13.7058 30.0118 14.0438 29.9476 14.3854 29.9078C15.484 29.7752 16.5861 29.6319 17.6876 29.5067C17.9244 29.4848 18.1876 29.4385 18.3327 29.2355C18.5063 29.0285 18.4767 28.7314 18.4908 28.4826C18.4908 27.388 18.4852 26.295 18.4908 25.2054C18.9017 25.1545 19.3144 25.1056 19.7272 25.0544C19.7309 26.1409 19.7204 27.219 19.7272 28.2948C19.7345 28.5031 19.7117 28.7524 19.8748 28.9123C20.0247 29.1533 20.3462 29.1798 20.6032 29.145C21.9111 28.9814 23.2177 28.8219 24.5208 28.6625C24.7432 28.6363 24.9898 28.6138 25.1647 28.4638C25.3319 28.3136 25.3797 28.0759 25.3642 27.8646C25.3617 23.9821 25.3642 20.1007 25.3617 16.2229C25.3715 15.972 25.3524 15.6664 25.1227 15.5103C24.9026 15.3252 24.5969 15.3989 24.3348 15.412C23.0305 15.5745 21.7182 15.7305 20.4154 15.89H20.4154ZM34.252 14.2001C34.0026 14.2435 33.8821 14.4927 33.7585 14.6915C33.0418 15.9973 32.3207 17.2995 31.5937 18.6023C31.5603 17.5064 31.6012 16.408 31.5757 15.3124C31.5906 15.0276 31.4097 14.7168 31.1218 14.6398C30.7276 14.5962 30.3314 14.6777 29.9435 14.7219C28.8783 14.8562 27.8195 14.9814 26.758 15.1131C26.5553 15.1357 26.3223 15.2039 26.2043 15.3894C26.0975 15.5316 26.0809 15.7216 26.0889 15.8939C26.0925 19.4081 26.0925 22.925 26.0889 26.4432C26.0925 26.9208 26.0679 27.4046 26.1128 27.8818C26.139 28.1187 26.3446 28.3008 26.5696 28.365C27.0587 28.3918 27.5382 28.2834 28.0265 28.2321C29.0173 28.1105 30.0115 27.9905 31.0025 27.8646C31.2544 27.8646 31.4985 27.718 31.6178 27.4951C32.3553 26.1588 33.0864 24.8224 33.8307 23.4855C33.8475 24.4952 33.8265 25.5073 33.8382 26.5145C33.8475 26.7365 33.8227 26.9947 33.9833 27.1673C34.1026 27.378 34.3727 27.4559 34.6001 27.4161C35.2505 27.3607 35.8981 27.2623 36.5511 27.1834C37.3104 27.084 38.0782 27.0108 38.8418 26.8942C39.1219 26.8559 39.3314 26.5809 39.3287 26.3008C39.3314 22.3551 39.3287 18.4154 39.3314 14.4771C39.3368 14.2329 39.3159 13.9209 39.0743 13.7866C38.8506 13.6099 38.5503 13.6657 38.292 13.692C36.9478 13.8771 35.5946 14.0144 34.252 14.2001H34.252ZM47.7583 12.5323C47.4125 12.5323 47.0055 12.7084 46.9707 13.0921C46.9563 15.6573 46.986 18.2216 46.9563 20.7912C46.5364 20.8549 46.1162 20.8938 45.6972 20.9502C45.6904 18.5536 45.6972 16.1498 45.6972 13.7473C45.7104 13.4795 45.6653 13.1312 45.4 12.9841C45.1973 12.8368 44.9443 12.8864 44.7113 12.9019C43.5471 13.0572 42.3809 13.1909 41.2138 13.3374C40.9031 13.3856 40.5651 13.3683 40.2847 13.5403C40.109 13.708 40.0281 13.9465 40.0534 14.1829C40.0616 18.066 40.0534 21.9426 40.0534 25.8262C40.0702 26.0148 40.038 26.2389 40.1734 26.3996C40.2847 26.5192 40.4273 26.6444 40.6032 26.6574C40.9685 26.6616 41.3324 26.5941 41.6944 26.5543C42.8609 26.4081 44.028 26.2688 45.1919 26.1195C45.7819 26.0623 46.3732 25.9596 46.9669 25.9263C46.9731 26.5145 46.9423 27.1059 46.9872 27.6999C47.035 28.0417 47.423 28.2649 47.7517 28.202C48.2454 28.1541 48.7401 28.0759 49.2318 28.02C49.785 27.943 50.3384 27.908 50.8833 27.8044C51.1572 27.7361 51.2763 27.4372 51.3608 27.1969C52.0499 25.1846 52.7327 23.1713 53.4312 21.1572C53.5214 20.9121 53.5813 20.592 53.4073 20.37C53.2467 20.0934 52.8838 20.0711 52.6079 20.0571C52.6052 17.7261 52.6052 15.3894 52.6079 13.0528C52.5984 12.7438 52.6127 12.3729 52.3401 12.1611C52.1103 11.9832 51.8174 12.0439 51.5475 12.07C50.2847 12.22 49.0227 12.3812 47.7583 12.5323H47.7583ZM57.8272 11.2987C57.5138 11.2942 57.2809 11.5457 57.1973 11.8302C55.7934 15.9414 54.3889 20.0499 52.9816 24.1619C52.9042 24.406 52.9457 24.7061 53.1397 24.8854C53.3219 25.0921 53.6228 25.0921 53.8772 25.0632C55.3842 24.8641 56.9021 24.699 58.4091 24.4952C58.6614 24.4632 58.8126 24.223 58.8887 24.0025C58.9812 23.6442 59.0541 23.2867 59.1363 22.9296C59.8561 22.8133 60.5795 22.7291 61.3055 22.6532C61.403 23.0195 61.4754 23.3954 61.6304 23.7481C61.8039 24.0025 62.1409 24.0798 62.4263 24.011C63.6033 23.8561 64.7827 23.7228 65.9559 23.5753C66.321 23.5278 66.6899 23.5064 67.0495 23.4295C67.3602 23.326 67.554 22.9506 67.4589 22.6352C67.3757 22.3264 67.2495 22.0276 67.1409 21.7262C65.8699 18.2401 64.5934 14.7475 63.3177 11.2601C63.2601 11.1007 63.1972 10.9325 63.0465 10.842C62.8321 10.6737 62.5416 10.707 62.2953 10.7503C60.808 10.9358 59.3167 11.1145 57.8272 11.2987ZM68.1906 10.0144C67.9285 10.0228 67.6506 10.1256 67.5053 10.3552C67.3347 10.7651 67.4645 11.2119 67.4886 11.6309C67.7161 14.0487 67.9502 16.4623 68.1619 18.8813C68.1812 19.0973 68.2133 19.3253 68.3288 19.5198C68.5285 19.7775 68.8891 19.7912 69.1888 19.7512C70.1824 19.6189 71.1752 19.5026 72.1688 19.3864C72.4342 19.3479 72.7148 19.3162 72.9471 19.1783C73.1491 18.9932 73.1601 18.6975 73.1898 18.4375C73.3431 16.6615 73.5168 14.8806 73.6787 13.1054C73.7669 12.1474 73.8335 11.1911 73.9561 10.2381V9.93622C73.8503 9.73837 73.736 9.49226 73.497 9.4415C73.0115 9.3979 72.5271 9.48376 72.0463 9.54367C70.7598 9.70026 69.4757 9.86234 68.1905 10.0144H68.1906ZM0.716075 4.31073C0.512748 4.33219 0.281796 4.40125 0.160568 4.58729C0.0388832 4.73789 0.0581238 4.94556 0.0487635 5.12645C0.0462934 8.94911 0.0531186 12.7651 0.0438232 16.5846C0.0641689 16.83 0.00235191 17.1011 0.158161 17.3123C0.231744 17.4545 0.385474 17.5155 0.528153 17.5586C1.01749 17.5842 1.49818 17.48 1.98128 17.4286C2.95813 17.3164 3.93498 17.1833 4.90507 17.0798C5.08597 17.0489 5.28682 17.0452 5.42638 16.9076C5.70549 16.734 5.68073 16.3646 5.6914 16.075C5.68333 13.6567 5.68333 11.2333 5.68581 8.81182C6.09974 8.76423 6.51133 8.71298 6.92085 8.66073C6.9313 11.1055 6.91103 13.557 6.9313 16.0024C6.90043 16.3376 7.12904 16.6788 7.47075 16.7215C7.79571 16.734 8.11584 16.6739 8.43091 16.6347C9.53178 16.5062 10.6358 16.3646 11.7356 16.2349C11.8925 16.2131 12.0493 16.2086 12.1958 16.1439C12.4139 16.0622 12.5635 15.8379 12.5615 15.6047C12.5592 11.6048 12.5635 7.59989 12.5592 3.59918C12.5981 3.21961 12.2112 2.87149 11.8333 2.95685C11.2369 2.99979 10.6477 3.10462 10.0513 3.1642C6.94112 3.55259 3.82934 3.93032 0.716076 4.31073H0.716075ZM19.3787 2.02216C17.9076 2.16976 16.4106 2.63885 15.2962 3.64744C14.3353 4.55601 13.7991 5.88459 13.8287 7.20302C13.7991 8.00975 13.9548 8.85043 14.4139 9.53186C14.7067 10.0101 15.1743 10.3552 15.6921 10.5689C14.8172 12.0151 13.9394 13.4587 13.0553 14.9027C12.9026 15.1614 12.8755 15.5064 13.0756 15.7434C13.2159 15.9754 13.5284 16.0196 13.7799 15.985C15.2985 15.7947 16.8201 15.6047 18.342 15.4247C18.591 15.4023 18.872 15.3333 18.9895 15.0883C19.2774 14.5796 19.5097 14.0418 19.7914 13.5188C19.7974 13.8687 19.7834 14.2162 19.8204 14.5625C19.8309 14.8647 20.0996 15.1222 20.3913 15.1486C20.5674 15.1525 20.7391 15.1312 20.9103 15.1088C22.1243 14.9502 23.3438 14.813 24.5634 14.6609C24.7789 14.6308 25.0194 14.6057 25.1906 14.4488C25.3296 14.2915 25.382 14.0674 25.3642 13.8591C25.3617 10.3423 25.3617 6.82378 25.3642 3.3103C25.3587 2.83272 25.387 2.35031 25.3407 1.86707C25.3036 1.58634 25.0249 1.37567 24.7431 1.38466C24.3268 1.38865 23.9146 1.47019 23.4996 1.51778C22.1218 1.68602 20.7546 1.85459 19.3787 2.02216ZM35.6743 0H35.9351C36.2323 0.0702228 36.493 0.335639 36.493 0.652142C36.5085 1.62129 36.4776 2.59193 36.4955 3.56523C36.4917 3.97509 36.5228 4.3936 36.4493 4.79813C36.4083 5.10847 36.074 5.23378 35.8018 5.27155C35.2338 5.36207 34.6631 5.40601 34.0915 5.48688C34.0915 7.47991 34.0915 9.46712 34.0915 11.4583C34.0865 12.0016 34.1189 12.5446 34.068 13.0831C34.0168 13.4029 33.6826 13.5789 33.3809 13.5873C32.4758 13.692 31.5689 13.8117 30.6632 13.9209C30.0799 13.9786 29.4994 14.1174 28.9141 14.0538C28.7512 14.0269 28.6319 13.8938 28.5508 13.7596C28.4379 13.4937 28.4632 13.1956 28.449 12.916C28.457 10.6737 28.457 8.42759 28.452 6.18129C27.9646 6.23421 27.4814 6.30676 26.9945 6.35818C26.7425 6.35929 26.4267 6.39279 26.2626 6.16032C26.0543 5.97128 26.0864 5.66909 26.0864 5.41898C26.0975 4.26829 26.0809 3.11361 26.0925 1.96691C26.1069 1.75924 26.0722 1.5048 26.2403 1.35005C26.4653 1.08579 26.8389 1.10543 27.1434 1.05251C29.9911 0.70822 32.8349 0.372248 35.6743 0" fill="#333333"/>
</g>
<defs>
<clipPath id="clip0_2006_31680">
<rect width="73.9123" height="30" fill="white" transform="translate(0.0438232)"/>
</clipPath>
</defs>
</svg>
