<svg width="86" height="30" viewBox="0 0 86 30" fill="none" xmlns="http://www.w3.org/2000/svg">
<g clip-path="url(#clip0_2006_5010)">
<path opacity="0.5" d="M85.9101 4.15242L85.7867 4.81339C84.8816 4.89601 84.1411 5.14387 83.6885 5.47436C82.7945 6.17842 82.1696 7.17059 81.9194 8.28347L78.8339 18.735C78.2411 21.3586 76.8629 23.7373 74.8843 25.5513C73.0803 26.8936 70.8746 27.5784 68.6309 27.4929C67.3292 27.513 66.0341 27.3033 64.8048 26.8732C63.6939 26.4601 62.9123 26.0057 62.3774 25.5099L62.254 25.3034H55.8771L52.5859 14.2322L52.0099 14.3148L51.4339 14.2735L49.3769 21.1723C49.0477 22.1225 48.9243 22.8248 48.9243 23.2792C48.9243 23.6923 49.0889 24.0641 49.4591 24.3119C49.7883 24.5598 50.5288 24.725 51.6396 24.725L51.4339 25.3034H40.2024L40.4081 24.725C41.5189 24.725 42.3417 24.5598 42.8766 24.1054C43.4114 23.6923 43.8639 22.7421 44.3165 21.255L48.6363 6.67236C48.8832 5.84615 49.0066 5.18518 49.0066 4.73077C49.0066 4.27635 48.842 3.90456 48.554 3.698C48.266 3.45014 47.5666 3.2849 46.497 3.20228L46.6615 2.5H56.2886C59.045 2.5 60.9786 2.99573 62.1306 3.94587C62.1717 4.02849 62.254 4.15242 62.3363 4.15242H73.8558L73.6501 4.81339C72.7414 4.77126 71.8443 5.03276 71.0993 5.55698C70.4822 6.01139 69.9885 6.92022 69.6183 8.32478L66.615 18.2393C66.1889 19.5494 65.9398 20.9111 65.8744 22.2877C65.8744 23.1966 66.2858 23.9815 67.0264 24.6837C67.9132 25.4198 69.0459 25.7891 70.1942 25.7165C71.2202 25.7916 72.248 25.599 73.1779 25.1574C74.1078 24.7159 74.9083 24.0404 75.5014 23.1966C76.242 22.1225 76.9002 20.594 77.5173 18.6524L80.5618 8.32478C80.7264 7.70512 80.8086 7.2094 80.8086 6.8376C80.8086 6.13532 80.5618 5.59829 80.0681 5.18518C79.6978 4.97863 78.9573 4.81339 77.8465 4.81339L78.0522 4.15242H85.9101ZM52.6681 13.282C54.3138 13.282 55.7126 12.745 56.7822 11.6296C57.8519 10.5142 58.4279 9.02706 58.4279 7.2094C58.4279 6.13532 58.0988 5.30911 57.5639 4.73077C57.2549 4.44462 56.8916 4.22397 56.4958 4.08201C56.0999 3.94006 55.6796 3.8797 55.26 3.90456L54.4372 3.94587L51.6396 13.2407L52.6681 13.282V13.282ZM64.4345 8.32478C64.6478 7.66794 64.7858 6.98881 64.8459 6.30057C64.8459 5.88746 64.6813 5.55698 64.3522 5.30911C64.1054 5.14387 63.6528 5.01994 62.9534 4.89601C63.5294 5.72222 63.7762 6.63105 63.7762 7.66381C63.7762 9.1923 63.1591 10.5969 61.8426 11.8775C60.5486 12.8812 59.0427 13.5737 57.4405 13.9017L59.5387 20.8006C60.1147 22.6182 60.6084 23.7336 61.0198 24.1054C61.1843 24.2706 61.3489 24.3946 61.5958 24.4772L61.1843 23.651C60.9375 22.9074 60.7729 22.2877 60.7729 21.792C60.7729 20.9658 61.0198 19.8091 61.4723 18.2806L64.4345 8.32478Z" fill="#333333"/>
<path d="M26.4203 23.6095C26.4203 23.1551 26.5848 22.4528 26.8317 21.544L31.1515 6.75481C31.2981 6.14365 31.5049 5.54862 31.7686 4.97846L31.892 5.01977C32.2623 5.30894 32.4268 5.63943 32.4268 6.05253C32.4268 6.46564 32.2211 7.45709 31.7686 8.98558L27.8602 22.4115C27.5722 23.4443 27.3254 24.2292 27.0785 24.7249L26.9139 24.6009C26.7607 24.4855 26.6362 24.3358 26.5506 24.1637C26.4649 23.9916 26.4203 23.8019 26.4203 23.6095V23.6095ZM27.2431 2.54114L16.2173 18.4044L14.5305 2.54114H6.26113L6.05542 3.11948C6.91938 3.11948 7.57764 3.24342 7.94791 3.36735C8.35932 3.53259 8.77073 3.90438 9.26442 4.40011L4.20407 21.5027C3.91656 22.6649 3.25045 23.6972 2.31158 24.4357C1.7118 24.8587 0.985871 25.0628 0.25453 25.0141L0.0899658 25.6337H7.74221L7.90677 25.0141C6.96052 25.0141 6.30227 24.8075 5.89086 24.4357C5.47945 24.1052 5.31488 23.6508 5.31488 23.0725C5.31488 22.6594 5.39716 22.1636 5.60287 21.5027L9.96382 6.17646L12.062 25.5924H12.8437L26.1323 6.54826L21.7713 21.5027C21.3599 22.9072 20.8251 23.8574 20.2491 24.3118C19.6731 24.8075 18.7269 25.0141 17.4926 25.0141L17.2869 25.6337H26.5025C26.338 25.6337 26.1734 25.9229 25.9677 26.0468C25.5151 26.2121 24.8158 26.336 23.9106 26.336L23.7461 26.9556H35.0187L35.1833 26.3773C34.2371 26.3773 33.5377 26.2121 33.1674 25.9229C32.756 25.6337 32.5914 25.2619 32.5914 24.7662C32.5914 24.3531 32.756 23.6921 33.0028 22.742L35.4713 14.3146L37.9398 22.1636C38.2689 23.279 38.4334 24.1052 38.4334 24.6423C38.4382 25.0723 38.2759 25.4872 37.9809 25.799C37.6518 26.1294 37.1581 26.2947 36.4998 26.3773L36.2941 26.9556H46.3325L46.5382 26.3773C45.7154 26.2947 45.0983 26.0468 44.6046 25.5511C43.6614 24.0187 42.967 22.3454 42.5476 20.5938L39.8322 12.0839L43.4938 8.77902L45.0983 7.33316C46.3716 6.3529 47.7518 5.52134 49.2124 4.85453C49.6238 4.73059 50.1587 4.56535 50.858 4.52404L51.0226 3.86307H42.2596L42.095 4.52404C42.7121 4.60666 43.1235 4.7719 43.3292 5.01977C43.6172 5.26763 43.7406 5.59811 43.7406 5.9286C43.7357 6.25338 43.6355 6.56949 43.4527 6.83743C43.3292 7.04398 42.6298 7.66364 41.4779 8.77902L35.4713 14.3146L37.0346 8.77902C37.2422 7.88663 37.5314 7.0154 37.8986 6.17646C38.1872 5.64541 38.6137 5.20283 39.1328 4.89584C39.5443 4.64797 40.1202 4.52404 40.8608 4.52404L41.0253 3.86307H32.6326C33.3786 3.34464 34.2783 3.09694 35.1833 3.1608L35.389 2.54114H27.2431Z" fill="#333333"/>
</g>
<defs>
<clipPath id="clip0_2006_5010">
<rect width="85.8202" height="30" fill="white" transform="translate(0.0899658)"/>
</clipPath>
</defs>
</svg>
