<svg width="116" height="26" viewBox="0 0 116 26" fill="none" xmlns="http://www.w3.org/2000/svg">
<path fill-rule="evenodd" clip-rule="evenodd" d="M59.2838 16.4513H55.4075L53.3759 25.5382H50.2724L52.2916 16.4513H47.6675L44.4643 18.7854L48.5399 25.5382H45.0002L42.0089 20.5703L40.8996 21.3692L39.9773 25.5257H36.8738L39.3416 14.4666H42.4451L41.5726 18.3985L46.9695 14.4666H59.7325L59.2838 16.4513ZM26.105 14.4791H23.8864L27.1146 0H23.1386L4.66714 19.9962L5.90106 14.4791H2.79756L0.329712 25.5506H2.9222L8.55586 19.447L7.1973 25.5506H10.3008L12.644 15.0158L15.4484 11.9827H21.3313L20.7704 14.4791H17.6171C11.7092 14.4791 10.6872 21.9933 16.4953 21.9933H19.0878L18.1904 26H21.2939L22.1913 21.9933H25.3945C30.3053 21.9933 32.6984 14.4791 26.105 14.4791ZM25.6563 16.3764C29.4827 16.3764 28.1366 20.1085 24.9084 20.1085H22.64L23.4751 16.3764H25.6563ZM17.9038 16.3764C14.9623 16.3764 14.4263 20.1085 16.9814 20.1085H19.5241L20.3591 16.3764H17.9038ZM31.2899 7.23956H29.6696L30.4549 3.69467H32.8105C35.2659 3.69467 35.2036 7.23956 31.2899 7.23956ZM33.172 1.72252H28.0369L25.5067 13.0687H28.3734L29.196 9.3615H31.776C37.9332 9.52376 39.1546 1.72252 33.172 1.72252ZM67.1111 25.5506L69.5789 14.4916H72.6824L70.2146 25.5506H67.1111ZM60.5052 14.4791H63.6087L62.9108 17.6371H63.7209C69.8407 17.6371 67.834 25.5506 61.2905 25.5506H58.0499L60.5052 14.4791ZM63.4841 19.6841H62.4496L61.6644 23.229H62.2626C65.0172 23.229 65.8024 19.6841 63.4841 19.6841ZM106.572 6.91503H105.437L104.627 10.5348H105.699C108.055 10.5473 109.501 6.91503 106.572 6.91503ZM104.577 13.0687H101.2L103.73 1.72252H106.584L105.861 4.95535H107.257C112.878 4.95535 110.996 13.1186 104.577 13.0687ZM21.7676 10.0355L23.2009 3.58233L17.2432 10.0355H21.7676ZM32.1126 21.3317H33.8824L34.4433 18.7979L32.1126 21.3317ZM30.3676 23.229L28.2238 25.5506H25.1827L35.403 14.4916H38.5065L36.0387 25.5506H32.9352L33.4587 23.229H30.3676ZM56.4296 5.97888L54.8467 13.0687H51.98L54.211 3.05809L45.9101 13.0687H43.006L46.7077 8.60009L44.4518 3.69467H41.0865L38.9926 13.0687H36.1384L38.6686 1.72252H46.6454L48.7144 6.21603L52.4411 1.72252H58.8226L59.5705 9.21171L64.2818 1.72252H67.9337L65.4035 13.0687H62.5493L64.0699 6.26596L59.7823 13.0687H57.1525L56.4296 5.97888ZM71.0497 6.05377H76.9077L76.4341 8.17571H70.576L70.0526 10.5348H77.1944L76.6335 13.0562H66.625L69.1552 1.71003H79.1636L78.7274 3.68219H71.5856L71.0497 6.05377ZM81.9182 6.05377H86.8165L87.7886 1.72252H90.6429L88.1127 13.0687H85.246L86.3304 8.18819H81.4196L80.3353 13.0687H77.4686L79.9987 1.72252H82.8529L81.9182 6.05377ZM91.5278 1.72252H102.87L102.434 3.69467H98.2334L96.1394 13.0687H93.2727L95.3667 3.69467H91.0916L91.5278 1.72252ZM110.286 13.0687L112.816 1.72252H115.67L113.14 13.0687H110.286Z" fill="#333333"/>
</svg>
