<svg width="62" height="30" viewBox="0 0 62 30" fill="none" xmlns="http://www.w3.org/2000/svg">
<g clip-path="url(#clip0_2006_5105)">
<path opacity="0.5" d="M17.3731 28.8484L2.71638 29.9991L0.526001 7.70953L1.69095 7.61666C2.33283 7.566 2.80266 6.96903 2.7361 6.28962L2.62271 5.14137C2.60646 4.9802 2.62241 4.81739 2.66962 4.66254C2.71683 4.50768 2.79434 4.36391 2.89759 4.23972C3.00084 4.11553 3.12773 4.01342 3.27077 3.93942C3.41382 3.86542 3.57012 3.82103 3.73047 3.80886L11.8156 3.17663C12.1433 3.15288 12.4674 3.25833 12.7194 3.47071C12.9714 3.68309 13.1317 3.98579 13.1664 4.31495L13.2783 5.4622L13.4001 6.69886L17.5437 6.37306L32.8675 6.60996L34.3978 25.2611L31.6089 27.7324L17.3727 28.8484H17.3731Z" fill="#333333"/>
<path d="M23.0296 0L4.75424 9.57785L2.79211 30L20.9925 28.5597L31.2271 27.7502L37.7692 27.2337L39.7293 6.81252L23.0296 0Z" fill="#333333"/>
<path d="M14.4869 21.7059L12.4025 18.285H10.7066V21.7059H8.67249V12.0788H13.143C15.1347 12.0788 16.3524 13.3925 16.3524 15.1819C16.3524 16.8854 15.498 17.7943 14.4667 18.0401L16.8212 21.7054H14.4869V21.7059ZM14.2749 15.1814C14.2749 14.3734 13.6586 13.8827 12.8427 13.8827H10.7081V16.4801H12.8427C13.6586 16.4801 14.2754 15.9904 14.2754 15.1814H14.2749ZM18.0927 21.7059V12.0788H24.8566V13.8832H20.1268V15.9179H24.3443V17.7223H20.1268V19.9025H24.8561V21.7064H18.0922L18.0927 21.7059ZM25.9885 16.8993C25.9885 13.8539 28.2809 11.9199 31.0752 11.9199C33.0669 11.9199 34.3142 12.9296 35.03 14.0704L33.339 14.9942C32.9101 14.3158 32.0932 13.7377 31.0752 13.7377C29.3408 13.7377 28.0803 15.0806 28.0803 16.8993C28.0803 18.718 29.3413 20.0605 31.0752 20.0605C31.9207 20.0605 32.7238 19.685 33.1098 19.3244V18.2964H30.5881V16.4821H35.1434V20.0759C34.1697 21.1735 32.8091 21.8951 31.0752 21.8951C28.2814 21.8951 25.9885 19.9318 25.9885 16.9003V16.8993Z" fill="white"/>
<path d="M40.1022 20.695C40.1022 20.0602 40.6326 19.5254 41.2627 19.5254C41.8937 19.5254 42.4232 20.0593 42.4232 20.6945C42.4232 21.3292 41.8942 21.8631 41.2627 21.8631C40.6326 21.8631 40.1022 21.3297 40.1022 20.694V20.695ZM49.8571 21.7051L47.5686 18.2842H46.0783V21.7051H44.0437V12.0781H48.5142C50.5059 12.0781 51.7245 13.3918 51.7245 15.1812C51.7245 16.8847 50.6646 17.7935 49.6328 18.0394L52.1924 21.7046H49.8571V21.7051ZM49.6471 15.1807C49.6471 14.3726 49.0293 13.8819 48.2124 13.8819H46.0783V16.4794H48.2129C49.0298 16.4794 49.6476 15.9897 49.6476 15.1807H49.6471ZM53.2583 17.8656V12.0781H55.3219V17.793C55.3219 19.1365 55.8899 20.0597 57.3659 20.0597C58.8409 20.0597 59.3946 19.137 59.3946 17.7935V12.0781H61.474V17.8512C61.474 20.2475 60.2736 21.879 57.3664 21.879C54.4567 21.878 53.2588 20.2331 53.2588 17.8661L53.2583 17.8656Z" fill="#333333"/>
</g>
<defs>
<clipPath id="clip0_2006_5105">
<rect width="60.948" height="30" fill="white" transform="translate(0.526001)"/>
</clipPath>
</defs>
</svg>
