<svg width="116" height="26" viewBox="0 0 116 26" fill="none" xmlns="http://www.w3.org/2000/svg">
<path fill-rule="evenodd" clip-rule="evenodd" d="M28.7896 1.74558V0.392703C29.6319 0.33582 30.5427 0.216569 31.5283 0V5.8789C31.6619 5.46838 31.9025 5.09486 32.2698 4.78851C32.6351 4.46366 32.9661 4.30329 33.2588 4.30329C34.3039 4.24709 34.9845 4.83923 35.2949 6.04818C35.6205 7.28112 35.7987 8.77449 35.8316 10.5735C35.92 15.5731 35.0955 18.0698 33.3458 18.0698C33.0114 18.0184 32.6653 17.8437 32.3089 17.5325C31.9566 17.2323 31.6962 16.939 31.5283 16.5998V21.598H32.3089V22.8919H29.0418V21.598H29.856V16.5998C29.6662 16.9486 29.4119 17.2783 29.0788 17.5963C28.7574 17.8731 28.4175 18.0541 28.0577 18.0698C26.9817 18.1075 26.2977 17.4434 25.9975 16.0487C25.6967 14.6767 25.5514 12.9709 25.5514 10.9669C25.6076 6.50188 26.4546 4.29575 28.0933 4.30397C28.4284 4.30397 28.7739 4.46434 29.1282 4.74739C29.4743 5.04963 29.7217 5.42863 29.856 5.8974V1.74558H28.7896ZM29.856 9.49753C29.856 7.30305 29.4428 6.21883 28.6217 6.23185C28.362 6.23185 28.1139 6.44568 27.8918 6.84592C27.6369 7.2585 27.5032 7.91164 27.5032 8.7738C27.4696 9.82923 27.4477 10.6092 27.4477 11.1334C27.4477 12.7385 27.5032 13.9975 27.6143 14.9015C27.726 15.8061 28.083 16.2667 28.6779 16.2879C29.4647 16.2879 29.856 15.4744 29.856 13.8837V9.49753ZM31.5283 13.8851C31.5283 15.5354 31.9408 16.3688 32.753 16.3688C33.0785 16.3448 33.3458 16.0337 33.5685 15.4758C33.7125 15.1283 33.8139 14.5629 33.8475 13.772C33.8797 12.6659 33.9037 11.8181 33.9037 11.2054C33.9037 10.7428 33.8982 10.3645 33.8845 10.0732C33.8804 9.784 33.8701 9.47217 33.8475 9.10894C33.8797 8.02335 33.7659 7.24754 33.4849 6.83084C33.2457 6.4402 32.9771 6.23254 32.6982 6.23254C31.9189 6.23254 31.5289 7.06797 31.5289 8.72034V13.8851H31.5283ZM36.7575 11.189C36.7575 9.43859 37.0515 7.85475 37.6662 6.43883C38.2686 5.02359 39.1884 4.30329 40.4151 4.30329C41.6282 4.30329 42.5329 4.97767 43.1565 6.33123C43.7713 7.68753 44.0728 9.30494 44.0728 11.189C44.0728 13.0517 43.7665 14.676 43.1421 16.033C42.5171 17.39 41.609 18.0692 40.4151 18.0692C39.1884 18.0534 38.2693 17.3146 37.6662 15.9199C37.0515 14.482 36.7575 12.9106 36.7575 11.189ZM38.8759 11.189V12.1937V13.2457C38.9704 14.3381 39.0993 15.2017 39.2658 15.8068C39.433 16.3777 39.812 16.7115 40.3829 16.7115C40.9607 16.7115 41.3568 16.388 41.572 15.7691C41.7913 15.1276 41.9113 14.2977 41.9537 13.245C41.9668 12.7769 41.9764 12.095 41.9764 11.1883C41.9764 10.2452 41.9668 9.55235 41.9537 9.10756C41.9113 8.07749 41.792 7.23657 41.572 6.58755C41.3568 5.93441 40.9607 5.63492 40.3829 5.65136C39.812 5.65136 39.4255 5.95155 39.2521 6.56562C39.0815 7.17969 38.954 8.02609 38.8759 9.10756V10.1287V11.189ZM47.8189 11.5234V16.4805H48.5995V17.7299H45.0214V16.4805H45.8143V5.8789H45.0214V4.63774H48.5995V5.8789H47.8189V10.0636H50.2793V5.8789H49.4686V4.63774H53.1036V5.8789H52.2641V16.4805H53.103V17.7299H49.4679V16.4805H50.2786V11.5234H47.8189ZM59.2478 17.7299H55.6682V16.4805H56.4502V6.00912C55.9979 5.93578 55.6586 6.10575 55.4455 6.49571C55.3749 6.63278 55.3194 6.90144 55.2789 7.29345C55.2683 7.4525 55.2578 7.59849 55.2483 7.7315L55.2483 7.73163C55.2265 8.03473 55.2096 8.27048 55.2063 8.44004C55.2063 8.63079 55.1966 8.83581 55.1866 9.0478L55.1865 9.04795L55.1837 9.10894C55.172 9.36183 55.1556 9.55373 55.1405 9.70656H53.9404V4.63774H60.9762V9.70656H59.7501C59.7501 9.17569 59.7389 8.76116 59.7313 8.48075V8.48059L59.7303 8.44004L59.7058 8.17477L59.7058 8.17463C59.67 7.78553 59.6431 7.49358 59.6172 7.29345C59.6172 6.95215 59.5603 6.67184 59.4465 6.49571C59.2354 6.10575 58.9017 5.93578 58.4329 6.00912V16.4805H59.2478V17.7299ZM68.748 16.6231V17.7731C68.3355 17.9568 67.9674 18.0698 67.6337 18.0698C66.7941 18.0184 66.239 17.538 65.9827 16.6238C65.8154 16.939 65.542 17.2783 65.1582 17.5661C64.7723 17.8677 64.4112 18.0541 64.0541 18.0698C63.5298 18.0698 63.0453 17.7964 62.5875 17.2783C62.1303 16.7478 61.8911 15.9809 61.8788 14.9563C61.8576 13.3238 62.2756 12.119 63.1227 11.3171C63.9636 10.5166 64.9231 9.95739 65.9827 9.65036V6.88636C65.9827 6.16537 65.6818 5.81516 65.091 5.78706C64.8114 5.78706 64.5996 5.84189 64.4797 5.95292C64.344 6.06463 64.2549 6.21883 64.2206 6.39908C64.1987 6.48338 64.2104 6.67116 64.2535 6.95626C64.2648 7.0298 64.2868 7.10179 64.3068 7.16692L64.3159 7.19682C64.3495 7.29414 64.3666 7.35856 64.3666 7.44286C64.4002 7.74373 64.4002 7.96783 64.3666 8.10559C64.3029 8.52434 64.1761 8.81903 63.9636 9.03766C63.7642 9.23161 63.5408 9.33236 63.2954 9.33236C63.0179 9.30563 62.7835 9.14526 62.5875 8.85399C62.388 8.55723 62.2921 8.12409 62.2921 7.51825C62.3154 6.90212 62.4655 6.35453 62.7547 5.87958C63.0453 5.38476 63.4291 5.00645 63.9143 4.7097C64.4002 4.4198 64.8717 4.29575 65.3138 4.30397C65.9059 4.30397 66.5076 4.57743 67.0984 5.10103C67.6995 5.64246 67.99 6.66293 67.99 8.1611V14.8432C67.99 14.9789 67.9955 15.0995 68.0065 15.1962C68.0175 15.2962 68.0229 15.4683 68.0229 15.6595C68.0229 16.0344 68.0565 16.2804 68.134 16.3736C68.2649 16.5449 68.4691 16.6231 68.748 16.6231ZM65.982 11.2054C64.734 11.5686 64.0082 12.5651 63.7998 14.2237C63.6744 15.3751 63.93 16.0337 64.5914 16.1468C64.9005 16.1563 65.2096 15.9967 65.5194 15.6026C65.836 15.2421 65.982 14.6315 65.982 13.8036V11.2054ZM72.4379 11.5234V16.4805H73.2192V17.7299H69.6397V16.4805H70.4203V5.8789H69.6397V4.63774H73.2192V5.8789H72.4379V10.0636H74.8915V5.8789H74.091V4.63774H77.7144V5.8789H76.8769V16.4805H77.7144V17.7299H74.091V16.4805H74.8915V11.5234H72.4379ZM78.6376 17.7285V16.486H79.4175V5.8789H78.6376V4.63774H82.1616V5.8789H81.3783V10.3131C81.8395 10.4036 82.1746 10.2864 82.3535 9.92861C82.5399 9.56606 82.6304 9.27068 82.6304 9.03697C82.6736 8.78545 82.6928 8.50103 82.703 8.18372C82.7133 7.85612 82.7174 7.46959 82.7174 7.05153C82.7976 5.16066 83.4213 4.24709 84.62 4.30329C85.097 4.30329 85.5198 4.52054 85.8652 4.97356C86.2113 5.40944 86.3868 5.99198 86.408 6.73353C86.43 7.3476 86.334 7.80061 86.1366 8.07201C85.9454 8.33381 85.7282 8.4791 85.4821 8.4791C85.2368 8.4791 85.0195 8.3578 84.8324 8.1049C84.6337 7.86023 84.5391 7.51756 84.5576 7.06729C84.6035 6.76231 84.6405 6.52038 84.7029 6.38331C84.7522 6.27229 84.7913 6.17565 84.8139 6.11946C84.8537 6.0379 84.8537 5.94195 84.8139 5.87821C84.7913 5.77473 84.7221 5.70825 84.5912 5.6733C84.4795 5.64657 84.3801 5.66164 84.2841 5.76445C84.0751 5.87821 83.9888 6.20375 84.0333 6.73284C84.0847 7.8993 84.045 8.80259 83.9058 9.44201C83.7605 10.1082 83.4432 10.5722 82.9415 10.8696C84.5398 11.2335 85.2834 12.4418 85.149 14.5472C85.1209 14.7385 85.1027 14.9158 85.0874 15.0646L85.0874 15.065C85.0804 15.1335 85.074 15.1959 85.0675 15.251C85.0476 15.4662 85.06 15.6403 85.0908 15.8246C85.1271 16.0323 85.2073 16.1762 85.3423 16.2879C85.5671 16.4223 85.8063 16.4846 86.077 16.4791V17.7285C85.6754 17.9547 85.2704 18.0678 84.8427 18.0678C84.2992 18.0164 83.8839 17.7285 83.5974 17.1967C83.3068 16.6868 83.1554 15.7568 83.1396 14.4485C83.1396 13.5466 83.0724 12.9688 82.9422 12.6529C82.6407 11.8394 82.1226 11.4768 81.3783 11.5782V16.4846H82.1616V17.7285H78.6376ZM94.1675 16.6231V17.7731C93.7734 17.9568 93.389 18.0698 93.0538 18.0698C92.215 18.0184 91.655 17.538 91.4179 16.6238C91.2356 16.939 90.9697 17.2783 90.5845 17.5661C90.1884 17.8677 89.8382 18.0541 89.4893 18.0698C88.9472 18.0698 88.4785 17.7964 88.0206 17.2783C87.5635 16.7478 87.3236 15.9809 87.2997 14.9563C87.2784 13.3238 87.6924 12.119 88.5429 11.3171C89.3865 10.5166 90.344 9.95739 91.4172 9.65036V6.88636C91.4172 6.16537 91.0958 5.81516 90.516 5.78706C90.2329 5.78706 90.0328 5.84189 89.8985 5.95292C89.7642 6.06463 89.6853 6.21883 89.6401 6.39908C89.6168 6.48338 89.6264 6.67116 89.6751 6.95626L89.678 6.96601C89.7023 7.04758 89.726 7.12695 89.7326 7.19682C89.771 7.29414 89.7868 7.35856 89.7868 7.44286C89.8354 7.74373 89.8354 7.96783 89.7868 8.10559C89.7272 8.52434 89.61 8.81903 89.3879 9.03766C89.1823 9.23161 88.9603 9.33236 88.7142 9.33236C88.4524 9.30563 88.2084 9.14526 88.0206 8.85399C87.8075 8.55723 87.7116 8.12409 87.7116 7.51825C87.7349 6.90212 87.8993 6.35453 88.1749 5.87958C88.4778 5.38476 88.8479 5.00645 89.3406 4.7097C89.8348 4.4198 90.2898 4.29575 90.7422 4.30397C91.3185 4.30397 91.9264 4.57743 92.5357 5.10103C93.1196 5.64246 93.4212 6.66293 93.4212 8.1611V14.8432C93.4212 14.9789 93.4308 15.0995 93.4452 15.1962C93.4541 15.2962 93.4575 15.4683 93.4575 15.6595C93.4575 16.0344 93.4719 16.2804 93.5699 16.3736C93.6843 16.5449 93.9091 16.6231 94.1675 16.6231ZM91.4186 11.2054C90.1713 11.5686 89.4311 12.5651 89.2303 14.2237C89.0973 15.3751 89.3687 16.0337 90.0109 16.1468C90.3214 16.1563 90.6332 15.9967 90.9601 15.6026C91.2548 15.2421 91.4193 14.6315 91.4193 13.8036V11.2054H91.4186ZM95.3559 16.2598C95.3278 15.7424 95.4512 15.2579 95.7205 14.8227C95.9583 14.3923 96.2722 14.175 96.5786 14.175C96.9123 14.1483 97.2139 14.3381 97.5271 14.7713C97.7985 15.1633 97.9527 15.6362 97.9527 16.1468C97.9527 16.6354 97.8101 17.0809 97.5319 17.5037C97.279 17.9047 96.9658 18.1068 96.6272 18.1068C96.3325 18.1068 96.0618 17.9307 95.7808 17.5161C95.4991 17.1501 95.3806 16.7122 95.3559 16.2598ZM101.885 6.10506C102.048 5.6918 102.283 5.29636 102.666 4.91667C103.049 4.52123 103.407 4.33139 103.742 4.30329C104.092 4.27587 104.538 4.40746 104.997 4.70901C105.464 5.02838 105.899 5.70345 106.239 6.73353C106.586 7.78759 106.77 9.27616 106.746 11.2452C106.721 13.772 106.445 15.5512 105.875 16.5443C105.305 17.549 104.605 18.0692 103.776 18.0692C102.958 18.0177 102.305 17.5051 101.885 16.5443V21.5966H102.665V22.8906H99.1143V21.5966H99.9052V6.10506H99.1376V4.80359C99.6098 4.74739 100.09 4.64802 100.583 4.51095C100.758 4.46434 100.919 4.42597 101.032 4.39924C101.143 4.35126 101.262 4.34304 101.376 4.34304C101.549 4.28753 101.715 4.23818 101.884 4.19158V6.10506H101.885ZM104.555 11.0944C104.555 10.7905 104.551 10.5073 104.546 10.2413L104.543 10.0177L104.54 9.89342C104.532 9.59154 104.521 9.20228 104.521 8.71966C104.544 7.74373 104.443 7.06386 104.221 6.67801C103.965 6.21815 103.642 5.99815 103.335 6.04818C103.07 6.04818 102.778 6.26064 102.505 6.67801C102.219 7.14885 102.056 7.8431 102.036 8.75872C101.985 9.78948 101.956 10.5728 101.956 11.0937C101.956 11.483 101.963 11.8579 101.978 12.1868C101.991 12.5172 101.996 12.9626 101.996 13.4691C102.047 14.5478 102.168 15.264 102.402 15.6937C102.651 16.1461 102.958 16.3777 103.295 16.4003C103.604 16.4003 103.887 16.1461 104.189 15.6581C104.412 15.2414 104.52 14.5211 104.52 13.4691C104.52 13.0633 104.53 12.6966 104.537 12.397L104.539 12.3101C104.54 12.2674 104.541 12.2263 104.542 12.1868L104.545 12.0487V12.0485C104.55 11.7549 104.555 11.43 104.555 11.0944ZM112.309 13.6589L113.793 5.95292H112.979V4.63774H115.911V5.95292H115.321L112.979 17.2604C112.888 17.7306 112.723 18.4091 112.5 19.3021C112.187 20.6714 111.783 21.6309 111.307 22.1381C110.794 22.6349 110.308 22.8796 109.791 22.8583C109.294 22.8193 108.844 22.576 108.471 22.0599C108.077 21.574 107.894 20.8955 107.894 20.0361C107.92 19.4275 108.047 18.9635 108.275 18.6483C108.502 18.3693 108.734 18.2199 108.974 18.2199C109.244 18.2199 109.484 18.3693 109.695 18.6483C109.909 18.9635 110.015 19.3151 110.015 19.7805C110.015 20.3287 109.937 20.7173 109.759 20.9627C109.746 20.9893 109.726 21.0078 109.704 21.0278C109.689 21.0412 109.674 21.0553 109.66 21.073C109.651 21.0898 109.645 21.1032 109.639 21.1153C109.629 21.1384 109.62 21.1569 109.602 21.1847C109.556 21.2752 109.556 21.3869 109.602 21.5199C109.691 21.609 109.779 21.6857 109.869 21.6857C110.025 21.6981 110.206 21.598 110.429 21.3746C110.717 21.0394 110.882 20.7441 110.956 20.4658C111.011 20.2198 111.103 19.7606 111.197 19.0883C111.263 18.7661 111.331 18.431 111.402 18.0746L111.435 17.8769L111.435 17.876C111.477 17.6222 111.513 17.4118 111.531 17.2611L108.38 5.9536H107.604V4.63774H111.242V5.95292H110.542L112.309 13.6589ZM10.6846 5.57323C10.1432 5.42588 9.57917 5.71578 9.4277 6.21814C9.2735 6.72735 9.57985 7.2537 10.1199 7.40379C10.6517 7.53812 11.2117 7.24205 11.372 6.73763C11.5303 6.23459 11.2151 5.70893 10.6846 5.57323ZM16.6574 18.7483C8.98291 23.6102 -1.38432 19.7859 1.91562 8.30502C3.91409 1.46732 12.3507 -0.30156 17.2907 2.59814C25.9781 7.63064 20.2123 18.0691 16.9165 16.8252C13.8956 15.6042 14.2041 12.4136 14.4766 9.59494C14.5513 8.82238 14.6233 8.07775 14.6233 7.40927C16.9103 6.76916 19.0602 6.73763 20.1794 7.54086C21.0827 8.36601 18.0261 10.1986 16.2017 10.5893C16.1556 10.7697 16.1077 10.9422 16.0593 11.1165C16.0235 11.2455 15.9874 11.3755 15.9515 11.5104C18.7251 10.4604 18.8307 11.5179 15.6513 12.5178C15.5568 12.8687 15.4642 13.2176 15.3758 13.5808C18.2803 12.4822 19.3303 11.4199 18.318 10.6866C20.5337 9.49409 21.5021 7.8006 20.1506 6.9542C18.5003 6.08381 16.5478 6.01802 14.5657 6.50187C14.2724 5.14352 13.6481 4.13811 12.546 3.67276C11.7717 3.37329 10.5676 3.63365 9.77881 4.35107C9.77639 4.34885 9.71891 4.32091 8.99391 3.96846C8.60022 3.77707 8.00969 3.48999 7.12425 3.05938L7.12437 3.05947C7.12972 3.06406 7.13138 3.06549 7.96655 5.84051C7.05641 6.62249 6.41424 7.84241 5.94135 9.10139C5.90434 9.19186 5.97356 9.21447 6.14078 9.19186C6.24818 9.02072 6.35097 8.84979 6.45251 8.68094L6.45254 8.68089C7.03655 7.70977 7.57902 6.80773 8.71631 6.33191C8.81843 6.20443 8.88491 5.99266 8.8712 5.82269C8.71446 5.5267 8.60631 5.32225 8.53167 5.18113C8.37739 4.88948 8.36624 4.86841 8.36506 4.86896C8.36497 4.869 8.36494 4.86917 8.36491 4.86936C8.36423 4.87312 8.36255 4.88234 7.8473 3.93868C8.75816 4.59742 8.75846 4.59901 8.75915 4.6026C8.75983 4.6062 8.7609 4.61181 9.67511 5.2799C11.1534 3.67002 13.2458 4.27244 13.3095 6.81508C8.56211 8.3482 4.2554 12.6659 3.70164 16.2002C3.6098 16.8252 3.89627 17.5174 5.26765 17.4057C7.84867 17.1645 10.4914 15.142 12.3706 13.0024C12.2882 12.867 12.2056 12.7242 12.1229 12.5815C12.0378 12.4345 11.9528 12.2876 11.8682 12.1491C8.36268 16.9185 4.24306 17.5442 4.40823 16.5251C5.22859 12.4301 9.30229 9.15828 13.3678 7.69917C13.3586 8.08191 13.3322 8.51687 13.3038 8.9857L13.3038 8.98577C13.1231 11.9631 12.8596 16.3068 16.4045 17.3235C22.1162 18.8518 26.902 4.24777 15.2031 0.901908C8.30991 -1.19045 1.87313 3.07377 0.51272 8.98077C-1.16501 16.9239 2.28503 21.121 8.21396 22.3149C11.6715 22.9625 15.4389 22.136 18.1378 20.4781C18.0178 20.4446 16.617 18.7572 16.6574 18.7483ZM9.77881 4.35107L9.77889 4.35121L9.7786 4.35126L9.77881 4.35107ZM36.9952 25.9568C37.2878 25.9568 37.5215 25.9143 37.6531 25.8485L37.5661 25.2468C37.4612 25.2934 37.294 25.329 37.1268 25.329C36.5881 25.329 36.1365 24.8932 36.1365 23.6911C36.1365 22.4643 36.634 22.0216 37.1206 22.0216C37.3331 22.0216 37.44 22.0593 37.5455 22.1065L37.6799 21.5082C37.5873 21.4541 37.3872 21.3945 37.0946 21.3945C36.2961 21.3945 35.3839 22.0113 35.3839 23.7377C35.3839 25.12 35.9699 25.9568 36.9952 25.9568ZM38.6359 25.9205L38.8772 24.7492H39.7674L40.0073 25.9205H40.7002L39.7743 21.4363H38.9429L37.9444 25.9205H38.6359ZM39.5084 23.164L39.6941 24.1975H38.9553L39.1554 23.164C39.2089 22.8837 39.2753 22.4588 39.3226 22.1477H39.3411C39.3637 22.2792 39.3874 22.4288 39.4113 22.5799C39.444 22.7862 39.4771 22.9951 39.5084 23.164ZM41.9564 23.2908V21.4363H41.2443V25.9205H41.9564V23.9426H43.0208V25.9205H43.7342V21.4363H43.0208V23.2908H41.9564ZM45.2372 23.4224V21.4363H44.5381V25.9205H45.2379V23.9426H45.3036C45.743 23.9426 45.8752 24.3175 45.9821 24.85C46.0029 24.9432 46.0228 25.0396 46.0427 25.1365C46.0997 25.4132 46.1576 25.6947 46.2419 25.9205H46.9471C46.8465 25.6191 46.7808 25.3002 46.7138 24.975C46.6919 24.8683 46.6698 24.761 46.6462 24.6533C46.5263 24.1091 46.3611 23.6726 45.8622 23.5177L46.9197 21.4363H46.1398L45.3091 23.4224H45.2372ZM47.1794 22.088H47.984V25.9205H48.6954V22.088H49.5082V21.4363H47.1794V22.088ZM51.1969 23.8884V23.3628H49.8125V23.8884H51.1969ZM54.27 25.9205V21.4363H51.809V25.9205H52.5203V22.0531H53.558V25.9205H54.27ZM55.7874 23.8761H56.8517H56.8524V23.284H55.7881V22.0531H56.9182V21.4363H55.076V25.9198H56.9984V25.2996H55.7874V23.8761ZM57.2903 22.088H58.0949V25.9205H58.8063V22.088H59.6192V21.4363H57.2903V22.088ZM60.8295 23.8761H61.8938H61.8945V23.284H60.8302V22.0531H61.9603V21.4363H60.1181V25.9198H62.0405V25.2996H60.8295V23.8761ZM63.4777 21.413C63.1576 21.413 62.8704 21.4479 62.6395 21.5021V25.9198H63.3433V24.1749H63.5434C63.9231 24.1749 64.3563 24.0303 64.6222 23.7151C64.8285 23.4752 64.9546 23.1633 64.9546 22.7103C64.9546 22.3265 64.8346 21.9798 64.5955 21.7529C64.3295 21.5021 63.9499 21.413 63.4777 21.413ZM63.516 23.602C63.4496 23.602 63.3961 23.602 63.3426 23.5889V22.0277C63.403 22.0051 63.4975 21.9928 63.59 21.9928C64.0691 21.9928 64.2418 22.3464 64.2418 22.7638C64.2418 23.284 63.9821 23.602 63.516 23.602ZM67.635 22.0462V21.4363H65.5268V25.9082C65.6975 25.9328 65.9449 25.9513 66.2711 25.9513C66.8694 25.9513 67.3149 25.7944 67.6014 25.4853C67.82 25.2406 67.9482 24.9096 67.9482 24.4868C67.9482 24.0495 67.7953 23.7089 67.5418 23.4759C67.3026 23.2593 66.962 23.14 66.5761 23.14C66.4569 23.14 66.3513 23.1462 66.23 23.164V22.0462H67.635ZM66.4569 25.3811C66.3767 25.3811 66.304 25.375 66.23 25.3592H66.2307V23.7315C66.3109 23.7157 66.3856 23.7089 66.4575 23.7089C66.6899 23.7089 66.8845 23.8103 67.0161 23.9542C67.1422 24.103 67.2162 24.301 67.2162 24.534C67.2162 24.7609 67.1497 24.9692 67.0305 25.12C66.9023 25.2811 66.7104 25.3811 66.4569 25.3811ZM69.2448 23.2058L68.7788 21.4363H68.0133L69.0447 24.5169C69.0783 24.6115 69.0783 24.6903 69.0509 24.7739C68.9728 25.0426 68.7521 25.4017 68.4656 25.4017C68.3868 25.4017 68.3272 25.3955 68.286 25.3887L68.2593 25.9692C68.3395 25.987 68.432 26 68.5602 26C68.9193 26 69.2387 25.754 69.445 25.3887C69.6851 24.943 69.8591 24.2998 69.9987 23.7838C70.009 23.746 70.019 23.7089 70.0289 23.6726L70.6354 21.4363H69.9172L69.5711 23.1894C69.5484 23.3177 69.5275 23.4488 69.5076 23.5738C69.4859 23.7099 69.4653 23.8387 69.445 23.9488H69.4182C69.3771 23.7322 69.3168 23.4766 69.2448 23.2058ZM71.845 21.413C71.5257 21.413 71.2406 21.4479 71.0076 21.5021H71.0082V25.9198H71.7135V24.1749H71.9115C72.2905 24.1749 72.7243 24.0303 72.9903 23.7151C73.1965 23.4752 73.322 23.1633 73.322 22.7103C73.322 22.3265 73.2027 21.9798 72.9628 21.7529C72.6969 21.5021 72.3172 21.413 71.845 21.413ZM71.8862 23.602C71.8183 23.602 71.7649 23.602 71.7128 23.5889V22.0277C71.7724 22.0051 71.8649 21.9928 71.9581 21.9928C72.4365 21.9928 72.6099 22.3464 72.6099 22.7638C72.6099 23.284 72.3501 23.602 71.8862 23.602ZM75.8235 22.0531V21.4363H73.8942V25.9205H74.6063V22.0531H75.8235ZM78.5244 25.974C79.3167 25.974 79.9088 25.3057 79.9088 23.6177C79.9088 22.4115 79.5353 21.3821 78.5909 21.3821C77.6938 21.3821 77.188 22.3265 77.188 23.6719C77.188 25.022 77.6335 25.974 78.5244 25.974ZM78.5642 25.3523C78.1125 25.3523 77.9268 24.6533 77.9268 23.678C77.9268 22.7391 78.1119 21.9989 78.558 21.9989C79.0364 21.9989 79.1707 22.8364 79.1707 23.6493C79.1707 24.5505 79.024 25.3523 78.5642 25.3523ZM81.2178 23.2908V21.4363H80.5058V25.9205H81.2178V23.9426H82.2842V25.9205H82.9956V21.4363H82.2842V23.2908H81.2178ZM86.1078 25.9205V21.4363H83.9524V23.4635C83.9524 24.4436 83.8921 24.9884 83.6261 25.2468C83.5542 25.316 83.4528 25.3599 83.3541 25.3818L83.5 25.9808C83.6913 25.9808 83.8736 25.9143 84.0195 25.8006C84.5582 25.401 84.6117 24.4806 84.6117 23.3916V22.0531H85.3957V25.9205H86.1078ZM87.3112 25.9205L87.5504 24.7492H88.4441L88.6833 25.9205H89.3741L88.4496 21.4363H87.619L86.6204 25.9205H87.3112ZM88.1837 23.164L88.3694 24.1975H87.6306L87.8307 23.164C87.8842 22.8837 87.9507 22.4588 87.998 22.1477H88.0165C88.041 22.2883 88.0666 22.4497 88.0922 22.6113C88.1233 22.8073 88.1544 23.0037 88.1837 23.164ZM90.5509 22.6987V21.4363H89.9211V25.9205H90.579L91.3178 24.0084C91.3294 23.9785 91.3413 23.9481 91.3534 23.9172C91.5083 23.5214 91.6942 23.0462 91.8105 22.6075H91.825C91.7893 23.1174 91.7708 23.7384 91.7708 24.6711V25.9205H92.3958V21.4363H91.7502L91.0176 23.3319C90.9823 23.4259 90.9426 23.5298 90.9009 23.6393C90.762 24.0036 90.5993 24.4302 90.4913 24.7616H90.4789C90.518 24.1879 90.5509 23.506 90.5509 22.6987ZM91.1519 20.9408C90.9251 20.9408 90.8442 20.7838 90.8257 20.5631H90.3535C90.3933 21.0772 90.7065 21.2745 91.1519 21.2745C91.6248 21.2745 91.9031 21.0772 91.9627 20.5631H91.4905C91.472 20.7838 91.3644 20.9408 91.1519 20.9408ZM93.9187 23.2908V21.4363H93.2066V25.9205H93.9187V23.9426H94.983V25.9205H95.6944V21.4363H94.983V23.2908H93.9187Z" fill="#333333"/>
</svg>
