<svg width="30" height="30" viewBox="0 0 30 30" fill="none" xmlns="http://www.w3.org/2000/svg">
<g clip-path="url(#clip0_2006_4990)">
<path fill-rule="evenodd" clip-rule="evenodd" d="M15 0C6.72 0 0 6.72 0 15C0 23.28 6.72 30 15 30C23.28 30 30 23.28 30 15C30 6.705 23.295 0 15 0ZM14.415 21.45H12V16.53C12 15.555 11.955 14.94 11.865 14.67C11.775 14.4 11.61 14.205 11.385 14.04C11.16 13.89 10.86 13.8 10.515 13.8C10.11 13.8 9.75 13.905 9.45 14.1C9.135 14.295 8.89499 14.595 8.75999 15C8.60999 15.405 8.53499 15.99 8.53499 16.77V21.435H6.12001V8.22H8.53499V13.32C9.31499 12.39 10.245 11.925 11.325 11.925C11.88 11.925 12.375 12.03 12.825 12.24C13.275 12.45 13.605 12.72 13.83 13.05C14.055 13.38 14.205 13.74 14.295 14.145C14.385 14.535 14.415 15.15 14.415 15.99V21.45ZM23.925 21.45H21.51V16.53C21.51 15.555 21.465 14.94 21.375 14.67C21.285 14.4 21.12 14.205 20.895 14.04C20.67 13.89 20.37 13.8 20.025 13.8C19.62 13.8 19.26 13.905 18.96 14.1C18.645 14.295 18.42 14.595 18.27 15C18.12 15.405 18.045 15.99 18.045 16.77V21.435H15.63V8.22H18.045V13.32C18.825 12.39 19.755 11.925 20.835 11.925C21.39 11.925 21.885 12.03 22.335 12.24C22.785 12.45 23.115 12.72 23.34 13.05C23.565 13.38 23.715 13.74 23.805 14.145C23.895 14.535 23.925 15.15 23.925 15.99V21.45Z" fill="#333333"/>
</g>
<defs>
<clipPath id="clip0_2006_4990">
<rect width="30" height="30" fill="white"/>
</clipPath>
</defs>
</svg>
