<svg width="112" height="30" viewBox="0 0 112 30" fill="none" xmlns="http://www.w3.org/2000/svg">
<g clip-path="url(#clip0_2006_31445)">
<path d="M57.712 17.0454C57.712 18.7012 57.2718 20.0162 56.3423 20.9415C55.4129 21.9155 54.0431 22.4512 52.2331 22.4512H50.6677V23.5227H47.5858V22.4512H46.0204C42.4493 22.4512 40.5415 20.4058 40.5415 17.0454C40.5415 13.3928 42.4493 11.2986 45.7269 11.2986H47.5858V10.2272H50.6677V11.2986H52.5266C55.8042 11.2986 57.712 13.3928 57.712 17.0454ZM47.5858 20.211V13.5389H46.6074C44.6996 13.5389 43.6723 14.7564 43.6723 16.8019C43.6723 18.9934 44.7485 20.211 46.852 20.211H47.5858ZM54.5812 16.8019C54.5812 14.8051 53.5539 13.5389 51.6461 13.5389H50.6677V20.211H51.4015C53.505 20.211 54.5812 18.9934 54.5812 16.8019Z" fill="#333333"/>
<path d="M69.8443 22.4512H66.7624V15.7791L62.1151 22.4512H59.0332V11.2986H62.1151V17.9707L66.7624 11.2499H69.8443V22.4512Z" fill="#333333"/>
<path d="M82.6123 22.4515H79.5305V17.9709H74.8832V22.4515H71.8013V11.2988H74.8832V15.7794H79.5305V11.2988H82.6123V22.4515Z" fill="#333333"/>
<path d="M95.282 22.4515H88.3845C87.1126 22.4515 86.1831 22.208 85.4982 21.721C84.7645 21.1852 84.2753 20.2599 84.2753 19.0911C84.2753 18.0683 84.6177 17.2891 85.2047 16.7047C85.8896 16.0229 86.868 15.7307 88.2377 15.7307H92.4447V15.5359C92.4447 14.1235 91.8088 13.5391 90.0966 13.5391H84.9601V11.2988H91.0261C92.2001 11.2988 93.0807 11.5423 93.6677 11.9319C94.7439 12.6625 95.282 14.1235 95.282 16.2664V22.4515ZM92.4447 20.2112V17.9709H88.3845C87.5528 17.9709 87.0147 18.2144 87.0147 19.0911C87.0147 19.919 87.6507 20.2112 88.3845 20.2112H92.4447Z" fill="#333333"/>
<path d="M108.636 11.2988C107.462 11.2988 106.729 11.9319 106.337 13.0521L104.283 19.1398L102.277 13.0521C101.935 11.9319 101.201 11.2988 99.9778 11.2988H97.1895V22.4515H100.271V14.6105L102.864 22.5002H105.799L108.392 14.6105V22.5002H111.474V11.2988H108.636Z" fill="#333333"/>
<path d="M5.46716 23.5229L7.17932 24.8378L8.89149 26.1527C8.89149 26.1527 9.185 25.13 9.86986 23.8151L6.44554 21.1852C5.76068 22.5488 5.46716 23.5229 5.46716 23.5229Z" fill="#333333"/>
<path d="M6.69019 20.8442L10.1145 23.4741C10.5059 22.8409 10.9461 22.1591 11.5332 21.4773L8.10883 18.8474C7.52181 19.4805 7.08154 20.2111 6.69019 20.8442Z" fill="#333333"/>
<path d="M8.4021 18.5067L11.8264 21.1366C12.3645 20.5521 13.0005 19.9677 13.6853 19.4807L10.261 16.8508C9.57615 17.3378 8.94021 17.9223 8.4021 18.5067Z" fill="#333333"/>
<path d="M21.7573 10.5682L25.1816 13.1981C25.7687 12.6624 26.3068 12.0779 26.8449 11.3961L23.4206 8.76624C22.8825 9.39936 22.3444 10.0325 21.7573 10.5682Z" fill="#333333"/>
<path d="M13.5874 15.1947L17.0117 17.8246C17.8433 17.4837 18.7239 17.1428 19.6533 16.7532L16.229 14.1233C15.2996 14.5616 14.419 14.9025 13.5874 15.1947Z" fill="#333333"/>
<path d="M10.946 16.4126C10.8481 16.4613 10.7503 16.51 10.6525 16.6074L14.0768 19.2373C14.1746 19.1886 14.2725 19.0912 14.3703 19.0425C15.0062 18.6529 15.74 18.3607 16.5717 18.0198L13.1473 15.3899C12.3157 15.7308 11.5819 16.023 10.946 16.4126Z" fill="#333333"/>
<path d="M26.6494 3.36025L30.0737 5.99013C30.4162 5.25961 30.7097 4.43168 31.0032 3.60376L27.5789 0.973877C27.2854 1.8505 26.9918 2.62973 26.6494 3.36025Z" fill="#333333"/>
<path d="M25.3281 5.99051L28.7525 8.62039C29.1438 7.93857 29.5352 7.20805 29.8776 6.38013L26.4533 3.75024C26.1108 4.57817 25.7195 5.30869 25.3281 5.99051Z" fill="#333333"/>
<path d="M16.6694 13.9286L20.0938 16.5585C20.8765 16.2176 21.6592 15.7792 22.4419 15.2922L19.0175 12.6624C18.2348 13.1494 17.4521 13.5877 16.6694 13.9286Z" fill="#333333"/>
<path d="M19.4087 12.4187L22.833 15.0486C23.5179 14.6102 24.1538 14.0745 24.8387 13.4901L21.4144 10.8602C20.7784 11.4446 20.0936 11.9317 19.4087 12.4187Z" fill="#333333"/>
<path d="M23.7136 8.42535L27.1379 11.0552C27.6271 10.4221 28.0674 9.78899 28.5077 9.00977L25.0834 6.37988C24.6431 7.11041 24.2028 7.79223 23.7136 8.42535Z" fill="#333333"/>
<path d="M0.526245 19.7241L2.23841 21.0391L3.95057 22.354C3.95057 22.354 4.24408 21.3313 4.92895 20.0164L1.50462 17.3865C0.819759 18.7014 0.526245 19.7241 0.526245 19.7241Z" fill="#333333"/>
<path d="M1.74927 16.9969L5.17359 19.6268C5.56494 18.9936 6.00521 18.3118 6.59224 17.63L3.16792 15.0001C2.58089 15.6332 2.0917 16.3638 1.74927 16.9969Z" fill="#333333"/>
<path d="M3.46118 14.6594L6.88551 17.2893C7.42361 16.7049 8.05956 16.1204 8.74442 15.6334L5.3201 13.0035C4.58632 13.4906 3.99929 14.075 3.46118 14.6594Z" fill="#333333"/>
<path d="M16.8164 6.7209L20.2407 9.35078C20.8278 8.81507 21.3659 8.23065 21.904 7.54883L18.4797 4.91895C17.9415 5.60077 17.3545 6.18518 16.8164 6.7209Z" fill="#333333"/>
<path d="M8.64661 11.3476L12.0709 13.9774C12.9026 13.6365 13.7831 13.2956 14.7126 12.906L11.2882 10.2761C10.3588 10.7144 9.47823 11.0553 8.64661 11.3476Z" fill="#333333"/>
<path d="M6.00506 12.565C5.90722 12.6137 5.80939 12.6624 5.71155 12.7598L9.13587 15.3897C9.23371 15.341 9.33155 15.2436 9.42939 15.1948C10.0653 14.8052 10.7991 14.513 11.6307 14.1721L8.20641 11.5422C7.37479 11.8831 6.64101 12.1754 6.00506 12.565Z" fill="#333333"/>
<path d="M20.3872 2.19157L23.8115 4.82145C24.2029 4.13963 24.5942 3.4091 24.9367 2.62988L21.5123 0C21.1699 0.730522 20.7786 1.46104 20.3872 2.19157Z" fill="#333333"/>
<path d="M11.7285 10.0813L15.1528 12.7112C15.9355 12.3703 16.7182 11.932 17.5009 11.4449L14.0766 8.81506C13.2939 9.30208 12.4623 9.74039 11.7285 10.0813Z" fill="#333333"/>
<path d="M14.4678 8.57139L17.8921 11.2013C18.577 10.763 19.2129 10.2272 19.8978 9.64282L16.4734 7.01294C15.7886 7.59736 15.1526 8.13307 14.4678 8.57139Z" fill="#333333"/>
<path d="M18.7728 4.57806L22.1971 7.20794C22.6863 6.57482 23.1266 5.9417 23.5669 5.16247L20.1426 2.53259C19.7023 3.26312 19.2131 3.94494 18.7728 4.57806Z" fill="#333333"/>
<path d="M10.4568 27.3701L12.169 28.6851L13.8811 30C13.8811 30 14.1746 28.9773 14.8595 27.6624L11.4352 25.0325C10.7503 26.3474 10.4568 27.3701 10.4568 27.3701Z" fill="#333333"/>
<path d="M11.6798 24.6429L15.1041 27.2728C15.4955 26.6396 15.9358 25.9578 16.5228 25.276L13.0985 22.6461C12.5114 23.3279 12.0222 24.0098 11.6798 24.6429Z" fill="#333333"/>
<path d="M13.3917 22.354L16.816 24.9839C17.3542 24.3994 17.9901 23.815 18.675 23.328L15.2506 20.6981C14.5169 21.1851 13.9298 21.7209 13.3917 22.354Z" fill="#333333"/>
<path d="M26.6981 14.4154L30.1224 17.0452C30.7095 16.5095 31.2476 15.9251 31.7857 15.2433L28.3614 12.6134C27.8722 13.2465 27.2851 13.8796 26.6981 14.4154Z" fill="#333333"/>
<path d="M18.5779 19.0424L22.0022 21.6723C22.8338 21.3313 23.7144 20.9904 24.6438 20.6008L21.2195 17.9709C20.29 18.3606 19.4095 18.7015 18.5779 19.0424Z" fill="#333333"/>
<path d="M15.9356 20.2598C15.8378 20.3085 15.7399 20.4059 15.6421 20.4546L19.0664 23.0845C19.1643 23.0358 19.2621 22.9871 19.3599 22.8897C19.9959 22.5001 20.7297 22.2079 21.5613 21.8669L18.137 19.2371C17.3053 19.578 16.5226 19.8702 15.9356 20.2598Z" fill="#333333"/>
<path d="M21.6589 17.7759L25.0833 20.4058C25.866 20.0649 26.6487 19.6265 27.4314 19.1395L24.007 16.5096C23.2243 16.9967 22.3927 17.3863 21.6589 17.7759Z" fill="#333333"/>
<path d="M24.3982 16.2178L27.8225 18.8476C28.5074 18.4093 29.1433 17.8736 29.8282 17.2892L26.4039 14.6593C25.719 15.2924 25.0341 15.7794 24.3982 16.2178Z" fill="#333333"/>
<path d="M28.6545 12.2726L32.0789 14.9025C32.5681 14.2694 33.0083 13.6363 33.4486 12.8571L30.0243 10.2272C29.6329 10.9577 29.1437 11.6395 28.6545 12.2726Z" fill="#333333"/>
</g>
<defs>
<clipPath id="clip0_2006_31445">
<rect width="110.948" height="30" fill="white" transform="translate(0.526245)"/>
</clipPath>
</defs>
</svg>
