<svg width="132" height="30" viewBox="0 0 132 30" fill="none" xmlns="http://www.w3.org/2000/svg">
<path fill-rule="evenodd" clip-rule="evenodd" d="M14.1572 11.4898C14.1671 11.4695 14.1771 11.4496 14.1872 11.4393C14.6029 11.3057 14.7793 11.6457 15.1366 11.7433C15.1863 11.5215 15.4726 11.621 15.4229 11.3989C15.1179 11.3834 14.8875 11.4601 14.6954 11.2173C14.742 11.123 14.8973 11.1668 14.9944 11.1668C15.108 11.339 15.3643 11.3072 15.5225 11.1869C15.5096 11.5324 15.8984 11.396 16.3199 11.4188C16.434 11.4492 16.434 11.4794 16.3199 11.5196C15.6403 11.3916 15.1287 11.8734 15.0184 11.9084C14.8896 11.9496 14.6203 11.4345 14.1572 11.4898ZM23.9387 23.6119C24.2037 23.3279 24.4555 23.0318 24.6935 22.7243C24.0838 22.7067 22.6124 22.7811 22.4583 22.603C21.6553 22.417 20.8268 22.0957 20.0118 21.8506C19.7154 21.8212 19.5771 21.8177 19.5193 21.8631C19.5508 22.0129 19.9423 22.3039 20.0267 22.3005C20.8403 22.3349 20.801 22.3307 21.4148 22.9024C21.6236 24.1963 23.1169 23.2136 23.9387 23.6119ZM17.6313 27.2656C17.8117 27.2243 17.9912 27.1788 18.1696 27.1293C18.4267 26.0018 19.374 24.1366 19.25 23.3291C18.9952 23.9489 18.247 26.1935 17.6313 27.2656ZM17.0502 27.3853C17.1684 27.3639 17.2862 27.3407 17.4036 27.3159C17.9572 25.6086 19.0198 24.0742 18.9906 23.0567C18.854 23.3379 17.7048 26.018 17.0502 27.3853ZM16.212 27.5068C16.3798 27.4882 16.5473 27.4664 16.7143 27.4412C17.4206 25.6505 18.4965 23.9542 18.6583 23.3155C18.9798 22.6508 18.9976 22.9585 19.1488 22.9968C19.3162 23.0394 18.9211 22.4708 19.12 22.4821C19.2396 22.4264 19.3202 22.7874 19.3194 23.0974C19.3558 23.16 19.3852 23.15 19.4191 23.0773C19.4454 22.8431 19.2541 22.51 19.2295 22.1828C18.9105 22.5257 18.6012 22.8699 18.4315 23.3668C18.1083 24.3141 16.7995 26.5092 16.212 27.5068ZM9.94605 26.5482C10.6998 26.8786 11.4842 27.1322 12.2876 27.305C12.3497 26.6669 12.3071 25.423 12.406 25.1666C12.6089 24.6419 13.1138 24.3972 13.4196 24.2164C13.6283 24.3298 13.8783 24.9098 14.1607 24.8459C14.3102 24.8122 14.1874 24.6455 13.9678 24.4787C13.9144 24.056 13.3571 22.0297 12.8946 21.9251C12.5743 22.3143 9.87173 24.2468 9.76222 24.4385C9.82867 24.5304 10.2009 24.3715 10.1953 24.7682C10.6719 24.52 11.3266 24.0954 11.4562 23.9542C11.626 23.9542 11.5732 23.9431 11.6057 24.0752C11.3801 24.2204 11.4658 24.2967 11.6057 24.4383C11.5301 25.2064 10.4613 26.0081 9.94605 26.5482ZM6.88966 24.6379C7.006 24.7366 7.12442 24.8332 7.24428 24.9276C7.37491 24.1911 8.22574 22.179 8.4102 21.6503C8.42469 21.6813 8.36134 21.6411 8.29779 21.7498C7.7523 22.5588 7.44343 23.583 6.98882 24.3844C6.96605 24.4247 6.83873 24.3061 6.86233 24.2468C7.20205 23.3886 7.79453 22.5974 8.08829 21.7054C8.16799 21.6853 8.20587 21.6409 8.30006 21.6172C8.34768 21.5502 8.198 21.5669 8.04564 21.5795C7.91108 21.591 7.77445 21.5885 7.76969 21.6752C7.76969 21.8309 7.86678 21.6434 7.96884 21.7054C7.93861 21.9444 6.64683 23.8059 6.40296 24.2037C6.49136 24.2866 6.58079 24.3683 6.67167 24.449C6.73191 24.4632 6.8023 24.4766 6.88386 24.4888C6.89918 24.5692 6.89835 24.5899 6.88966 24.6379ZM5.91834 23.7235C6.01232 23.8222 6.10817 23.919 6.20547 24.0143C6.37771 23.823 6.38702 23.3354 6.7228 23.2384C6.98758 22.4564 7.49021 22.3912 7.49021 21.9777C7.44612 21.8617 6.42925 23.0886 5.91834 23.7235ZM4.32141 21.6654L4.37813 21.7557C4.77457 21.6396 6.13777 20.9955 6.52324 21.4331C6.90249 21.1836 7.69288 21.064 7.95828 21.1461C8.03902 21.171 7.8026 21.0005 7.67984 20.9724C7.21343 20.8662 6.04089 20.7353 5.6281 21.0635C5.49851 21.1668 4.6692 21.5311 4.32141 21.6654ZM12.4232 13.1236C12.4232 12.9723 12.4532 12.942 12.5329 12.8008C12.4054 12.5655 12.162 13.0756 12.1243 12.9721C12.0502 12.7691 12.4394 12.5333 12.5928 12.6493C12.6824 12.5182 12.6625 12.4677 12.7221 12.377C13.2712 12.2557 13.2753 11.9987 14.0576 12.2458C14.1274 12.3567 14.1872 12.3567 14.3565 12.3971C14.3565 12.5735 14.3027 12.7178 14.4661 12.8006C14.4561 12.9013 14.4561 13.0123 14.4561 13.1234C14.2959 13.1234 14.3131 13.1533 14.2269 13.0226C13.9578 12.9824 13.9779 12.9218 13.8284 12.7503C13.585 12.6694 13.3856 12.6694 13.2204 12.7503C12.9662 13.0077 12.8399 12.6948 12.7221 13.1234L12.4232 13.1236ZM10.6569 13.8848C10.6485 13.7526 10.624 13.7239 10.6576 13.5962C10.669 13.5526 10.728 13.4133 10.7366 13.4537C10.7679 13.602 10.7716 13.8176 10.7725 13.9789C10.7729 14.0683 10.6625 13.9718 10.6569 13.8848ZM15.8413 14.2227C15.8413 13.9303 15.8514 13.9908 16.0704 13.9202C16.1004 13.5974 16.0309 13.5572 16.3594 13.5572C16.4791 13.8295 16.3195 13.8396 16.6385 14.122C16.6283 14.1724 16.6283 14.2227 16.6283 14.2732C16.3605 14.234 16.0466 14.3015 15.8413 14.2227ZM11.0437 13.8984C11.0617 13.8004 11.2498 13.7162 11.2807 13.8553C11.3041 13.9617 11.3662 14.2929 11.2871 14.3235C11.1588 14.3733 11.0018 14.128 11.0437 13.8984ZM12.6923 14.8782C12.4584 14.772 12.2609 14.649 12.1541 14.4548C12.2239 14.3842 12.1938 14.4043 12.3334 14.4245C12.4031 14.7875 12.9314 14.7875 13.2602 14.7975V14.8983C13.0711 14.8866 12.8818 14.8799 12.6923 14.8782ZM17.1869 14.6362C17.1767 14.5656 17.1666 14.495 17.1666 14.4245C17.3562 14.3337 17.4359 14.2833 17.5951 14.122C17.5556 14.0514 17.5556 14.0514 17.4755 14.0514C17.349 14.2652 17.1424 14.3428 16.8875 14.3943C16.8875 14.0715 17.0772 14.0614 17.1268 13.8496C16.8575 13.9535 16.8575 13.8909 16.7679 13.8193C16.7101 13.6982 16.7101 13.5874 16.7679 13.4763C16.8871 13.376 16.9948 13.4548 17.1438 13.5076C17.4891 13.6301 17.8721 13.8524 18.0164 14.0269C18.2004 14.2324 18.3731 14.428 18.4025 14.5956C18.2629 14.7368 18.0835 14.6358 17.8543 14.9081C17.6984 14.8304 17.4864 14.6563 17.1869 14.6362ZM11.0114 15.1947C10.9223 14.8686 10.7093 14.5811 10.7567 14.1316C10.76 14.1002 10.7743 14.0346 10.7892 14.0719C10.848 14.2185 11.13 14.7862 11.1078 14.8985C11.1037 14.9186 11.036 15.2846 11.0114 15.1947ZM16.1903 15.4834C16.0108 15.302 15.8216 15.1608 15.6222 15.1103C15.5196 15.2142 15.5688 15.1708 15.433 15.1708V14.8279C15.911 14.3442 16.7969 14.3325 17.2266 14.8885C17.1183 14.9982 17.2796 15.0701 17.3564 15.1608C17.1016 15.7947 16.3629 15.6166 16.1903 15.4834ZM14.4841 18.0533C15.5028 17.7479 16.3698 16.8641 16.4691 17.2581C16.5832 17.2386 16.5379 17.5878 16.459 17.5847C15.6483 17.7548 15.1037 18.2462 14.4683 18.0962C14.3963 18.0793 14.4789 18.0548 14.4841 18.0533ZM16.0011 19.0431C16.1458 18.9453 16.1495 18.8713 16.0011 18.7708C15.8831 18.2462 15.4407 18.3707 15.2235 18.3673C15.1892 18.3514 15.1989 18.3311 15.2535 18.317C15.6918 18.2967 16.5971 17.7131 16.6089 17.9339C16.6217 18.1794 16.2936 19.0194 16.0408 19.1648C15.9104 19.2396 15.9872 19.098 16.0011 19.0431ZM16.9374 19.8571C17.0983 19.6921 17.1142 19.4468 17.2067 19.3154C17.3722 19.0806 17.5104 18.824 17.6055 18.5087C17.6953 18.21 17.7048 17.8306 17.6355 17.5304C17.6193 17.4611 17.7767 17.3253 17.7847 17.3892C17.8398 17.799 17.9077 18.229 17.805 18.6398C17.6816 19.1338 17.3761 19.5297 17.1034 19.9527C17.0215 20.0798 16.7772 20.2901 16.7031 20.2941C16.4847 20.3058 16.7668 20.0321 16.9374 19.8571ZM11.6757 12.1656C11.4765 12.3671 11.6258 12.5992 11.3567 12.8716C11.1517 12.6642 11.0917 12.8466 10.9281 12.9017C10.7275 12.8975 11.072 12.5594 11.1573 12.3673C11.0776 12.3774 11.0078 12.3875 10.9381 12.3977C10.9083 12.5894 10.8782 12.6296 10.7188 12.7708C10.659 12.7002 10.659 12.7002 10.5195 12.67C10.4907 12.8747 10.5437 12.8854 10.37 12.8414C10.37 12.6164 10.5054 12.5364 10.5195 12.2666C10.3899 12.2968 10.3601 12.3472 10.121 12.3673C10.1607 12.1757 10.3203 12.1254 10.3601 11.9641C10.2092 11.9641 10.0187 12.121 9.96158 12.0246C10.3147 11.6279 10.3305 11.4203 10.8584 11.5405C11.0577 11.3388 11.0778 11.3993 11.3867 11.3993C11.503 11.4356 11.7059 11.9239 11.6757 12.1656ZM19.0473 14.1316C19.1063 14.1159 19.1517 14.2368 19.1032 14.3044C18.7652 14.7638 17.7856 14.9366 17.4767 15.2816C16.9621 15.9979 16.7399 15.6734 16.1234 15.842C15.9491 15.8948 15.9038 16.0268 15.9715 16.3504C16.3723 16.3098 16.806 16.4269 17.1275 16.8347C17.3134 17.0708 17.0159 18.2508 16.7886 17.9643C16.6041 17.7319 16.9358 17.4473 16.9378 17.4297C16.9943 17.0226 16.7033 16.4491 16.3371 16.6139C16.1903 16.6799 15.9723 16.399 15.7622 16.3911C15.5767 16.6672 14.1918 17.1303 13.8887 17.0365C13.7901 17.0578 13.5941 16.8073 13.6096 16.7539C13.5415 16.1648 13.4283 15.9245 13.2803 15.882C12.9977 15.801 12.5882 16.4413 12.1247 16.7539C12.0336 16.1133 12.3733 16.164 12.4038 15.9472C12.6843 15.6805 13.2987 15.2184 13.2211 15.3824C13.2709 15.3824 13.3308 15.3925 13.3904 15.4027C13.3005 15.4934 13.3107 15.554 13.3005 15.705C13.9622 16.217 13.3312 16.6605 14.511 16.703C14.6627 16.7059 14.9271 16.3609 14.8054 16.2094C14.4013 16.1466 14.9256 15.355 15.1242 15.2314C15.1544 15.4432 15.3239 15.4934 15.3736 15.7052C15.1544 15.9273 15.1743 15.907 15.1743 16.2499C15.254 16.2903 15.254 16.2903 15.5628 16.2601C15.7831 16.037 15.8899 16.3242 15.7723 15.9069C15.8322 15.8466 15.8419 15.8064 15.822 15.7155C15.3736 15.7649 15.3239 15.2056 15.3036 14.7977C15.2239 14.7272 15.1442 14.6566 15.0745 14.596C14.8975 13.5377 14.0688 14.171 13.9684 14.4247C13.8883 14.9148 13.7243 15.0311 13.839 15.5037C13.799 15.5138 13.7591 15.5238 13.7293 15.5339C13.7094 15.413 13.6993 15.2919 13.6895 15.1809C11.5138 15.3876 11.846 14.4408 11.4672 13.7792C11.3333 13.1762 10.9279 13.5363 10.7553 13.2231C10.9217 12.9874 11.0571 13.004 11.1461 12.9606C11.3302 13.0132 11.6291 13.3856 11.6765 13.4768C11.8347 14.1138 12.2916 13.6062 12.7629 13.7792C12.853 13.8704 13.1142 13.8404 13.2612 13.8498C13.2612 13.8802 13.2291 13.9537 13.2291 13.994C12.713 13.9705 12.3568 13.9416 12.1555 14.0641C11.5922 14.6478 12.3483 15.2006 13.5601 15.0498C13.6223 14.9557 13.6405 14.9907 13.59 14.8885C13.8787 14.4035 13.4869 14.4142 13.3707 14.0212C13.391 13.7966 13.0933 13.7853 13.1614 13.4263C12.9983 13.3153 12.6114 13.6249 12.5534 13.5069C12.9629 13.019 12.9877 13.097 13.7891 13.1944C13.8291 13.265 13.879 13.3356 13.9286 13.4162L13.5701 13.4466C13.5701 13.7068 13.9034 13.6236 14.0284 13.4971C14.3081 13.5015 14.4435 13.5467 14.3373 13.7795C14.2495 13.91 14.1512 13.8073 13.9885 13.729C13.8489 13.8702 13.7593 13.9305 13.5898 14.0013C13.5127 14.1798 13.6073 14.2206 13.9363 14.2206C14.2158 13.698 15.0296 13.6213 15.3571 14.4301C15.5759 14.3735 15.8266 14.3853 15.6922 14.1023C15.573 14.0822 15.4635 14.0618 15.3533 14.0518C15.5645 13.8079 15.2774 13.8335 15.0946 13.6483C15.1527 13.5467 15.4432 13.4659 15.4697 13.0595C15.6742 12.8066 15.8603 12.4589 16.0512 12.3977C16.141 12.4784 16.2302 12.559 16.3201 12.6499C16.7289 12.5687 16.7726 12.1801 17.1372 12.3977C17.2618 12.5129 17.7667 12.793 17.7951 12.7811C17.835 12.7811 17.8849 12.7911 17.9346 12.8012C17.9448 12.9828 17.9545 13.1642 17.9746 13.3456C17.7951 13.3911 17.8512 13.34 17.8249 13.1542C17.6034 13.1221 17.5657 13.0102 17.3566 12.9926C17.2022 12.7846 16.8209 12.8816 16.5592 12.8816C16.4497 12.9926 16.3797 13.0128 16.2402 13.0431C16.2402 13.2549 16.3797 13.1944 16.5892 13.1944C16.7352 12.9975 17.0186 13.1944 17.2568 13.1944C17.3332 13.2 17.9127 13.4946 18.1731 13.8702C18.2863 14.418 18.5592 14.4787 18.5923 14.4045C18.7153 14.238 18.9894 14.1903 19.0473 14.1316ZM12.6025 20.8987C12.5385 21.1061 13.0801 21.4735 13.4668 21.6015C13.8315 21.7221 14.5133 21.7557 15.0828 21.5361C15.9876 21.1875 16.5004 21.1748 17.114 20.4684C17.2103 20.4108 17.239 20.4671 17.2564 20.4646C16.9674 21.1744 16.3592 21.4582 15.7009 21.6562C14.906 21.8954 13.3943 21.9861 13.0942 21.8918C12.4031 21.3545 12.3261 21.3593 12.3547 20.9802C12.3603 20.9066 12.4539 20.8698 12.6025 20.8987ZM15.6024 22.1491C16.2696 21.9251 16.3919 21.9174 17.2266 21.0499C17.3891 20.8811 17.6355 20.7474 17.8845 20.6266C17.9617 20.6372 17.9719 20.6674 17.9044 20.7273C17.456 20.9492 17.3136 21.3055 17.0113 21.7791C16.6842 22.2907 16.2638 22.3638 15.6835 22.3001C15.5574 22.2861 15.6024 22.2574 15.6024 22.1491ZM15.876 19.3391C15.9133 19.3391 15.9439 19.3753 15.9439 19.4199C15.9439 19.5259 15.8081 19.5259 15.8081 19.4199C15.8081 19.3753 15.8386 19.3391 15.876 19.3391ZM15.6804 19.6745C15.6804 19.7145 15.657 19.7474 15.6287 19.7474C15.5999 19.7474 15.5765 19.7147 15.5765 19.6745C15.5765 19.5796 15.6804 19.5796 15.6804 19.6745ZM15.5049 19.9011C15.5332 19.9011 15.5566 19.9357 15.5566 19.978C15.5566 20.0781 15.4531 20.0781 15.4531 19.978C15.4531 19.9357 15.4763 19.9011 15.5049 19.9011ZM16.4267 20.2769C16.453 20.2769 16.4747 20.3096 16.4747 20.3498C16.4747 20.4447 16.3789 20.4445 16.3789 20.3498C16.3791 20.3098 16.4004 20.2769 16.4267 20.2769ZM18.3348 19.5576C18.3348 19.5997 18.3077 19.6342 18.2745 19.6342C18.2418 19.6342 18.2147 19.5997 18.2147 19.5576C18.2147 19.4568 18.3348 19.4568 18.3348 19.5576ZM15.7009 15.3613C15.7009 15.4279 15.6703 15.4825 15.6326 15.4825C15.5945 15.4825 15.5639 15.4279 15.5639 15.3613C15.5639 15.2039 15.7009 15.2039 15.7009 15.3613ZM15.9663 15.5431C15.9663 15.5911 15.9319 15.63 15.8895 15.63C15.8471 15.63 15.8123 15.5908 15.8123 15.5431C15.8123 15.4295 15.9663 15.4295 15.9663 15.5431ZM10.2659 12.9417C10.3176 12.9417 10.3601 12.9964 10.3601 13.0632C10.3601 13.2218 10.1717 13.2218 10.1717 13.0632C10.1717 12.9964 10.2141 12.9417 10.2659 12.9417ZM18.7279 13.6544C18.7656 13.6544 18.7962 13.7043 18.7962 13.7652C18.7962 13.8264 18.7656 13.876 18.7279 13.876C18.6902 13.876 18.6596 13.8262 18.6596 13.7652C18.6594 13.7043 18.6902 13.6544 18.7279 13.6544ZM13.7585 19.5978C13.5599 19.7138 13.6959 19.1296 13.7386 18.9122C13.7502 18.8531 14.318 18.8053 14.3381 18.8992C14.0164 19.1841 13.9626 19.6294 13.7585 19.5978ZM13.4893 18.1153C13.4403 18.1078 13.397 17.9557 13.3627 17.9452C13.2575 17.9125 13.1894 18.0342 13.0908 17.9844C13.0089 17.9431 12.896 17.6446 12.7919 17.7424C12.7377 17.7935 12.5377 18.1316 12.523 18.1055C12.523 18.1055 12.316 17.8537 12.4033 17.5608C12.6122 17.2736 12.6398 17.1793 13.0014 17.2583C13.1888 17.2992 12.9058 17.4544 12.9018 17.4902C12.8743 17.7305 13.2248 17.529 13.3902 17.6415C13.7823 17.9083 13.6717 17.9747 14.1874 18.0349C14.217 18.0384 14.2269 18.1306 14.1874 18.1356C13.9495 18.1654 13.716 18.1505 13.4893 18.1153ZM11.7355 18.1052C11.9692 17.7845 11.8707 17.5614 12.1742 17.2581C12.2048 17.2173 12.3537 17.1865 12.3236 17.2277C11.9953 17.6827 12.0678 17.7657 12.0945 18.3671C12.0961 18.409 11.6264 18.2305 11.7355 18.1052ZM13.8284 21.1205C13.6067 21.0485 13.5782 21.2512 13.3059 21.1748C12.7865 21.0283 12.671 20.3683 12.6723 20.2633C12.6741 20.1221 12.6631 19.9805 12.6723 19.8498C12.6735 19.832 12.982 20.7613 13.5194 20.7472C13.6765 20.7432 13.5997 20.2512 13.6589 20.3641C13.8752 20.7774 14.3638 20.9427 14.9716 20.7156C15.0879 20.672 14.8277 20.8071 14.8248 20.8585C14.7921 21.4785 14.0131 21.1806 13.8284 21.1205ZM11.2072 19.0431C11.1395 18.8678 11.0849 17.3333 11.2571 17.6616C11.4055 17.9448 11.2186 18.3288 11.307 18.67C11.367 18.9023 11.6676 19.014 11.556 19.3152C11.5372 19.3665 11.2368 19.1191 11.2072 19.0431ZM11.6258 19.5777C11.6258 19.5063 11.7734 19.589 11.9347 19.6885C11.9773 19.7149 11.9858 19.7974 11.9547 19.85C11.9202 19.9082 11.6258 19.6659 11.6258 19.5777ZM12.1541 21.4835C12.0943 21.0918 11.9694 21.3009 11.8552 21.171C11.8392 21.1433 11.9048 21.127 11.8949 21.1004C11.8676 21.0265 11.6457 21.0116 11.7554 20.9291C11.9349 20.7212 12.4102 21.4592 12.3234 21.5039C12.3359 21.5638 12.1736 21.5301 12.1541 21.4835ZM10.4 21.3424C10.4766 21.0975 10.4932 21.0248 10.5396 20.7977C10.5568 20.7139 10.6414 20.6335 10.7188 20.6263C10.7035 20.7009 10.9223 20.7734 10.9582 20.7271C10.9987 20.8195 10.853 20.911 10.9281 21.1203C10.9486 21.1771 11.0664 21.1052 11.1275 21.1406C11.1534 21.1555 11.1668 21.2355 11.1275 21.2414C10.641 21.326 10.387 22.0657 10.181 22.1872C9.96945 22.3118 10.3021 21.6564 10.4 21.3424ZM8.89524 20.9693C9.24675 20.4454 9.45604 20.4504 10.0628 20.5017C10.1429 20.5084 9.92245 20.6722 9.83613 20.6682C9.43037 20.7028 9.25089 20.9955 9.02648 21.1027C8.82775 21.198 8.54331 21.2098 8.89524 20.9693ZM8.35347 21.2607C8.37645 21.237 8.45843 21.2804 8.53606 21.3572C8.61349 21.4339 8.65799 21.516 8.63502 21.5397C8.57995 21.5965 8.29841 21.3176 8.35347 21.2607ZM8.21974 21.3155C8.21974 21.3553 8.19014 21.388 8.15432 21.388C8.1181 21.388 8.0887 21.3556 8.0887 21.3155C8.0887 21.2483 8.21974 21.2481 8.21974 21.3155ZM9.47219 23.9315C9.50159 23.9315 9.52581 23.9542 9.52581 24.004C9.52581 24.0893 9.41837 24.0893 9.41837 24.004C9.41837 23.9542 9.44259 23.9315 9.47219 23.9315ZM10.0015 23.3592C10.1551 23.1979 10.0359 23.0523 10.1411 23.0425C10.2707 23.0304 10.2957 22.8636 10.4261 22.9074C10.57 22.9556 10.3659 23.301 10.3404 23.5002C10.3301 23.5813 10.1541 23.5379 10.0595 23.5235C9.96365 23.5092 9.93032 23.4338 10.0015 23.3592ZM9.59288 23.5004C9.55272 23.3391 9.57011 22.9097 9.79224 22.7844C9.9328 22.7052 9.67714 23.2434 9.70239 23.4602C9.70736 23.5013 9.60158 23.5356 9.59288 23.5004ZM12.1243 24.3576C11.9738 24.2768 12.2299 24.1207 12.3534 24.2164C12.4323 24.4085 12.6139 24.2893 12.7718 24.3779C12.8803 24.4818 12.6429 24.5328 12.528 24.5254C12.3897 24.5028 12.3915 24.4014 12.1243 24.3576ZM11.5761 23.561C11.7239 23.5038 11.7401 23.4587 11.591 23.362C11.3813 23.226 11.6401 22.996 11.8353 23.1575C11.9456 23.2491 11.7556 23.2805 11.7556 23.3592C11.7556 23.4095 11.8951 23.4066 11.9249 23.3796C12.0212 23.292 12.2402 23.2126 12.1541 23.3592C12.11 23.434 11.8324 23.5117 11.7345 23.6423C11.6165 23.7996 11.4656 23.6039 11.5761 23.561ZM12.075 22.9822C12.11 23.0035 12.1181 23.0557 12.0928 23.0986C12.0676 23.1412 12.0183 23.1588 11.9831 23.1376C11.9479 23.1162 11.9398 23.0639 11.9651 23.0213C11.9905 22.9784 12.0398 22.961 12.075 22.9822ZM14.3864 24.2667C14.3992 24.2055 14.2992 24.0757 14.2868 24.035C14.2628 23.9561 14.4768 23.7493 14.5559 23.7426C14.8544 23.7175 15.0577 24.3968 14.6445 24.48C14.5373 24.5011 14.3652 24.3687 14.3864 24.2667ZM14.6954 25.6183C14.771 25.3962 15.5514 23.2057 15.6024 22.956C15.6121 22.9459 15.632 22.9359 15.6521 22.9256C15.8106 22.9359 15.8129 23.1797 15.8611 23.5409C15.9011 23.6385 15.951 23.6385 16.0011 23.5308C15.9905 23.3747 15.8729 22.6617 16.0508 22.7846C16.2298 22.9258 16.2004 23.0266 16.2201 23.2989C17.0384 22.9864 17.6908 22.6284 18.1232 22.3005C18.1232 21.9274 18.1232 21.5642 18.1334 21.2014C18.2441 21.0895 18.2501 21.4917 18.253 21.524C18.5114 21.6172 18.507 21.2376 18.5919 21.3021C18.6041 21.4008 18.6432 21.7888 18.8014 21.5039C18.8014 21.184 18.6716 21.0937 18.6716 20.7979C18.8155 20.5271 18.7561 21.21 18.9409 20.9693C18.9596 20.8363 18.7832 20.2487 18.9616 20.3873C19.013 20.9563 19.5067 21.3333 19.4113 21.8415C17.0956 23.0379 17.0964 24.0409 16.1605 23.9542C15.6641 24.4567 15.2293 25.0372 14.7952 25.6384C14.6973 25.7065 14.6673 25.6966 14.6954 25.6183ZM6.89214 11.2429C6.88221 11.2724 6.49239 10.8413 7.15112 11.016C7.26684 11.0466 7.26871 11.3026 7.1712 11.3891C6.76876 11.7456 6.92899 11.1322 6.89214 11.2429ZM6.86171 12.7957C6.84515 12.5764 6.86275 12.3433 6.90208 12.1355C6.91222 12.0822 7.03043 12.0427 7.06169 12.0952C7.17369 12.284 7.23745 12.4557 7.1712 12.7406C7.14118 12.8691 6.87496 12.9713 6.86171 12.7957ZM6.92195 13.2748C6.89442 13.2099 6.89235 13.1257 6.92195 13.0731C6.94245 13.0371 7.04161 12.9956 7.06148 13.0429C7.13704 13.221 6.97019 13.3886 6.92195 13.2748ZM6.96191 13.6984C6.8555 13.6649 6.87227 13.5117 6.92195 13.4765C6.99586 13.4242 7.06852 13.3863 7.13622 13.4462C7.25815 13.5543 7.15298 13.7587 6.96191 13.6984ZM6.92195 14.2227C6.84142 14.1454 6.84846 13.7235 7.02153 13.8597C7.17721 13.9822 7.21861 13.9795 7.13373 14.1957C7.11282 14.2495 6.96625 14.2652 6.92195 14.2227ZM6.23424 16.6127C6.26054 16.4221 6.31457 15.3525 6.50337 15.1304C6.69631 14.9031 6.80333 14.6528 6.92195 14.3941C6.95963 14.3118 7.15133 14.313 7.19108 14.3941C7.57012 15.1683 7.64755 15.458 7.65624 15.8361C7.66142 16.0674 7.7612 16.5754 7.68936 16.7941C7.64775 16.6489 7.52272 16.5947 7.51671 16.7589C7.47365 16.5907 7.38774 16.6649 7.32067 16.7681C7.27657 16.6571 7.16189 16.7032 7.06169 16.8144C7.09606 16.6768 6.97309 16.5691 6.76504 16.8211C6.69486 16.7361 6.8379 16.5524 6.79236 16.4512C6.77187 16.4053 6.65904 16.4116 6.65283 16.4512C6.62281 16.6667 6.53214 16.7786 6.33837 16.7887C6.21313 16.7952 6.14792 16.734 6.23424 16.6127ZM6.96626 16.0364C6.9853 16.0364 7.00062 16.0666 7.00062 16.1032C7.00062 16.1395 6.9321 16.1395 6.9321 16.1032C6.9321 16.0666 6.94742 16.0364 6.96626 16.0364ZM6.84246 16.1728C6.88593 16.1728 6.92154 16.2256 6.92154 16.2903C6.92154 16.3722 6.76338 16.3563 6.76338 16.2903C6.76338 16.2256 6.79899 16.1728 6.84246 16.1728ZM7.09543 16.4367C7.12731 16.4367 7.1534 16.4824 7.1534 16.5383C7.1534 16.6163 7.03747 16.6163 7.03747 16.5383C7.03726 16.4824 7.06335 16.4367 7.09543 16.4367ZM18.9782 13.8871C18.9738 13.8511 19.2535 13.5432 19.2672 13.5115C19.3411 13.3398 19.1229 13.4104 19.0339 13.5059C18.753 13.8084 18.9223 13.2101 18.801 13.2459C18.653 13.2897 18.6105 13.6106 18.5321 13.2964C18.4807 13.0913 18.6577 13.1263 18.7294 12.9319C18.7674 12.8286 18.5292 12.2605 18.4604 12.125C18.3861 11.9792 18.4079 11.6922 18.287 11.5611C18.2211 11.4894 18.1741 11.5198 18.1677 11.5812C18.1466 11.7716 18.2068 11.9203 18.1868 12.1107C18.177 12.2029 18.0857 12.219 18.0773 12.1411C18.0129 11.552 17.2945 10.8145 16.7681 10.2407C15.1577 10.4489 13.7483 11.1163 11.5703 11.6572C11.5134 10.9077 11.0993 9.89798 10.6391 9.35333C9.96054 9.35333 7.124 10.4929 6.64973 10.9609C6.60522 11.0049 6.51413 10.8719 6.57106 10.831C9.34632 8.68174 12.5478 7.01238 16.1505 5.48799C16.4542 5.35287 16.7114 5.29694 17.0461 5.34659C19.0535 5.64489 21.2051 5.9987 23.2955 6.21698C23.4475 6.2329 23.4197 6.46564 23.2955 6.4692C21.4485 6.52282 19.7889 7.2669 18.8111 7.72985C18.8349 8.32499 18.9672 8.90023 18.9604 9.55506C19.0931 10.1483 19.5504 10.1188 19.7533 10.3632C20.0439 10.6863 20.3969 11.2114 20.5457 11.6346C20.7151 12.1151 20.3942 12.8435 20.2878 13.3291C20.1542 13.9385 20.5165 13.6611 20.6186 14.0296C20.7832 14.6245 20.3642 14.9259 20.1613 15.3954C20.0731 16.1143 19.9062 16.018 19.5568 16.3869C19.2624 17.5162 19.3069 18.7083 19.172 19.9265C19.1256 20.0737 19.0372 20.2037 18.9179 20.3002C18.7941 20.2847 18.3979 20.1802 17.8651 20.2535C17.8011 20.2522 17.9694 20.0511 18.0336 20.0224C18.512 19.8094 18.5931 19.7782 18.9703 19.3669C19.1502 19.1705 18.5499 19.5218 18.5716 19.3669C18.5844 19.275 18.7312 19.2513 18.7811 19.1652C18.9415 18.8866 18.4232 19.0988 18.4321 18.9635C18.4766 18.8657 18.7312 18.7829 18.8308 18.56C18.9937 18.3573 18.1462 18.7781 18.4393 18.4815C18.547 18.3725 18.7507 18.3028 18.8109 18.1566C19.0306 17.6236 18.306 18.2848 18.3027 18.1163C18.4753 17.909 18.7244 17.7753 18.9008 17.5618C19.257 17.1823 18.5203 17.5541 18.4321 17.5466C18.4863 17.4357 18.9331 17.0027 19.0498 16.876C19.3976 16.4992 18.1174 17.2554 18.0621 17.1433C18.0659 17.0735 18.5818 16.8387 18.6014 16.7549C18.7995 16.6766 18.9585 16.3022 18.7708 16.1801C18.685 16.1244 18.2714 16.267 18.3025 16.2306C18.5745 15.9126 18.9558 15.6828 19.1993 15.333C19.439 14.9884 18.8144 15.1176 18.7012 15.0506C18.6457 15.0183 18.8254 14.798 18.8306 14.7954C19.15 14.6408 18.9914 14.6635 19.2094 14.4154C19.2454 14.1329 18.9947 14.0193 18.9782 13.8871ZM10.9532 8.98716C10.8662 8.99009 10.8505 8.8179 10.9232 8.81559C12.07 8.79025 13.1217 8.68823 14.731 8.62727C16.159 7.78055 17.1169 7.26795 18.4464 6.89256C18.5107 6.88188 18.5078 6.98263 18.4464 7.03919C18.0808 7.35698 16.3367 7.74284 14.8689 9.16166C14.7784 9.04351 12.9242 8.91866 10.9532 8.98716ZM18.7008 6.8094C18.7469 6.79829 18.7917 6.81966 18.8006 6.85695C18.8213 6.94556 18.653 6.98557 18.6325 6.89696C18.624 6.85988 18.6546 6.8205 18.7008 6.8094ZM17.6916 10.0494C17.8388 10.0178 17.9702 10.0463 17.9843 10.1131C18.0089 10.2292 17.4757 10.3532 17.4494 10.2283C17.4355 10.1615 17.544 10.0813 17.6916 10.0494ZM18.3929 10.2447C18.4074 10.3211 18.2923 10.4133 18.1354 10.4498C17.9789 10.486 17.839 10.4533 17.8241 10.3769C17.7982 10.2426 18.3683 10.1192 18.3929 10.2447ZM6.26509 10.963C6.3274 10.9427 6.39075 10.9655 6.40648 11.0139C6.42201 11.0623 6.38413 11.1186 6.32181 11.1392C6.25971 11.1597 6.19636 11.1369 6.18063 11.0883C6.1651 11.0397 6.20299 10.9833 6.26509 10.963ZM10.8029 20.3C10.8313 20.3 10.8544 20.3312 10.8544 20.3697C10.8544 20.4607 10.6104 20.5486 10.6104 20.4575C10.6104 20.4192 10.7745 20.3 10.8029 20.3ZM10.9281 20.1626C10.8151 20.0193 10.6812 19.6049 10.5681 19.2191C10.3001 18.3034 10.5872 16.1717 11.0143 15.4367C11.0302 15.4092 11.1735 15.3099 11.1248 15.4266C11.0167 15.6866 10.8431 16.837 10.7687 17.127C10.6189 17.7127 10.7586 18.2496 10.7915 18.9539C10.8116 19.382 11.3438 20.2133 11.7736 20.3019C11.9007 20.328 12.1793 20.4173 12.3534 20.4954C12.4089 20.5204 12.3818 20.6607 12.3234 20.6768C11.8843 20.7996 11.2178 20.5285 10.9281 20.1626ZM11.4436 17.3239C11.5254 17.3239 11.592 17.3603 11.592 17.405C11.592 17.4496 11.5254 17.4858 11.4436 17.4858C11.2821 17.4856 11.2821 17.3239 11.4436 17.3239ZM1.47431 18.8026C1.38608 18.8282 1.30031 18.8618 1.21803 18.9029C1.1412 18.9403 1.07417 18.9955 1.02239 19.064C0.973332 19.1298 0.961325 19.2065 0.98596 19.2926C1.02115 19.4185 1.10417 19.4859 1.23417 19.4958C1.36418 19.5058 1.50495 19.4884 1.65607 19.4449C1.80802 19.4007 1.93679 19.3397 2.04154 19.262C2.1465 19.1839 2.18148 19.0823 2.14567 18.9562C2.12124 18.8699 2.07093 18.8116 1.99537 18.7817C1.9194 18.7517 1.83638 18.7414 1.7453 18.7502C1.65421 18.759 1.56436 18.7766 1.47431 18.8026ZM1.75668 19.7987C1.61822 19.8395 1.47349 19.854 1.32981 19.8414C1.19421 19.8312 1.06394 19.7836 0.953045 19.704C0.84374 19.6254 0.768593 19.5125 0.726775 19.3655C0.685165 19.2193 0.689719 19.0829 0.740438 18.9574C0.792397 18.8298 0.878051 18.719 0.98803 18.6373C1.10307 18.5491 1.23348 18.4835 1.37246 18.444C1.51055 18.4031 1.655 18.3888 1.79829 18.4019C1.93411 18.4124 2.06448 18.4604 2.17527 18.5405C2.28458 18.6199 2.35972 18.7331 2.40113 18.8797C2.44274 19.0255 2.43818 19.1612 2.38705 19.2867C2.33512 19.4141 2.24962 19.5246 2.13987 19.6062C2.02499 19.6937 1.89507 19.759 1.75668 19.7987ZM1.08968 17.8298L1.03813 17.5627C1.01979 17.4702 1.02078 17.3749 1.04103 17.2828C1.06034 17.1943 1.10481 17.1134 1.16896 17.0501C1.23417 16.9847 1.32091 16.9416 1.4298 16.9206C1.53518 16.8995 1.62916 16.906 1.71093 16.9391C1.7925 16.9724 1.85833 17.0247 1.90863 17.096C1.95894 17.1674 1.99289 17.2476 2.00986 17.3375L2.132 17.9714L0.471317 18.2982L0.27403 17.273L0.557643 17.217L0.690548 17.9085L1.08968 17.8298ZM1.32402 17.5445L1.36832 17.7747L1.78649 17.6926L1.74364 17.4697C1.71176 17.3031 1.62606 17.2334 1.48777 17.2608C1.34762 17.2885 1.29317 17.3832 1.32402 17.5445ZM1.78484 14.5612L1.85543 16.61L0.164933 16.6695L0.153132 16.3293L1.55526 16.2794L1.53559 15.7157L0.133673 15.7651L0.12208 15.4247L1.5242 15.3753L1.50454 14.8109L0.102414 14.8604L0.0908203 14.5175L1.49998 14.4678L1.49584 14.3394L2.19018 14.3145L2.19804 14.5464L1.78484 14.5612ZM0.505475 13.0291L0.455584 13.748L0.860922 13.7765L0.902533 13.1782L1.18573 13.1984L1.14412 13.7968L1.56933 13.827L1.62212 13.0651L1.90781 13.0852L1.83183 14.1871L0.144024 14.0679L0.217101 13.0088L0.505475 13.0291ZM1.1317 12.2419C1.15282 12.1208 1.15571 12.0242 1.14039 11.9515C1.12549 11.8788 1.06773 11.8338 0.96795 11.8158C0.865684 11.7978 0.795505 11.8187 0.757828 11.8788C0.71953 11.9394 0.690547 12.0292 0.669432 12.1486L0.643969 12.2953L1.10789 12.378L1.1317 12.2419ZM0.303633 12.5802L0.396377 12.0485C0.41211 11.9578 0.430328 11.8809 0.450408 11.8187C0.470282 11.7561 0.500713 11.6997 0.541703 11.6501C0.597804 11.5824 0.668397 11.5328 0.754309 11.5005C0.835617 11.4688 0.923896 11.46 1.00977 11.475C1.14474 11.4988 1.24618 11.5472 1.31408 11.6195C1.38219 11.6918 1.42339 11.7806 1.43664 11.886C1.4503 11.9909 1.44533 12.112 1.42132 12.2494L1.39026 12.4283L2.0285 12.5423L1.96991 12.8776L0.303633 12.5802ZM1.74033 10.2958C1.65313 10.2669 1.56344 10.2464 1.47245 10.2344C1.38829 10.2217 1.30235 10.2294 1.22175 10.257C1.14433 10.2838 1.09216 10.3402 1.06483 10.4255C1.02509 10.5499 1.05614 10.6523 1.15861 10.7344C1.26088 10.8159 1.38674 10.8817 1.53662 10.9307C1.68692 10.9802 1.82686 11.0026 1.95687 10.9971C2.08687 10.9921 2.17217 10.9274 2.21191 10.8029C2.23924 10.7173 2.23013 10.6408 2.18376 10.5731C2.13451 10.503 2.06961 10.4457 1.99434 10.4058C1.91314 10.3614 1.82812 10.3246 1.74033 10.2958ZM1.42401 11.2812C1.28657 11.2369 1.1585 11.1671 1.04641 11.0753C0.935448 10.9846 0.856575 10.8752 0.809582 10.7483C0.762589 10.6213 0.762589 10.4852 0.809582 10.3394C0.856161 10.1948 0.935034 10.0848 1.04641 10.0086C1.16012 9.93235 1.29227 9.88903 1.42856 9.88332C1.5727 9.87542 1.71703 9.89475 1.85419 9.9403C1.99111 9.98464 2.11857 10.0546 2.22992 10.1466C2.3413 10.238 2.41976 10.3475 2.46634 10.4749C2.51291 10.6023 2.51291 10.7388 2.46634 10.8838C2.41976 11.0283 2.34088 11.1379 2.22951 11.2137C2.11601 11.2897 1.98416 11.3329 1.84818 11.3386C1.70449 11.3463 1.56063 11.3269 1.42401 11.2812ZM2.77831 8.5837C2.92736 8.68907 3.02445 8.81057 3.0702 8.94799C3.11595 9.08541 3.1027 9.23707 3.02963 9.40319C2.96442 9.55108 2.87437 9.65687 2.75968 9.72076C2.64354 9.78498 2.51124 9.81303 2.37939 9.80141C2.24027 9.79136 2.09826 9.75344 1.95211 9.68787C1.84986 9.6425 1.75349 9.5846 1.66518 9.51547C1.58444 9.45253 1.5154 9.37557 1.46127 9.28818C1.40952 9.20388 1.37942 9.10782 1.3737 9.00874C1.36708 8.90714 1.38861 8.79988 1.43891 8.68593C1.46893 8.61743 1.50826 8.55479 1.55733 8.49844C1.60598 8.44209 1.66228 8.39621 1.72584 8.36144C1.78939 8.32667 1.8575 8.30551 1.93099 8.29797C2.00407 8.29252 2.09619 8.30216 2.20757 8.32625L2.11586 8.64089C1.88628 8.59271 1.74074 8.63837 1.67947 8.77831C1.64117 8.86482 1.64158 8.94547 1.68029 9.01942C1.71921 9.09378 1.77656 9.15768 1.85232 9.21109C2.00971 9.31998 2.18536 9.39898 2.37069 9.44425C2.46054 9.46582 2.54562 9.46603 2.62574 9.4455C2.70627 9.42456 2.76527 9.37114 2.80357 9.28462C2.86505 9.14511 2.80005 9.00476 2.6098 8.86315L2.77831 8.5837ZM3.54241 7.28596C3.68152 7.4039 3.76826 7.53336 3.80201 7.67455C3.83554 7.81532 3.80904 7.96531 3.72189 8.12431C3.64426 8.26633 3.54531 8.36374 3.42524 8.41716C3.30396 8.47053 3.16992 8.48691 3.03956 8.4643C2.9019 8.44209 2.7634 8.3916 2.62346 8.31347C2.52556 8.25923 2.43462 8.19303 2.35268 8.11635C2.27736 8.04667 2.21502 7.96387 2.16865 7.87188C2.12433 7.78316 2.1025 7.68469 2.10509 7.58531C2.10758 7.48413 2.13821 7.37897 2.19804 7.27004C2.23406 7.20427 2.27857 7.14519 2.33219 7.09366C2.3856 7.0415 2.44543 7.00128 2.51209 6.97174C2.57842 6.94259 2.64989 6.92727 2.72221 6.9267C2.79549 6.92796 2.88637 6.94514 2.99547 6.97928L2.87664 7.28429C2.65203 7.21621 2.50319 7.2491 2.42969 7.38274C2.38436 7.46591 2.37794 7.54614 2.40982 7.62344C2.44232 7.70074 2.49366 7.76924 2.56508 7.82936C2.71193 7.95231 2.88004 8.04663 3.06089 8.10755C3.14887 8.13688 3.23354 8.14442 3.31552 8.13101C3.39729 8.1176 3.46084 8.06963 3.50618 7.98647C3.57926 7.85282 3.5273 7.70744 3.34947 7.54991L3.54241 7.28596ZM2.98678 6.08438L3.81691 6.74089L3.33063 5.63902L3.5391 5.36879L4.87228 6.4229L4.66382 6.69313L3.83492 6.03787L4.31976 7.13849L4.11253 7.40662L2.77955 6.35272L2.98678 6.08438ZM4.21811 3.92903C4.28084 4.03586 4.31065 4.14417 4.30837 4.25435C4.30526 4.36496 4.2622 4.4653 4.17878 4.55643C4.09576 4.6465 4.00012 4.69636 3.89165 4.70641C3.78338 4.71626 3.67407 4.69384 3.56394 4.63833L3.7457 4.44121C3.86535 4.50301 3.96079 4.49547 4.03221 4.41817C4.10032 4.34422 4.10197 4.24681 4.03635 4.12573L4.21811 3.92903ZM4.81866 5.53952L4.42844 4.39973L4.65968 4.14898L5.89681 5.31642L5.66557 5.56738L4.8965 4.84174L5.28569 5.98027L5.05591 6.22913L3.81857 5.06169L4.04836 4.81241L4.81866 5.53952ZM6.78636 3.87289C6.87186 4.03503 6.90415 4.18795 6.88345 4.33123C6.86213 4.47452 6.78201 4.60356 6.64248 4.71793C6.51786 4.81995 6.39054 4.87295 6.25971 4.87672C6.12846 4.88112 6.00342 4.84656 5.88439 4.77387C5.76535 4.70118 5.65563 4.60209 5.55461 4.4764C5.48393 4.38919 5.42414 4.29351 5.37657 4.19151C5.33249 4.09848 5.30548 3.99811 5.29687 3.8953C5.28848 3.79614 5.30463 3.69643 5.34387 3.60517C5.38361 3.51195 5.45089 3.42627 5.54654 3.34793C5.60429 3.30079 5.66743 3.26309 5.73637 3.23523C5.80359 3.20762 5.87521 3.19258 5.94773 3.19082C6.01998 3.18872 6.09058 3.20129 6.15951 3.22852C6.22679 3.25743 6.30484 3.30792 6.39323 3.38103L6.17028 3.619C5.98748 3.47068 5.83719 3.4445 5.7196 3.54086C5.64632 3.60056 5.61071 3.67241 5.61195 3.75642C5.6132 3.84063 5.63555 3.92379 5.67923 4.00612C5.72312 4.08844 5.77591 4.16826 5.83739 4.24534C5.89971 4.32306 5.96574 4.39198 6.03634 4.45252C6.10693 4.51264 6.18249 4.55224 6.26323 4.57067C6.34417 4.5891 6.42097 4.56857 6.49364 4.50887C6.61122 4.41293 6.6166 4.25791 6.51061 4.04445L6.78636 3.87289ZM8.36155 3.47508L8.01024 3.70593L7.59497 3.46147C7.53988 3.42823 7.48367 3.39693 7.42645 3.36762C7.38632 3.34745 7.34303 3.33447 7.29852 3.32928C7.25368 3.32417 7.2085 3.33531 7.171 3.36071L7.11924 3.39527L7.52375 4.0256L7.24138 4.21078L6.31974 2.775L6.60232 2.58961L6.96191 3.14976L6.99482 3.12797C7.04016 3.09865 7.0679 3.06199 7.07825 3.01883C7.08902 2.97547 7.09233 2.91388 7.08819 2.8326L7.07908 2.71236L7.07121 2.55169C7.06855 2.50084 7.06966 2.44987 7.07453 2.39919C7.07949 2.35792 7.09026 2.32147 7.10765 2.28921C7.12483 2.25674 7.15091 2.22909 7.18528 2.20626L7.36518 2.08832L7.52251 2.33362L7.46599 2.3707C7.42107 2.40045 7.3925 2.43459 7.37967 2.47272C7.36704 2.51147 7.36331 2.56405 7.36849 2.63025L7.37843 2.76222C7.39002 2.91807 7.3718 3.01904 7.32357 3.06534C7.36166 3.03999 7.42024 3.03622 7.49891 3.05424C7.57695 3.07183 7.65666 3.10221 7.73718 3.14515L8.36155 3.47508ZM8.40399 1.86585L8.57954 2.58186L8.89648 2.41134L8.40399 1.86585ZM8.4694 1.49632L9.6879 2.7794L9.38235 2.94363L9.08196 2.61328L8.64185 2.84999L8.74453 3.28697L8.44104 3.45057L8.06676 1.71335L8.4694 1.49632ZM9.75187 1.46155C9.7763 1.53256 9.81418 1.57802 9.86573 1.59771C9.91748 1.61719 9.99201 1.61007 10.0889 1.57635C10.0914 1.57551 10.0951 1.57341 10.1009 1.5709C10.1043 1.56888 10.1079 1.5672 10.1117 1.56587L10.3119 1.49611L10.1765 1.09768L9.96468 1.17121C9.77899 1.23573 9.7084 1.33251 9.75187 1.46155ZM10.634 2.44234L10.4034 1.7653L10.1582 1.85056L10.0992 2.62857L9.77402 2.74211L9.85621 1.88345C9.76143 1.88853 9.66787 1.86001 9.59164 1.8028C9.5125 1.74535 9.45337 1.66402 9.42271 1.57048C9.39403 1.48798 9.38887 1.39898 9.40781 1.31366C9.42644 1.22672 9.4664 1.15152 9.52788 1.08846C9.56887 1.04301 9.6171 1.00656 9.67113 0.979325C9.72558 0.952511 9.79369 0.924231 9.87587 0.895742L10.4007 0.712865L10.9519 2.33174L10.634 2.44234ZM13.4535 1.21101C13.4539 1.39494 13.4117 1.54513 13.3264 1.66181C13.2413 1.77829 13.1109 1.85391 12.9343 1.88868C12.777 1.91969 12.64 1.90586 12.5224 1.847C12.405 1.78876 12.3106 1.69868 12.2388 1.57802C12.164 1.44833 12.1123 1.30639 12.086 1.15864C12.064 1.0479 12.0554 0.934848 12.0605 0.822005C12.0659 0.714751 12.0885 0.614828 12.1274 0.522865C12.1663 0.430484 12.2255 0.352766 12.3036 0.289084C12.382 0.225611 12.4812 0.182039 12.6021 0.158368C12.6745 0.144001 12.7486 0.140893 12.8219 0.149151C12.8954 0.157111 12.9648 0.177431 13.0296 0.21011C13.0944 0.242789 13.1503 0.287409 13.1985 0.344178C13.2447 0.401366 13.2898 0.483274 13.3343 0.589481L13.0269 0.693802C12.9343 0.475522 12.8139 0.381466 12.665 0.410584C12.5733 0.428599 12.5085 0.475313 12.4704 0.550098C12.4318 0.628322 12.4125 0.714882 12.4143 0.802313C12.4147 0.895951 12.4242 0.991475 12.4429 1.08846C12.4615 1.18671 12.4882 1.2793 12.5228 1.36582C12.5567 1.45275 12.6054 1.52335 12.6681 1.57802C12.7308 1.63312 12.8081 1.65113 12.9004 1.63312C13.0482 1.60421 13.125 1.47014 13.1304 1.23112L13.4535 1.21101ZM14.7302 0.300815L14.0183 0.325954L14.0324 0.736955L14.625 0.716007L14.635 1.003L14.0423 1.02394L14.0574 1.45506L14.8116 1.42866L14.8215 1.71816L13.7309 1.7565L13.6719 0.0456676L14.7203 0.00879919L14.7302 0.300815ZM16.1611 0.334752L15.7233 0.31925L15.674 1.73786L15.3351 1.72613L15.384 0.307519L14.9461 0.292017L14.9563 0L16.1712 0.0427349L16.1611 0.334752ZM16.713 0.82808L16.9794 0.865996C17.0761 0.879822 17.1631 0.911034 17.2403 0.959633C17.3179 1.00844 17.3765 1.07443 17.4158 1.15801C17.4554 1.2416 17.468 1.33879 17.4519 1.44982C17.4374 1.55791 17.4009 1.64527 17.3432 1.7123C17.2879 1.77854 17.2146 1.82684 17.1324 1.85119C17.0485 1.87611 16.9602 1.88226 16.8737 1.8692L16.2412 1.77933L16.477 0.0842115L16.8101 0.131764L16.713 0.82808ZM16.9035 1.14544L16.6739 1.11255L16.6145 1.53969L16.8368 1.57111C17.0026 1.5952 17.0956 1.53592 17.115 1.39473C17.1351 1.25144 17.0643 1.16807 16.9035 1.14544ZM19.4067 1.54513C19.5216 1.58493 19.6158 1.60316 19.6889 1.59939C19.762 1.59562 19.8154 1.54513 19.8483 1.44814C19.8822 1.34843 19.8729 1.27532 19.8195 1.22798C19.7669 1.18043 19.6837 1.13706 19.57 1.09768L19.4309 1.04887L19.2777 1.49989L19.4067 1.54513ZM19.2061 0.664265L19.7108 0.83981C19.7847 0.864919 19.8568 0.894941 19.9267 0.929678C19.9849 0.959215 20.0346 0.998597 20.0772 1.04741C20.1342 1.11381 20.1718 1.19279 20.1896 1.28349C20.2074 1.37441 20.2025 1.46092 20.1747 1.54283C20.1302 1.67396 20.0671 1.7676 19.9859 1.82437C19.9041 1.88141 19.8061 1.90987 19.7069 1.90544C19.6021 1.90251 19.4845 1.87821 19.3543 1.83275L19.1846 1.77347L18.9734 2.39332L18.6552 2.28293L19.2061 0.664265ZM21.0895 1.73555L20.6298 2.30869L20.9552 2.46203L21.0895 1.73555ZM21.4206 1.5665L21.1407 3.32363L20.8273 3.17532L20.907 2.73457L20.4552 2.52111L20.1718 2.86654L19.8605 2.71948L21.0067 1.37126L21.4206 1.5665ZM22.6372 3.64874C22.5111 3.78113 22.3776 3.85927 22.236 3.88357C22.0948 3.90766 21.9489 3.87016 21.7982 3.77108C21.6636 3.68268 21.5746 3.57647 21.5305 3.45162C21.4859 3.32549 21.4792 3.18879 21.5114 3.05884C21.5425 2.92184 21.6017 2.78526 21.6884 2.64994C21.7487 2.55472 21.8202 2.46734 21.9015 2.38976C21.9756 2.31888 22.0616 2.26198 22.1555 2.22176C22.2468 2.183 22.3422 2.16834 22.4422 2.17756C22.5422 2.18677 22.6436 2.22553 22.7467 2.29319C22.809 2.33425 22.8639 2.38348 22.9113 2.44108C22.9587 2.49869 22.9945 2.56216 23.0189 2.63108C23.0432 2.7 23.0529 2.77185 23.049 2.84622C23.0425 2.92017 23.0189 3.01045 22.9777 3.11813L22.685 2.97736C22.7678 2.75552 22.7461 2.60301 22.6196 2.51964C22.5407 2.4679 22.4623 2.45575 22.3834 2.48256C22.3018 2.51184 22.2285 2.56063 22.1696 2.6248C22.0386 2.76487 21.934 2.92793 21.8609 3.10598C21.8271 3.18627 21.8131 3.27371 21.8201 3.36071C21.8274 3.44429 21.8706 3.51195 21.9491 3.56369C22.0756 3.64686 22.2228 3.60433 22.3906 3.43633L22.6372 3.64874ZM24.0698 3.65168L23.6361 3.29661L22.7533 4.39973L22.4917 4.18564L23.5568 2.85502L24.5151 3.64036L23.45 4.97099L23.1868 4.75501L24.0698 3.65168ZM24.6614 4.80738C24.7488 4.89306 24.8264 4.94941 24.8943 4.97748C24.9626 5.00576 25.0314 4.98293 25.1022 4.90898C25.1742 4.83378 25.1955 4.76318 25.1672 4.69761C25.1388 4.63205 25.0819 4.55726 24.9953 4.47284L24.8893 4.36894L24.5627 4.71102L24.6614 4.80738ZM24.8469 3.924L25.2303 4.29897C25.2961 4.36328 25.3487 4.4211 25.3893 4.47284C25.4359 4.53328 25.4682 4.60368 25.4839 4.67868C25.4995 4.75367 25.498 4.8313 25.4795 4.90563C25.4578 4.99571 25.4172 5.07154 25.3578 5.13417C25.2624 5.23389 25.1661 5.29212 25.0688 5.30867C24.9709 5.32536 24.8702 5.30925 24.7821 5.26279C24.6883 5.21524 24.5921 5.14318 24.4927 5.04598L24.3641 4.91987L23.9137 5.39142L23.6723 5.15533L24.8469 3.924ZM25.9269 6.39965C26.0002 6.34204 26.0668 6.27857 26.1271 6.20965C26.1873 6.14031 26.2277 6.06595 26.2488 5.98613C26.2695 5.90632 26.2525 5.83112 26.1979 5.7601C26.1182 5.65704 26.0167 5.62562 25.8925 5.66563C25.7683 5.70585 25.6443 5.77477 25.5201 5.8728C25.3955 5.97168 25.299 6.07663 25.2303 6.18849C25.1624 6.30077 25.1676 6.40824 25.2473 6.51172C25.3023 6.58211 25.3707 6.61751 25.4518 6.61625C25.5369 6.6144 25.6204 6.59207 25.6953 6.5511C25.7769 6.50792 25.8544 6.45722 25.9269 6.39965ZM25.2961 5.58267C25.4094 5.49236 25.5383 5.4241 25.6762 5.38136C25.8057 5.33967 25.9439 5.33431 26.0762 5.36586C26.206 5.39749 26.318 5.47353 26.4113 5.59398C26.5039 5.71423 26.55 5.84201 26.5496 5.97817C26.5492 6.11371 26.5119 6.24421 26.4389 6.36844C26.3658 6.49266 26.2703 6.60117 26.1538 6.69334C26.041 6.78345 25.9125 6.85132 25.775 6.8934C25.645 6.93519 25.5063 6.94011 25.3738 6.90764C25.2431 6.8758 25.1315 6.79934 25.039 6.6791C24.9465 6.55927 24.9007 6.43191 24.9011 6.29637C24.9016 6.16063 24.9384 6.03075 25.0119 5.90674C25.0862 5.78196 25.1825 5.67211 25.2961 5.58267ZM26.7436 8.20705C26.5742 8.27304 26.4202 8.28686 26.2821 8.24832C26.1443 8.20957 26.0275 8.1132 25.9325 7.95924C25.8476 7.82182 25.8112 7.68733 25.8234 7.55536C25.8352 7.42338 25.8841 7.30188 25.9702 7.19086C26.0555 7.08046 26.1666 6.98201 26.3018 6.89633C26.3961 6.83602 26.4972 6.78748 26.603 6.75179C26.6997 6.71908 26.8015 6.70432 26.9034 6.70822C27.0026 6.71199 27.0951 6.73964 27.182 6.79117C27.2686 6.84186 27.3441 6.92063 27.4098 7.026C27.4487 7.08947 27.4777 7.15755 27.4967 7.22982C27.5162 7.30251 27.5218 7.3752 27.5145 7.4481C27.508 7.52094 27.4866 7.59162 27.4518 7.6557C27.4154 7.72001 27.3564 7.79186 27.2744 7.87209L27.0678 7.61904C27.2359 7.45334 27.2795 7.30587 27.1996 7.17599C27.1504 7.09576 27.0839 7.05072 27.0015 7.04192C26.9191 7.03312 26.8345 7.04527 26.7483 7.07942C26.66 7.11441 26.5751 7.15775 26.4948 7.20887C26.4135 7.25967 26.3373 7.31817 26.267 7.38358C26.2028 7.44202 26.1536 7.51534 26.1236 7.59725C26.0956 7.67581 26.1066 7.75562 26.1559 7.83585C26.236 7.96531 26.3871 7.98961 26.609 7.90896L26.7436 8.20705ZM28.1289 8.99554L27.93 8.60004L26.6798 9.24482L26.5258 8.93919L27.776 8.29461L27.577 7.89912L27.8341 7.7663L28.3865 8.86273L28.1289 8.99554ZM27.9586 9.88395C28.0018 9.99833 28.0484 10.0832 28.0989 10.1374C28.1486 10.1921 28.2211 10.2009 28.3157 10.1642C28.4123 10.1263 28.4616 10.0719 28.4633 10.0002C28.4653 9.92878 28.4446 9.8364 28.4018 9.72286L28.3488 9.58376L27.9093 9.75428L27.9586 9.88395ZM28.4964 9.16187L28.6873 9.66588C28.72 9.75197 28.7438 9.82718 28.7585 9.89107C28.7734 9.95538 28.7755 10.0191 28.7653 10.0832C28.7517 10.1711 28.7149 10.2536 28.6589 10.3222C28.6059 10.392 28.5348 10.4456 28.4535 10.4772C28.3254 10.5273 28.2134 10.5386 28.1184 10.5122C28.0226 10.4853 27.9382 10.4276 27.8778 10.3477C27.8128 10.2646 27.7553 10.1582 27.706 10.0281L27.6416 9.85818L27.0367 10.0932L26.9162 9.77544L28.4964 9.16187ZM28.8982 11.3386L28.1693 11.3252L28.2503 11.679L28.8982 11.3386ZM29.234 11.4984L27.694 12.3575L27.616 12.0163L28.0085 11.8082L27.896 11.3166L27.4528 11.3036L27.3756 10.9645L29.1311 11.0485L29.234 11.4984ZM28.8812 13.2803L29.5364 13.1992L29.5776 13.5396L27.8987 13.748L27.8571 13.4076L28.5943 13.3159L28.5264 12.7549L27.7888 12.8466L27.7484 12.5087L29.4276 12.3003L29.4679 12.6382L28.8129 12.7193L28.8812 13.2803ZM29.3669 15.0567L29.3549 14.3361L28.9485 14.343L28.9589 14.9433L28.6746 14.9482L28.6647 14.3482L28.2389 14.3557L28.2517 15.1195L27.9652 15.1247L27.9461 14.0204L29.6375 13.9906L29.6561 15.0516L29.3669 15.0567ZM28.932 16.327L29.5892 16.385L29.5598 16.7262L27.8745 16.5771L27.9041 16.2358L28.644 16.3014L28.6929 15.7377L27.953 15.6723L27.9822 15.3336L29.6673 15.4828L29.6383 15.8215L28.9808 15.7637L28.932 16.327ZM29.4288 17.5024L28.3941 17.2992L29.3224 18.0569L29.2574 18.3933L27.5967 18.0669L27.6615 17.7303L28.6937 17.9333L27.7679 17.176L27.8321 16.8419L29.4932 17.1684L29.4288 17.5024ZM28.5782 19.0779C28.5078 19.0531 28.4492 19.0557 28.4018 19.0846C28.3548 19.1141 28.3148 19.1774 28.2813 19.2758C28.2805 19.2785 28.2792 19.2825 28.278 19.2886L28.2755 19.3008L28.2068 19.5033L28.6001 19.6403L28.673 19.4264C28.7369 19.2383 28.7055 19.1221 28.5782 19.0779ZM27.2717 19.177L27.9403 19.4101L28.0248 19.1621L27.4555 18.6359L27.5675 18.307L28.1848 18.9009C28.2407 18.8213 28.3159 18.7676 28.4105 18.7398C28.5051 18.7119 28.6001 18.715 28.696 18.7481C28.7788 18.7773 28.8487 18.8259 28.905 18.8944C28.9614 18.9629 28.9949 19.0406 29.0065 19.1284C29.0166 19.1897 29.015 19.2503 29.0032 19.3104C28.9871 19.3829 28.9667 19.4544 28.9421 19.5245L28.7614 20.0561L27.1613 19.4985L27.2717 19.177ZM3.36499 21.962L3.09442 21.4687L1.86868 22.156L1.70576 21.8583L3.18406 21.029L3.78151 22.12L2.303 22.9493L2.13925 22.6495L3.36499 21.962ZM3.68318 23.2926C3.75232 23.3934 3.81795 23.4636 3.87943 23.5044C3.94091 23.545 4.01316 23.5358 4.09597 23.4772C4.18105 23.4166 4.21583 23.3519 4.20051 23.2817C4.18499 23.212 4.14317 23.1278 4.07444 23.028L3.99018 22.9063L3.60472 23.1793L3.68318 23.2926ZM4.03179 22.4612L4.33777 22.9034C4.38993 22.9788 4.43113 23.0463 4.46053 23.1045C4.49525 23.1727 4.51396 23.248 4.51518 23.3247C4.5164 23.4013 4.5001 23.4773 4.46756 23.5465C4.43235 23.627 4.37627 23.6963 4.30526 23.7472C4.19285 23.827 4.08748 23.8651 3.98874 23.8632C3.88962 23.8603 3.79411 23.825 3.71651 23.7625C3.63308 23.6978 3.55214 23.6085 3.47327 23.4944L3.37038 23.3456L2.84 23.7214L2.64706 23.4426L4.03179 22.4612ZM5.14679 24.3002L4.50897 24.6572L4.75387 24.9226L5.14679 24.3002ZM5.5161 24.269L4.6073 25.7911L4.37151 25.5349L4.60854 25.1566L4.26862 24.7883L3.87902 25.0003L3.64467 24.7462L5.20496 23.9318L5.5161 24.269ZM6.2212 26.0546C6.26985 26.1225 6.2918 26.2036 6.28683 26.298C6.28186 26.3925 6.24584 26.4786 6.17939 26.5557C6.09605 26.6497 5.97938 26.7067 5.85478 26.7141C5.79405 26.7179 5.73325 26.7077 5.67696 26.6843C5.5869 26.6452 5.47739 26.5691 5.34883 26.4558L4.96337 26.1166L6.07091 24.8275L6.39613 25.1139C6.46755 25.1765 6.52634 25.2318 6.57375 25.2806C6.62054 25.3288 6.66256 25.3822 6.69941 25.4411C6.75117 25.5188 6.77125 25.6061 6.75883 25.7019C6.74695 25.7966 6.70737 25.8855 6.64517 25.9572L6.6402 25.9625C6.60565 26.0023 6.56325 26.0343 6.51572 26.0565C6.4682 26.0788 6.4166 26.0907 6.36425 26.0915C6.31413 26.0927 6.26465 26.0799 6.2212 26.0546ZM6.1533 25.2509L5.87404 25.5758L5.96616 25.6572C6.05124 25.732 6.12763 25.7817 6.19553 25.8064C6.26364 25.8307 6.32802 25.8077 6.3893 25.7358C6.4454 25.6711 6.45658 25.6061 6.42304 25.5414C6.38971 25.4767 6.33465 25.4107 6.25826 25.3432L6.1533 25.2509ZM5.49934 26.2386C5.55399 26.2867 5.60429 26.3247 5.64922 26.3523C5.69435 26.3802 5.74175 26.3929 5.79144 26.3911C5.84091 26.389 5.88832 26.3615 5.93304 26.3092C5.98127 26.2532 6.0057 26.2011 6.00735 26.1525C6.00902 26.1041 5.9941 26.0567 5.96512 26.0182C5.92783 25.9697 5.88573 25.9252 5.83946 25.8854L5.70801 25.7693L5.38879 26.1405L5.49934 26.2386ZM7.49436 26.9795C7.54487 26.9005 7.58772 26.8186 7.6225 26.7338C7.65707 26.6485 7.67135 26.5649 7.66556 26.4828C7.65976 26.4003 7.6196 26.3349 7.54528 26.2859C7.43701 26.2149 7.3306 26.2187 7.22606 26.2976C7.12193 26.3766 7.02691 26.4824 6.941 26.616C6.85509 26.7501 6.79795 26.8815 6.76876 27.0094C6.74019 27.1381 6.77994 27.238 6.88862 27.309C6.96294 27.358 7.0385 27.3685 7.11489 27.3408C7.19459 27.3109 7.26611 27.2622 7.32357 27.1988C7.38712 27.1313 7.4443 27.0578 7.49436 26.9795ZM6.63627 26.4154C6.71422 26.2928 6.81396 26.1859 6.93044 26.1001C7.03933 26.0179 7.16829 25.9672 7.30349 25.9535C7.4366 25.9405 7.5666 25.9757 7.69351 26.0588C7.81916 26.1418 7.90446 26.2474 7.94751 26.376C7.99099 26.5044 7.99803 26.6397 7.96863 26.7817C7.93871 26.9246 7.88268 27.0606 7.80343 27.1827C7.72574 27.3049 7.6261 27.4112 7.50967 27.4963C7.40032 27.5784 7.27092 27.6287 7.13539 27.6419C7.00207 27.6542 6.87186 27.619 6.74578 27.5357C6.61992 27.4529 6.53525 27.3478 6.49219 27.2196C6.44954 27.0909 6.4425 26.9562 6.4719 26.8146C6.5013 26.673 6.55616 26.54 6.63627 26.4154ZM8.94016 27.7611C9.00268 27.8162 9.04222 27.8905 9.05836 27.9833C9.07431 28.0765 9.05837 28.1685 9.01075 28.2588C8.98208 28.3133 8.94253 28.3611 8.89461 28.3994C8.84627 28.4395 8.79034 28.4692 8.73024 28.4867C8.67171 28.5043 8.61002 28.5084 8.54972 28.4987C8.45346 28.4808 8.33029 28.4318 8.17958 28.3508L7.7289 28.1086L8.52157 26.6008L8.90165 26.8054C8.98508 26.8502 9.05464 26.8909 9.11157 26.9275C9.16788 26.9638 9.22067 27.0065 9.26911 27.0547C9.33763 27.119 9.37634 27.199 9.38545 27.2956C9.39501 27.3905 9.37603 27.486 9.33101 27.5698L9.32769 27.5761C9.30313 27.6225 9.2692 27.6631 9.22812 27.6953C9.18686 27.7287 9.13878 27.7524 9.08735 27.7646C9.03883 27.7766 8.98805 27.7754 8.94016 27.7611ZM8.69526 26.9935L8.49569 27.3735L8.60355 27.4313C8.70271 27.4852 8.78821 27.5158 8.86004 27.5246C8.93146 27.5329 8.98922 27.4954 9.03311 27.4121C9.07348 27.336 9.06954 27.27 9.02276 27.2147C8.97597 27.1594 8.90745 27.1075 8.81823 27.0595L8.69526 26.9935ZM8.27791 28.1042C8.3423 28.1386 8.39902 28.1643 8.44932 28.1811C8.49963 28.1978 8.54848 28.1995 8.5961 28.1859C8.64371 28.1729 8.68408 28.1356 8.71617 28.0742C8.75053 28.0091 8.76316 27.9525 8.75343 27.905C8.74432 27.857 8.72072 27.8168 8.68242 27.7837C8.64412 27.7506 8.59361 27.7171 8.53027 27.6831L8.37666 27.6002L8.14832 28.0342L8.27791 28.1042ZM10.2961 28.3518C10.3309 28.2649 10.3574 28.1763 10.3752 28.086C10.3935 28.002 10.392 27.9148 10.3709 27.8315C10.3493 27.7516 10.2978 27.6951 10.2156 27.6614C10.0961 27.6128 9.99242 27.6366 9.90486 27.7345C9.81729 27.8319 9.7438 27.9546 9.685 28.1019C9.626 28.25 9.59412 28.3899 9.5904 28.5213C9.58626 28.6528 9.64443 28.7431 9.76388 28.7921C9.84606 28.8256 9.92245 28.8217 9.99222 28.7796C10.0618 28.7377 10.1216 28.678 10.17 28.5998C10.2189 28.5223 10.2613 28.4396 10.2961 28.3518ZM9.34798 27.9641C9.40155 27.8287 9.47938 27.7046 9.57756 27.5979C9.66873 27.4962 9.78562 27.4215 9.91562 27.3821C10.044 27.3434 10.1783 27.3526 10.3181 27.4104C10.4576 27.467 10.5605 27.5545 10.6271 27.6722C10.694 27.79 10.7263 27.9211 10.7238 28.0663C10.7217 28.2122 10.6924 28.3564 10.6375 28.4913C10.5844 28.6264 10.5068 28.7502 10.4085 28.8562C10.3106 28.9618 10.1974 29.0335 10.0686 29.0716C9.93984 29.1097 9.80549 29.1003 9.66617 29.0431C9.52726 28.9859 9.42458 28.899 9.35833 28.7814C9.29209 28.6639 9.25959 28.5326 9.26207 28.388C9.26414 28.2437 9.29271 28.1021 9.34798 27.9641ZM12.1936 27.508C12.1317 27.6151 12.0524 27.694 11.9558 27.7451C11.8595 27.7965 11.7517 27.8069 11.6326 27.7766C11.5148 27.7468 11.4252 27.6867 11.3637 27.5958C11.3028 27.5049 11.2691 27.3976 11.2635 27.2736L11.5221 27.3388C11.5266 27.4747 11.5796 27.5556 11.6811 27.5811C11.7781 27.6054 11.8632 27.5595 11.9355 27.4429L12.1936 27.508ZM11.0935 28.8194L11.8887 27.9222L12.2176 28.0051L11.809 29.6648L11.4798 29.5819L11.7338 28.5502L10.9393 29.4453L10.6126 29.363L11.0215 27.703L11.348 27.7854L11.0935 28.8194ZM13.9622 28.2433L13.9255 29.3081L14.519 28.2628L14.8575 28.2747L14.7987 29.9839L14.46 29.9724L14.4965 28.9094L13.9032 29.9527L13.567 29.9407L13.6262 28.2314L13.9622 28.2433ZM15.9694 28.882L15.9125 28.2171L16.2493 28.1874L16.3965 29.8913L16.0597 29.9212L15.9949 29.1728L15.4386 29.2224L15.5032 29.9707L15.1689 30L15.0213 28.2961L15.3558 28.2665L15.4132 28.9314L15.9694 28.882ZM17.7978 29.6826L17.4678 29.7478L17.4423 29.6166L17.3566 29.6336C17.2688 29.6511 17.1785 29.6525 17.0902 29.6378C17.0013 29.6231 16.9165 29.5894 16.8414 29.539C16.7663 29.4887 16.7026 29.4227 16.6546 29.3456C16.5987 29.2561 16.5605 29.1565 16.5422 29.0523C16.5134 28.9032 16.5184 28.7695 16.5567 28.6509C16.5922 28.5371 16.6597 28.4362 16.7509 28.3606C16.8437 28.2847 16.9538 28.2335 17.0711 28.2117L17.1691 28.1926L17.1457 28.0688L17.4757 28.0036L17.4991 28.1274L17.5961 28.1082C17.7127 28.084 17.8333 28.0898 17.947 28.1249C18.0597 28.1603 18.1595 28.2287 18.2338 28.3214C18.3126 28.4167 18.3669 28.5389 18.395 28.6876C18.4168 28.8005 18.4184 28.9055 18.4002 29.0025C18.3841 29.0939 18.3488 29.1809 18.2967 29.2574C18.2462 29.3299 18.1815 29.3913 18.1066 29.4375C18.0304 29.4852 17.9461 29.5182 17.858 29.535L17.7723 29.5517L17.7978 29.6826ZM17.2908 29.354L17.3887 29.3349L17.2233 28.4741L17.1279 28.4928C17.0316 28.5116 16.9629 28.5709 16.9209 28.6704C16.8795 28.7658 16.8679 28.8717 16.8877 28.974C16.9018 29.0475 16.9273 29.1156 16.9633 29.1776C16.9997 29.2402 17.0457 29.2876 17.102 29.3213C17.1583 29.354 17.2208 29.3651 17.2908 29.354ZM17.7187 29.2698L17.8158 29.2509C17.8845 29.2346 17.9388 29.2004 17.9783 29.1485C18.0183 29.0963 18.0429 29.0347 18.0539 28.9633C18.0644 28.8908 18.0627 28.8171 18.0487 28.7452C18.0351 28.6789 18.0093 28.6159 17.9727 28.5592C17.9372 28.5017 17.8883 28.4539 17.8303 28.4199C17.7751 28.3878 17.7102 28.3773 17.6479 28.3903L17.5529 28.4088L17.7187 29.2698ZM19.4794 28.3371C19.4496 28.2495 19.412 28.1648 19.367 28.0841C19.3261 28.0087 19.2684 27.944 19.1985 27.8951C19.1306 27.8488 19.0546 27.8405 18.9707 27.87C18.8486 27.9123 18.7867 27.9997 18.7836 28.1316C18.7807 28.2634 18.8051 28.4046 18.856 28.5548C18.9074 28.706 18.974 28.8328 19.0571 28.9344C19.139 29.0364 19.2411 29.0661 19.3634 29.0234C19.4471 28.9941 19.5021 28.9407 19.5276 28.8625C19.5531 28.7844 19.5591 28.6998 19.5454 28.6084C19.532 28.5161 19.5098 28.4252 19.4794 28.3371ZM18.5124 28.6744C18.4649 28.5367 18.4431 28.3913 18.448 28.2456C18.451 28.1082 18.4909 27.9743 18.5633 27.8581C18.6354 27.7437 18.7428 27.6618 18.8856 27.6119C19.0277 27.5623 19.1618 27.5602 19.2887 27.6048C19.4171 27.6505 19.5306 27.7309 19.617 27.8373C19.71 27.9492 19.7815 28.0776 19.8278 28.2161C19.8754 28.3564 19.8973 28.4989 19.8918 28.6436C19.8886 28.7813 19.8482 28.9155 19.775 29.0316C19.7021 29.1459 19.5951 29.2279 19.4527 29.2773C19.3107 29.3267 19.1765 29.3295 19.0504 29.2844C18.9221 29.2386 18.8087 29.158 18.7225 29.0515C18.6299 28.9401 18.5586 28.8122 18.5124 28.6744ZM20.4426 27.8392C20.5525 27.7877 20.6327 27.7347 20.6828 27.6804C20.7329 27.6262 20.737 27.5528 20.6941 27.46C20.65 27.3651 20.5931 27.3189 20.5223 27.3222C20.4523 27.3258 20.3627 27.3528 20.2538 27.4043L20.1203 27.4674L20.3188 27.8981L20.4426 27.8392ZM19.6945 27.348L20.1772 27.1198C20.26 27.0807 20.3325 27.052 20.3944 27.0325C20.4668 27.0097 20.5433 27.0042 20.6182 27.0163C20.693 27.0284 20.7641 27.0578 20.8258 27.1023C20.901 27.155 20.9573 27.2206 20.9933 27.2992C21.051 27.4246 21.0701 27.5363 21.0502 27.6343C21.0306 27.7326 20.9798 27.8218 20.9055 27.8882C20.8287 27.9597 20.7273 28.025 20.6022 28.0841L20.4401 28.1608L20.7134 28.7546L20.4089 28.8983L19.6945 27.348ZM22.0567 26.0863L22.5244 25.7787L23.4452 27.2137L23.1628 27.3989L22.4258 26.2371L22.896 27.5742L22.6413 27.7418L21.6249 26.7633L22.3741 27.9173L22.0919 28.1029L21.1711 26.6682L21.639 26.3607L22.507 27.2504L22.0567 26.0863ZM23.2955 25.542L23.6023 26.2105L23.8814 25.9819L23.2955 25.542ZM23.2899 25.1671L24.7268 26.1908L24.4579 26.4108L24.1016 26.1449L23.7143 26.4621L23.8971 26.8706L23.6303 27.0893L22.9357 25.4572L23.2899 25.1671ZM25.185 25.763L23.9489 24.5966L24.1787 24.3474L25.2032 25.3143L25.5833 24.9023L24.5587 23.9351L24.7896 23.6846L25.8197 24.6566L25.9811 24.4814L26.4894 24.9609L26.2581 25.2117L25.9561 24.9266L25.185 25.763ZM25.341 23.0264L26.2035 23.6374L25.6609 22.564L25.8549 22.2833L27.2398 23.2646L27.0456 23.5455L26.1844 22.9355L26.7258 24.0078L26.5326 24.2866L25.1481 23.3052L25.341 23.0264ZM26.1331 21.842L27.0537 22.3585L26.4037 21.3486L26.5678 21.0489L28.0459 21.8782L27.8822 22.178L26.9624 21.6624L27.6118 22.6711L27.4485 22.969L25.9702 22.1396L26.1331 21.842ZM2.0492 20.2166C2.2616 20.2166 2.43466 20.3919 2.43466 20.6067C2.43466 20.8214 2.2616 20.9967 2.0492 20.9967C1.83701 20.9967 1.66373 20.8214 1.66373 20.6067C1.66373 20.3919 1.8368 20.2166 2.0492 20.2166ZM27.5632 20.2338C27.7758 20.2338 27.9488 20.4091 27.9488 20.624C27.9486 20.7274 27.9079 20.8265 27.8356 20.8996C27.7633 20.9727 27.6653 21.0138 27.5632 21.0139C27.4611 21.0137 27.3632 20.9725 27.291 20.8995C27.2188 20.8264 27.1781 20.7274 27.1779 20.624C27.1779 20.4091 27.351 20.2338 27.5632 20.2338Z" fill="#333333"/>
<path fill-rule="evenodd" clip-rule="evenodd" d="M33.3585 5.77064C33.2636 5.87979 33.236 7.16502 33.236 11.4726V17.0337H34.1676H35.0992V14.565C35.0992 12.4744 35.122 12.0772 35.2486 11.9709C35.3533 11.883 35.6102 11.8617 36.1066 11.8998C36.9494 11.9645 37.293 12.1045 37.4467 12.4458C37.6065 12.8009 37.841 14.2054 37.8431 14.8211C37.8441 15.1051 37.886 15.44 37.9362 15.5653C37.9864 15.6907 38.0547 15.9211 38.0879 16.0773C38.1211 16.2334 38.3004 16.5063 38.4862 16.6837C38.7525 16.9378 38.9393 17.0199 39.3669 17.0708C39.6654 17.1062 40.0188 17.1076 40.1521 17.0737C40.3802 17.0158 40.3945 16.9723 40.3945 16.3379C40.3945 15.6821 40.3868 15.6611 40.1079 15.5628C39.9503 15.5072 39.7737 15.3715 39.7154 15.2613C39.6571 15.1512 39.5572 14.5001 39.4933 13.8146C39.4295 13.1291 39.3414 12.5683 39.2975 12.5683C39.2537 12.5683 39.2178 12.457 39.2178 12.3208C39.2178 11.978 38.4326 11.1791 38.0958 11.1791C37.9578 11.1791 37.8449 11.1344 37.8449 11.0798C37.8449 11.0253 37.8909 10.9806 37.9471 10.9806C38.0033 10.9806 38.1026 10.9352 38.1677 10.8795C38.2328 10.8239 38.3754 10.7012 38.4846 10.6066C38.8414 10.2976 38.9904 9.74987 39.1898 8.01225C39.2466 7.51729 39.4369 7.26802 39.8307 7.17236C40.0871 7.11005 40.1003 7.0781 40.1003 6.52151C40.1003 5.66754 40.0683 5.62219 39.4636 5.62219C39.179 5.62219 38.8356 5.68014 38.7007 5.75099C38.2344 5.99579 37.8467 6.36711 37.8458 6.56984C37.8453 6.68167 37.8033 6.81563 37.7525 6.86753C37.7016 6.91933 37.6088 7.40833 37.5461 7.9541C37.3507 9.65629 37.3359 9.73439 37.1643 9.97522C36.862 10.3995 35.5169 10.669 35.2168 10.3654C35.132 10.2796 35.0992 9.60023 35.0992 7.93425V5.62219L34.2901 5.62596C33.718 5.62864 33.4452 5.67101 33.3585 5.77064ZM100.428 5.74127C100.34 5.83107 100.311 7.23409 100.311 11.447V17.0337H101.242H102.174V12.1218V7.20987H103.792H105.41V12.1218V17.0337H106.342H107.273V11.4849C107.273 8.43308 107.246 5.8655 107.214 5.77917C107.161 5.64035 106.773 5.62219 103.85 5.62219C101.411 5.62219 100.515 5.65335 100.428 5.74127ZM42.7971 8.38813C42.5813 8.42634 42.1954 8.5603 41.9393 8.68592C41.4725 8.91484 40.7868 9.61184 40.7868 9.85733C40.7868 9.92937 40.7427 9.98832 40.6887 9.98832C40.6348 9.98832 40.5907 10.0749 40.5907 10.1809C40.5907 10.2869 40.554 10.3964 40.5092 10.4245C40.3623 10.5163 40.1494 11.9055 40.1502 12.7668C40.1513 13.9784 40.4101 15.0927 40.8762 15.8925C41.1153 16.3027 41.7578 16.8352 42.0138 16.8352C42.0941 16.8352 42.1597 16.875 42.1597 16.9236C42.1597 17.1274 43.7545 17.285 44.2592 17.131C45.0274 16.8966 45.8826 16.3887 45.8849 16.1654C45.8855 16.0972 45.9192 16.0411 45.9596 16.0408C46.0582 16.0399 46.3764 15.4661 46.3764 15.2891C46.3764 15.2117 46.4205 15.1483 46.4744 15.1483C46.5284 15.1483 46.5725 14.9947 46.5725 14.8068C46.5725 14.619 46.6098 14.442 46.6556 14.4134C46.8708 14.2788 46.8483 11.885 46.6221 10.8318C46.5241 10.3761 46.1113 9.56867 45.7996 9.22345C45.1954 8.55394 43.8988 8.19324 42.7971 8.38813ZM56.6239 8.38912C56.3542 8.42763 55.9892 8.53688 55.8129 8.63194C55.3956 8.8568 54.6954 9.56044 54.5126 9.9387C54.4335 10.1024 54.3411 10.2587 54.3074 10.286C54.153 10.4108 53.9907 11.4309 53.9547 12.5031C53.9118 13.786 54.0533 14.6333 54.4465 15.446C54.7072 15.9849 55.5337 16.8352 55.7969 16.8352C55.9012 16.8352 55.9865 16.8748 55.9865 16.9232C55.9865 17.1335 57.461 17.2903 57.988 17.136C59.2982 16.7522 59.9168 16.1402 60.1966 14.951C60.2417 14.7593 60.3084 14.5297 60.345 14.4407C60.4325 14.2272 59.9588 14.0567 59.2784 14.0567H58.7751L58.649 14.5281C58.48 15.1599 58.3043 15.4756 58.0559 15.5935C57.9426 15.6474 57.8497 15.7256 57.8497 15.7672C57.8497 15.891 56.8333 15.8469 56.6645 15.7157C56.4047 15.5138 55.9865 14.7707 55.9865 14.5111C55.9865 14.3768 55.9424 14.2393 55.8884 14.2056C55.7628 14.127 55.7575 11.4364 55.8825 11.2025C55.9331 11.1077 56.0012 10.9033 56.0338 10.7481C56.1318 10.2803 56.9233 9.5914 57.3629 9.5914C57.8422 9.5914 58.5341 10.2141 58.5376 10.6486C58.5384 10.7493 58.5936 10.9881 58.6602 11.1791L58.7813 11.5264L59.4229 11.4705C60.2524 11.3982 60.3216 11.3502 60.2476 10.8985C60.1643 10.389 59.886 9.5914 59.7915 9.5914C59.7483 9.5914 59.7114 9.53563 59.7096 9.46736C59.7041 9.25759 59.3838 8.93886 58.9088 8.67044C58.4029 8.38466 57.4644 8.26915 56.6239 8.38912ZM121.198 8.3661C120.586 8.43794 119.433 9.10656 119.433 9.38936C119.433 9.42538 119.345 9.55031 119.237 9.66721C119.025 9.89841 118.55 11.2588 118.55 11.6383C118.55 11.8597 118.516 11.8737 117.964 11.8737H117.378L117.352 10.162L117.325 8.45025L116.467 8.42157L115.609 8.39289V12.7133V17.0337H116.491H117.374V15.1483V13.2629H117.953H118.532L118.578 13.7839C118.639 14.4662 118.78 14.9821 119.059 15.5347C119.306 16.0246 120.068 16.8352 120.281 16.8352C120.354 16.8352 120.414 16.8798 120.414 16.9344C120.414 16.989 120.565 17.0337 120.751 17.0337C120.937 17.0337 121.116 17.0783 121.149 17.1329C121.182 17.1875 121.491 17.2321 121.836 17.2321C122.18 17.2321 122.489 17.1875 122.522 17.1329C122.555 17.0783 122.712 17.0337 122.871 17.0337C123.03 17.0337 123.159 16.989 123.159 16.9344C123.159 16.8798 123.215 16.8352 123.284 16.8352C123.5 16.8352 124.284 16.0109 124.517 15.5383C124.882 14.7997 124.957 14.3804 124.996 12.8795C125.03 11.5524 125.015 11.3968 124.771 10.622C124.627 10.1643 124.47 9.78986 124.423 9.78986C124.375 9.78986 124.335 9.73409 124.335 9.66582C124.332 9.45585 123.82 8.94243 123.348 8.67689C122.889 8.418 121.933 8.27977 121.198 8.3661ZM128.21 8.3667C127.791 8.4304 127.082 8.70964 127.082 8.81105C127.082 8.85818 127.036 8.89678 126.981 8.89678C126.853 8.89678 126.199 9.5517 126.199 9.67902C126.199 9.73091 126.156 9.78817 126.104 9.80643C126.051 9.82459 125.887 10.1744 125.738 10.5837C125.495 11.2522 125.468 11.4591 125.466 12.6179C125.464 13.9886 125.559 14.5203 125.975 15.446C126.26 16.0813 126.992 16.8352 127.323 16.8352C127.406 16.8352 127.474 16.875 127.474 16.9236C127.474 17.0155 127.868 17.1045 128.691 17.1985C129.396 17.2789 130.319 16.9703 130.872 16.4698C131.213 16.1609 131.691 15.322 131.691 15.0329C131.691 14.9312 131.742 14.7652 131.804 14.6639C132.056 14.2569 131.693 14.0567 130.705 14.0567H130.234L130.121 14.6072C130.038 15.0122 129.918 15.2482 129.669 15.5002C129.37 15.8035 129.272 15.8429 128.818 15.8429C128.35 15.8429 128.278 15.8108 127.977 15.4708C127.487 14.9163 127.363 14.4635 127.305 13.0297C127.264 12.0093 127.288 11.6277 127.424 11.1195C127.518 10.7702 127.633 10.4845 127.681 10.4845C127.729 10.4845 127.768 10.4112 127.768 10.3217C127.768 10.0549 128.524 9.5914 128.958 9.5914C129.27 9.5914 129.828 9.96897 129.828 10.1797C129.828 10.2382 129.867 10.286 129.915 10.286C129.962 10.286 130.04 10.5428 130.086 10.8566L130.171 11.4272L130.931 11.4222C131.349 11.4195 131.739 11.3681 131.799 11.3081C131.908 11.1975 131.883 11.0812 131.522 10.0314C131.34 9.49901 130.767 8.8302 130.299 8.60118C129.918 8.41473 128.753 8.28404 128.21 8.3667ZM47.5205 8.46682C47.4845 8.50314 47.455 10.4456 47.455 12.7833V17.0337H48.3355H49.2159L49.2425 15.1731L49.2692 13.3125L50.34 13.2841C51.1305 13.2633 51.4316 13.2892 51.4907 13.3834C51.5346 13.4536 51.5713 14.3036 51.5722 15.2723L51.5737 17.0337H52.4072H53.2407V12.7171V8.40063H52.4096H51.5783L51.5515 10.1124L51.5246 11.8241L50.3724 11.8521L49.2202 11.8799V10.2973C49.2202 9.42677 49.1934 8.64395 49.1606 8.55762C49.1135 8.43318 48.9439 8.40063 48.3435 8.40063C47.9267 8.40063 47.5563 8.4304 47.5205 8.46682ZM59.854 8.67352C59.8894 8.82365 60.0224 9.16967 60.1496 9.44255C60.8333 10.9094 61.0858 11.4844 61.0858 11.5748C61.0858 11.6301 61.1299 11.6752 61.1838 11.6752C61.2377 11.6752 61.2819 11.7428 61.2819 11.8255C61.2819 11.908 61.3239 12.0532 61.3752 12.148C61.4266 12.2427 61.6293 12.6775 61.8255 13.1141C62.0219 13.5507 62.2447 14.0376 62.3206 14.1961C62.3965 14.3545 62.4586 14.5443 62.4586 14.6178C62.4586 14.6912 62.5028 14.7514 62.5567 14.7514C62.7169 14.7514 62.6682 15.2294 62.4859 15.4449C62.393 15.5546 62.2411 15.6444 62.1485 15.6444C62.0557 15.6444 61.9508 15.6922 61.9151 15.7505C61.8795 15.8089 61.6452 15.8437 61.3945 15.8279L60.9387 15.7992L60.909 16.4322C60.8885 16.8714 60.9186 17.0903 61.0071 17.1472C61.1885 17.2636 62.3369 17.252 62.4096 17.1329C62.4429 17.0783 62.5669 17.0325 62.6851 17.0311C63.1307 17.0258 64.0616 15.7873 64.2791 14.9102C64.3146 14.7672 64.3828 14.6257 64.4308 14.5958C64.4787 14.5657 64.5179 14.4412 64.5179 14.3188C64.5179 14.1965 64.5531 14.0541 64.5959 14.0022C64.6388 13.9504 64.7568 13.64 64.8583 13.3125C64.9598 12.9851 65.0793 12.6747 65.1237 12.6229C65.1681 12.5711 65.2044 12.4348 65.2044 12.3202C65.2044 12.2056 65.2411 12.0695 65.2859 12.0176C65.3307 11.9658 65.4487 11.6421 65.548 11.2984C65.6473 10.9546 65.7651 10.6506 65.8097 10.6227C65.8543 10.5948 65.8908 10.4656 65.8908 10.3356C65.8908 10.2056 65.9311 10.0741 65.9804 10.0433C66.0296 10.0124 66.0996 9.80911 66.136 9.5914C66.1724 9.37368 66.2424 9.17036 66.2916 9.1395C66.3408 9.10874 66.3811 8.92794 66.3811 8.73772V8.3919L65.6702 8.42108L64.9592 8.45025L64.805 8.9206C64.7202 9.17929 64.6208 9.42112 64.5843 9.45813C64.5479 9.49504 64.5179 9.62196 64.5179 9.74024C64.5179 9.85852 64.4894 9.98415 64.4545 10.0195C64.3605 10.1146 64.0345 11.1022 64.0309 11.3031C64.0291 11.3987 63.9835 11.4768 63.9296 11.4768C63.8756 11.4768 63.8315 11.608 63.8315 11.7686C63.8315 11.9292 63.7874 12.088 63.7334 12.1218C63.6795 12.1555 63.6354 12.2612 63.6354 12.3567C63.6354 12.4522 63.5784 12.6092 63.5088 12.7055C63.3676 12.901 63.3539 12.8828 63.0033 12.0225C62.9142 11.8042 62.7994 11.5481 62.7481 11.4533C62.6967 11.3586 62.6548 11.2134 62.6548 11.1309C62.6548 11.0482 62.6106 10.9806 62.5567 10.9806C62.5028 10.9806 62.4586 10.913 62.4586 10.8304C62.4586 10.7478 62.4167 10.6026 62.3653 10.5079C62.314 10.4131 62.1999 10.157 62.1119 9.9387C62.0238 9.72039 61.9114 9.46428 61.862 9.36952C61.8126 9.27475 61.7722 9.12958 61.7722 9.04702C61.7722 8.96436 61.7329 8.89678 61.6847 8.89678C61.6367 8.89678 61.5696 8.78515 61.5358 8.64871C61.4761 8.40818 61.4487 8.40063 60.632 8.40063H59.7897L59.854 8.67352ZM66.7294 8.6239C66.7031 8.74665 66.6379 9.8742 66.5845 11.1295C66.5312 12.3847 66.4493 13.6573 66.4025 13.9575C66.2364 15.0238 65.814 15.6444 65.2545 15.6444C64.8202 15.6444 64.7141 15.8042 64.7141 16.4581V17.0337H65.5476C66.0379 17.0337 66.3811 16.9928 66.3811 16.9344C66.3811 16.8798 66.4459 16.8352 66.525 16.8352C66.918 16.8352 67.754 15.585 67.754 14.9971C67.754 14.8684 67.7981 14.7355 67.8521 14.7017C67.906 14.668 67.9501 14.4943 67.9501 14.3155C67.9501 14.1368 67.9956 13.7487 68.0512 13.4531C68.1069 13.1575 68.1841 12.2235 68.2228 11.3775L68.2934 9.83947L69.0693 9.8102C69.6239 9.78926 69.8683 9.81764 69.9259 9.90943C69.9702 9.98008 70.0071 11.612 70.008 13.5358L70.0095 17.0337H70.843H71.6765V12.7171V8.40063H69.2268H66.7771L66.7294 8.6239ZM72.7262 8.46315C72.6882 8.50155 72.6571 10.4456 72.6571 12.7833V17.0337H74.7597C75.9162 17.0337 76.886 16.9948 76.915 16.9472C76.9441 16.8997 77.0942 16.8353 77.2487 16.8039C77.5735 16.7382 78.1672 16.1735 78.393 15.7154C78.5797 15.3366 78.6277 13.3418 78.4515 13.2824C78.3927 13.2625 78.3441 13.1942 78.3432 13.1306C78.3411 12.9787 77.8089 12.3698 77.6781 12.3698C77.6223 12.3698 77.5619 12.3363 77.5439 12.2954C77.4453 12.0709 76.4762 11.8727 75.4788 11.8732L74.4269 11.8737L74.4001 10.162L74.3732 8.45025L73.5842 8.42177C73.1502 8.40609 72.7641 8.42465 72.7262 8.46315ZM77.4243 8.55603C77.3912 8.64325 77.3642 8.95652 77.3642 9.25223V9.78986H78.2853C79.0347 9.78986 79.2174 9.81913 79.2659 9.94684C79.2986 10.0332 79.3254 11.663 79.3254 13.5687V17.0337H80.208H81.0905V13.4118V9.78986H81.9776H82.8646L82.8357 9.12005L82.8066 8.45025L80.1455 8.42385C77.7829 8.40044 77.4776 8.41522 77.4243 8.55603ZM83.9589 8.66925C83.8915 8.81621 83.8363 8.99502 83.8363 9.06677C83.8363 9.13851 83.797 9.27475 83.7489 9.36952C83.6262 9.61124 83.346 10.6172 83.346 10.8157C83.346 10.9064 83.3018 10.9806 83.2479 10.9806C83.194 10.9806 83.1498 11.1369 83.1498 11.3279C83.1498 11.5189 83.1057 11.6752 83.0518 11.6752C82.9978 11.6752 82.9537 11.7495 82.9537 11.8401C82.9537 12.0386 82.6735 13.0446 82.5508 13.2863C82.5027 13.3811 82.4634 13.562 82.4634 13.6882C82.4634 13.8145 82.4252 13.9603 82.3785 14.0121C82.3317 14.064 82.2144 14.4189 82.1178 14.801C82.0211 15.183 81.9049 15.538 81.8595 15.5899C81.8141 15.6417 81.777 15.8002 81.777 15.9421C81.777 16.084 81.7387 16.2426 81.6919 16.2944C81.6451 16.3463 81.58 16.5338 81.5472 16.7112L81.4877 17.0337H82.3188H83.1498V16.7418C83.1498 16.5813 83.194 16.4224 83.2479 16.3887C83.3018 16.3549 83.346 16.2487 83.346 16.1527C83.346 16.0567 83.4138 15.7467 83.4969 15.464L83.6477 14.9498H84.7659C85.5232 14.9498 85.9073 14.9878 85.956 15.0676C86.0523 15.2254 86.2977 16.198 86.3581 16.6615L86.4065 17.0337H88.2082H90.0099L90.0366 15.1731L90.0633 13.3125L90.9949 13.2834C92.4982 13.2365 92.3677 13.0543 92.3677 15.1998V17.0337H93.2013H94.0348V12.7171V8.40063H93.2013H92.3677V10.1372V11.8737H91.191H90.0142V10.1333V8.39289L89.1562 8.42157L88.2981 8.45025L88.2475 12.6675C88.2197 14.987 88.1865 16.787 88.174 16.6674C88.1613 16.5478 88.1069 16.4224 88.053 16.3887C87.999 16.3549 87.9549 16.1737 87.9549 15.9859C87.9549 15.798 87.9156 15.6444 87.8675 15.6444C87.8196 15.6444 87.7569 15.4993 87.7285 15.3219C87.674 14.9825 87.4286 14.0442 87.0732 12.8164C86.9187 12.2824 86.6699 11.3336 86.618 11.0798C86.5901 10.9434 86.5315 10.7425 86.4878 10.6333C86.4441 10.5242 86.3604 10.2562 86.3019 10.0379C86.2433 9.81962 86.1182 9.36198 86.0238 9.02082L85.8522 8.40063L84.9668 8.40143C84.1016 8.40212 84.0786 8.40828 83.9589 8.66925ZM94.4271 9.09366V9.78986H95.3586H96.2902V13.4118V17.0337H97.1728H98.0554V13.4118V9.78986H98.9915H99.9275L99.8986 9.12005L99.8695 8.45025L97.1483 8.42385L94.4271 8.39746V9.09366ZM109.598 10.6085C109.521 13.6592 109.322 14.8412 108.799 15.3589C108.584 15.5725 108.417 15.6444 108.137 15.6444H107.764V16.339V17.0337H108.548C109.006 17.0337 109.333 16.9923 109.333 16.9344C109.333 16.8798 109.39 16.8352 109.461 16.8352C109.711 16.8352 110.23 16.2932 110.453 15.7988C110.874 14.8651 111.072 13.5542 111.159 11.1047L111.206 9.78986H112.035H112.863V13.4118V17.0337H113.745H114.628V12.7171V8.40063H112.141H109.654L109.598 10.6085ZM44.0054 9.74629C44.6859 10.0898 44.9531 10.9274 44.9531 12.7171C44.9531 14.1673 44.76 15.0614 44.3485 15.5165C44.285 15.5869 44.1857 15.6444 44.1279 15.6444C44.0701 15.6444 44.0229 15.6891 44.0229 15.7437C44.0229 15.7982 43.7801 15.8429 43.4835 15.8429C43.1869 15.8429 42.9442 15.7982 42.9442 15.7437C42.9442 15.6891 42.8969 15.6444 42.8391 15.6444C42.3969 15.6444 41.9637 14.1871 41.9636 12.6985C41.9635 11.8997 42.1671 10.742 42.3777 10.3439C42.7293 9.67902 43.3909 9.4361 44.0054 9.74629ZM122.257 9.73081C122.628 9.9263 122.963 10.345 122.963 10.6143C122.963 10.7393 123.011 10.89 123.069 10.9492C123.137 11.0178 123.176 11.6574 123.176 12.7171C123.176 13.7769 123.137 14.4165 123.069 14.4851C123.011 14.5442 122.963 14.7176 122.963 14.8704C122.963 15.0232 122.919 15.1483 122.865 15.1483C122.811 15.1483 122.767 15.2122 122.767 15.2904C122.767 15.5496 122.228 15.8429 121.752 15.8429C121.367 15.8429 121.258 15.7928 120.958 15.4804C120.766 15.281 120.61 15.022 120.61 14.9049C120.61 14.7877 120.562 14.6434 120.503 14.5843C120.339 14.4177 120.354 11.4121 120.522 10.8202C120.701 10.1926 121.274 9.5914 121.693 9.5914C121.858 9.5914 122.112 9.65411 122.257 9.73081ZM85.013 11.0929C85.013 11.2431 85.0572 11.3934 85.1111 11.4272C85.165 11.4609 85.2092 11.6002 85.2092 11.7368C85.2092 11.9574 85.3277 12.4321 85.5967 13.2877L85.6824 13.5606H84.8574C84.2332 13.5606 84.0324 13.5282 84.0324 13.4276C84.0324 13.3545 84.1264 12.9414 84.2412 12.5098C84.356 12.078 84.4712 11.5793 84.4972 11.4015C84.5231 11.2235 84.5836 11.0535 84.6316 11.0235C84.6796 10.9934 84.7202 10.8487 84.722 10.7019C84.7249 10.4457 84.7309 10.4427 84.8691 10.6275C84.9482 10.7334 85.013 10.9429 85.013 11.0929ZM76.0427 13.2206C76.6451 13.4754 76.8738 13.832 76.8738 14.5163C76.8738 15.3969 76.3646 15.7361 75.0352 15.7413L74.4223 15.7437V14.4041V13.0644H75.0477C75.395 13.0644 75.8375 13.1339 76.0427 13.2206ZM37.7508 19.2832C37.3536 19.4582 36.9479 19.8968 36.9863 20.1098C37.0037 20.2064 37.1502 20.2688 37.4045 20.2877C37.7332 20.3121 37.8116 20.2804 37.8939 20.0892C37.9776 19.8951 38.0763 19.8573 38.5658 19.8316C39.0267 19.8075 39.1659 19.8368 39.2736 19.9805C39.3851 20.1292 39.4723 20.6018 39.3894 20.6077C37.4426 20.7477 36.9758 20.9641 36.8862 21.7676C36.8254 22.3133 37.0352 22.7776 37.4259 22.9626C37.9809 23.2254 38.9537 23.0549 39.237 22.6453C39.2745 22.591 39.3186 22.5677 39.3351 22.5934C39.3514 22.6191 39.4143 22.7295 39.4747 22.8386C39.5569 22.9872 39.6865 23.0371 39.9896 23.0371H40.3948L40.3946 23.5065C40.3945 23.9205 40.4226 23.9831 40.6319 24.0363C41.1045 24.1563 41.2258 24.0634 41.258 23.5571L41.2879 23.0867H42.3612H43.4345L43.4359 23.4588C43.438 23.9577 43.5454 24.1015 43.8864 24.0621L44.1699 24.0294L44.1984 23.2107C44.2252 22.4434 44.2144 22.3921 44.0268 22.3921C43.8338 22.3921 43.8267 22.3364 43.8267 20.8044V19.2167H42.707C42.0912 19.2167 41.5175 19.2438 41.4322 19.2769C41.3075 19.3254 41.2771 19.5037 41.2771 20.1878C41.2771 21.3302 40.9424 22.3921 40.5824 22.3921C40.487 22.3921 40.3887 22.4702 40.364 22.5657C40.3394 22.6613 40.3141 22.1448 40.3078 21.418C40.2942 19.8333 40.2219 19.6372 39.5214 19.2853C39.1092 19.0781 38.2185 19.0771 37.7508 19.2832ZM45.6409 19.2167C45.6075 19.2713 45.5149 19.3159 45.4349 19.3159C45.2961 19.3159 45.1394 19.4195 44.8775 19.6846C44.5999 19.9655 44.5132 20.113 44.5132 20.3041C44.5132 20.4155 44.469 20.5067 44.4151 20.5067C44.3612 20.5067 44.317 20.7502 44.317 21.0478C44.317 22.2865 45.0689 23.0867 46.2326 23.0867C46.5108 23.0867 46.8767 23.0169 47.0456 22.9316C47.3373 22.7844 47.9454 22.1363 47.9454 21.9725C47.9454 21.9304 47.7668 21.8959 47.5484 21.8959C47.251 21.8959 47.0946 21.9581 46.9243 22.144C46.744 22.3409 46.6019 22.3921 46.2355 22.3921C45.7368 22.3921 45.5561 22.2731 45.3921 21.8367C45.2025 21.3322 45.2778 21.3005 46.6675 21.3005H47.9454V20.8044C47.9454 20.5315 47.9012 20.3082 47.8473 20.3082C47.7934 20.3082 47.7479 20.2301 47.7461 20.1346C47.7413 19.8662 47.5236 19.6348 47.0217 19.3648C46.5487 19.1102 45.7577 19.0254 45.6409 19.2167ZM48.1415 19.4648C48.1415 19.676 48.1895 19.8124 48.2641 19.8129C48.4006 19.8137 48.6318 20.2557 48.6318 20.5158C48.6318 20.6083 48.698 20.7096 48.7789 20.7411C48.8598 20.7724 48.926 20.841 48.926 20.8934C48.926 20.9458 48.8598 21.0556 48.7789 21.1375C48.698 21.2194 48.6318 21.3342 48.6318 21.3927C48.6318 21.4512 48.5877 21.499 48.5337 21.499C48.4798 21.499 48.4357 21.5794 48.4357 21.6777C48.4357 21.9467 48.207 22.3904 48.0679 22.3913C47.9934 22.3918 47.9454 22.5281 47.9454 22.7394C47.9454 23.0674 47.9636 23.0867 48.2752 23.0867C48.6466 23.0867 49.1221 22.6892 49.1221 22.3786C49.1221 22.2769 49.1662 22.1936 49.2202 22.1936C49.2741 22.1936 49.3182 22.0889 49.3182 21.9609C49.3182 21.6603 49.6062 21.3998 49.9389 21.3998H50.2008V22.2432V23.0867H50.593H50.9853V22.2432V21.3998H51.2577C51.5576 21.3998 51.8679 21.6954 51.8679 21.9811C51.8679 22.2529 52.147 22.7671 52.3868 22.937C52.5029 23.0193 52.7426 23.0867 52.9194 23.0867C53.2213 23.0867 53.2407 23.0656 53.2407 22.7394C53.2407 22.5164 53.194 22.3921 53.1102 22.3921C53.0384 22.3921 52.9229 22.2692 52.8536 22.1192C52.7843 21.9692 52.6885 21.7688 52.6409 21.674C52.5932 21.5793 52.5543 21.4448 52.5543 21.3754C52.5543 21.3059 52.4614 21.1904 52.3479 21.1187L52.1415 20.9882L52.3479 20.7659C52.4614 20.6435 52.5543 20.4427 52.5543 20.3196C52.5543 20.081 52.7617 19.8121 52.9458 19.8121C53.0123 19.8121 53.0447 19.6822 53.0263 19.4896C53.0015 19.2289 52.9482 19.1615 52.7485 19.1379C52.4084 19.0977 51.8679 19.5926 51.8679 19.9443C51.8679 20.2816 51.5055 20.7052 51.217 20.7052C51.0081 20.7052 50.9921 20.6595 50.9651 19.9857L50.9363 19.2663L50.5729 19.2358L50.2096 19.2053L50.1807 19.9304C50.1527 20.6326 50.1435 20.6565 49.8916 20.686C49.6146 20.7185 49.3182 20.415 49.3182 20.0991C49.3182 19.6427 48.7875 19.1175 48.3264 19.1175C48.1804 19.1175 48.1415 19.1906 48.1415 19.4648ZM58.0948 19.2167C58.0615 19.2713 57.955 19.3159 57.8582 19.3159C57.5884 19.3159 57.1632 19.7683 57.1632 20.0554C57.1632 20.2747 57.2057 20.3082 57.4832 20.3082C57.71 20.3082 57.8567 20.236 57.9873 20.0602C58.1467 19.8452 58.2477 19.8121 58.7425 19.8121C59.3447 19.8121 59.5167 19.9402 59.5167 20.3885C59.5167 20.5943 59.1906 20.7052 58.5852 20.7052C58.0055 20.7052 57.6725 20.8224 57.3177 21.1512C57.0063 21.4399 56.9675 21.5302 56.9703 21.9589C56.9719 22.2245 57.0271 22.5093 57.0928 22.5919C57.5835 23.2089 58.7017 23.2707 59.3002 22.7137C59.4683 22.5573 59.6148 22.6413 59.6148 22.8941C59.6148 23.0526 59.6841 23.0867 60.0071 23.0867H60.3993L60.3989 21.5734C60.3986 20.2347 60.376 20.0226 60.2023 19.7343C60.0942 19.5551 59.929 19.3844 59.8349 19.3549C59.7408 19.3256 59.5873 19.2601 59.4936 19.2095C59.2652 19.0861 58.1711 19.0918 58.0948 19.2167ZM71.1862 19.2167C71.1862 19.2713 71.1339 19.3159 71.0699 19.3159C71.006 19.3159 70.8515 19.413 70.7267 19.5317L70.4998 19.7475V19.4821C70.4998 19.2486 70.4615 19.2169 70.1811 19.2182C69.5989 19.221 69.6113 19.1618 69.64 21.8036L69.6662 24.2278L70.083 24.2583L70.4998 24.2889V23.4347V22.5804L70.8277 22.8335C71.0716 23.0218 71.2737 23.0867 71.6157 23.0867C72.1696 23.0867 72.4922 22.8923 72.8259 22.3572C73.0407 22.0131 73.0727 21.8497 73.0727 21.0999C73.0727 20.0698 72.9144 19.724 72.2438 19.2898C71.9588 19.1054 71.1862 19.0519 71.1862 19.2167ZM74.3732 19.2167C74.3399 19.2713 74.2375 19.3159 74.1458 19.3159C73.8875 19.3159 73.4416 19.7898 73.4416 20.0641C73.4416 20.2827 73.4826 20.3082 73.8339 20.3082C74.0496 20.3082 74.2261 20.2604 74.2261 20.202C74.2261 19.9595 74.523 19.8121 75.0106 19.8121C75.5745 19.8121 75.7951 19.9611 75.7951 20.3421C75.7951 20.6084 75.7665 20.6175 74.4958 20.7569C74.1856 20.7909 73.932 20.8602 73.932 20.9108C73.932 20.9614 73.8688 21.0029 73.7915 21.0029C73.5526 21.0029 73.2455 21.5479 73.2455 21.9723C73.2455 22.391 73.5423 22.8882 73.792 22.8882C73.869 22.8882 73.932 22.9329 73.932 22.9875C73.932 23.1433 74.9885 23.1034 75.3097 22.9353C75.4688 22.852 75.599 22.7404 75.599 22.6872C75.599 22.634 75.6432 22.5905 75.6971 22.5905C75.751 22.5905 75.7951 22.6384 75.7951 22.6968C75.7951 22.9045 76.08 23.0867 76.4047 23.0867H76.7341L76.6947 21.4742C76.673 20.5874 76.6162 19.8468 76.5685 19.8287C76.5207 19.8104 76.4816 19.7484 76.4816 19.6907C76.4816 19.5452 76.1736 19.3229 75.9668 19.3191C75.8724 19.3173 75.7951 19.2713 75.7951 19.2167C75.7951 19.1601 75.5029 19.1175 75.1145 19.1175C74.7401 19.1175 74.4066 19.1621 74.3732 19.2167ZM81.7641 19.3812C81.1734 19.7026 80.8662 20.2766 80.8562 21.0776C80.8522 21.3912 80.9122 21.8041 80.9894 21.9952C81.1371 22.3608 81.6425 22.884 81.8505 22.8866C81.918 22.8875 81.9731 22.9329 81.9731 22.9875C81.9731 23.0441 82.2673 23.0867 82.6595 23.0867C83.0518 23.0867 83.346 23.0441 83.346 22.9875C83.346 22.9329 83.4118 22.8882 83.4922 22.8882C83.7086 22.8882 84.2338 22.2908 84.2966 21.9732C84.3266 21.8216 84.3898 21.6975 84.4369 21.6975C84.5475 21.6975 84.5489 20.7562 84.4387 20.5301C84.0039 19.639 83.7416 19.3256 83.4253 19.3192C83.3341 19.3174 83.2322 19.2713 83.1989 19.2167C83.0836 19.0279 82.2347 19.1252 81.7641 19.3812ZM89.5729 19.2167C89.5396 19.2713 89.4334 19.3159 89.337 19.3159C89.0111 19.3159 88.5165 19.9097 88.6137 20.1842C88.6379 20.2525 88.8034 20.3082 88.9814 20.3082C89.2187 20.3082 89.3482 20.2419 89.4659 20.0602C89.6056 19.8442 89.698 19.8121 90.1773 19.8121C90.7688 19.8121 90.9856 19.9607 90.9917 20.3703C90.9951 20.5961 90.6928 20.7052 90.0633 20.7052C89.4826 20.7052 89.1328 20.8261 88.7871 21.1466C88.4798 21.4314 88.4452 21.5162 88.4452 21.9844C88.4452 22.2721 88.5001 22.5585 88.5678 22.6237C89.1931 23.2268 90.317 23.2606 90.7642 22.69C90.8283 22.6081 90.8954 22.5634 90.9133 22.5907C90.9312 22.6179 90.9945 22.7295 91.0538 22.8386C91.1247 22.9689 91.2846 23.0477 91.5196 23.0678L91.8774 23.0987V21.5392C91.8774 20.0203 91.8709 19.9711 91.6273 19.6478C91.4897 19.4653 91.2938 19.3159 91.1918 19.3159C91.0899 19.3159 90.9792 19.2713 90.9458 19.2167C90.9125 19.1621 90.6036 19.1175 90.2594 19.1175C89.9152 19.1175 89.6063 19.1621 89.5729 19.2167ZM102.223 19.2167C102.19 19.2713 102.087 19.3159 101.996 19.3159C101.744 19.3159 101.095 19.9879 101.095 20.2486C101.095 20.3296 101.051 20.4234 100.997 20.4571C100.807 20.576 100.892 21.6228 101.13 22.0944C101.705 23.2338 103.163 23.4478 104.074 22.5263C104.215 22.383 104.331 22.1826 104.331 22.0809C104.331 21.9792 104.376 21.8959 104.429 21.8959C104.487 21.8959 104.528 21.5652 104.528 21.1021C104.528 20.639 104.487 20.3082 104.429 20.3082C104.376 20.3082 104.331 20.2409 104.331 20.1585C104.331 19.9532 103.863 19.4832 103.458 19.2828C103.092 19.1012 102.319 19.0598 102.223 19.2167ZM113.304 19.2524C112.442 19.76 112.176 20.2205 112.176 21.2048C112.176 21.5785 112.221 21.9118 112.274 21.9455C112.328 21.9793 112.373 22.0744 112.373 22.1569C112.373 22.3469 112.517 22.4927 113.035 22.8231C113.362 23.0322 113.568 23.0867 114.032 23.0867C114.353 23.0867 114.644 23.042 114.677 22.9875C114.71 22.9329 114.805 22.8882 114.886 22.8882C115.085 22.8882 115.559 22.3986 115.631 22.1192C115.683 21.9151 115.654 21.8959 115.295 21.8959C114.992 21.8959 114.857 21.953 114.708 22.144C114.551 22.3467 114.43 22.3921 114.048 22.3921C113.556 22.3921 113.421 22.2982 113.166 21.7813C113.094 21.6364 113.066 21.469 113.102 21.4092C113.145 21.3391 113.637 21.3005 114.487 21.3005H115.805V20.9095C115.805 20.6943 115.761 20.4908 115.707 20.4571C115.653 20.4234 115.609 20.3138 115.609 20.2137C115.609 19.9546 115.121 19.4606 114.683 19.2753C114.255 19.0944 113.591 19.0833 113.304 19.2524ZM117.668 19.206C117.668 19.2546 117.558 19.3225 117.423 19.3567C117.288 19.391 117.178 19.4628 117.178 19.5163C117.178 19.5699 117.133 19.6136 117.08 19.6136C117.026 19.6136 116.981 19.5475 116.981 19.4667C116.981 19.3076 116.616 19.1777 116.327 19.2341C116.159 19.2668 116.148 19.4252 116.148 21.7485V24.2278L116.565 24.2583L116.981 24.2889V23.4396C116.981 22.9397 117.022 22.5905 117.08 22.5905C117.133 22.5905 117.178 22.6464 117.178 22.7146C117.179 22.8943 117.647 23.0867 118.083 23.0867C118.432 23.0867 118.813 22.9149 119.118 22.6201C119.524 22.2275 119.676 20.7528 119.383 20.0432C119.224 19.6571 118.895 19.3159 118.683 19.3159C118.61 19.3159 118.55 19.2713 118.55 19.2167C118.55 19.1621 118.352 19.1175 118.109 19.1175C117.866 19.1175 117.668 19.1573 117.668 19.206ZM119.727 19.4648C119.727 19.7031 119.772 19.8121 119.87 19.8121C119.954 19.8121 120.064 19.9865 120.135 20.2338C120.202 20.4658 120.334 20.7256 120.428 20.8112C120.59 20.9589 120.589 20.9742 120.408 21.1063C120.303 21.1828 120.144 21.4476 120.054 21.6947C119.965 21.9419 119.789 22.2463 119.662 22.3712C119.419 22.6127 119.398 22.6806 119.493 22.9297C119.57 23.1339 120.055 23.134 120.363 22.9298C120.493 22.8435 120.673 22.5644 120.762 22.3096C121.061 21.4591 121.106 21.3998 121.46 21.3998H121.787V22.2432V23.0867H122.119C122.526 23.0867 122.571 22.9872 122.571 22.0862V21.3998H122.853C123.188 21.3998 123.265 21.4891 123.498 22.144C123.728 22.7907 124.034 23.0867 124.472 23.0867C124.719 23.0867 124.829 23.0354 124.871 22.9022C124.944 22.6696 124.843 22.3921 124.685 22.3921C124.561 22.3921 124.395 22.1118 124.286 21.7191C124.251 21.5946 124.117 21.377 123.988 21.2356L123.752 20.9787L123.946 20.7294C124.053 20.5921 124.141 20.4078 124.143 20.3197C124.147 20.1162 124.372 19.8121 124.519 19.8121C124.639 19.8121 124.667 19.5278 124.571 19.2745C124.5 19.0872 124.271 19.0737 123.93 19.2367C123.676 19.3576 123.522 19.6236 123.393 20.1584C123.3 20.5475 123.113 20.7264 122.841 20.6873C122.641 20.6586 122.615 20.5882 122.571 19.9609L122.522 19.2663L122.154 19.2356L121.787 19.2047V19.955V20.7052H121.459C121.203 20.7052 121.107 20.6498 121.018 20.4524C120.955 20.3134 120.904 20.1528 120.904 20.0953C120.904 19.8448 120.58 19.334 120.355 19.2305C119.894 19.0179 119.727 19.0801 119.727 19.4648ZM127.499 19.2524C127.377 19.3133 127.278 19.4194 127.278 19.4883C127.278 19.5573 127.234 19.6136 127.18 19.6136C127.126 19.6136 127.079 19.7141 127.075 19.8369C127.071 19.9597 126.99 20.1941 126.896 20.3579C126.755 20.601 126.65 20.6611 126.319 20.6858L125.914 20.7162L125.885 19.9912L125.856 19.2663L125.439 19.2359L125.023 19.2053V21.1517V23.0981L125.439 23.0675L125.856 23.0371L125.885 22.2184L125.913 21.3998H126.299C126.655 21.3998 126.7 21.4318 126.884 21.8153C126.993 22.0439 127.082 22.2929 127.082 22.3688C127.082 22.4446 127.211 22.6371 127.369 22.7966C127.727 23.1589 128.174 23.1876 128.41 22.8634C128.519 22.7139 128.589 22.6811 128.62 22.7642C128.646 22.8325 128.73 22.8882 128.806 22.8882C128.883 22.8882 128.945 22.9329 128.945 22.9875C128.945 23.0428 129.212 23.0867 129.549 23.0867C130.05 23.0867 130.21 23.0422 130.491 22.8253C130.765 22.6142 130.846 22.5903 130.915 22.7013C130.963 22.7768 131.002 22.8945 131.003 22.9626C131.004 23.0437 131.161 23.0867 131.457 23.0867H131.909L131.841 22.7642C131.804 22.5869 131.744 21.8389 131.708 21.1021C131.671 20.3653 131.606 19.7063 131.562 19.6377C131.387 19.3641 130.675 19.1175 130.06 19.1175C129.723 19.1175 129.42 19.1621 129.386 19.2167C129.353 19.2713 129.259 19.3159 129.177 19.3159C128.958 19.3159 128.455 19.8635 128.455 20.1021C128.455 20.2754 128.515 20.3082 128.836 20.3082C129.134 20.3082 129.252 20.2544 129.377 20.0602C129.519 19.8422 129.608 19.8121 130.114 19.8121C130.661 19.8121 130.696 19.8271 130.789 20.0955C130.842 20.2514 130.852 20.4351 130.81 20.5037C130.767 20.5745 130.394 20.6631 129.949 20.7085C128.748 20.8311 128.259 21.2176 128.259 22.0434C128.259 22.2352 128.216 22.3921 128.163 22.3921C128.048 22.3921 127.768 21.8683 127.768 21.6528C127.768 21.5682 127.724 21.499 127.67 21.499C127.616 21.499 127.572 21.4481 127.572 21.3859C127.572 21.3237 127.495 21.212 127.401 21.1378C127.249 21.0186 127.246 20.9881 127.376 20.8768C127.588 20.6949 127.768 20.3426 127.768 20.1087C127.768 19.9843 127.863 19.8701 128.014 19.8121C128.275 19.7115 128.337 19.4344 128.141 19.2366C128.002 19.0957 127.802 19.1006 127.499 19.2524ZM33.3563 19.2974C33.261 19.3605 33.2377 19.8132 33.2582 21.2086L33.285 23.0371L33.7018 23.0675L34.1185 23.0981V22.2489V21.3998H34.8501H35.5815L35.6101 22.2184L35.6385 23.0371L36.0553 23.0675L36.472 23.0981V21.1517V19.2053L36.0553 19.2359L35.6385 19.2663L35.6096 19.99L35.5807 20.7137L34.8741 20.6846L34.1676 20.6555L34.1185 19.9609C34.07 19.2736 34.0665 19.266 33.7753 19.2404C33.6135 19.2262 33.4249 19.2518 33.3563 19.2974ZM53.4369 21.1517V23.0867H53.8291H54.2214V22.2432V21.3998H55.0059H55.7904V22.2432V23.0867H56.1721C56.4297 23.0867 56.5732 23.0357 56.6134 22.9297C56.6462 22.8434 56.6729 21.9997 56.6729 21.0549C56.6729 19.1789 56.6851 19.2167 56.0808 19.2167H55.799L55.7702 19.9361L55.7413 20.6555H55.0059H54.2704L54.2416 19.9361L54.2127 19.2167H53.8248H53.4369V21.1517ZM61.4998 19.3142C60.9915 19.436 60.7916 19.747 60.7916 20.4154C60.7916 20.9553 60.8128 21.0066 61.1593 21.304C61.3876 21.4999 61.4806 21.6375 61.4045 21.6668C61.3371 21.6928 61.2819 21.7996 61.2819 21.9042C61.2819 22.0087 61.2377 22.0944 61.1838 22.0944C61.1299 22.0944 61.0858 22.1576 61.0858 22.235C61.0858 22.3123 61.0426 22.3904 60.9899 22.4086C60.9372 22.4268 60.8655 22.5869 60.8306 22.7642C60.768 23.0814 60.7729 23.0867 61.1295 23.0867C61.4828 23.0867 61.7722 22.9111 61.7722 22.6968C61.7722 22.6384 61.8163 22.5905 61.8703 22.5905C61.9242 22.5905 61.9683 22.522 61.9683 22.4382C61.9683 22.2733 62.2447 21.7923 62.4073 21.6741C62.5843 21.5455 62.9261 21.5933 62.9875 21.7552C63.0202 21.8415 63.047 22.1764 63.047 22.4994V23.0867H63.4393H63.8315V21.1517V19.2167L62.8264 19.2268C62.2736 19.2325 61.6766 19.2717 61.4998 19.3142ZM66.0134 19.2824C65.9214 19.32 65.8908 19.8008 65.8908 21.2095V23.0867H66.3321H66.7734V21.6064C66.7734 20.7922 66.8002 20.0554 66.8329 19.9691C66.8792 19.847 67.0423 19.8121 67.5659 19.8121H68.2394L68.2664 21.4246L68.2934 23.0371L68.7101 23.0675L69.1269 23.0981V21.1574V19.2167L67.6314 19.2246C66.809 19.2288 66.0809 19.2549 66.0134 19.2824ZM77.2906 19.2766C77.1196 19.3545 77.115 22.7948 77.2857 22.9676C77.4696 23.1537 79.5039 23.1255 79.9652 22.9305C80.5092 22.7004 80.6002 22.5664 80.6002 21.9952C80.6002 21.5356 80.4557 21.2013 80.257 21.2013C80.2223 21.2013 80.1321 21.1387 80.0565 21.0622C79.9385 20.9428 79.9534 20.9002 80.1615 20.7622C80.3639 20.628 80.4036 20.5237 80.4011 20.1323C80.3984 19.7392 80.3552 19.6316 80.1332 19.4678C79.9088 19.302 79.6821 19.2683 78.6409 19.2466C77.9657 19.2324 77.3581 19.246 77.2906 19.2766ZM84.8606 19.3441C84.834 19.4142 84.8243 20.2737 84.8391 21.2543L84.8659 23.0371L85.9873 23.0653C87.6524 23.1072 88.1807 22.8508 88.1931 21.9945C88.1993 21.5712 88.1624 21.4856 87.8569 21.2144L87.5136 20.9097L87.7343 20.7522C87.9076 20.6286 87.9549 20.4985 87.9549 20.1467C87.9549 19.3827 87.604 19.2231 85.9171 19.2191C85.185 19.2174 84.8956 19.2516 84.8606 19.3441ZM92.9874 19.3106C92.6501 19.3935 92.4631 19.5458 92.2852 19.8821C92.0401 20.3454 92.223 21.0886 92.6374 21.3135C92.7587 21.3794 92.858 21.497 92.858 21.5749C92.858 21.7032 92.5855 22.2709 92.4658 22.3921C92.3682 22.4908 92.1716 22.8878 92.1716 22.9861C92.1716 23.1304 92.9479 23.1105 93.0858 22.9626C93.1494 22.8945 93.3303 22.593 93.4878 22.2928C93.8079 21.6829 93.8913 21.6019 94.2021 21.5997C94.4028 21.5983 94.4206 21.6502 94.4473 22.3177L94.4761 23.0371L94.895 23.0677L95.3139 23.0983L95.2873 21.1824L95.2606 19.2663L94.28 19.2501C93.7406 19.2411 93.159 19.2683 92.9874 19.3106ZM97.4915 19.2824C97.4 19.3198 97.3689 19.7693 97.3689 21.0527C97.3689 21.9987 97.3957 22.8434 97.4285 22.9297C97.4996 23.1175 98.0577 23.1438 98.2319 22.9676C98.3132 22.8853 98.3496 22.3789 98.3496 21.3303V19.8121H99.036H99.7224V21.4494V23.0867H100.164H100.605V21.1517V19.2167L99.1095 19.2246C98.287 19.2288 97.559 19.2549 97.4915 19.2824ZM105.475 19.2829C105.439 19.3192 105.407 19.6207 105.404 19.9527C105.397 20.5811 105.215 21.6307 105.09 21.7569C105.05 21.797 105.018 21.8925 105.018 21.9692C105.018 22.1337 104.782 22.3921 104.633 22.3921C104.566 22.3921 104.528 22.7037 104.528 23.2415V24.091L104.895 24.0601C105.259 24.0297 105.263 24.0248 105.293 23.558L105.323 23.0867H106.396H107.469V23.4638C107.469 23.9731 107.606 24.079 108.265 24.079C109.067 24.079 109.136 24.0346 109.136 23.5226V23.0867H110.166H111.196V23.5313C111.196 23.919 111.226 23.9837 111.433 24.0363C111.968 24.1721 112.027 24.0936 112.058 23.2096C112.085 22.4434 112.074 22.3921 111.886 22.3921C111.693 22.3921 111.686 22.336 111.686 20.8646C111.686 19.5633 111.663 19.3282 111.531 19.2769C111.446 19.2438 110.872 19.2167 110.256 19.2167H109.136V20.0283C109.136 20.8032 109.098 21.0046 108.765 21.9703C108.633 22.3538 108.59 22.3921 108.29 22.3921H107.96V20.8646C107.96 19.5633 107.937 19.3282 107.805 19.2769C107.594 19.195 105.557 19.2001 105.475 19.2829ZM42.9442 21.1021V22.3921H42.2543C41.6026 22.3921 41.57 22.3815 41.6659 22.2002C41.7217 22.0946 41.7674 21.8962 41.7674 21.7595C41.7674 21.6226 41.8115 21.4831 41.8655 21.4494C41.9194 21.4157 41.9635 21.0871 41.9635 20.7192C41.9635 19.9447 42.0524 19.8121 42.5715 19.8121H42.9442V21.1021ZM46.8937 20.1815C46.9949 20.3574 47.0497 20.5471 47.0154 20.6033C46.9812 20.6593 46.6028 20.7052 46.1744 20.7052C45.4276 20.7052 45.3957 20.6958 45.3957 20.4772C45.3957 20.3519 45.4729 20.1502 45.5673 20.0289C45.7098 19.8459 45.8214 19.8131 46.2244 19.8351C46.6553 19.8587 46.7303 19.8975 46.8937 20.1815ZM62.9875 19.9691C63.0202 20.0554 63.047 20.2527 63.047 20.4075C63.047 20.9145 62.9636 21.0029 62.4841 21.0029C61.7684 21.0029 61.4322 20.4448 61.8888 20.0144C62.1589 19.7598 62.8966 19.7293 62.9875 19.9691ZM71.9244 20.0354C72.0859 20.2218 72.1178 20.4044 72.1178 21.1435C72.1178 21.7631 72.081 22.0406 71.9952 22.0696C71.9279 22.0923 71.8726 22.1742 71.8726 22.2515C71.8726 22.4327 71.0272 22.4465 70.8594 22.268C70.3651 21.7428 70.371 20.5655 70.8707 19.9857C71.0921 19.729 71.6832 19.7569 71.9244 20.0354ZM79.462 19.9691C79.66 20.4911 79.3061 20.8355 78.6225 20.7856L78.1977 20.7548L78.1678 20.2834L78.1379 19.8121H78.7702C79.2563 19.8121 79.4162 19.8484 79.462 19.9691ZM83.2358 20.0671C83.6205 20.5621 83.6017 21.8498 83.2039 22.2524C83.0329 22.4254 82.2948 22.4362 82.1366 22.268C81.6423 21.7428 81.6482 20.5655 82.1479 19.9857C82.3859 19.7097 82.9932 19.7551 83.2358 20.0671ZM86.9547 19.9312C87.1419 20.1206 87.0915 20.4819 86.8544 20.6499C86.731 20.7374 86.4333 20.8044 86.1679 20.8044H85.6995V20.3082V19.8121H86.2682C86.5811 19.8121 86.89 19.8657 86.9547 19.9312ZM94.4271 20.4075V21.0029H93.9991C93.6676 21.0029 93.513 20.944 93.3127 20.7413C93.1705 20.5974 93.0542 20.4472 93.0542 20.4075C93.0542 20.3678 93.1705 20.2175 93.3127 20.0737C93.513 19.8709 93.6676 19.8121 93.9991 19.8121H94.4271V20.4075ZM103.309 20.0585C103.725 20.5131 103.742 21.6177 103.341 22.134C103.185 22.3351 103.054 22.3921 102.748 22.3921C102.264 22.3921 102.093 22.2283 101.931 21.608C101.786 21.0485 101.909 20.3621 102.217 20.0178C102.481 19.7221 103.019 19.742 103.309 20.0585ZM106.959 19.9312C107.038 20.0104 107.077 20.4428 107.077 21.2212V22.3921H106.391C105.777 22.3921 105.704 22.3717 105.704 22.1995C105.704 22.0935 105.744 21.9822 105.792 21.952C105.884 21.8941 105.962 21.4562 106.06 20.4323L106.119 19.8121H106.481C106.679 19.8121 106.895 19.8657 106.959 19.9312ZM110.757 20.0354C110.787 20.1582 110.799 20.7275 110.783 21.3005L110.754 22.3425L110.08 22.3721C109.464 22.3991 109.412 22.3863 109.477 22.2233C109.516 22.125 109.572 21.8763 109.601 21.6703C109.63 21.4643 109.691 21.2719 109.738 21.2427C109.785 21.2135 109.823 20.8797 109.823 20.5008V19.8121H110.262C110.636 19.8121 110.71 19.8453 110.757 20.0354ZM114.656 20.1269C114.989 20.5802 114.839 20.7052 113.961 20.7052C113.537 20.7052 113.163 20.678 113.13 20.6448C113.067 20.5806 113.212 20.2749 113.446 19.9811C113.672 19.6974 114.405 19.7857 114.656 20.1269ZM118.348 20.1003C118.508 20.3274 118.55 20.5397 118.55 21.1021C118.55 22.0338 118.333 22.3921 117.766 22.3921C117.199 22.3921 116.981 22.0338 116.981 21.1021C116.981 20.1704 117.199 19.8121 117.766 19.8121C118.072 19.8121 118.184 19.8673 118.348 20.1003ZM39.4139 21.4508C39.4139 22.034 39.0371 22.3846 38.4056 22.3889C38.0132 22.3916 37.9238 22.3571 37.8583 22.1778C37.6484 21.6036 38.0709 21.2082 38.8991 21.204C39.3843 21.2015 39.4139 21.2157 39.4139 21.4508ZM59.4764 21.6147C59.3905 22.1588 59.1164 22.3921 58.5632 22.3921C58.1014 22.3921 57.8476 22.2263 57.8528 21.9278C57.8602 21.4991 58.3184 21.2148 59.0145 21.2072L59.5419 21.2013L59.4764 21.6147ZM75.7951 21.5486C75.7951 21.7396 75.751 21.8959 75.6971 21.8959C75.6432 21.8959 75.599 21.9613 75.599 22.0413C75.599 22.2465 75.2843 22.3921 74.8406 22.3921C74.3905 22.3921 74.2261 22.2536 74.2261 21.8746C74.2261 21.4931 74.7031 21.2022 75.3294 21.2017L75.7951 21.2013V21.5486ZM90.9625 21.5628C90.8749 22.1092 90.56 22.3921 90.0391 22.3921C89.2926 22.3921 89.0873 21.9037 89.6465 21.4577C89.8982 21.2569 90.076 21.2033 90.4929 21.2024L91.0206 21.2013L90.9625 21.5628ZM130.858 21.5238C130.739 22.1194 130.503 22.339 129.946 22.3722C129.52 22.3977 129.431 22.371 129.335 22.1893C129.051 21.6513 129.526 21.2119 130.399 21.2053L130.922 21.2013L130.858 21.5238ZM79.5383 21.564C79.6369 21.6543 79.7177 21.8138 79.7177 21.9184C79.7177 22.2618 79.4586 22.4063 78.8101 22.4245L78.1977 22.4417L78.1681 21.9207L78.1384 21.3998H78.7487C79.179 21.3998 79.4119 21.4482 79.5383 21.564ZM87.1283 21.5416C87.2054 21.6195 87.2685 21.7789 87.2685 21.8959C87.2685 22.262 87.0214 22.406 86.3609 22.4245L85.7485 22.4417L85.7189 21.9207L85.6892 21.3998H86.3387C86.7709 21.3998 87.0352 21.4472 87.1283 21.5416Z" fill="#333333"/>
</svg>
