<svg width="121" height="120" viewBox="0 0 121 120" fill="none" xmlns="http://www.w3.org/2000/svg">
<rect x="8" y="7.5" width="105" height="105" rx="52.5" fill="#E7F0FF"/>
<path d="M66.5 45C66.5 44.4477 66.9477 44 67.5 44H68.5C69.0523 44 69.5 44.4477 69.5 45V46C69.5 46.5523 69.0523 47 68.5 47H67.5C66.9477 47 66.5 46.5523 66.5 46V45Z" fill="#333333"/>
<path d="M72.5 44C71.9477 44 71.5 44.4477 71.5 45V46C71.5 46.5523 71.9477 47 72.5 47H73.5C74.0523 47 74.5 46.5523 74.5 46V45C74.5 44.4477 74.0523 44 73.5 44H72.5Z" fill="#333333"/>
<path d="M77.5 44C76.9477 44 76.5 44.4477 76.5 45V46C76.5 46.5523 76.9477 47 77.5 47H78.5C79.0523 47 79.5 46.5523 79.5 46V45C79.5 44.4477 79.0523 44 78.5 44H77.5Z" fill="#333333"/>
<path fill-rule="evenodd" clip-rule="evenodd" d="M37.5 43C37.5 41.3431 38.8431 40 40.5 40H80.5C82.1569 40 83.5 41.3431 83.5 43V77C83.5 78.6569 82.1569 80 80.5 80H40.5C38.8431 80 37.5 78.6569 37.5 77V43ZM39.5 51H81.5V77C81.5 77.5523 81.0523 78 80.5 78H40.5C39.9477 78 39.5 77.5523 39.5 77V51ZM81.5 43V49H39.5V43C39.5 42.4477 39.9477 42 40.5 42H80.5C81.0523 42 81.5 42.4477 81.5 43Z" fill="#333333"/>
<path d="M54.699 55.0853L51.7274 58.0569L57.6706 64L51.7274 69.9431L54.699 72.9147L60.6422 66.9716L66.5853 72.9147L69.5569 69.9431L63.6137 64L69.5569 58.0569L66.5853 55.0853L60.6422 61.0284L54.699 55.0853Z" stroke="#0077FF" stroke-width="2" stroke-linejoin="round"/>
<rect x="8" y="7.5" width="105" height="105" rx="52.5" stroke="#F2F7FF" stroke-width="15"/>
</svg>
