<svg width="121" height="120" viewBox="0 0 121 120" fill="none" xmlns="http://www.w3.org/2000/svg">
<rect x="8" y="7.5" width="105" height="105" rx="52.5" fill="#E7F0FF"/>
<path fill-rule="evenodd" clip-rule="evenodd" d="M40.5 66C40.5 54.9543 49.4543 46 60.5 46C71.5457 46 80.5 54.9543 80.5 66C80.5 68.4643 80.0548 70.8225 79.2411 73H41.7589C40.9452 70.8225 40.5 68.4643 40.5 66ZM60.5 44C48.3497 44 38.5 53.8497 38.5 66C38.5 68.9657 39.0874 71.7967 40.1531 74.3812C40.3075 74.7557 40.6725 75 41.0776 75H79.9224C80.3275 75 80.6925 74.7557 80.8469 74.3812C81.9126 71.7967 82.5 68.9657 82.5 66C82.5 53.8497 72.6503 44 60.5 44ZM45.4438 61.2014C44.9604 61.1591 44.5165 61.47 44.3909 61.9387C44.2653 62.4074 44.4943 62.8987 44.934 63.1038L59.1968 69.7571C61.3254 70.75 63.8344 69.5802 64.4423 67.3115C65.0502 65.0428 63.4622 62.7752 61.1224 62.5709L45.4438 61.2014ZM60.0423 67.9446L50.9149 63.6869L60.9484 64.5633C62.0493 64.6594 62.7965 65.7264 62.5105 66.7939C62.2244 67.8614 61.0439 68.4118 60.0423 67.9446Z" fill="#333333"/>
<path d="M71.5 66H76.5C76.5 57.1634 69.3366 50 60.5 50C55.9879 50 51.912 51.8677 49.0033 54.8723C51.3595 53.0704 54.3048 52 57.5 52C65.232 52 71.5 58.268 71.5 66Z" fill="#0077FF"/>
<rect x="8" y="7.5" width="105" height="105" rx="52.5" stroke="#F2F7FF" stroke-width="15"/>
</svg>
