<svg width="16" height="16" viewBox="0 0 16 16" fill="none" xmlns="http://www.w3.org/2000/svg">
<path d="M14.4453 1.04883C15.0605 1.19531 15.5 1.75195 15.5 2.36719C15.5 9.57422 9.64062 15.375 2.46289 15.375C1.84766 15.375 1.29102 14.9648 1.14453 14.3496L0.529297 11.5957C0.382812 10.9512 0.705078 10.3066 1.29102 10.043L4.2793 8.7832C4.80664 8.54883 5.45117 8.69531 5.83203 9.16406L6.79883 10.3359C8.32227 9.48633 9.61133 8.22656 10.4316 6.70312L9.25977 5.73633C8.79102 5.35547 8.64453 4.71094 8.87891 4.18359L10.168 1.19531C10.4023 0.609375 11.0469 0.287109 11.6914 0.433594L14.4453 1.04883ZM2.52148 13.9688C8.87891 13.9395 14.0645 8.7832 14.0938 2.42578L11.4277 1.81055L10.1973 4.68164L12.1895 6.32227C10.8125 9.22266 9.31836 10.7168 6.41797 12.0938L4.77734 10.1016L1.90625 11.332L2.52148 13.9688Z" fill="#0077FF"/>
</svg>
