<svg width="50" height="50" viewBox="0 0 50 50" fill="none" xmlns="http://www.w3.org/2000/svg">
<rect width="50" height="50" rx="10" fill="#11151D"/>
<path fill-rule="evenodd" clip-rule="evenodd" d="M21 4C20.4477 4 20 4.44772 20 5C20 5.55228 20.4477 6 21 6H29C29.5523 6 30 5.55228 30 5C30 4.44772 29.5523 4 29 4H21ZM25 44C34.3888 44 42 36.3888 42 27C42 17.6112 34.3888 10 25 10C15.6112 10 8 17.6112 8 27C8 36.3888 15.6112 44 25 44ZM25 46C35.4934 46 44 37.4934 44 27C44 16.5066 35.4934 8 25 8C14.5066 8 6 16.5066 6 27C6 37.4934 14.5066 46 25 46ZM25.8817 22.0784C24.8312 21.8902 23.748 22.043 22.7906 22.5146C21.8332 22.9862 21.0518 23.7518 20.5608 24.6993C20.0697 25.6469 19.8947 26.7267 20.0613 27.7808C20.228 28.835 20.7276 29.8081 21.487 30.558C22.2465 31.3078 23.2259 31.795 24.2821 31.9482C25.3383 32.1014 26.4158 31.9127 27.357 31.4096C28.2982 30.9065 29.0538 30.1154 29.5131 29.1521C29.9725 28.1888 30.1116 27.1038 29.91 26.0557C29.8057 25.5134 30.1608 24.9892 30.7032 24.8849C31.2455 24.7806 31.7697 25.1357 31.874 25.678C32.1562 27.1453 31.9615 28.6643 31.3184 30.013C30.6753 31.3616 29.6175 32.4691 28.2998 33.1734C26.9821 33.8778 25.4736 34.142 23.9949 33.9275C22.5163 33.7129 21.1451 33.0309 20.0819 31.9812C19.0186 30.9314 18.3192 29.569 18.0859 28.0932C17.8526 26.6174 18.0976 25.1056 18.7851 23.779C19.4726 22.4525 20.5665 21.3807 21.9068 20.7205C23.2472 20.0603 24.7636 19.8462 26.2344 20.1097C26.778 20.2071 27.1397 20.7267 27.0423 21.2704C26.945 21.814 26.4253 22.1757 25.8817 22.0784Z" fill="white"/>
<rect x="34.2896" y="16.1959" width="2" height="15.1462" rx="1" transform="rotate(45 34.2896 16.1959)" fill="#0077FF"/>
</svg>
