<svg width="80" height="80" viewBox="0 0 80 80" fill="none" xmlns="http://www.w3.org/2000/svg">
<rect width="80" height="80" rx="40" fill="#FFE7DF"/>
<path d="M46.1875 50.0625C46.1875 52.6992 44.0781 54.75 41.5 54.75C38.8633 54.75 36.8125 52.6992 36.8125 50.0625C36.8125 47.4844 38.8633 45.375 41.5 45.375C44.0781 45.375 46.1875 47.4844 46.1875 50.0625ZM37.3398 26.2734C37.2812 25.4531 37.9258 24.75 38.7461 24.75H44.1953C45.0156 24.75 45.6602 25.4531 45.6016 26.2734L44.8398 42.2109C44.7812 42.9141 44.1367 43.5 43.4336 43.5H39.5078C38.8047 43.5 38.1602 42.9141 38.1016 42.2109L37.3398 26.2734Z" fill="#F63E04"/>
</svg>
